<svg width="24" height="24" viewBox="0 0 24 24" fill="none" xmlns="http://www.w3.org/2000/svg">
<mask id="mask0_9564_3905" style="mask-type:alpha" maskUnits="userSpaceOnUse" x="0" y="0" width="24" height="24">
<rect width="24" height="24" fill="#D9D9D9"/>
</mask>
<g mask="url(#mask0_9564_3905)">
<path d="M9.58384 17L13.9735 21.3897C14.172 21.5881 14.2698 21.8203 14.2672 22.086C14.2647 22.3518 14.1668 22.5881 13.9735 22.795C13.7668 23.0017 13.5293 23.1085 13.2608 23.1154C12.9924 23.1223 12.7548 23.0223 12.5482 22.8154L6.57618 16.8437C6.33529 16.6026 6.21484 16.3214 6.21484 16C6.21484 15.6787 6.33529 15.3975 6.57618 15.1564L12.5482 9.1847C12.7464 8.98648 12.9818 8.88859 13.2545 8.89104C13.5272 8.8937 13.7668 8.99837 13.9735 9.20504C14.1668 9.41193 14.2668 9.64615 14.2735 9.9077C14.2804 10.1693 14.1804 10.4035 13.9735 10.6104L9.58384 15H25.2712C25.555 15 25.7925 15.0958 25.9838 15.2874C26.1754 15.4787 26.2712 15.7163 26.2712 16C26.2712 16.2838 26.1754 16.5214 25.9838 16.7127C25.7925 16.9043 25.555 17 25.2712 17H9.58384Z" fill="#2E2E2E"/>
</g>
</svg>
