<svg width="20" height="20" viewBox="0 0 20 20" fill="none" xmlns="http://www.w3.org/2000/svg">
<path d="M10.4917 10.8334L8.57501 12.7417C8.49692 12.8192 8.43492 12.9114 8.39259 13.0129C8.35026 13.1145 8.3285 13.2234 8.3285 13.3334C8.3285 13.4434 8.35026 13.5523 8.39259 13.6539C8.43492 13.7554 8.49692 13.8475 8.57501 13.925C8.6525 14.0031 8.74467 14.0651 8.84617 14.1075C8.94776 14.1498 9.05667 14.1715 9.16667 14.1715C9.27667 14.1715 9.38559 14.1498 9.48717 14.1075C9.58867 14.0651 9.68084 14.0031 9.75834 13.925L13.0917 10.5917C13.1675 10.5125 13.227 10.419 13.2667 10.3167C13.35 10.1138 13.35 9.88628 13.2667 9.68337C13.227 9.58112 13.1675 9.48762 13.0917 9.40837L9.75834 6.07504C9.68067 5.99734 9.58842 5.93571 9.48684 5.89366C9.38534 5.85161 9.27659 5.82997 9.16667 5.82997C9.05676 5.82997 8.948 5.85161 8.8465 5.89366C8.74492 5.93571 8.65267 5.99734 8.57501 6.07504C8.49734 6.15274 8.43567 6.24498 8.39359 6.3465C8.35159 6.44802 8.32993 6.55683 8.32993 6.66671C8.32993 6.77659 8.35159 6.8854 8.39359 6.98692C8.43567 7.08843 8.49734 7.18068 8.57501 7.25838L10.4917 9.1667H2.50001C2.27899 9.1667 2.06703 9.25453 1.91075 9.41078C1.75447 9.56703 1.66667 9.77903 1.66667 10C1.66667 10.221 1.75447 10.433 1.91075 10.5893C2.06703 10.7456 2.27899 10.8334 2.50001 10.8334H10.4917ZM10 1.66671C8.44259 1.65975 6.91437 2.08938 5.58873 2.90687C4.26308 3.72435 3.19305 4.89697 2.50001 6.29171C2.40055 6.49062 2.38418 6.72089 2.45451 6.93188C2.52484 7.14285 2.6761 7.31725 2.87501 7.41671C3.07391 7.51617 3.30419 7.53253 3.51517 7.4622C3.72615 7.39188 3.90055 7.24062 4.00001 7.04171C4.52683 5.97781 5.3282 5.07389 6.3213 4.42337C7.3144 3.77283 8.46317 3.39931 9.649 3.34137C10.8348 3.28343 12.0145 3.54318 13.0663 4.0938C14.1181 4.64441 15.0038 5.4659 15.6318 6.47337C16.2598 7.48084 16.6074 8.63778 16.6387 9.82453C16.6699 11.0113 16.3838 12.185 15.8096 13.224C15.2355 14.2632 14.3943 15.1302 13.3729 15.7354C12.3516 16.3406 11.1872 16.6621 10 16.6667C8.75742 16.6721 7.53846 16.327 6.48308 15.6711C5.4277 15.0151 4.57863 14.075 4.03334 12.9584C3.93388 12.7595 3.75948 12.6082 3.54851 12.5379C3.33752 12.4675 3.10725 12.484 2.90834 12.5834C2.70943 12.6829 2.55817 12.8572 2.48785 13.0682C2.41751 13.2792 2.43388 13.5095 2.53334 13.7084C3.19403 15.038 4.19794 16.1669 5.44123 16.9784C6.68452 17.7899 8.12205 18.2545 9.60509 18.3242C11.0882 18.3939 12.5629 18.066 13.8768 17.3746C15.1907 16.6832 16.296 15.6534 17.0784 14.3915C17.8608 13.1298 18.2919 11.6818 18.3271 10.1975C18.3623 8.71328 18.0003 7.24653 17.2785 5.94907C16.5568 4.6516 15.5015 3.57051 14.2219 2.81763C12.9423 2.06474 11.4847 1.6674 10 1.66671Z" fill="white"/>
<path d="M10.4917 10.8334L8.57501 12.7417C8.49692 12.8192 8.43492 12.9114 8.39259 13.0129C8.35026 13.1145 8.3285 13.2234 8.3285 13.3334C8.3285 13.4434 8.35026 13.5523 8.39259 13.6539C8.43492 13.7554 8.49692 13.8475 8.57501 13.925C8.6525 14.0031 8.74467 14.0651 8.84617 14.1075C8.94776 14.1498 9.05667 14.1715 9.16667 14.1715C9.27667 14.1715 9.38559 14.1498 9.48717 14.1075C9.58867 14.0651 9.68084 14.0031 9.75834 13.925L13.0917 10.5917C13.1675 10.5125 13.227 10.419 13.2667 10.3167C13.35 10.1138 13.35 9.88628 13.2667 9.68337C13.227 9.58112 13.1675 9.48762 13.0917 9.40837L9.75834 6.07504C9.68067 5.99734 9.58842 5.93571 9.48684 5.89366C9.38534 5.85161 9.27659 5.82997 9.16667 5.82997C9.05676 5.82997 8.948 5.85161 8.8465 5.89366C8.74492 5.93571 8.65267 5.99734 8.57501 6.07504C8.49734 6.15274 8.43567 6.24498 8.39359 6.3465C8.35159 6.44802 8.32993 6.55683 8.32993 6.66671C8.32993 6.77659 8.35159 6.8854 8.39359 6.98692C8.43567 7.08843 8.49734 7.18068 8.57501 7.25838L10.4917 9.1667H2.50001C2.27899 9.1667 2.06703 9.25453 1.91075 9.41078C1.75447 9.56703 1.66667 9.77903 1.66667 10C1.66667 10.221 1.75447 10.433 1.91075 10.5893C2.06703 10.7456 2.27899 10.8334 2.50001 10.8334H10.4917ZM10 1.66671C8.44259 1.65975 6.91437 2.08938 5.58873 2.90687C4.26308 3.72435 3.19305 4.89697 2.50001 6.29171C2.40055 6.49062 2.38418 6.72089 2.45451 6.93188C2.52484 7.14285 2.6761 7.31725 2.87501 7.41671C3.07391 7.51617 3.30419 7.53253 3.51517 7.4622C3.72615 7.39188 3.90055 7.24062 4.00001 7.04171C4.52683 5.97781 5.3282 5.07389 6.3213 4.42337C7.3144 3.77283 8.46317 3.39931 9.649 3.34137C10.8348 3.28343 12.0145 3.54318 13.0663 4.0938C14.1181 4.64441 15.0038 5.4659 15.6318 6.47337C16.2598 7.48084 16.6074 8.63778 16.6387 9.82453C16.6699 11.0113 16.3838 12.185 15.8096 13.224C15.2355 14.2632 14.3943 15.1302 13.3729 15.7354C12.3516 16.3406 11.1872 16.6621 10 16.6667C8.75742 16.6721 7.53846 16.327 6.48308 15.6711C5.4277 15.0151 4.57863 14.075 4.03334 12.9584C3.93388 12.7595 3.75948 12.6082 3.54851 12.5379C3.33752 12.4675 3.10725 12.484 2.90834 12.5834C2.70943 12.6829 2.55817 12.8572 2.48785 13.0682C2.41751 13.2792 2.43388 13.5095 2.53334 13.7084C3.19403 15.038 4.19794 16.1669 5.44123 16.9784C6.68452 17.7899 8.12205 18.2545 9.60509 18.3242C11.0882 18.3939 12.5629 18.066 13.8768 17.3746C15.1907 16.6832 16.296 15.6534 17.0784 14.3915C17.8608 13.1298 18.2919 11.6818 18.3271 10.1975C18.3623 8.71328 18.0003 7.24653 17.2785 5.94907C16.5568 4.6516 15.5015 3.57051 14.2219 2.81763C12.9423 2.06474 11.4847 1.6674 10 1.66671Z" fill="white"/>
</svg>
