<svg width="20" height="20" viewBox="0 0 20 20" fill="none" xmlns="http://www.w3.org/2000/svg">
<g clip-path="url(#clip0_9536_2992)">
<path d="M16.6672 1.66663H7.77832V4.4444H8.88943V2.77774H16.6672C17.0005 2.77774 17.2228 2.99996 17.2228 3.33329V9.4444C17.2228 9.77774 17.0005 9.99996 16.6672 9.99996H9.44498V13.8888H6.50054L4.44498 15.5V13.8888H2.77832C2.44498 13.8888 2.22276 13.6666 2.22276 13.3333V7.22218C2.22276 6.88885 2.44498 6.66663 2.77832 6.66663H10.0005V5.55552H2.77832C1.83387 5.55552 1.11165 6.27774 1.11165 7.22218V13.3333C1.11165 14.2777 1.83387 15 2.77832 15H3.33387V17.8333L6.83387 15H10.5561V11.1111H16.6672C17.6116 11.1111 18.3339 10.3888 18.3339 9.4444V3.33329C18.3339 2.38885 17.6116 1.66663 16.6672 1.66663Z" fill="white"/>
<path d="M3.44402 12.7222H4.77735L5.11068 11.8333H6.8329L7.16624 12.7222H8.49957L6.61068 7.77771H5.27735L3.44402 12.7222ZM5.94402 9.1666L6.49957 10.8888H5.38846L5.94402 9.1666Z" fill="white"/>
<path d="M11.1116 9.44449C11.7228 9.44449 12.5561 9.27782 13.3339 8.88893C14.1116 9.27782 15.0005 9.44449 15.5561 9.44449V8.33337C15.5561 8.33337 15.0005 8.33337 14.3894 8.11115C15.0561 7.44449 15.5561 6.44449 15.5561 5.00004V4.44449H13.8894V3.33337H12.7783V4.44449H11.1116V5.5556H14.3894C14.2783 6.5556 13.8339 7.16671 13.3339 7.5556C13.0005 7.27782 12.6672 6.88893 12.445 6.38893H11.2783C11.5005 7.11115 11.8339 7.66671 12.2783 8.11115C11.7228 8.33337 11.2228 8.33337 11.1116 8.33337V9.44449Z" fill="white"/>
</g>
<defs>
<clipPath id="clip0_9536_2992">
<rect width="20" height="20" fill="white"/>
</clipPath>
</defs>
</svg>
