<svg width="18" height="18" viewBox="0 0 18 18" fill="none" xmlns="http://www.w3.org/2000/svg">
<path d="M7.21875 7.8125H13.1562M7.21875 10.1875H13.1562M2.46875 14.3438C2.78369 14.3438 3.08574 14.2186 3.30844 13.9959C3.53114 13.7732 3.65625 13.4712 3.65625 13.1562V4.25C3.65625 4.09253 3.71881 3.94151 3.83016 3.83016C3.94151 3.71881 4.09253 3.65625 4.25 3.65625H16.125C16.2825 3.65625 16.4335 3.71881 16.5448 3.83016C16.6562 3.94151 16.7188 4.09253 16.7188 4.25V13.1562C16.7188 13.4712 16.5936 13.7732 16.3709 13.9959C16.1482 14.2186 15.8462 14.3438 15.5312 14.3438H2.46875ZM2.46875 14.3438C2.15381 14.3438 1.85176 14.2186 1.62906 13.9959C1.40636 13.7732 1.28125 13.4712 1.28125 13.1562V6.03125" stroke="#585858" stroke-width="1.25" stroke-linecap="round" stroke-linejoin="round"/>
</svg>
