<svg width="19" height="18" viewBox="0 0 19 19" fill="none" xmlns="http://www.w3.org/2000/svg">
<path d="M17.3774 10.7065C16.9883 12.537 15.9368 14.1594 14.4248 15.2621C12.9128 16.3649 11.0468 16.8704 9.18496 16.6817C7.32305 16.4929 5.59647 15.6232 4.33656 14.2394C3.07664 12.8556 2.37216 11.0553 2.3583 9.1839L3.24484 9.17737C3.25707 10.8302 3.87929 12.4203 4.9921 13.6425C6.1049 14.8647 7.62988 15.6329 9.27433 15.7996C10.9188 15.9663 12.567 15.5198 13.9024 14.5458C15.2378 13.5719 16.1666 12.139 16.5103 10.5222L17.3774 10.7065Z" fill="white"/>
<path d="M17.5435 9.12771C17.5435 7.25467 16.8512 5.44773 15.5995 4.05424C14.3479 2.66074 12.6255 1.77905 10.7632 1.57864C8.90089 1.37823 7.03026 1.87325 5.51085 2.96855C3.99145 4.06384 2.93051 5.6821 2.53199 7.51226L3.39825 7.70088C3.75023 6.08443 4.68729 4.65513 6.02928 3.68772C7.37128 2.72032 9.02351 2.2831 10.6683 2.4601C12.3132 2.63711 13.8345 3.41586 14.9399 4.64664C16.0454 5.87742 16.6569 7.47338 16.6569 9.12771H17.5435Z" fill="white"/>
<path fill-rule="evenodd" clip-rule="evenodd" d="M2.73778 8.21119L4.52475 9.99816L3.98787 10.535L2.73778 9.28495L1.48769 10.535L0.950806 9.99816L2.73778 8.21119Z" fill="white"/>
<path fill-rule="evenodd" clip-rule="evenodd" d="M15.3769 7.87759L15.9137 7.3407L17.1638 8.59079L18.4139 7.3407L18.9508 7.87759L17.1638 9.66456L15.3769 7.87759Z" fill="white"/>
<path fill-rule="evenodd" clip-rule="evenodd" d="M10.0378 10.5904C10.8181 10.5904 11.4508 9.95775 11.4508 9.17737C11.4508 8.397 10.8181 7.76439 10.0378 7.76439C9.25739 7.76439 8.62478 8.397 8.62478 9.17737C8.62478 9.95775 9.25739 10.5904 10.0378 10.5904ZM10.0378 11.1338C11.1183 11.1338 11.9942 10.2579 11.9942 9.17737C11.9942 8.09686 11.1183 7.22093 10.0378 7.22093C8.95725 7.22093 8.08132 8.09686 8.08132 9.17737C8.08132 10.2579 8.95725 11.1338 10.0378 11.1338Z" fill="white"/>
<path fill-rule="evenodd" clip-rule="evenodd" d="M9.64701 5.05886C9.42063 6.06105 8.27056 6.53743 7.40184 5.98885C7.04085 5.76089 6.62128 6.18047 6.84923 6.54145C7.39781 7.41018 6.92144 8.56024 5.91925 8.78662C5.50281 8.88069 5.50281 9.47405 5.91925 9.56812C6.92144 9.7945 7.39781 10.9446 6.84923 11.8133C6.62128 12.1743 7.04085 12.5938 7.40184 12.3659C8.27056 11.8173 9.42063 12.2937 9.64701 13.2959C9.74108 13.7123 10.3344 13.7123 10.4285 13.2959C10.6549 12.2937 11.805 11.8173 12.6737 12.3659C13.0347 12.5939 13.4542 12.1743 13.2263 11.8133C12.6777 10.9446 13.1541 9.7945 14.1563 9.56812C14.5727 9.47405 14.5727 8.88069 14.1563 8.78662C13.1541 8.56024 12.6777 7.41018 13.2263 6.54145C13.4542 6.18047 13.0347 5.76089 12.6737 5.98885C11.805 6.53743 10.6549 6.06105 10.4285 5.05886C10.3344 4.64242 9.74108 4.64242 9.64701 5.05886ZM10.9586 4.93912C10.7369 3.95773 9.33859 3.95773 9.11691 4.93912C8.97324 5.57516 8.24335 5.8775 7.692 5.52934C6.8413 4.99214 5.85253 5.98091 6.38973 6.83162C6.73788 7.38296 6.43555 8.11285 5.79951 8.25652C4.81812 8.4782 4.81812 9.87654 5.79951 10.0982C6.43555 10.2419 6.73788 10.9718 6.38973 11.5231C5.85253 12.3738 6.8413 13.3626 7.692 12.8254C8.24335 12.4772 8.97324 12.7796 9.11691 13.4156C9.33859 14.397 10.7369 14.397 10.9586 13.4156C11.1023 12.7796 11.8322 12.4772 12.3835 12.8254C13.2342 13.3626 14.223 12.3738 13.6858 11.5231C13.3376 10.9718 13.64 10.2419 14.276 10.0982C15.2574 9.87654 15.2574 8.4782 14.276 8.25652C13.64 8.11285 13.3376 7.38296 13.6858 6.83162C14.223 5.98091 13.2342 4.99214 12.3835 5.52934C11.8322 5.8775 11.1023 5.57516 10.9586 4.93912Z" fill="white"/>
</svg>
