<svg width="18" height="18" viewBox="0 0 18 18" fill="none" xmlns="http://www.w3.org/2000/svg">
<path fill-rule="evenodd" clip-rule="evenodd" d="M8.99998 17.1168L9.47819 16.6992C13.4996 13.1878 15.5435 10.1219 15.5435 7.4268C15.5435 3.61021 12.5647 0.88324 8.99998 0.88324C5.43523 0.88324 2.45642 3.61021 2.45642 7.4268C2.45642 10.1219 4.50042 13.1878 8.52177 16.6992L8.99998 17.1168ZM8.99981 15.1799C5.58743 12.1045 3.91038 9.4985 3.91038 7.42693C3.91038 4.44351 6.21089 2.33749 8.99981 2.33749C11.7887 2.33749 14.0893 4.44351 14.0893 7.42693C14.0893 9.4985 12.4122 12.1045 8.99981 15.1799ZM8.99994 3.79136C11.0077 3.79136 12.6353 5.41895 12.6353 7.42667C12.6353 9.4344 11.0077 11.062 8.99994 11.062C6.99221 11.062 5.36463 9.4344 5.36463 7.42667C5.36463 5.41895 6.99221 3.79136 8.99994 3.79136ZM6.81869 7.4268C6.81869 6.22217 7.79524 5.24562 8.99988 5.24562C10.2045 5.24562 11.1811 6.22217 11.1811 7.4268C11.1811 8.63144 10.2045 9.60799 8.99988 9.60799C7.79524 9.60799 6.81869 8.63144 6.81869 7.4268Z" fill="#585858"/>
</svg>
