<svg width="18" height="18" viewBox="0 0 18 18" fill="none" xmlns="http://www.w3.org/2000/svg">
<path fill-rule="evenodd" clip-rule="evenodd" d="M9.00002 16.3541C4.93847 16.3541 1.64594 13.0615 1.64594 8.99999C1.64594 4.93844 4.93847 1.6459 9.00002 1.6459C13.0616 1.6459 16.3541 4.93844 16.3541 8.99999C16.3541 13.0615 13.0616 16.3541 9.00002 16.3541ZM13.9469 12.4262C14.6216 11.4539 15.0169 10.2732 15.0169 9.00013C15.0169 5.67704 12.323 2.98315 8.99995 2.98315C5.67687 2.98315 2.98297 5.67704 2.98297 9.00013C2.98297 10.2732 3.37835 11.454 4.05302 12.4263C4.80543 11.4324 6.57352 11.0058 8.99999 11.0058C11.4264 11.0058 13.1945 11.4324 13.9469 12.4262ZM12.9877 13.506C12.792 12.8024 11.3863 12.3429 8.99999 12.3429C6.61364 12.3429 5.20792 12.8024 5.01228 13.506C6.07392 14.4463 7.47028 15.0171 8.99995 15.0171C10.5297 15.0171 11.926 14.4463 12.9877 13.506ZM9.00009 4.98881C7.38159 4.98881 6.32588 6.16263 6.32588 7.66302C6.32588 9.9544 7.50311 11.0058 9.00009 11.0058C10.483 11.0058 11.6743 9.98933 11.6743 7.79673C11.6743 6.27349 10.6141 4.98881 9.00009 4.98881ZM7.66291 7.66275C7.66291 9.17987 8.20993 9.66841 9.00002 9.66841C9.78738 9.66841 10.3371 9.19934 10.3371 7.79646C10.3371 6.96104 9.81275 6.32564 9.00002 6.32564C8.15346 6.32564 7.66291 6.87106 7.66291 7.66275Z" fill="white"/>
</svg>
