<svg width="18" height="18" viewBox="0 0 18 18" fill="none" xmlns="http://www.w3.org/2000/svg">
<path fill-rule="evenodd" clip-rule="evenodd" d="M4.59187 2.07291H11.1501L14.6676 5.59047V14.6676C14.6676 15.3632 14.1037 15.9271 13.4082 15.9271H4.59187C3.89628 15.9271 3.3324 15.3632 3.3324 14.6676V3.33238C3.3324 2.63679 3.89628 2.07291 4.59187 2.07291ZM9.62971 3.33256H4.59175V14.6678H13.408V7.11066H10.8892C10.1936 7.11066 9.62971 6.54678 9.62971 5.85119V3.33256ZM10.8892 3.59349V5.85119H13.1469L10.8892 3.59349ZM6.48101 12.1487V10.8892H10.2594V12.1487H6.48101ZM6.48101 8.37031V9.62978H11.5189V8.37031H6.48101Z" fill="#585858"/>
</svg>
