<svg width="18" height="18" viewBox="0 0 18 18" fill="none" xmlns="http://www.w3.org/2000/svg">
<mask id="mask0_9536_7019" style="mask-type:alpha" maskUnits="userSpaceOnUse" x="0" y="0" width="18" height="18">
<rect width="18" height="18" fill="#43A0BD"/>
</mask>
<g mask="url(#mask0_9536_7019)">
<path d="M5.39998 16.2C4.89998 16.2 4.47498 16.0281 4.12498 15.6844C3.77498 15.3406 3.59998 14.925 3.59998 14.4375V4.06874C3.59998 3.64374 3.73748 3.27187 4.01248 2.95312C4.28748 2.63437 4.63748 2.43124 5.06248 2.34374L10.0687 1.29374C10.4937 1.20624 10.8719 1.29687 11.2031 1.56562C11.5344 1.83437 11.7 2.18749 11.7 2.62499V11.6062C11.7 11.9312 11.6 12.2156 11.4 12.4594C11.2 12.7031 10.9434 12.8544 10.6301 12.9133L5.34466 14.0271C5.24404 14.0507 5.1531 14.1016 5.07185 14.1797C4.9906 14.2578 4.94998 14.3437 4.94998 14.4375C4.94998 14.5625 4.99498 14.6625 5.08498 14.7375C5.17498 14.8125 5.27998 14.85 5.39998 14.85H13.05V3.82499C13.05 3.63374 13.1143 3.47343 13.2429 3.34405C13.3715 3.21468 13.5309 3.14999 13.721 3.14999C13.9112 3.14999 14.0719 3.21468 14.2031 3.34405C14.3344 3.47343 14.4 3.63374 14.4 3.82499V14.85C14.4 15.2212 14.2678 15.5391 14.0034 15.8034C13.739 16.0678 13.4212 16.2 13.05 16.2H5.39998ZM7.19998 12.2437L10.35 11.5687V2.62499L7.19998 3.28124V12.2437ZM5.84998 12.525V3.58124L5.28748 3.69374C5.18748 3.71874 5.10623 3.76368 5.04373 3.82855C4.98123 3.89343 4.94998 3.97349 4.94998 4.06874V12.75C5.01248 12.725 5.0781 12.7062 5.14685 12.6937C5.2156 12.6812 5.28123 12.6625 5.34373 12.6375L5.84998 12.525Z" fill="#E4F0F4"/>
</g>
</svg>
