<svg width="18" height="18" viewBox="0 0 18 18" fill="none" xmlns="http://www.w3.org/2000/svg">
<path fill-rule="evenodd" clip-rule="evenodd" d="M4.73639 15.3289C2.96169 13.9956 1.89575 11.9087 1.89575 9.64583C1.89575 5.72228 5.07643 2.5416 9 2.5416C12.9236 2.5416 16.1043 5.72228 16.1043 9.64583C16.1043 11.9087 15.0384 13.9956 13.2636 15.3289L13.0913 15.4584H4.90874L4.73639 15.3289ZM12.6539 14.1667C14.0072 13.072 14.8125 11.4264 14.8125 9.64583C14.8125 6.43567 12.2102 3.83326 9 3.83326C5.78981 3.83326 3.18743 6.43567 3.18743 9.64583C3.18743 11.4264 3.99279 13.072 5.34618 14.1667H12.6539ZM12.4354 6.14119L11.3772 5.40043L9.67667 7.82975C9.46602 7.75123 9.23802 7.70831 9 7.70831C7.92994 7.70831 7.06248 8.57579 7.06248 9.64583C7.06248 10.7159 7.92994 11.5833 9 11.5833C10.0701 11.5833 10.9375 10.7159 10.9375 9.64583C10.9375 9.28713 10.84 8.95113 10.6701 8.66303L12.4354 6.14119ZM9.64585 9.64588C9.64585 10.0025 9.35669 10.2917 9 10.2917C8.64332 10.2917 8.35417 10.0025 8.35417 9.64588C8.35417 9.28917 8.64332 9.00003 9 9.00003C9.35669 9.00003 9.64585 9.28917 9.64585 9.64588Z" fill="white"/>
</svg>
