<svg width="18" height="18" viewBox="0 0 18 18" fill="none" xmlns="http://www.w3.org/2000/svg">
<path d="M5.625 9.84375V12.6562C5.625 12.8054 5.68426 12.9485 5.78975 13.054C5.89524 13.1595 6.03832 13.2187 6.1875 13.2187H12.9668L15.75 15.4687V6.46875C15.75 6.31957 15.6907 6.17649 15.5852 6.071C15.4798 5.96551 15.3367 5.90625 15.1875 5.90625H12.375M5.03317 9.84375L2.25 12.0937V3.09375C2.25 2.94457 2.30926 2.80149 2.41475 2.696C2.52024 2.59051 2.66332 2.53125 2.8125 2.53125H11.8125C11.9617 2.53125 12.1048 2.59051 12.2102 2.696C12.3157 2.80149 12.375 2.94457 12.375 3.09375V9.28125C12.375 9.43043 12.3157 9.57351 12.2102 9.679C12.1048 9.78449 11.9617 9.84375 11.8125 9.84375H5.03317Z" stroke="white" stroke-width="1.25" stroke-linecap="round" stroke-linejoin="round"/>
</svg>
