<svg width="18" height="18" viewBox="0 0 18 19" fill="none" xmlns="http://www.w3.org/2000/svg">
<path d="M16.4266 10.7065C16.0375 12.537 14.986 14.1594 13.474 15.2621C11.962 16.3649 10.096 16.8704 8.23416 16.6817C6.37225 16.4929 4.64567 15.6232 3.38576 14.2394C2.12584 12.8556 1.42135 11.0553 1.4075 9.1839L2.29403 9.17737C2.30626 10.8302 2.92849 12.4203 4.04129 13.6425C5.15409 14.8647 6.67907 15.6329 8.32352 15.7996C9.96802 15.9663 11.6162 15.5198 12.9516 14.5458C14.287 13.5719 15.2158 12.139 15.5595 10.5222L16.4266 10.7065Z" fill="#585858"/>
<path d="M16.5927 9.12771C16.5927 7.25467 15.9004 5.44773 14.6487 4.05424C13.3971 2.66074 11.6747 1.77905 9.81241 1.57864C7.95008 1.37823 6.07946 1.87325 4.56004 2.96855C3.04064 4.06384 1.9797 5.6821 1.58119 7.51226L2.44744 7.70088C2.79943 6.08443 3.73648 4.65513 5.07848 3.68772C6.42047 2.72032 8.07271 2.2831 9.7175 2.4601C11.3624 2.63711 12.8837 3.41586 13.9891 4.64664C15.0946 5.87742 15.7061 7.47338 15.7061 9.12771H16.5927Z" fill="#585858"/>
<path fill-rule="evenodd" clip-rule="evenodd" d="M1.78697 8.21119L3.57395 9.99816L3.03706 10.535L1.78697 9.28495L0.536882 10.535L0 9.99816L1.78697 8.21119Z" fill="#585858"/>
<path fill-rule="evenodd" clip-rule="evenodd" d="M14.4261 7.87759L14.9629 7.3407L16.213 8.59079L17.4631 7.3407L18 7.87759L16.213 9.66456L14.4261 7.87759Z" fill="#585858"/>
<path fill-rule="evenodd" clip-rule="evenodd" d="M9.08696 10.5904C9.86733 10.5904 10.4999 9.95775 10.4999 9.17737C10.4999 8.397 9.86733 7.76439 9.08696 7.76439C8.30659 7.76439 7.67397 8.397 7.67397 9.17737C7.67397 9.95775 8.30659 10.5904 9.08696 10.5904ZM9.08696 11.1338C10.1675 11.1338 11.0434 10.2579 11.0434 9.17737C11.0434 8.09686 10.1675 7.22093 9.08696 7.22093C8.00644 7.22093 7.13051 8.09686 7.13051 9.17737C7.13051 10.2579 8.00644 11.1338 9.08696 11.1338Z" fill="#585858"/>
<path fill-rule="evenodd" clip-rule="evenodd" d="M8.69621 5.05886C8.46983 6.06105 7.31976 6.53743 6.45103 5.98885C6.09005 5.76089 5.67048 6.18047 5.89843 6.54145C6.44701 7.41018 5.97064 8.56024 4.96845 8.78662C4.55201 8.88069 4.55201 9.47405 4.96845 9.56812C5.97063 9.7945 6.44701 10.9446 5.89843 11.8133C5.67048 12.1743 6.09005 12.5938 6.45103 12.3659C7.31976 11.8173 8.46983 12.2937 8.69621 13.2959C8.79027 13.7123 9.38364 13.7123 9.4777 13.2959C9.70408 12.2937 10.8542 11.8173 11.7229 12.3659C12.0839 12.5939 12.5034 12.1743 12.2755 11.8133C11.7269 10.9446 12.2033 9.7945 13.2055 9.56812C13.6219 9.47405 13.6219 8.88069 13.2055 8.78662C12.2033 8.56024 11.7269 7.41018 12.2755 6.54145C12.5034 6.18047 12.0839 5.76089 11.7229 5.98885C10.8542 6.53743 9.70408 6.06105 9.4777 5.05886C9.38364 4.64242 8.79027 4.64242 8.69621 5.05886ZM10.0078 4.93912C9.78612 3.95773 8.38779 3.95773 8.1661 4.93912C8.02243 5.57516 7.29254 5.8775 6.7412 5.52934C5.8905 4.99214 4.90172 5.98091 5.43892 6.83162C5.78708 7.38296 5.48475 8.11285 4.8487 8.25652C3.86731 8.4782 3.86731 9.87654 4.8487 10.0982C5.48475 10.2419 5.78708 10.9718 5.43892 11.5231C4.90172 12.3738 5.8905 13.3626 6.7412 12.8254C7.29254 12.4772 8.02243 12.7796 8.1661 13.4156C8.38779 14.397 9.78612 14.397 10.0078 13.4156C10.1515 12.7796 10.8814 12.4772 11.4327 12.8254C12.2834 13.3626 13.2722 12.3738 12.735 11.5231C12.3868 10.9718 12.6892 10.2419 13.3252 10.0982C14.3066 9.87654 14.3066 8.4782 13.3252 8.25652C12.6892 8.11285 12.3868 7.38296 12.735 6.83162C13.2722 5.98091 12.2834 4.99214 11.4327 5.52934C10.8814 5.8775 10.1515 5.57516 10.0078 4.93912Z" fill="#585858"/>
</svg>
