<svg width="23" height="23" viewBox="0 0 23 23" fill="none" xmlns="http://www.w3.org/2000/svg">
<path fill-rule="evenodd" clip-rule="evenodd" d="M22.39 2.59998H19.79V0H18.3V2.59998H15.7V4.08002H18.3V6.67999H19.79V4.08002H22.39V2.59998ZM15 9.84003C15.0271 9.29816 14.9437 8.75641 14.7549 8.2478C14.5661 7.73914 14.2757 7.27423 13.9015 6.88135C13.5274 6.48853 13.0772 6.17584 12.5784 5.9624C12.0795 5.74902 11.5425 5.63934 11 5.64001C10.469 5.6189 9.93947 5.70789 9.44463 5.90143C8.94976 6.09497 8.50032 6.38885 8.12459 6.76459C7.74886 7.14032 7.45498 7.58978 7.26143 8.08466C7.06789 8.57947 6.97887 9.10907 6.99999 9.64001C6.99999 13.07 8.76 14.64 11 14.64C7.36998 14.64 4.71999 15.28 3.59999 16.76C2.66591 15.4096 2.11904 13.8295 2.01857 12.1906C1.91814 10.5517 2.26793 8.91656 3.03011 7.46222C3.79232 6.00793 4.93782 4.78979 6.34264 3.93982C7.74746 3.08978 9.35805 2.64032 11 2.64001C11.8951 2.63953 12.7852 2.77435 13.64 3.03998V0.969971C11.4173 0.420471 9.07851 0.578247 6.94976 1.42133C4.821 2.26434 3.00835 3.75067 1.76458 5.67297C0.520771 7.59528 -0.0921438 9.85785 0.0112192 12.1451C0.114582 14.4324 0.929096 16.6304 2.34121 18.4327C3.75332 20.235 5.69262 21.5518 7.88875 22.1993C10.0849 22.8469 12.4283 22.7931 14.5924 22.0453C16.7565 21.2976 18.6333 19.8932 19.9612 18.028C21.289 16.1627 22.0018 13.9296 22 11.64C21.9931 10.6805 21.862 9.72589 21.61 8.79999H19.53C19.8397 9.7149 19.9985 10.6741 20 11.64C19.9995 13.4696 19.4414 15.2556 18.4 16.76C17.27 15.28 14.63 14.64 11 14.64C13.24 14.64 15 13.12 15 9.84003ZM11 12.64C9.80999 12.64 8.99999 11.91 8.99999 9.64001C8.97893 9.37201 9.01622 9.1026 9.10927 8.8504C9.20232 8.59821 9.34896 8.36914 9.53905 8.17908C9.72915 7.98895 9.95818 7.84235 10.2104 7.74927C10.4626 7.65625 10.732 7.61896 11 7.64001C11.2804 7.63861 11.5579 7.69617 11.8145 7.8089C12.0712 7.92169 12.3013 8.08716 12.4899 8.29462C12.6785 8.50208 12.8213 8.74689 12.9092 9.01306C12.9971 9.2793 13.028 9.56104 13 9.84003C13 11.94 12.19 12.64 11 12.64ZM4.99999 18.38C6.65474 19.8444 8.79036 20.6487 11 20.64C13.2096 20.6487 15.3452 19.8444 17 18.38C16.67 17.33 14.6 16.64 11 16.64C7.39998 16.64 5.29 17.38 4.99999 18.38Z" fill="#43A0BD"/>
</svg>
