<svg width="24" height="24" viewBox="0 0 24 24" fill="none" xmlns="http://www.w3.org/2000/svg">
<mask id="mask0_9540_349" style="mask-type:alpha" maskUnits="userSpaceOnUse" x="0" y="0" width="24" height="24">
<rect width="24" height="24" fill="#D9D9D9"/>
</mask>
<g mask="url(#mask0_9540_349)">
<path d="M11.2 8.1999L7.75005 11.5999C7.58888 11.7611 7.39446 11.8388 7.1668 11.8332C6.93896 11.8277 6.74446 11.7443 6.5833 11.5832C6.4223 11.4222 6.3418 11.2277 6.3418 10.9999C6.3418 10.7721 6.4223 10.5777 6.5833 10.4167L11.4333 5.56665C11.6 5.39998 11.7945 5.31665 12.0168 5.31665C12.239 5.31665 12.4334 5.39998 12.6 5.56665L17.45 10.4167C17.6112 10.5777 17.6918 10.7721 17.6918 10.9999C17.6918 11.2277 17.6112 11.4222 17.45 11.5832C17.2889 11.7443 17.0945 11.8249 16.8668 11.8249C16.639 11.8249 16.4445 11.7443 16.2833 11.5832L12.8668 8.16665V17.0999C12.8668 17.3387 12.7876 17.5373 12.6293 17.6957C12.471 17.854 12.2723 17.9332 12.0333 17.9332C11.7945 17.9332 11.5959 17.854 11.4375 17.6957C11.2792 17.5373 11.2 17.3387 11.2 17.0999V8.1999Z" fill="#9C9C9C"/>
</g>
</svg>
