<svg width="32" height="32" viewBox="0 0 32 32" fill="none" xmlns="http://www.w3.org/2000/svg">
<mask id="mask0_7699_15254" style="mask-type:alpha" maskUnits="userSpaceOnUse" x="0" y="0" width="24" height="24">
<rect width="24" height="24" fill="#D9D9D9"/>
</mask>
<g mask="url(#mask0_7699_15254)">
<path d="M9.58189 16.9997L13.9716 21.3893C14.17 21.5878 14.2679 21.8199 14.2652 22.0857C14.2628 22.3514 14.1649 22.5878 13.9716 22.7947C13.7649 23.0013 13.5273 23.1081 13.2589 23.115C12.9904 23.1219 12.7529 23.0219 12.5462 22.815L6.57422 16.8433C6.33333 16.6022 6.21289 16.321 6.21289 15.9997C6.21289 15.6783 6.33333 15.3971 6.57422 15.156L12.5462 9.18434C12.7444 8.98611 12.9799 8.88823 13.2526 8.89067C13.5252 8.89334 13.7649 8.998 13.9716 9.20467C14.1649 9.41156 14.2649 9.64578 14.2716 9.90734C14.2784 10.1689 14.1784 10.4031 13.9716 10.61L9.58189 14.9997H25.2692C25.553 14.9997 25.7906 15.0954 25.9819 15.287C26.1734 15.4783 26.2692 15.7159 26.2692 15.9997C26.2692 16.2834 26.1734 16.521 25.9819 16.7123C25.7906 16.9039 25.553 16.9997 25.2692 16.9997H9.58189Z" fill="#9C9C9C"/>
</g>
</svg>
