<svg width="24" height="24" viewBox="0 0 24 24" fill="none" xmlns="http://www.w3.org/2000/svg">
<mask id="mask0_9536_4687" style="mask-type:alpha" maskUnits="userSpaceOnUse" x="0" y="0" width="24" height="24">
<rect width="24" height="24" fill="#D9D9D9"/>
</mask>
<g mask="url(#mask0_9536_4687)">
<path d="M7.18691 12.75L10.4792 16.0422C10.628 16.1911 10.7014 16.3652 10.6994 16.5645C10.6976 16.7638 10.6242 16.9411 10.4792 17.0962C10.3242 17.2512 10.146 17.3313 9.94466 17.3365C9.74332 17.3417 9.56516 17.2667 9.41016 17.1115L4.93116 12.6327C4.75049 12.4519 4.66016 12.241 4.66016 12C4.66016 11.759 4.75049 11.5481 4.93116 11.3672L9.41016 6.8885C9.55882 6.73983 9.73541 6.66641 9.93991 6.66825C10.1444 6.67025 10.3242 6.74875 10.4792 6.90375C10.6242 7.05891 10.6992 7.23458 10.7042 7.43075C10.7093 7.62691 10.6343 7.80258 10.4792 7.95775L7.18691 11.25H18.9524C19.1652 11.25 19.3434 11.3218 19.4869 11.4655C19.6306 11.609 19.7024 11.7872 19.7024 12C19.7024 12.2128 19.6306 12.391 19.4869 12.5345C19.3434 12.6782 19.1652 12.75 18.9524 12.75H7.18691Z" fill="white"/>
</g>
</svg>
