<svg width="1012" height="225" viewBox="0 0 1012 225" fill="none" xmlns="http://www.w3.org/2000/svg">
<circle cx="778.5" cy="168.112" r="13.5" fill="#EDF4F6"/>
<path d="M423.614 94L431.114 93.5C428.614 86.5 426.555 78.9044 425.187 78.5C420.114 77 419.389 75.974 416.614 71C413.839 66.026 415.489 60.487 420.114 58C424.739 55.513 418.877 49.474 422.114 44.5C425.351 39.526 434.09 35.0442 446.114 43.5C455.733 50.2646 470.045 45.4154 471.432 39.7782C474.669 47.2392 480.504 64.1125 481.614 66.5C482.724 68.8875 480.614 51 490.393 48.234C492.242 50.8868 494.614 57.225 494.614 62C494.614 66.775 489.464 70.342 487.614 72L491.114 92H495.614C497.31 89.1814 503.803 76 503.804 53.208C503.804 25.7107 489.93 14.4108 486.231 9.93422C482.531 5.45762 454.784 -9.96178 425.187 14.4108C401.51 33.9089 412.114 81 423.614 94Z" fill="#EDF4F6"/>
<circle cx="742.5" cy="155.112" r="13.5" fill="#EDF4F6"/>
<circle cx="96.5" cy="111.112" r="13.5" fill="#EDF4F6"/>
<circle cx="77.5" cy="123.112" r="13.5" fill="#EDF4F6"/>
<path fill-rule="evenodd" clip-rule="evenodd" d="M423 207.112H413.415C413.799 208.889 414.5 212.112 414.5 212.112C415.5 217.612 414.5 219.112 414.5 219.112C417 219.112 462 214.612 462 214.612C463.5 212.112 464.9 207.112 458.5 207.112H423ZM488.5 72.1125C488.469 72.4761 488.448 72.8648 488.436 73.2746C488.461 72.8869 488.482 72.4995 488.5 72.1125Z" fill="#EDF4F6"/>
<path d="M283.5 119.112C274.7 119.112 273.834 123.446 274.5 125.612C277.5 139.612 284.6 173.212 289 195.612C291.554 208.612 294 211.495 302.5 212.112C332.334 214.279 395 218.912 407 220.112M283.5 119.112H387M283.5 119.112H386.5M386.5 119.112C395 119.112 397 125.112 398 129.612C399 134.112 408.828 185.612 408.828 185.612M386.5 119.112H387M407 220.112L407.198 220.132M407 220.112C407.067 220.119 407.132 220.126 407.198 220.132M414.5 219.112C414.5 219.112 415.5 217.612 414.5 212.112C414.5 212.112 413.799 208.889 413.415 207.112M414.5 219.112C417 219.112 462 214.612 462 214.612C463.5 212.112 464.9 207.112 458.5 207.112M414.5 219.112C411.58 220.573 409.607 220.374 407.198 220.132M458.5 207.112C453.478 207.112 436.186 207.112 423 207.112M458.5 207.112H423M413.415 207.112L408.828 185.612M413.415 207.112C416.076 207.112 419.383 207.112 423 207.112M413.415 207.112H423M488.5 72.1125C493 72.1125 496.567 69.6036 495 58.1125C493.5 47.1126 484.724 46.41 484 61.6124C483.5 72.1124 481.5 67.1124 478.5 61.6124C475.5 56.1123 476.5 56.6123 473.5 47.1123C470.5 37.6123 471.5 43.1123 466.5 47.1123C461.5 51.1124 450.5 51.1127 446 47.6125C441.5 44.1123 436.5 43.6125 428.5 43.6125C420.5 43.6125 423 54.1123 423.5 57.1123M488.5 72.1125C488.482 72.4995 488.461 72.8869 488.436 73.2746M488.5 72.1125C488.469 72.4761 488.448 72.8648 488.436 73.2746M426.5 79.1125C426.795 81.6508 430 89.6123 433 95.1123M433 95.1123C435 98.779 438 102.567 441 105.587M433 95.1123C431.496 95.2689 428.99 95.7194 426.402 96.1845C424.528 96.5215 422.611 96.8661 421 97.1123M387 119.112C389.149 104.071 407.783 99.1331 421 97.1123M492 93.1125C492.684 93.1125 494.307 93.1125 496.5 93.1125M492 93.1125H496.5M492 93.1125C490.584 93.1125 488.23 80.1896 488.436 73.2746M501.5 93.1125C501.5 93.1125 498.157 93.1125 496.5 93.1125M501.5 93.1125C508.36 134.271 437.392 148.703 441 105.587M501.5 93.1125C529 94.6126 541.5 98.6123 548.5 103.612C569.68 118.741 584.583 170.599 577 194.612M501.5 93.1125H496.5M441 105.587C445 109.612 455.141 115.095 463.5 111.612C481.054 104.298 487.456 88.5426 488.436 73.2746M548 175.612C544.43 175.434 493.157 175.792 488.5 175.612M408.828 185.612C412.719 182.946 418.324 180.512 426.5 178.112C429.898 177.115 439.962 177.011 451.99 176.887C463.746 176.766 477.379 176.625 488.5 175.612M423 207.112C424.671 205.302 425.933 203.608 427.051 202.106C429.949 198.215 431.887 195.612 437.5 195.612C446.495 195.612 457.506 198.322 466.632 200.568C475.037 202.636 481.843 204.311 484 203.112C488.5 200.612 497.5 193.612 488.5 175.612M496.5 93.1125C503 79.6124 511.5 39.1124 496.5 20.1124C471.491 -11.5661 408 -6.88751 408 57.1123C408 63.1123 410.78 88.9296 421 97.1123M440 92.6125C442.5 94.6124 451.5 94.6124 454.5 91.1125M442 78.1125C441.167 78.6125 439.5 83.1125 443 85.1125" stroke="#359E98" stroke-width="2" stroke-linecap="round" stroke-linejoin="round"/>
<path d="M283.5 119.112C274.7 119.112 273.834 123.446 274.5 125.612C277.5 139.612 284.6 173.212 289 195.612C291.554 208.612 294 211.495 302.5 212.112C332.334 214.279 395 218.912 407 220.112M283.5 119.112H387M283.5 119.112H386.5M386.5 119.112C395 119.112 397 125.112 398 129.612C399 134.112 408.828 185.612 408.828 185.612M386.5 119.112H387M407 220.112L407.198 220.132M407 220.112C407.067 220.119 407.132 220.126 407.198 220.132M414.5 219.112C414.5 219.112 415.5 217.612 414.5 212.112C414.5 212.112 413.799 208.889 413.415 207.112M414.5 219.112C417 219.112 462 214.612 462 214.612C463.5 212.112 464.9 207.112 458.5 207.112M414.5 219.112C411.58 220.573 409.607 220.374 407.198 220.132M458.5 207.112C453.478 207.112 436.186 207.112 423 207.112M458.5 207.112H423M413.415 207.112L408.828 185.612M413.415 207.112C416.076 207.112 419.383 207.112 423 207.112M413.415 207.112H423M488.5 72.1125C493 72.1125 496.567 69.6036 495 58.1125C493.5 47.1126 484.724 46.41 484 61.6124C483.5 72.1124 481.5 67.1124 478.5 61.6124C475.5 56.1123 476.5 56.6123 473.5 47.1123C470.5 37.6123 471.5 43.1123 466.5 47.1123C461.5 51.1124 450.5 51.1127 446 47.6125C441.5 44.1123 436.5 43.6125 428.5 43.6125C420.5 43.6125 423 54.1123 423.5 57.1123M488.5 72.1125C488.482 72.4995 488.461 72.8869 488.436 73.2746M488.5 72.1125C488.469 72.4761 488.448 72.8648 488.436 73.2746M426.5 79.1125C426.795 81.6508 430 89.6123 433 95.1123M433 95.1123C435 98.779 438 102.567 441 105.587M433 95.1123C431.496 95.2689 428.99 95.7194 426.402 96.1845C424.528 96.5215 422.611 96.8661 421 97.1123M387 119.112C389.149 104.071 407.783 99.1331 421 97.1123M492 93.1125C492.684 93.1125 494.307 93.1125 496.5 93.1125M492 93.1125H496.5M492 93.1125C490.584 93.1125 488.23 80.1896 488.436 73.2746M501.5 93.1125C501.5 93.1125 498.157 93.1125 496.5 93.1125M501.5 93.1125C508.36 134.271 437.392 148.703 441 105.587M501.5 93.1125C529 94.6126 541.5 98.6123 548.5 103.612C569.68 118.741 584.583 170.599 577 194.612M501.5 93.1125H496.5M441 105.587C445 109.612 455.141 115.095 463.5 111.612C481.054 104.298 487.456 88.5426 488.436 73.2746M548 175.612C544.43 175.434 493.157 175.792 488.5 175.612M408.828 185.612C412.719 182.946 418.324 180.512 426.5 178.112C429.898 177.115 439.962 177.011 451.99 176.887C463.746 176.766 477.379 176.625 488.5 175.612M423 207.112C424.671 205.302 425.933 203.608 427.051 202.106C429.949 198.215 431.887 195.612 437.5 195.612C446.495 195.612 457.506 198.322 466.632 200.568C475.037 202.636 481.843 204.311 484 203.112C488.5 200.612 497.5 193.612 488.5 175.612M496.5 93.1125C503 79.6124 511.5 39.1124 496.5 20.1124C471.491 -11.5661 408 -6.88751 408 57.1123C408 63.1123 410.78 88.9296 421 97.1123M440 92.6125C442.5 94.6124 451.5 94.6124 454.5 91.1125M442 78.1125C441.167 78.6125 439.5 83.1125 443 85.1125" stroke="#43A0BD" stroke-width="2" stroke-linecap="round" stroke-linejoin="round"/>
<path d="M448 63.1122C447.5 62.1122 440 61.6122 439 63.1122M470 62.1123C470.4 61.7123 479.167 58.6123 483.5 57.1123M501.5 198.612V206.612L540.5 211.112V203.612" stroke="#359E98" stroke-width="2" stroke-linecap="round" stroke-linejoin="round"/>
<path d="M448 63.1122C447.5 62.1122 440 61.6122 439 63.1122M470 62.1123C470.4 61.7123 479.167 58.6123 483.5 57.1123M501.5 198.612V206.612L540.5 211.112V203.612" stroke="#43A0BD" stroke-width="2" stroke-linecap="round" stroke-linejoin="round"/>
<path d="M652 199.612L540.5 202.612L502 197.612L615 193.612L652 199.612ZM652 199.612V206.112L540.5 211.112" stroke="#359E98" stroke-width="2" stroke-linecap="round" stroke-linejoin="round"/>
<path d="M652 199.612L540.5 202.612L502 197.612L615 193.612L652 199.612ZM652 199.612V206.112L540.5 211.112" stroke="#43A0BD" stroke-width="2" stroke-linecap="round" stroke-linejoin="round"/>
<path d="M652 206.612H664.5M664.5 206.612V222.112L552 223.112M664.5 206.612L652 202.612M552 223.112L514 218.112V209.112M552 223.112V211.112" stroke="#359E98" stroke-width="2" stroke-linecap="round" stroke-linejoin="round"/>
<path d="M652 206.612H664.5M664.5 206.612V222.112L552 223.112M664.5 206.612L652 202.612M552 223.112L514 218.112V209.112M552 223.112V211.112" stroke="#43A0BD" stroke-width="2" stroke-linecap="round" stroke-linejoin="round"/>
<path d="M1010.5 162.5C967.5 139.112 930 138.612 888 146.612C846 154.612 829 172.112 786 176.112M565 124.112C594 121.112 626.5 122.612 667.5 140.612C702.292 155.887 732.403 173.682 767 176.276M281.5 160.612C273.5 164.612 259.5 170.112 223.5 170.112C174.5 170.112 170.5 152.612 128 141.112C112.474 136.911 98.8284 134.355 86 133.71M1 160.612C27.3124 143.919 48.5017 135.542 71 133.866" stroke="#359E98" stroke-width="2" stroke-linecap="round" stroke-linejoin="round"/>
<path d="M1010.5 162.5C967.5 139.112 930 138.612 888 146.612C846 154.612 829 172.112 786 176.112M565 124.112C594 121.112 626.5 122.612 667.5 140.612C702.292 155.887 732.403 173.682 767 176.276M281.5 160.612C273.5 164.612 259.5 170.112 223.5 170.112C174.5 170.112 170.5 152.612 128 141.112C112.474 136.911 98.8284 134.355 86 133.71M1 160.612C27.3124 143.919 48.5017 135.542 71 133.866" stroke="#43A0BD" stroke-width="2" stroke-linecap="round" stroke-linejoin="round"/>
<path d="M128.5 140.612C192.5 131.112 217 137.112 275 162.755" stroke="#359E98" stroke-width="2" stroke-linecap="round" stroke-linejoin="round"/>
<path d="M128.5 140.612C192.5 131.112 217 137.112 275 162.755" stroke="#43A0BD" stroke-width="2" stroke-linecap="round" stroke-linejoin="round"/>
<path d="M341.477 161.256L341.609 163.568L335.821 163.898L335.957 166.293L341.163 165.996L341.289 168.208L336.083 168.505L336.221 170.917L342.192 170.576L342.322 172.872L333.757 173.36L333.094 161.734L341.477 161.256Z" fill="#BDDADE"/>
<path d="M328.836 168.131L330.749 169.562M328.836 168.131C329.476 167.786 330.331 167.799 331.132 168.089M328.836 168.131C328.672 168.838 328.942 169.64 329.467 170.315M333.441 171.576L332.06 170.542M333.441 171.576C333.606 170.547 333.224 169.665 332.591 169.019M333.441 171.576C332.543 171.972 331.596 171.841 330.793 171.423M332.06 170.542L332.591 169.019M332.06 170.542L330.793 171.423M332.06 170.542L330.749 169.562M332.591 169.019C332.183 168.602 331.669 168.283 331.132 168.089M330.793 171.423C330.274 171.152 329.815 170.761 329.467 170.315M330.749 169.562L331.132 168.089M330.749 169.562L329.467 170.315" stroke="#BDDADE" stroke-width="0.619279" stroke-linecap="round" stroke-linejoin="round"/>
<path d="M344.446 168.794L343.502 169.886M344.446 168.794C344.627 169.194 344.582 169.709 344.373 170.179M344.446 168.794C344.026 168.665 343.531 168.794 343.103 169.081M342.174 171.423L342.856 170.634M342.174 171.423C342.787 171.566 343.335 171.373 343.751 171.019M342.174 171.423C341.973 170.865 342.092 170.3 342.379 169.834M342.856 170.634L343.751 171.019M342.856 170.634L342.379 169.834M342.856 170.634L343.502 169.886M343.751 171.019C344.02 170.791 344.234 170.495 344.373 170.179M342.379 169.834C342.564 169.532 342.819 169.272 343.103 169.081M343.502 169.886L344.373 170.179M343.502 169.886L343.103 169.081" stroke="#BDDADE" stroke-width="0.442342" stroke-linecap="round" stroke-linejoin="round"/>
<path d="M345.21 158.027L343.608 159.799M345.21 158.027C345.494 158.697 345.401 159.546 345.038 160.317M345.21 158.027C344.521 157.799 343.697 157.993 342.977 158.453M341.353 162.292L342.51 161.013M341.353 162.292C342.361 162.553 343.275 162.254 343.977 161.684M341.353 162.292C341.041 161.362 341.259 160.431 341.75 159.67M342.51 161.013L343.977 161.684M342.51 161.013L341.75 159.67M342.51 161.013L343.608 159.799M343.977 161.684C344.43 161.316 344.795 160.834 345.038 160.317M341.75 159.67C342.068 159.179 342.5 158.758 342.977 158.453M343.608 159.799L345.038 160.317M343.608 159.799L342.977 158.453" stroke="#BDDADE" stroke-width="0.619279" stroke-linecap="round" stroke-linejoin="round"/>
<path d="M754 103.612H652.308C652.893 101.416 650.221 95.2418 654.412 86.6209C663.179 68.5897 685.972 69.9764 698.596 86.621C703.394 92.9471 708.882 91.1289 711.57 90.0885C717.531 86.6209 722.441 85.2024 731.908 86.621C741.376 88.0397 751.779 97.6018 754 103.612Z" stroke="#359E98" stroke-width="2"/>
<path d="M754 103.612H652.308C652.893 101.416 650.221 95.2418 654.412 86.6209C663.179 68.5897 685.972 69.9764 698.596 86.621C703.394 92.9471 708.882 91.1289 711.57 90.0885C717.531 86.6209 722.441 85.2024 731.908 86.621C741.376 88.0397 751.779 97.6018 754 103.612Z" stroke="#43A0BD" stroke-width="2"/>
<path d="M92.9238 144.612V117.714M92.9238 107.587V117.714M92.9238 117.714L98.9365 112.65" stroke="#359E98" stroke-width="2"/>
<path d="M92.9238 144.612V117.714M92.9238 107.587V117.714M92.9238 117.714L98.9365 112.65" stroke="#43A0BD" stroke-width="2"/>
<path d="M93.557 123.726C101.597 123.726 108.114 117.209 108.114 109.169C108.114 101.13 101.597 94.6123 93.557 94.6123C85.5174 94.6123 79 101.13 79 109.169" stroke="#359E98" stroke-width="2"/>
<path d="M93.557 123.726C101.597 123.726 108.114 117.209 108.114 109.169C108.114 101.13 101.597 94.6123 93.557 94.6123C85.5174 94.6123 79 101.13 79 109.169" stroke="#43A0BD" stroke-width="2"/>
<path d="M77.9238 157.612V130.714M77.9238 120.587V130.714M77.9238 130.714L83.9365 125.65" stroke="#359E98" stroke-width="2"/>
<path d="M77.9238 157.612V130.714M77.9238 120.587V130.714M77.9238 130.714L83.9365 125.65" stroke="#43A0BD" stroke-width="2"/>
<circle cx="78.557" cy="122.169" r="13.557" stroke="#359E98" stroke-width="2"/>
<circle cx="78.557" cy="122.169" r="13.557" stroke="#43A0BD" stroke-width="2"/>
<path d="M738.924 186.612V159.714M738.924 149.587V159.714M738.924 159.714L744.936 154.65" stroke="#359E98" stroke-width="2"/>
<path d="M738.924 186.612V159.714M738.924 149.587V159.714M738.924 159.714L744.936 154.65" stroke="#43A0BD" stroke-width="2"/>
<circle cx="739.557" cy="151.169" r="13.557" stroke="#359E98" stroke-width="2"/>
<circle cx="739.557" cy="151.169" r="13.557" stroke="#43A0BD" stroke-width="2"/>
<path d="M775.924 201.612V174.714M775.924 164.587V174.714M775.924 174.714L781.936 169.65" stroke="#359E98" stroke-width="2"/>
<path d="M775.924 201.612V174.714M775.924 164.587V174.714M775.924 174.714L781.936 169.65" stroke="#43A0BD" stroke-width="2"/>
<circle cx="776.557" cy="166.169" r="13.557" stroke="#359E98" stroke-width="2"/>
<circle cx="776.557" cy="166.169" r="13.557" stroke="#43A0BD" stroke-width="2"/>
<path d="M313.168 49.334C312.479 49.7935 312.292 50.7248 312.752 51.4141C313.211 52.1034 314.143 52.2896 314.832 51.8301L313.168 49.334ZM324 51.5822L323.012 52.7111C323.567 53.1969 324.394 53.2069 324.96 52.7346L324 51.5822ZM333.439 52.1429C334.025 52.7287 334.975 52.7287 335.561 52.1429C336.146 51.5571 336.146 50.6073 335.561 50.0216L333.439 52.1429ZM314.832 51.8301C317.067 50.3403 318.152 50.0222 318.993 50.132C319.912 50.2518 320.96 50.9151 323.012 52.7111L324.988 50.4534C323.04 48.7494 321.338 47.4125 319.382 47.1572C317.348 46.892 315.433 47.8238 313.168 49.334L314.832 51.8301ZM324.96 52.7346C327.589 50.544 329.713 50.533 331.114 50.9066C331.855 51.1044 332.456 51.4286 332.871 51.7053C333.077 51.8426 333.232 51.9646 333.33 52.0469C333.379 52.0878 333.413 52.1185 333.431 52.1357C333.441 52.1443 333.446 52.1494 333.447 52.1508C333.448 52.1515 333.448 52.1512 333.446 52.1499C333.446 52.1492 333.445 52.1483 333.444 52.1471C333.443 52.1466 333.442 52.1459 333.442 52.1452C333.441 52.1449 333.441 52.1443 333.441 52.1441C333.44 52.1435 333.439 52.1429 334.5 51.0822C335.561 50.0216 335.56 50.0209 335.559 50.0202C335.559 50.02 335.558 50.0193 335.558 50.0188C335.557 50.0178 335.556 50.0168 335.555 50.0156C335.552 50.0134 335.55 50.0109 335.547 50.0081C335.541 50.0025 335.534 49.9958 335.526 49.9881C335.51 49.9728 335.49 49.9533 335.465 49.9301C335.415 49.8838 335.346 49.8227 335.26 49.7504C335.088 49.6061 334.845 49.4156 334.535 49.2091C333.919 48.7984 333.02 48.31 331.886 48.0079C329.537 47.3815 326.411 47.6205 323.04 50.4299L324.96 52.7346Z" fill="#359E98"/>
<path d="M313.168 49.334C312.479 49.7935 312.292 50.7248 312.752 51.4141C313.211 52.1034 314.143 52.2896 314.832 51.8301L313.168 49.334ZM324 51.5822L323.012 52.7111C323.567 53.1969 324.394 53.2069 324.96 52.7346L324 51.5822ZM333.439 52.1429C334.025 52.7287 334.975 52.7287 335.561 52.1429C336.146 51.5571 336.146 50.6073 335.561 50.0216L333.439 52.1429ZM314.832 51.8301C317.067 50.3403 318.152 50.0222 318.993 50.132C319.912 50.2518 320.96 50.9151 323.012 52.7111L324.988 50.4534C323.04 48.7494 321.338 47.4125 319.382 47.1572C317.348 46.892 315.433 47.8238 313.168 49.334L314.832 51.8301ZM324.96 52.7346C327.589 50.544 329.713 50.533 331.114 50.9066C331.855 51.1044 332.456 51.4286 332.871 51.7053C333.077 51.8426 333.232 51.9646 333.33 52.0469C333.379 52.0878 333.413 52.1185 333.431 52.1357C333.441 52.1443 333.446 52.1494 333.447 52.1508C333.448 52.1515 333.448 52.1512 333.446 52.1499C333.446 52.1492 333.445 52.1483 333.444 52.1471C333.443 52.1466 333.442 52.1459 333.442 52.1452C333.441 52.1449 333.441 52.1443 333.441 52.1441C333.44 52.1435 333.439 52.1429 334.5 51.0822C335.561 50.0216 335.56 50.0209 335.559 50.0202C335.559 50.02 335.558 50.0193 335.558 50.0188C335.557 50.0178 335.556 50.0168 335.555 50.0156C335.552 50.0134 335.55 50.0109 335.547 50.0081C335.541 50.0025 335.534 49.9958 335.526 49.9881C335.51 49.9728 335.49 49.9533 335.465 49.9301C335.415 49.8838 335.346 49.8227 335.26 49.7504C335.088 49.6061 334.845 49.4156 334.535 49.2091C333.919 48.7984 333.02 48.31 331.886 48.0079C329.537 47.3815 326.411 47.6205 323.04 50.4299L324.96 52.7346Z" fill="#43A0BD"/>
<path d="M333.168 63.334C332.479 63.7935 332.292 64.7248 332.752 65.4141C333.211 66.1034 334.143 66.2896 334.832 65.8301L333.168 63.334ZM344 65.5822L343.012 66.7111C343.567 67.1969 344.394 67.2069 344.96 66.7346L344 65.5822ZM353.439 66.1429C354.025 66.7287 354.975 66.7287 355.561 66.1429C356.146 65.5571 356.146 64.6073 355.561 64.0216L353.439 66.1429ZM334.832 65.8301C337.067 64.3403 338.152 64.0222 338.993 64.132C339.912 64.2518 340.96 64.9151 343.012 66.7111L344.988 64.4534C343.04 62.7494 341.338 61.4125 339.382 61.1572C337.348 60.892 335.433 61.8238 333.168 63.334L334.832 65.8301ZM344.96 66.7346C347.589 64.544 349.713 64.533 351.114 64.9066C351.855 65.1044 352.456 65.4286 352.871 65.7053C353.077 65.8426 353.232 65.9646 353.33 66.0469C353.379 66.0878 353.413 66.1185 353.431 66.1357C353.441 66.1443 353.446 66.1494 353.447 66.1508C353.448 66.1515 353.448 66.1512 353.446 66.1499C353.446 66.1492 353.445 66.1483 353.444 66.1471C353.443 66.1466 353.442 66.1459 353.442 66.1452C353.441 66.1449 353.441 66.1443 353.441 66.1441C353.44 66.1435 353.439 66.1429 354.5 65.0822C355.561 64.0216 355.56 64.0209 355.559 64.0202C355.559 64.02 355.558 64.0193 355.558 64.0188C355.557 64.0178 355.556 64.0168 355.555 64.0156C355.552 64.0134 355.55 64.0109 355.547 64.0081C355.541 64.0025 355.534 63.9958 355.526 63.9881C355.51 63.9728 355.49 63.9533 355.465 63.9301C355.415 63.8838 355.346 63.8227 355.26 63.7504C355.088 63.6061 354.845 63.4156 354.535 63.2091C353.919 62.7984 353.02 62.31 351.886 62.0079C349.537 61.3815 346.411 61.6205 343.04 64.4299L344.96 66.7346Z" fill="#359E98"/>
<path d="M333.168 63.334C332.479 63.7935 332.292 64.7248 332.752 65.4141C333.211 66.1034 334.143 66.2896 334.832 65.8301L333.168 63.334ZM344 65.5822L343.012 66.7111C343.567 67.1969 344.394 67.2069 344.96 66.7346L344 65.5822ZM353.439 66.1429C354.025 66.7287 354.975 66.7287 355.561 66.1429C356.146 65.5571 356.146 64.6073 355.561 64.0216L353.439 66.1429ZM334.832 65.8301C337.067 64.3403 338.152 64.0222 338.993 64.132C339.912 64.2518 340.96 64.9151 343.012 66.7111L344.988 64.4534C343.04 62.7494 341.338 61.4125 339.382 61.1572C337.348 60.892 335.433 61.8238 333.168 63.334L334.832 65.8301ZM344.96 66.7346C347.589 64.544 349.713 64.533 351.114 64.9066C351.855 65.1044 352.456 65.4286 352.871 65.7053C353.077 65.8426 353.232 65.9646 353.33 66.0469C353.379 66.0878 353.413 66.1185 353.431 66.1357C353.441 66.1443 353.446 66.1494 353.447 66.1508C353.448 66.1515 353.448 66.1512 353.446 66.1499C353.446 66.1492 353.445 66.1483 353.444 66.1471C353.443 66.1466 353.442 66.1459 353.442 66.1452C353.441 66.1449 353.441 66.1443 353.441 66.1441C353.44 66.1435 353.439 66.1429 354.5 65.0822C355.561 64.0216 355.56 64.0209 355.559 64.0202C355.559 64.02 355.558 64.0193 355.558 64.0188C355.557 64.0178 355.556 64.0168 355.555 64.0156C355.552 64.0134 355.55 64.0109 355.547 64.0081C355.541 64.0025 355.534 63.9958 355.526 63.9881C355.51 63.9728 355.49 63.9533 355.465 63.9301C355.415 63.8838 355.346 63.8227 355.26 63.7504C355.088 63.6061 354.845 63.4156 354.535 63.2091C353.919 62.7984 353.02 62.31 351.886 62.0079C349.537 61.3815 346.411 61.6205 343.04 64.4299L344.96 66.7346Z" fill="#43A0BD"/>
<circle cx="428" cy="67.6123" r="11" stroke="#359E98" stroke-width="2"/>
<circle cx="428" cy="67.6123" r="11" stroke="#43A0BD" stroke-width="2"/>
<circle cx="459" cy="65.6123" r="11" stroke="#359E98" stroke-width="2"/>
<circle cx="459" cy="65.6123" r="11" stroke="#43A0BD" stroke-width="2"/>
</svg>
