<svg width="79" height="79" viewBox="0 0 79 79" fill="none" xmlns="http://www.w3.org/2000/svg">
<path d="M43.0216 39.5H26.5633C25.6903 39.5 24.853 39.8468 24.2357 40.4641C23.6184 41.0814 23.2716 41.9186 23.2716 42.7916C23.2716 43.6646 23.6184 44.5019 24.2357 45.1192C24.853 45.7365 25.6903 46.0833 26.5633 46.0833H43.0216C43.8946 46.0833 44.7319 45.7365 45.3492 45.1192C45.9665 44.5019 46.3133 43.6646 46.3133 42.7916C46.3133 41.9186 45.9665 41.0814 45.3492 40.4641C44.7319 39.8468 43.8946 39.5 43.0216 39.5ZM46.3133 65.8333H19.9799C19.1069 65.8333 18.2697 65.4865 17.6524 64.8692C17.0351 64.2519 16.6883 63.4146 16.6883 62.5416V16.4583C16.6883 15.5853 17.0351 14.7481 17.6524 14.1308C18.2697 13.5134 19.1069 13.1666 19.9799 13.1666H36.4383V23.0416C36.4383 25.6607 37.4787 28.1724 39.3306 30.0243C41.1825 31.8762 43.6943 32.9166 46.3133 32.9166H56.1883V36.2083C56.1883 37.0813 56.5351 37.9186 57.1524 38.5359C57.7697 39.1532 58.6069 39.5 59.4799 39.5C60.353 39.5 61.1902 39.1532 61.8075 38.5359C62.4248 37.9186 62.7716 37.0813 62.7716 36.2083V29.625C62.7859 29.5599 62.7859 29.4925 62.7716 29.4275C62.7437 29.1207 62.6659 28.8205 62.5412 28.5387V28.2425C62.3829 27.904 62.1718 27.5929 61.9158 27.3208L42.1658 7.57081C41.8864 7.30835 41.5634 7.0967 41.2112 6.9454C41.2112 6.9454 41.0466 6.9454 40.9479 6.9454C40.6235 6.7577 40.2658 6.63473 39.8945 6.58331H20.1445C17.5255 6.58331 15.0138 7.62371 13.1619 9.47563C11.3099 11.3276 10.2695 13.8393 10.2695 16.4583V62.5416C10.2695 65.1607 11.3099 67.6724 13.1619 69.5243C15.0138 71.3762 17.5255 72.4166 20.1445 72.4166H46.4779C47.3509 72.4166 48.1881 72.0698 48.8054 71.4525C49.4227 70.8352 49.7695 69.998 49.7695 69.125C49.7695 68.252 49.4227 67.4147 48.8054 66.7974C48.1881 66.1801 47.3509 65.8333 46.4779 65.8333H46.3133ZM43.0216 17.8079L51.5141 26.3333H46.3133C45.4403 26.3333 44.603 25.9865 43.9857 25.3692C43.3684 24.7519 43.0216 23.9146 43.0216 23.0416V17.8079ZM61.3562 66.7879C61.1998 66.6463 61.0349 66.5144 60.8624 66.3929C60.5007 66.1578 60.0991 65.9905 59.6774 65.8991C59.1486 65.7933 58.6019 65.8189 58.0853 65.9739C57.5687 66.1289 57.0982 66.4084 56.7149 66.7879C56.4064 67.0939 56.1615 67.458 55.9944 67.8591C55.8273 68.2602 55.7413 68.6904 55.7413 69.125C55.7413 69.5595 55.8273 69.9898 55.9944 70.3909C56.1615 70.792 56.4064 71.1561 56.7149 71.4621C57.3281 72.0702 58.1556 72.413 59.0191 72.4166C59.561 72.4194 60.0952 72.2882 60.5743 72.0349C61.0533 71.7816 61.4625 71.414 61.7653 70.9646C62.0682 70.5152 62.2554 69.998 62.3103 69.4589C62.3653 68.9198 62.2863 68.3754 62.0804 67.8741C61.9014 67.4741 61.6567 67.1069 61.3562 66.7879ZM43.0216 52.6666H26.5633C25.6903 52.6666 24.853 53.0134 24.2357 53.6307C23.6184 54.2481 23.2716 55.0853 23.2716 55.9583C23.2716 56.8313 23.6184 57.6686 24.2357 58.2859C24.853 58.9032 25.6903 59.25 26.5633 59.25H43.0216C43.8946 59.25 44.7319 58.9032 45.3492 58.2859C45.9665 57.6686 46.3133 56.8313 46.3133 55.9583C46.3133 55.0853 45.9665 54.2481 45.3492 53.6307C44.7319 53.0134 43.8946 52.6666 43.0216 52.6666ZM59.0191 42.7916C57.2846 42.7905 55.5804 43.2463 54.078 44.1131C52.5756 44.9798 51.328 46.227 50.4608 47.7291C50.2446 48.1052 50.1047 48.5202 50.0489 48.9503C49.9932 49.3805 50.0227 49.8174 50.1358 50.2362C50.2489 50.6549 50.4433 51.0473 50.7081 51.3909C50.9728 51.7345 51.3026 52.0226 51.6787 52.2387C52.0548 52.4549 52.4697 52.5948 52.8999 52.6506C53.33 52.7063 53.767 52.6768 54.1857 52.5637C54.6045 52.4506 54.9969 52.2562 55.3405 51.9914C55.6841 51.7267 55.9721 51.3969 56.1883 51.0208C56.4776 50.5197 56.8939 50.1037 57.3953 49.8148C57.8966 49.5258 58.4653 49.3742 59.0439 49.375C59.6226 49.3759 60.1908 49.5293 60.6912 49.8198C61.1917 50.1102 61.6067 50.5275 61.8945 51.0295C62.1823 51.5315 62.3327 52.1005 62.3306 52.6791C62.3284 53.2577 62.1737 53.8256 61.8821 54.3254C61.5905 54.8252 61.1724 55.2393 60.6697 55.526C60.1671 55.8127 59.5978 55.9618 59.0191 55.9583C58.1461 55.9583 57.3089 56.3051 56.6916 56.9224C56.0742 57.5397 55.7275 58.377 55.7275 59.25C55.7275 60.123 56.0742 60.9602 56.6916 61.5775C57.3089 62.1948 58.1461 62.5416 59.0191 62.5416C61.6381 62.5416 64.1499 61.5012 66.0018 59.6493C67.8537 57.7974 68.8941 55.2857 68.8941 52.6666C68.8941 50.0476 67.8537 47.5359 66.0018 45.684C64.1499 43.832 61.6381 42.7916 59.0191 42.7916ZM26.5633 32.9166H29.8549C30.728 32.9166 31.5652 32.5698 32.1825 31.9525C32.7998 31.3352 33.1466 30.498 33.1466 29.625C33.1466 28.752 32.7998 27.9147 32.1825 27.2974C31.5652 26.6801 30.728 26.3333 29.8549 26.3333H26.5633C25.6903 26.3333 24.853 26.6801 24.2357 27.2974C23.6184 27.9147 23.2716 28.752 23.2716 29.625C23.2716 30.498 23.6184 31.3352 24.2357 31.9525C24.853 32.5698 25.6903 32.9166 26.5633 32.9166Z" fill="#359E98"/>
<path d="M43.0216 39.5H26.5633C25.6903 39.5 24.853 39.8468 24.2357 40.4641C23.6184 41.0814 23.2716 41.9186 23.2716 42.7916C23.2716 43.6646 23.6184 44.5019 24.2357 45.1192C24.853 45.7365 25.6903 46.0833 26.5633 46.0833H43.0216C43.8946 46.0833 44.7319 45.7365 45.3492 45.1192C45.9665 44.5019 46.3133 43.6646 46.3133 42.7916C46.3133 41.9186 45.9665 41.0814 45.3492 40.4641C44.7319 39.8468 43.8946 39.5 43.0216 39.5ZM46.3133 65.8333H19.9799C19.1069 65.8333 18.2697 65.4865 17.6524 64.8692C17.0351 64.2519 16.6883 63.4146 16.6883 62.5416V16.4583C16.6883 15.5853 17.0351 14.7481 17.6524 14.1308C18.2697 13.5134 19.1069 13.1666 19.9799 13.1666H36.4383V23.0416C36.4383 25.6607 37.4787 28.1724 39.3306 30.0243C41.1825 31.8762 43.6943 32.9166 46.3133 32.9166H56.1883V36.2083C56.1883 37.0813 56.5351 37.9186 57.1524 38.5359C57.7697 39.1532 58.6069 39.5 59.4799 39.5C60.353 39.5 61.1902 39.1532 61.8075 38.5359C62.4248 37.9186 62.7716 37.0813 62.7716 36.2083V29.625C62.7859 29.5599 62.7859 29.4925 62.7716 29.4275C62.7437 29.1207 62.6659 28.8205 62.5412 28.5387V28.2425C62.3829 27.904 62.1718 27.5929 61.9158 27.3208L42.1658 7.57081C41.8864 7.30835 41.5634 7.0967 41.2112 6.9454C41.2112 6.9454 41.0466 6.9454 40.9479 6.9454C40.6235 6.7577 40.2658 6.63473 39.8945 6.58331H20.1445C17.5255 6.58331 15.0138 7.62371 13.1619 9.47563C11.3099 11.3276 10.2695 13.8393 10.2695 16.4583V62.5416C10.2695 65.1607 11.3099 67.6724 13.1619 69.5243C15.0138 71.3762 17.5255 72.4166 20.1445 72.4166H46.4779C47.3509 72.4166 48.1881 72.0698 48.8054 71.4525C49.4227 70.8352 49.7695 69.998 49.7695 69.125C49.7695 68.252 49.4227 67.4147 48.8054 66.7974C48.1881 66.1801 47.3509 65.8333 46.4779 65.8333H46.3133ZM43.0216 17.8079L51.5141 26.3333H46.3133C45.4403 26.3333 44.603 25.9865 43.9857 25.3692C43.3684 24.7519 43.0216 23.9146 43.0216 23.0416V17.8079ZM61.3562 66.7879C61.1998 66.6463 61.0349 66.5144 60.8624 66.3929C60.5007 66.1578 60.0991 65.9905 59.6774 65.8991C59.1486 65.7933 58.6019 65.8189 58.0853 65.9739C57.5687 66.1289 57.0982 66.4084 56.7149 66.7879C56.4064 67.0939 56.1615 67.458 55.9944 67.8591C55.8273 68.2602 55.7413 68.6904 55.7413 69.125C55.7413 69.5595 55.8273 69.9898 55.9944 70.3909C56.1615 70.792 56.4064 71.1561 56.7149 71.4621C57.3281 72.0702 58.1556 72.413 59.0191 72.4166C59.561 72.4194 60.0952 72.2882 60.5743 72.0349C61.0533 71.7816 61.4625 71.414 61.7653 70.9646C62.0682 70.5152 62.2554 69.998 62.3103 69.4589C62.3653 68.9198 62.2863 68.3754 62.0804 67.8741C61.9014 67.4741 61.6567 67.1069 61.3562 66.7879ZM43.0216 52.6666H26.5633C25.6903 52.6666 24.853 53.0134 24.2357 53.6307C23.6184 54.2481 23.2716 55.0853 23.2716 55.9583C23.2716 56.8313 23.6184 57.6686 24.2357 58.2859C24.853 58.9032 25.6903 59.25 26.5633 59.25H43.0216C43.8946 59.25 44.7319 58.9032 45.3492 58.2859C45.9665 57.6686 46.3133 56.8313 46.3133 55.9583C46.3133 55.0853 45.9665 54.2481 45.3492 53.6307C44.7319 53.0134 43.8946 52.6666 43.0216 52.6666ZM59.0191 42.7916C57.2846 42.7905 55.5804 43.2463 54.078 44.1131C52.5756 44.9798 51.328 46.227 50.4608 47.7291C50.2446 48.1052 50.1047 48.5202 50.0489 48.9503C49.9932 49.3805 50.0227 49.8174 50.1358 50.2362C50.2489 50.6549 50.4433 51.0473 50.7081 51.3909C50.9728 51.7345 51.3026 52.0226 51.6787 52.2387C52.0548 52.4549 52.4697 52.5948 52.8999 52.6506C53.33 52.7063 53.767 52.6768 54.1857 52.5637C54.6045 52.4506 54.9969 52.2562 55.3405 51.9914C55.6841 51.7267 55.9721 51.3969 56.1883 51.0208C56.4776 50.5197 56.8939 50.1037 57.3953 49.8148C57.8966 49.5258 58.4653 49.3742 59.0439 49.375C59.6226 49.3759 60.1908 49.5293 60.6912 49.8198C61.1917 50.1102 61.6067 50.5275 61.8945 51.0295C62.1823 51.5315 62.3327 52.1005 62.3306 52.6791C62.3284 53.2577 62.1737 53.8256 61.8821 54.3254C61.5905 54.8252 61.1724 55.2393 60.6697 55.526C60.1671 55.8127 59.5978 55.9618 59.0191 55.9583C58.1461 55.9583 57.3089 56.3051 56.6916 56.9224C56.0742 57.5397 55.7275 58.377 55.7275 59.25C55.7275 60.123 56.0742 60.9602 56.6916 61.5775C57.3089 62.1948 58.1461 62.5416 59.0191 62.5416C61.6381 62.5416 64.1499 61.5012 66.0018 59.6493C67.8537 57.7974 68.8941 55.2857 68.8941 52.6666C68.8941 50.0476 67.8537 47.5359 66.0018 45.684C64.1499 43.832 61.6381 42.7916 59.0191 42.7916ZM26.5633 32.9166H29.8549C30.728 32.9166 31.5652 32.5698 32.1825 31.9525C32.7998 31.3352 33.1466 30.498 33.1466 29.625C33.1466 28.752 32.7998 27.9147 32.1825 27.2974C31.5652 26.6801 30.728 26.3333 29.8549 26.3333H26.5633C25.6903 26.3333 24.853 26.6801 24.2357 27.2974C23.6184 27.9147 23.2716 28.752 23.2716 29.625C23.2716 30.498 23.6184 31.3352 24.2357 31.9525C24.853 32.5698 25.6903 32.9166 26.5633 32.9166Z" fill="#43A0BD"/>
</svg>
