<svg width="144" height="144" viewBox="0 0 144 144" fill="none" xmlns="http://www.w3.org/2000/svg">
<circle cx="72" cy="72" r="71.1125" fill="#EDF6F6" stroke="#43A0BD" stroke-width="1.77504"/>
<path d="M116.416 100.29V88.9238M116.416 55.0261V88.9238M116.416 88.9238C118.065 90.5475 122.384 93.7948 126.471 93.7948M116.416 82.5102C118.065 84.1339 122.384 87.3813 126.471 87.3813M116.416 76.259C118.065 77.8827 122.384 81.1301 126.471 81.1301M116.416 69.8454C118.065 71.4691 122.384 74.7165 126.471 74.7165M116.416 63.513C118.065 65.1367 120.762 68.3841 124.849 68.3841M116.416 57.2618C117.065 59.0479 119.141 62.1329 123.228 62.1329M116.335 88.9238C114.686 90.5475 110.367 93.7948 106.28 93.7948M116.335 82.5102C114.686 84.1339 110.367 87.3813 106.28 87.3813M116.335 76.259C114.686 77.8827 110.367 81.1301 106.28 81.1301M116.335 69.8454C114.686 71.4691 110.367 74.7165 106.28 74.7165M116.335 63.513C114.686 65.1367 111.989 68.3841 107.902 68.3841M116.335 57.2618C115.443 59.6162 113.61 62.1329 109.524 62.1329" stroke="#43A0BD" stroke-width="1.77504" stroke-linecap="round"/>
<path d="M31.2136 99.4023V88.0364M31.2136 54.1388V88.0364M31.2136 88.0364C32.8624 89.6601 37.1817 92.9075 41.2686 92.9075M31.2136 81.6229C32.8624 83.2466 37.1817 86.4939 41.2686 86.4939M31.2136 75.3717C32.8624 76.9954 37.1817 80.2427 41.2686 80.2427M31.2136 68.9581C32.8624 70.5818 37.1817 73.8292 41.2686 73.8292M31.2136 62.6257C32.8624 64.2494 35.5599 67.4968 39.6468 67.4968M31.2136 56.3745C31.8623 58.1605 33.9382 61.2456 38.025 61.2456M31.1325 88.0364C29.4837 89.6601 25.1644 92.9075 21.0775 92.9075M31.1325 81.6229C29.4837 83.2466 25.1644 86.4939 21.0775 86.4939M31.1325 75.3717C29.4837 76.9954 25.1644 80.2427 21.0775 80.2427M31.1325 68.9581C29.4837 70.5818 25.1644 73.8292 21.0775 73.8292M31.1325 62.6257C29.4837 64.2494 26.7862 67.4968 22.6993 67.4968M31.1325 56.3745C30.2405 58.7288 28.4079 61.2456 24.3211 61.2456" stroke="#43A0BD" stroke-width="1.77504" stroke-linecap="round"/>
<path d="M129.575 104.505C84.2834 91.2607 58.9646 90.5374 13.976 104.505" stroke="#43A0BD" stroke-width="1.33128"/>
<path d="M32.3978 39.0441C33.3963 38.3785 33.7291 38.4894 34.6166 39.266C35.9479 38.1566 36.9464 39.1551 36.9464 39.1551" stroke="#43A0BD" stroke-width="0.887519" stroke-linecap="round" stroke-linejoin="round"/>
<path d="M34.61 41.4849C35.6084 40.8193 35.9413 40.9302 36.8288 41.7068C38.1601 40.5974 39.1585 41.5959 39.1585 41.5959" stroke="#43A0BD" stroke-width="0.887519" stroke-linecap="round" stroke-linejoin="round"/>
<circle cx="72.1133" cy="71.889" r="65.8983" stroke="#43A0BD" stroke-width="1.77504"/>
<mask id="mask0_2716_8728" style="mask-type:alpha" maskUnits="userSpaceOnUse" x="5" y="5" width="134" height="134">
<circle cx="72.1133" cy="71.889" r="66.7858" fill="#C4C4C4"/>
</mask>
<g mask="url(#mask0_2716_8728)">
<path d="M123.367 43.4883H102.794C102.913 43.0498 102.372 41.8168 103.22 40.0953C104.993 36.4946 109.605 36.7715 112.158 40.0953C113.129 41.3586 114.239 40.9955 114.783 40.7877C115.989 40.0953 116.982 39.812 118.898 40.0953C120.813 40.3786 122.917 42.2881 123.367 43.4883Z" stroke="#43A0BD" stroke-width="1.33128"/>
<path d="M46.3748 96.2959C43.6383 99.0694 39.0306 106.88 45.5983 111.051C53.8078 116.265 74.8864 116.931 79.324 128.247C82.0972 135.318 78.8802 138.675 79.324 138.675L108.945 134.015C108.945 129.467 105.617 114.06 88.4211 111.051C75.1083 108.721 58.1697 107.841 50.9234 106.391C45.3764 105.282 45.8201 101.732 48.3718 96.2959" stroke="#43A0BD" stroke-width="1.33128"/>
<path d="M125.917 32.9491L121.149 34.7368C120.794 34.8699 120.513 35.148 120.376 35.5014L118.653 39.9383M19.5253 30.3975L22.7313 32.7018C22.9551 32.8627 23.1235 33.0891 23.2132 33.3497L27.6654 46.2923C27.7808 46.6278 28.0255 46.9034 28.345 47.0578L47.2029 56.1725C47.5873 56.3583 48.0375 56.3485 48.4134 56.1461L62.9947 48.2946C63.4177 48.0669 63.9306 48.0846 64.3368 48.3412L79.8695 58.1513C80.2838 58.413 80.8084 58.4259 81.235 58.185L98.6175 48.369C99.0914 48.1014 99.6804 48.1491 100.105 48.4896L110.3 56.6639C111.002 57.2266 112.048 56.9457 112.374 56.1072L117.188 43.7103" stroke="#43A0BD" stroke-width="1.33128"/>
<path d="M94.9622 39.9377V52.2743H64.0765V65.0545H91.8558V76.8585H64.0765V89.7276H95.9384V101.975H50.2312V39.9377H94.9622Z" fill="white"/>
<path d="M94.9622 39.9377H95.8497C95.8497 39.4476 95.4523 39.0502 94.9622 39.0502V39.9377ZM94.9622 52.2743V53.1618C95.4523 53.1618 95.8497 52.7644 95.8497 52.2743H94.9622ZM64.0765 52.2743V51.3867C63.5863 51.3867 63.189 51.7841 63.189 52.2743H64.0765ZM64.0765 65.0545H63.189C63.189 65.5447 63.5863 65.9421 64.0765 65.9421V65.0545ZM91.8558 65.0545H92.7434C92.7434 64.5644 92.346 64.167 91.8558 64.167V65.0545ZM91.8558 76.8585V77.7461C92.346 77.7461 92.7434 77.3487 92.7434 76.8585H91.8558ZM64.0765 76.8585V75.971C63.5863 75.971 63.189 76.3684 63.189 76.8585H64.0765ZM64.0765 89.7276H63.189C63.189 90.2177 63.5863 90.6151 64.0765 90.6151V89.7276ZM95.9384 89.7276H96.8259C96.8259 89.2374 96.4286 88.8401 95.9384 88.8401V89.7276ZM95.9384 101.975V102.863C96.4286 102.863 96.8259 102.466 96.8259 101.975H95.9384ZM50.2312 101.975H49.3437C49.3437 102.466 49.741 102.863 50.2312 102.863V101.975ZM50.2312 39.9377V39.0502C49.741 39.0502 49.3437 39.4476 49.3437 39.9377H50.2312ZM94.0746 39.9377V52.2743H95.8497V39.9377H94.0746ZM94.9622 51.3867H64.0765V53.1618H94.9622V51.3867ZM63.189 52.2743V65.0545H64.964V52.2743H63.189ZM64.0765 65.9421H91.8558V64.167H64.0765V65.9421ZM90.9683 65.0545V76.8585H92.7434V65.0545H90.9683ZM91.8558 75.971H64.0765V77.7461H91.8558V75.971ZM63.189 76.8585V89.7276H64.964V76.8585H63.189ZM64.0765 90.6151H95.9384V88.8401H64.0765V90.6151ZM95.0509 89.7276V101.975H96.8259V89.7276H95.0509ZM95.9384 101.088H50.2312V102.863H95.9384V101.088ZM51.1187 101.975V39.9377H49.3437V101.975H51.1187ZM50.2312 40.8253H94.9622V39.0502H50.2312V40.8253Z" fill="#43A0BD"/>
<circle cx="35.2763" cy="24.1848" r="1.44222" stroke="#43A0BD" stroke-width="0.66564"/>
<circle cx="108.055" cy="24.1848" r="1.44222" stroke="#43A0BD" stroke-width="0.66564"/>
<path d="M47.0304 18.2419L47.2628 19.8998L43.1121 20.4819L43.353 22.1994L47.0862 21.6759L47.3087 23.2622L43.5754 23.7857L43.8179 25.5152L48.0999 24.9148L48.3307 26.5607L42.1881 27.4221L41.0189 19.0849L47.0304 18.2419Z" fill="#43A0BD"/>
<path d="M53.0411 26.0378L52.3294 17.6491L54.2016 17.4903L54.7718 24.2109L58.3481 23.9074L58.4896 25.5756L53.0411 26.0378Z" fill="#43A0BD"/>
<path d="M62.6228 16.9186L64.5 16.8403L64.8507 25.2518L62.9735 25.3301L62.6228 16.9186Z" fill="#43A0BD"/>
<path d="M75.3618 16.7261L77.2406 16.7408L77.1748 25.1594L75.296 25.1447L71.3267 19.8382L71.2854 25.1133L69.4066 25.0987L69.4724 16.6801L71.2308 16.6938L75.3194 22.1458L75.3618 16.7261Z" fill="#43A0BD"/>
<path d="M88.573 21.5736C88.6289 20.8209 88.4364 20.1624 87.9952 19.5982C87.5541 19.034 86.9812 18.7257 86.2765 18.6733C85.5799 18.6215 84.9717 18.842 84.452 19.3348C83.9322 19.8275 83.6444 20.4503 83.5884 21.2029C83.5331 21.9476 83.7259 22.6021 84.1671 23.1663C84.6088 23.7225 85.178 24.0265 85.8746 24.0783C86.5793 24.1307 87.1912 23.9145 87.7103 23.4297C88.2301 22.937 88.5176 22.3182 88.573 21.5736ZM88.98 24.7077C88.0699 25.4694 86.9943 25.804 85.7532 25.7118C84.5121 25.6195 83.4978 25.1294 82.7103 24.2415C81.9235 23.3457 81.5759 22.2812 81.6676 21.048C81.7593 19.8149 82.2602 18.8175 83.1703 18.0559C84.0809 17.2862 85.1569 16.9476 86.398 17.0398C87.6391 17.1321 88.6531 17.6262 89.44 18.5221C90.2274 19.4099 90.5753 20.4704 90.4836 21.7036C90.3919 22.9367 89.8907 23.9381 88.98 24.7077Z" fill="#43A0BD"/>
<path d="M102.253 21.8288C102.067 23.165 101.419 23.9544 100.307 24.1972L102.004 27.4729L99.7137 27.1547L98.2341 24.2376L96.9457 24.0586L96.5762 26.7189L94.7152 26.4604L95.8734 18.1216L99.0348 18.5607C100.331 18.7408 101.223 19.0877 101.711 19.6013C102.207 20.1161 102.388 20.8586 102.253 21.8288ZM98.5294 22.637C99.1656 22.7254 99.6134 22.6822 99.8728 22.5075C100.132 22.3327 100.293 22.0227 100.355 21.5773C100.418 21.124 100.341 20.7972 100.126 20.5971C99.9106 20.3969 99.5047 20.2554 98.9082 20.1726L97.5124 19.9787L97.1694 22.4481L98.5294 22.637Z" fill="#43A0BD"/>
<path d="M94.2973 40.3823L90.0816 45.4856M90.0816 45.4856L94.2973 51.4763M90.0816 45.4856H56.7996M56.7996 45.4856V70.7799M56.7996 45.4856L50.8088 40.3823M56.7996 96.0742H90.0816M56.7996 96.0742V70.7799M56.7996 96.0742L50.8088 100.956M90.0816 96.0742L94.2973 90.3053M90.0816 96.0742L95.4067 100.956M56.7996 70.7799H85.4221M85.4221 70.7799L91.4128 65.8985M85.4221 70.7799L91.4128 76.105" stroke="#43A0BD" stroke-width="0.22188"/>
</g>
</svg>
