<svg width="80" height="80" viewBox="0 0 80 80" fill="none" xmlns="http://www.w3.org/2000/svg">
<path d="M63.3327 13.3334H56.666V10C56.666 9.11597 56.3148 8.26812 55.6897 7.643C55.0646 7.01788 54.2167 6.66669 53.3327 6.66669C52.4486 6.66669 51.6008 7.01788 50.9757 7.643C50.3505 8.26812 49.9994 9.11597 49.9994 10V13.3334H29.9993V10C29.9993 9.11597 29.6482 8.26812 29.023 7.643C28.3979 7.01788 27.5501 6.66669 26.666 6.66669C25.782 6.66669 24.9341 7.01788 24.309 7.643C23.6839 8.26812 23.3327 9.11597 23.3327 10V13.3334H16.666C14.0139 13.3334 11.4703 14.3869 9.59495 16.2623C7.71958 18.1377 6.66602 20.6812 6.66602 23.3334V63.3334C6.66602 65.9855 7.71958 68.5291 9.59495 70.4044C11.4703 72.2798 14.0139 73.3334 16.666 73.3334H63.3327C65.9849 73.3334 68.5284 72.2798 70.4038 70.4044C72.2791 68.5291 73.3327 65.9855 73.3327 63.3334V23.3334C73.3327 20.6812 72.2791 18.1377 70.4038 16.2623C68.5284 14.3869 65.9849 13.3334 63.3327 13.3334ZM66.666 63.3334C66.666 64.2174 66.3148 65.0653 65.6897 65.6904C65.0646 66.3155 64.2167 66.6667 63.3327 66.6667H16.666C15.782 66.6667 14.9341 66.3155 14.309 65.6904C13.6839 65.0653 13.3327 64.2174 13.3327 63.3334V40H66.666V63.3334ZM66.666 33.3334H13.3327V23.3334C13.3327 22.4493 13.6839 21.6015 14.309 20.9763C14.9341 20.3512 15.782 20 16.666 20H23.3327V23.3334C23.3327 24.2174 23.6839 25.0653 24.309 25.6904C24.9341 26.3155 25.782 26.6667 26.666 26.6667C27.5501 26.6667 28.3979 26.3155 29.023 25.6904C29.6482 25.0653 29.9993 24.2174 29.9993 23.3334V20H49.9994V23.3334C49.9994 24.2174 50.3505 25.0653 50.9757 25.6904C51.6008 26.3155 52.4486 26.6667 53.3327 26.6667C54.2167 26.6667 55.0646 26.3155 55.6897 25.6904C56.3148 25.0653 56.666 24.2174 56.666 23.3334V20H63.3327C64.2167 20 65.0646 20.3512 65.6897 20.9763C66.3148 21.6015 66.666 22.4493 66.666 23.3334V33.3334Z" fill="#359E98"/>
<path d="M63.3327 13.3334H56.666V10C56.666 9.11597 56.3148 8.26812 55.6897 7.643C55.0646 7.01788 54.2167 6.66669 53.3327 6.66669C52.4486 6.66669 51.6008 7.01788 50.9757 7.643C50.3505 8.26812 49.9994 9.11597 49.9994 10V13.3334H29.9993V10C29.9993 9.11597 29.6482 8.26812 29.023 7.643C28.3979 7.01788 27.5501 6.66669 26.666 6.66669C25.782 6.66669 24.9341 7.01788 24.309 7.643C23.6839 8.26812 23.3327 9.11597 23.3327 10V13.3334H16.666C14.0139 13.3334 11.4703 14.3869 9.59495 16.2623C7.71958 18.1377 6.66602 20.6812 6.66602 23.3334V63.3334C6.66602 65.9855 7.71958 68.5291 9.59495 70.4044C11.4703 72.2798 14.0139 73.3334 16.666 73.3334H63.3327C65.9849 73.3334 68.5284 72.2798 70.4038 70.4044C72.2791 68.5291 73.3327 65.9855 73.3327 63.3334V23.3334C73.3327 20.6812 72.2791 18.1377 70.4038 16.2623C68.5284 14.3869 65.9849 13.3334 63.3327 13.3334ZM66.666 63.3334C66.666 64.2174 66.3148 65.0653 65.6897 65.6904C65.0646 66.3155 64.2167 66.6667 63.3327 66.6667H16.666C15.782 66.6667 14.9341 66.3155 14.309 65.6904C13.6839 65.0653 13.3327 64.2174 13.3327 63.3334V40H66.666V63.3334ZM66.666 33.3334H13.3327V23.3334C13.3327 22.4493 13.6839 21.6015 14.309 20.9763C14.9341 20.3512 15.782 20 16.666 20H23.3327V23.3334C23.3327 24.2174 23.6839 25.0653 24.309 25.6904C24.9341 26.3155 25.782 26.6667 26.666 26.6667C27.5501 26.6667 28.3979 26.3155 29.023 25.6904C29.6482 25.0653 29.9993 24.2174 29.9993 23.3334V20H49.9994V23.3334C49.9994 24.2174 50.3505 25.0653 50.9757 25.6904C51.6008 26.3155 52.4486 26.6667 53.3327 26.6667C54.2167 26.6667 55.0646 26.3155 55.6897 25.6904C56.3148 25.0653 56.666 24.2174 56.666 23.3334V20H63.3327C64.2167 20 65.0646 20.3512 65.6897 20.9763C66.3148 21.6015 66.666 22.4493 66.666 23.3334V33.3334Z" fill="#43A0BD"/>
</svg>
