<svg width="25" height="24" viewBox="0 0 25 24" fill="none" xmlns="http://www.w3.org/2000/svg">
<mask id="mask0_7959_6306" style="mask-type:alpha" maskUnits="userSpaceOnUse" x="0" y="0" width="25" height="24">
<rect x="0.5" width="24" height="24" fill="#D9D9D9"/>
</mask>
<g mask="url(#mask0_7959_6306)">
<path d="M12.5 15.4115C12.3795 15.4115 12.2673 15.3923 12.1635 15.3538C12.0597 15.3154 11.9609 15.2494 11.8672 15.1558L8.75775 12.0463C8.60908 11.8974 8.53567 11.7233 8.5375 11.524C8.5395 11.3247 8.61292 11.1474 8.75775 10.9922C8.91292 10.8372 9.09108 10.7572 9.29225 10.752C9.49358 10.7468 9.67183 10.8218 9.827 10.977L11.75 12.9V5.25C11.75 5.03717 11.8218 4.859 11.9655 4.7155C12.109 4.57183 12.2872 4.5 12.5 4.5C12.7128 4.5 12.891 4.57183 13.0345 4.7155C13.1782 4.859 13.25 5.03717 13.25 5.25V12.9L15.173 10.977C15.3218 10.8283 15.4984 10.7549 15.7028 10.7568C15.9073 10.7588 16.0871 10.8372 16.2423 10.9922C16.3871 11.1474 16.4621 11.3231 16.4672 11.5192C16.4724 11.7154 16.3974 11.8911 16.2423 12.0463L13.1328 15.1558C13.0391 15.2494 12.9403 15.3154 12.8365 15.3538C12.7327 15.3923 12.6205 15.4115 12.5 15.4115ZM6.80775 19.5C6.30258 19.5 5.875 19.325 5.525 18.975C5.175 18.625 5 18.1974 5 17.6923V15.7308C5 15.5179 5.07183 15.3398 5.2155 15.1962C5.359 15.0526 5.53717 14.9808 5.75 14.9808C5.96283 14.9808 6.141 15.0526 6.2845 15.1962C6.42817 15.3398 6.5 15.5179 6.5 15.7308V17.6923C6.5 17.7692 6.53208 17.8398 6.59625 17.9038C6.66025 17.9679 6.73075 18 6.80775 18H18.1923C18.2692 18 18.3398 17.9679 18.4038 17.9038C18.4679 17.8398 18.5 17.7692 18.5 17.6923V15.7308C18.5 15.5179 18.5718 15.3398 18.7155 15.1962C18.859 15.0526 19.0372 14.9808 19.25 14.9808C19.4628 14.9808 19.641 15.0526 19.7845 15.1962C19.9282 15.3398 20 15.5179 20 15.7308V17.6923C20 18.1974 19.825 18.625 19.475 18.975C19.125 19.325 18.6974 19.5 18.1923 19.5H6.80775Z" fill="#E4F0F4"/>
</g>
</svg>
