<svg width="17" height="17" viewBox="0 0 17 17" fill="none" xmlns="http://www.w3.org/2000/svg">
<path d="M11.6875 8.5H14.875C15.0159 8.5 15.151 8.55597 15.2507 8.6556C15.3503 8.75523 15.4062 8.89035 15.4062 9.03125V13.2812C15.4062 13.4221 15.3503 13.5573 15.2507 13.6569C15.151 13.7565 15.0159 13.8125 14.875 13.8125H2.125C1.9841 13.8125 1.84898 13.7565 1.74935 13.6569C1.64972 13.5573 1.59375 13.4221 1.59375 13.2812V9.03125C1.59375 8.89035 1.64972 8.75523 1.74935 8.6556C1.84898 8.55597 1.9841 8.5 2.125 8.5H5.3125" stroke="#43A0BD" stroke-width="1.41667" stroke-linecap="round" stroke-linejoin="round"/>
<path d="M8.5 1.59375V8.5" stroke="#43A0BD" stroke-width="1.41667" stroke-linecap="round" stroke-linejoin="round"/>
<path d="M5.3125 5.3125L8.5 8.5L11.6875 5.3125" stroke="#43A0BD" stroke-width="1.41667" stroke-linecap="round" stroke-linejoin="round"/>
<path d="M12.4844 11.9531C12.9245 11.9531 13.2812 11.5964 13.2812 11.1562C13.2812 10.7161 12.9245 10.3594 12.4844 10.3594C12.0443 10.3594 11.6875 10.7161 11.6875 11.1562C11.6875 11.5964 12.0443 11.9531 12.4844 11.9531Z" fill="#43A0BD"/>
</svg>
