<svg width="322" height="284" viewBox="0 0 322 284" fill="none" xmlns="http://www.w3.org/2000/svg">
<path d="M189.161 76.6256H192.775C192.775 74.6301 191.157 73.0124 189.161 73.0124V76.6256ZM189.161 95.5405V99.1537C191.157 99.1537 192.775 97.536 192.775 95.5405H189.161ZM141.806 95.5405V91.9274C139.811 91.9274 138.193 93.5451 138.193 95.5405H141.806ZM141.806 115.136H138.193C138.193 117.131 139.811 118.749 141.806 118.749V115.136ZM184.399 115.136H188.012C188.012 113.14 186.394 111.523 184.399 111.523V115.136ZM184.399 133.234V136.848C186.394 136.848 188.012 135.23 188.012 133.234H184.399ZM141.806 133.234V129.621C139.811 129.621 138.193 131.239 138.193 133.234H141.806ZM141.806 152.966H138.193C138.193 154.961 139.811 156.579 141.806 156.579V152.966ZM190.658 152.966H194.271C194.271 150.97 192.654 149.353 190.658 149.353V152.966ZM190.658 171.745V175.358C192.654 175.358 194.271 173.74 194.271 171.745H190.658ZM120.578 171.745H116.965C116.965 173.74 118.582 175.358 120.578 175.358V171.745ZM120.578 76.6256V73.0124C118.582 73.0124 116.965 74.6301 116.965 76.6256H120.578ZM185.548 76.6256V95.5405H192.775V76.6256H185.548ZM189.161 91.9274H141.806V99.1537H189.161V91.9274ZM138.193 95.5405V115.136H145.419V95.5405H138.193ZM141.806 118.749H184.399V111.523H141.806V118.749ZM180.786 115.136V133.234H188.012V115.136H180.786ZM184.399 129.621H141.806V136.848H184.399V129.621ZM138.193 133.234V152.966H145.419V133.234H138.193ZM141.806 156.579H190.658V149.353H141.806V156.579ZM187.045 152.966V171.745H194.271V152.966H187.045ZM190.658 168.131H120.578V175.358H190.658V168.131ZM124.191 171.745V76.6256H116.965V171.745H124.191ZM120.578 80.2387H189.161V73.0124H120.578V80.2387Z" fill="#359E98"/>
<path d="M189.161 76.6256H192.775C192.775 74.6301 191.157 73.0124 189.161 73.0124V76.6256ZM189.161 95.5405V99.1537C191.157 99.1537 192.775 97.536 192.775 95.5405H189.161ZM141.806 95.5405V91.9274C139.811 91.9274 138.193 93.5451 138.193 95.5405H141.806ZM141.806 115.136H138.193C138.193 117.131 139.811 118.749 141.806 118.749V115.136ZM184.399 115.136H188.012C188.012 113.14 186.394 111.523 184.399 111.523V115.136ZM184.399 133.234V136.848C186.394 136.848 188.012 135.23 188.012 133.234H184.399ZM141.806 133.234V129.621C139.811 129.621 138.193 131.239 138.193 133.234H141.806ZM141.806 152.966H138.193C138.193 154.961 139.811 156.579 141.806 156.579V152.966ZM190.658 152.966H194.271C194.271 150.97 192.654 149.353 190.658 149.353V152.966ZM190.658 171.745V175.358C192.654 175.358 194.271 173.74 194.271 171.745H190.658ZM120.578 171.745H116.965C116.965 173.74 118.582 175.358 120.578 175.358V171.745ZM120.578 76.6256V73.0124C118.582 73.0124 116.965 74.6301 116.965 76.6256H120.578ZM185.548 76.6256V95.5405H192.775V76.6256H185.548ZM189.161 91.9274H141.806V99.1537H189.161V91.9274ZM138.193 95.5405V115.136H145.419V95.5405H138.193ZM141.806 118.749H184.399V111.523H141.806V118.749ZM180.786 115.136V133.234H188.012V115.136H180.786ZM184.399 129.621H141.806V136.848H184.399V129.621ZM138.193 133.234V152.966H145.419V133.234H138.193ZM141.806 156.579H190.658V149.353H141.806V156.579ZM187.045 152.966V171.745H194.271V152.966H187.045ZM190.658 168.131H120.578V175.358H190.658V168.131ZM124.191 171.745V76.6256H116.965V171.745H124.191ZM120.578 80.2387H189.161V73.0124H120.578V80.2387Z" fill="#43A0BD"/>
<path d="M39.138 223.629L3.44922 172.425C8.10427 170.096 16.6385 172.425 21.2936 177.079L52.3273 208.886C68.8786 213.024 77.1056 215.412 90.7605 217.894C107.829 220.998 107.514 211.261 98.1975 206.602C89.5032 202.255 90.798 203.804 77.6087 197.599C66.0415 192.157 64.4194 189.063 64.4194 182.856C84.5913 186.477 105.062 189.888 117.777 195.451C142.604 206.313 157.842 293.453 152.411 279.489C142.543 254.116 76.8956 232.939 39.138 223.629Z" stroke="#359E98" stroke-width="5.78104" stroke-linecap="round" stroke-linejoin="round"/>
<path d="M39.138 223.629L3.44922 172.425C8.10427 170.096 16.6385 172.425 21.2936 177.079L52.3273 208.886C68.8786 213.024 77.1056 215.412 90.7605 217.894C107.829 220.998 107.514 211.261 98.1975 206.602C89.5032 202.255 90.798 203.804 77.6087 197.599C66.0415 192.157 64.4194 189.063 64.4194 182.856C84.5913 186.477 105.062 189.888 117.777 195.451C142.604 206.313 157.842 293.453 152.411 279.489C142.543 254.116 76.8956 232.939 39.138 223.629Z" stroke="#43A0BD" stroke-width="5.78104" stroke-linecap="round" stroke-linejoin="round"/>
<path d="M282.501 223.629L318.189 172.425C313.534 170.096 305 172.425 300.345 177.079L269.311 208.886C252.76 213.024 244.533 215.412 230.878 217.894C213.81 220.998 214.124 211.26 223.441 206.602C232.135 202.255 230.841 203.804 244.03 197.599C255.597 192.157 257.219 189.063 257.219 182.856C237.047 186.477 216.576 189.888 203.861 195.451C179.034 206.313 163.797 293.453 169.228 279.489C179.096 254.116 244.743 232.939 282.501 223.629Z" stroke="#359E98" stroke-width="5.78104" stroke-linecap="round" stroke-linejoin="round"/>
<path d="M282.501 223.629L318.189 172.425C313.534 170.096 305 172.425 300.345 177.079L269.311 208.886C252.76 213.024 244.533 215.412 230.878 217.894C213.81 220.998 214.124 211.26 223.441 206.602C232.135 202.255 230.841 203.804 244.03 197.599C255.597 192.157 257.219 189.063 257.219 182.856C237.047 186.477 216.576 189.888 203.861 195.451C179.034 206.313 163.797 293.453 169.228 279.489C179.096 254.116 244.743 232.939 282.501 223.629Z" stroke="#43A0BD" stroke-width="5.78104" stroke-linecap="round" stroke-linejoin="round"/>
<path d="M80.7098 125.506L95.6424 138.064M80.7098 125.506C86.0887 122.989 93.0516 123.498 99.4532 126.235M80.7098 125.506C79.0447 131.198 80.8736 137.865 84.8409 143.61M116.659 155.738L105.874 146.668M116.659 155.738C118.486 147.431 115.776 140.053 110.919 134.494M116.659 155.738C109.154 158.553 101.494 157.048 95.137 153.26M105.874 146.668L110.919 134.494M105.874 146.668L95.137 153.26M105.874 146.668L95.6424 138.064M110.919 134.494C107.779 130.901 103.742 128.068 99.4532 126.235M95.137 153.26C91.0302 150.813 87.467 147.413 84.8409 143.61M95.6424 138.064L99.4532 126.235M95.6424 138.064L84.8409 143.61" stroke="#359E98" stroke-width="5.05841" stroke-linecap="round" stroke-linejoin="round"/>
<path d="M80.7098 125.506L95.6424 138.064M80.7098 125.506C86.0887 122.989 93.0516 123.498 99.4532 126.235M80.7098 125.506C79.0447 131.198 80.8736 137.865 84.8409 143.61M116.659 155.738L105.874 146.668M116.659 155.738C118.486 147.431 115.776 140.053 110.919 134.494M116.659 155.738C109.154 158.553 101.494 157.048 95.137 153.26M105.874 146.668L110.919 134.494M105.874 146.668L95.137 153.26M105.874 146.668L95.6424 138.064M110.919 134.494C107.779 130.901 103.742 128.068 99.4532 126.235M95.137 153.26C91.0302 150.813 87.467 147.413 84.8409 143.61M95.6424 138.064L99.4532 126.235M95.6424 138.064L84.8409 143.61" stroke="#43A0BD" stroke-width="5.05841" stroke-linecap="round" stroke-linejoin="round"/>
<path d="M211.313 135.276L203.111 143.744M211.313 135.276C212.602 138.625 212 142.8 210.079 146.542M211.313 135.276C207.952 134.031 203.857 134.851 200.226 136.998M191.567 155.661L197.491 149.546M191.567 155.661C196.497 157.115 201.058 155.795 204.615 153.102M191.567 155.661C190.189 151.019 191.42 146.466 193.973 142.795M197.491 149.546L204.615 153.102M197.491 149.546L193.973 142.795M197.491 149.546L203.111 143.744M204.615 153.102C206.913 151.362 208.792 149.049 210.079 146.542M193.973 142.795C195.622 140.423 197.822 138.42 200.226 136.998M203.111 143.744L210.079 146.542M203.111 143.744L200.226 136.998" stroke="#359E98" stroke-width="3.61315" stroke-linecap="round" stroke-linejoin="round"/>
<path d="M211.313 135.276L203.111 143.744M211.313 135.276C212.602 138.625 212 142.8 210.079 146.542M211.313 135.276C207.952 134.031 203.857 134.851 200.226 136.998M191.567 155.661L197.491 149.546M191.567 155.661C196.497 157.115 201.058 155.795 204.615 153.102M191.567 155.661C190.189 151.019 191.42 146.466 193.973 142.795M197.491 149.546L204.615 153.102M197.491 149.546L193.973 142.795M197.491 149.546L203.111 143.744M204.615 153.102C206.913 151.362 208.792 149.049 210.079 146.542M193.973 142.795C195.622 140.423 197.822 138.42 200.226 136.998M203.111 143.744L210.079 146.542M203.111 143.744L200.226 136.998" stroke="#43A0BD" stroke-width="3.61315" stroke-linecap="round" stroke-linejoin="round"/>
<path d="M222.546 48.5548L208.656 62.2578M222.546 48.5548C224.553 54.144 223.4 61.0297 220.081 67.1497M222.546 48.5548C217.032 46.3687 210.225 47.5712 204.136 50.9882M189.109 81.5434L199.14 71.6468M189.109 81.5434C197.21 84.134 204.807 82.1204 210.793 77.7995M189.109 81.5434C187.001 73.8101 189.211 66.3228 193.572 60.3446M199.14 71.6468L210.793 77.7995M199.14 71.6468L193.572 60.3446M199.14 71.6468L208.656 62.2578M210.793 77.7995C214.662 75.0067 217.858 71.2501 220.081 67.1497M193.572 60.3446C196.39 56.4824 200.106 53.2502 204.136 50.9882M208.656 62.2578L220.081 67.1497M208.656 62.2578L204.136 50.9882" stroke="#359E98" stroke-width="5.05841" stroke-linecap="round" stroke-linejoin="round"/>
<path d="M222.546 48.5548L208.656 62.2578M222.546 48.5548C224.553 54.144 223.4 61.0297 220.081 67.1497M222.546 48.5548C217.032 46.3687 210.225 47.5712 204.136 50.9882M189.109 81.5434L199.14 71.6468M189.109 81.5434C197.21 84.134 204.807 82.1204 210.793 77.7995M189.109 81.5434C187.001 73.8101 189.211 66.3228 193.572 60.3446M199.14 71.6468L210.793 77.7995M199.14 71.6468L193.572 60.3446M199.14 71.6468L208.656 62.2578M210.793 77.7995C214.662 75.0067 217.858 71.2501 220.081 67.1497M193.572 60.3446C196.39 56.4824 200.106 53.2502 204.136 50.9882M208.656 62.2578L220.081 67.1497M208.656 62.2578L204.136 50.9882" stroke="#43A0BD" stroke-width="5.05841" stroke-linecap="round" stroke-linejoin="round"/>
<line x1="6.26162" y1="147.417" x2="62.6268" y2="147.417" stroke="#359E98" stroke-width="5.78104" stroke-linecap="round"/>
<line x1="6.26162" y1="147.417" x2="62.6268" y2="147.417" stroke="#43A0BD" stroke-width="5.78104" stroke-linecap="round"/>
<line x1="42.7109" y1="101.494" x2="68.6781" y2="115.952" stroke="#359E98" stroke-width="5.78104" stroke-linecap="round"/>
<line x1="42.7109" y1="101.494" x2="68.6781" y2="115.952" stroke="#43A0BD" stroke-width="5.78104" stroke-linecap="round"/>
<line x1="103.774" y1="32.4936" x2="117.378" y2="58.918" stroke="#359E98" stroke-width="5.78104" stroke-linecap="round"/>
<line x1="103.774" y1="32.4936" x2="117.378" y2="58.918" stroke="#43A0BD" stroke-width="5.78104" stroke-linecap="round"/>
<line x1="213.308" y1="31.5554" x2="209.615" y2="38.5402" stroke="#359E98" stroke-width="5.78104" stroke-linecap="round"/>
<line x1="213.308" y1="31.5554" x2="209.615" y2="38.5402" stroke="#43A0BD" stroke-width="5.78104" stroke-linecap="round"/>
<line x1="28.2435" y1="93.4899" x2="32.5477" y2="95.8075" stroke="#359E98" stroke-width="5.78104" stroke-linecap="round"/>
<line x1="28.2435" y1="93.4899" x2="32.5477" y2="95.8075" stroke="#43A0BD" stroke-width="5.78104" stroke-linecap="round"/>
<line x1="96.1641" y1="17.8124" x2="98.4627" y2="22.1268" stroke="#359E98" stroke-width="5.78104" stroke-linecap="round"/>
<line x1="96.1641" y1="17.8124" x2="98.4627" y2="22.1268" stroke="#43A0BD" stroke-width="5.78104" stroke-linecap="round"/>
<line x1="220.969" y1="16.8931" x2="218.756" y2="21.2522" stroke="#359E98" stroke-width="5.78104" stroke-linecap="round"/>
<line x1="220.969" y1="16.8931" x2="218.756" y2="21.2522" stroke="#43A0BD" stroke-width="5.78104" stroke-linecap="round"/>
<line x1="2.89052" y1="-2.89052" x2="32.6112" y2="-2.89052" transform="matrix(-0.873709 0.486449 0.486449 0.873709 267.799 106.227)" stroke="#359E98" stroke-width="5.78104" stroke-linecap="round"/>
<line x1="2.89052" y1="-2.89052" x2="32.6112" y2="-2.89052" transform="matrix(-0.873709 0.486449 0.486449 0.873709 267.799 106.227)" stroke="#43A0BD" stroke-width="5.78104" stroke-linecap="round"/>
<line x1="2.89052" y1="-2.89052" x2="7.77899" y2="-2.89052" transform="matrix(-0.834711 0.550689 0.550689 0.834711 281.059 97.6108)" stroke="#359E98" stroke-width="5.78104" stroke-linecap="round"/>
<line x1="2.89052" y1="-2.89052" x2="7.77899" y2="-2.89052" transform="matrix(-0.834711 0.550689 0.550689 0.834711 281.059 97.6108)" stroke="#43A0BD" stroke-width="5.78104" stroke-linecap="round"/>
<line x1="156.568" y1="2.89052" x2="156.568" y2="48.4162" stroke="#359E98" stroke-width="5.78104" stroke-linecap="round"/>
<line x1="156.568" y1="2.89052" x2="156.568" y2="48.4162" stroke="#43A0BD" stroke-width="5.78104" stroke-linecap="round"/>
<line x1="40.6991" y1="36.1315" x2="72.8907" y2="68.323" stroke="#359E98" stroke-width="5.78104" stroke-linecap="round"/>
<line x1="40.6991" y1="36.1315" x2="72.8907" y2="68.323" stroke="#43A0BD" stroke-width="5.78104" stroke-linecap="round"/>
<line x1="2.89052" y1="-2.89052" x2="48.4162" y2="-2.89052" transform="matrix(-0.707107 0.707107 0.707107 0.707107 279.416 40.4673)" stroke="#359E98" stroke-width="5.78104" stroke-linecap="round"/>
<line x1="2.89052" y1="-2.89052" x2="48.4162" y2="-2.89052" transform="matrix(-0.707107 0.707107 0.707107 0.707107 279.416 40.4673)" stroke="#43A0BD" stroke-width="5.78104" stroke-linecap="round"/>
<line x1="81.8887" y1="78.6429" x2="89.9636" y2="86.2429" stroke="#359E98" stroke-width="5.78104" stroke-linecap="round"/>
<line x1="81.8887" y1="78.6429" x2="89.9636" y2="86.2429" stroke="#43A0BD" stroke-width="5.78104" stroke-linecap="round"/>
<line x1="2.89052" y1="-2.89052" x2="13.9795" y2="-2.89052" transform="matrix(-0.7282 0.685365 0.685365 0.7282 235.336 83.8252)" stroke="#359E98" stroke-width="5.78104" stroke-linecap="round"/>
<line x1="2.89052" y1="-2.89052" x2="13.9795" y2="-2.89052" transform="matrix(-0.7282 0.685365 0.685365 0.7282 235.336 83.8252)" stroke="#43A0BD" stroke-width="5.78104" stroke-linecap="round"/>
<line x1="240.395" y1="147.417" x2="311.212" y2="147.417" stroke="#359E98" stroke-width="5.78104"/>
<line x1="240.395" y1="147.417" x2="311.212" y2="147.417" stroke="#43A0BD" stroke-width="5.78104"/>
</svg>
