<svg width="54" height="57" viewBox="0 0 54 57" fill="none" xmlns="http://www.w3.org/2000/svg">
<path d="M41.1892 38.9871H42.4173C42.4173 38.3089 41.8674 37.7591 41.1892 37.7591V38.9871ZM41.1892 45V46.2281C41.8674 46.2281 42.4173 45.6783 42.4173 45H41.1892ZM16.1202 45H14.8921C14.8921 45.6783 15.442 46.2281 16.1202 46.2281V45ZM16.1202 12.6231V11.395C15.442 11.395 14.8921 11.9448 14.8921 12.6231H16.1202ZM40.5879 12.6231H41.816C41.816 11.9448 41.2662 11.395 40.5879 11.395V12.6231ZM40.5879 18.636V19.8641C41.2662 19.8641 41.816 19.3142 41.816 18.636H40.5879ZM23.5669 18.636V17.4079C22.8886 17.4079 22.3388 17.9577 22.3388 18.636H23.5669ZM23.5669 25.6664H22.3388C22.3388 26.3446 22.8886 26.8945 23.5669 26.8945V25.6664ZM38.599 25.6664H39.8271C39.8271 24.9881 39.2773 24.4383 38.599 24.4383V25.6664ZM38.599 31.4942V32.7223C39.2773 32.7223 39.8271 32.1725 39.8271 31.4942H38.599ZM23.5669 31.4942V30.2661C22.8886 30.2661 22.3388 30.816 22.3388 31.4942H23.5669ZM23.5669 38.9871H22.3388C22.3388 39.6654 22.8886 40.2152 23.5669 40.2152V38.9871ZM39.9611 38.9871V45H42.4173V38.9871H39.9611ZM41.1892 43.7719H16.1202V46.2281H41.1892V43.7719ZM17.3483 45V12.6231H14.8921V45H17.3483ZM16.1202 13.8512H40.5879V11.395H16.1202V13.8512ZM39.3598 12.6231V18.636H41.816V12.6231H39.3598ZM40.5879 17.4079H23.5669V19.8641H40.5879V17.4079ZM22.3388 18.636V25.6664H24.795V18.636H22.3388ZM23.5669 26.8945H38.599V24.4383H23.5669V26.8945ZM37.3709 25.6664V31.4942H39.8271V25.6664H37.3709ZM38.599 30.2661H23.5669V32.7223H38.599V30.2661ZM22.3388 31.4942V38.9871H24.795V31.4942H22.3388ZM23.5669 40.2152H41.1892V37.7591H23.5669V40.2152Z" fill="#359E98"/>
<path d="M41.1892 38.9871H42.4173C42.4173 38.3089 41.8674 37.7591 41.1892 37.7591V38.9871ZM41.1892 45V46.2281C41.8674 46.2281 42.4173 45.6783 42.4173 45H41.1892ZM16.1202 45H14.8921C14.8921 45.6783 15.442 46.2281 16.1202 46.2281V45ZM16.1202 12.6231V11.395C15.442 11.395 14.8921 11.9448 14.8921 12.6231H16.1202ZM40.5879 12.6231H41.816C41.816 11.9448 41.2662 11.395 40.5879 11.395V12.6231ZM40.5879 18.636V19.8641C41.2662 19.8641 41.816 19.3142 41.816 18.636H40.5879ZM23.5669 18.636V17.4079C22.8886 17.4079 22.3388 17.9577 22.3388 18.636H23.5669ZM23.5669 25.6664H22.3388C22.3388 26.3446 22.8886 26.8945 23.5669 26.8945V25.6664ZM38.599 25.6664H39.8271C39.8271 24.9881 39.2773 24.4383 38.599 24.4383V25.6664ZM38.599 31.4942V32.7223C39.2773 32.7223 39.8271 32.1725 39.8271 31.4942H38.599ZM23.5669 31.4942V30.2661C22.8886 30.2661 22.3388 30.816 22.3388 31.4942H23.5669ZM23.5669 38.9871H22.3388C22.3388 39.6654 22.8886 40.2152 23.5669 40.2152V38.9871ZM39.9611 38.9871V45H42.4173V38.9871H39.9611ZM41.1892 43.7719H16.1202V46.2281H41.1892V43.7719ZM17.3483 45V12.6231H14.8921V45H17.3483ZM16.1202 13.8512H40.5879V11.395H16.1202V13.8512ZM39.3598 12.6231V18.636H41.816V12.6231H39.3598ZM40.5879 17.4079H23.5669V19.8641H40.5879V17.4079ZM22.3388 18.636V25.6664H24.795V18.636H22.3388ZM23.5669 26.8945H38.599V24.4383H23.5669V26.8945ZM37.3709 25.6664V31.4942H39.8271V25.6664H37.3709ZM38.599 30.2661H23.5669V32.7223H38.599V30.2661ZM22.3388 31.4942V38.9871H24.795V31.4942H22.3388ZM23.5669 40.2152H41.1892V37.7591H23.5669V40.2152Z" fill="#43A0BD"/>
<path d="M2.7075 29.1501L7.78304 33.4185M2.7075 29.1501C4.53577 28.2946 6.90245 28.4676 9.07831 29.3977M2.7075 29.1501C2.14155 31.085 2.76319 33.3507 4.11164 35.3036M14.9264 39.4258L11.2607 36.3431M14.9264 39.4258C15.5476 36.6023 14.6265 34.0947 12.9754 32.2052M14.9264 39.4258C12.3756 40.3828 9.77203 39.8713 7.61127 38.5838M11.2607 36.3431L12.9754 32.2052M11.2607 36.3431L7.61127 38.5838M11.2607 36.3431L7.78304 33.4185M12.9754 32.2052C11.9083 30.9839 10.5361 30.0209 9.07831 29.3977M7.61127 38.5838C6.21536 37.752 5.00426 36.5964 4.11164 35.3036M7.78304 33.4185L9.07831 29.3977M7.78304 33.4185L4.11164 35.3036" stroke="#359E98" stroke-width="1.71934" stroke-linecap="round" stroke-linejoin="round"/>
<path d="M2.7075 29.1501L7.78304 33.4185M2.7075 29.1501C4.53577 28.2946 6.90245 28.4676 9.07831 29.3977M2.7075 29.1501C2.14155 31.085 2.76319 33.3507 4.11164 35.3036M14.9264 39.4258L11.2607 36.3431M14.9264 39.4258C15.5476 36.6023 14.6265 34.0947 12.9754 32.2052M14.9264 39.4258C12.3756 40.3828 9.77203 39.8713 7.61127 38.5838M11.2607 36.3431L12.9754 32.2052M11.2607 36.3431L7.61127 38.5838M11.2607 36.3431L7.78304 33.4185M12.9754 32.2052C11.9083 30.9839 10.5361 30.0209 9.07831 29.3977M7.61127 38.5838C6.21536 37.752 5.00426 36.5964 4.11164 35.3036M7.78304 33.4185L9.07831 29.3977M7.78304 33.4185L4.11164 35.3036" stroke="#43A0BD" stroke-width="1.71934" stroke-linecap="round" stroke-linejoin="round"/>
<path d="M47.0991 32.471L44.3113 35.3491M47.0991 32.471C47.5372 33.6092 47.3326 35.0283 46.6798 36.3003M47.0991 32.471C45.9569 32.0478 44.565 32.3265 43.3308 33.0564M40.3878 39.3998L42.4012 37.3212M40.3878 39.3998C42.0632 39.894 43.6136 39.4451 44.8224 38.5301M40.3878 39.3998C39.9191 37.8219 40.3378 36.2743 41.2054 35.0266M42.4012 37.3212L44.8224 38.5301M42.4012 37.3212L41.2054 35.0266M42.4012 37.3212L44.3113 35.3491M44.8224 38.5301C45.6037 37.9387 46.2424 37.1525 46.6798 36.3003M41.2054 35.0266C41.7659 34.2205 42.5138 33.5396 43.3308 33.0564M44.3113 35.3491L46.6798 36.3003M44.3113 35.3491L43.3308 33.0564" stroke="#359E98" stroke-width="1.2281" stroke-linecap="round" stroke-linejoin="round"/>
<path d="M47.0991 32.471L44.3113 35.3491M47.0991 32.471C47.5372 33.6092 47.3326 35.0283 46.6798 36.3003M47.0991 32.471C45.9569 32.0478 44.565 32.3265 43.3308 33.0564M40.3878 39.3998L42.4012 37.3212M40.3878 39.3998C42.0632 39.894 43.6136 39.4451 44.8224 38.5301M40.3878 39.3998C39.9191 37.8219 40.3378 36.2743 41.2054 35.0266M42.4012 37.3212L44.8224 38.5301M42.4012 37.3212L41.2054 35.0266M42.4012 37.3212L44.3113 35.3491M44.8224 38.5301C45.6037 37.9387 46.2424 37.1525 46.6798 36.3003M41.2054 35.0266C41.7659 34.2205 42.5138 33.5396 43.3308 33.0564M44.3113 35.3491L46.6798 36.3003M44.3113 35.3491L43.3308 33.0564" stroke="#43A0BD" stroke-width="1.2281" stroke-linecap="round" stroke-linejoin="round"/>
<path d="M50.9173 2.99455L46.1964 7.65214M50.9173 2.99455C51.5995 4.89431 51.2076 7.23473 50.0796 9.3149M50.9173 2.99455C49.0433 2.25151 46.7296 2.66024 44.66 3.82167M39.5522 14.2073L42.9617 10.8435M39.5522 14.2073C42.3058 15.0878 44.8881 14.4034 46.9227 12.9347M39.5522 14.2073C38.836 11.5787 39.5869 9.03382 41.0693 7.00185M42.9617 10.8435L46.9227 12.9347M42.9617 10.8435L41.0693 7.00185M42.9617 10.8435L46.1964 7.65214M46.9227 12.9347C48.2377 11.9855 49.3239 10.7086 50.0796 9.3149M41.0693 7.00185C42.0271 5.68913 43.2901 4.59049 44.66 3.82167M46.1964 7.65214L50.0796 9.3149M46.1964 7.65214L44.66 3.82167" stroke="#359E98" stroke-width="1.71934" stroke-linecap="round" stroke-linejoin="round"/>
<path d="M50.9173 2.99455L46.1964 7.65214M50.9173 2.99455C51.5995 4.89431 51.2076 7.23473 50.0796 9.3149M50.9173 2.99455C49.0433 2.25151 46.7296 2.66024 44.66 3.82167M39.5522 14.2073L42.9617 10.8435M39.5522 14.2073C42.3058 15.0878 44.8881 14.4034 46.9227 12.9347M39.5522 14.2073C38.836 11.5787 39.5869 9.03382 41.0693 7.00185M42.9617 10.8435L46.9227 12.9347M42.9617 10.8435L41.0693 7.00185M42.9617 10.8435L46.1964 7.65214M46.9227 12.9347C48.2377 11.9855 49.3239 10.7086 50.0796 9.3149M41.0693 7.00185C42.0271 5.68913 43.2901 4.59049 44.66 3.82167M46.1964 7.65214L50.0796 9.3149M46.1964 7.65214L44.66 3.82167" stroke="#43A0BD" stroke-width="1.71934" stroke-linecap="round" stroke-linejoin="round"/>
</svg>
