<svg width="132" height="30" viewBox="0 0 132 30" fill="none" xmlns="http://www.w3.org/2000/svg">
<circle cx="3.05685" cy="19.1052" r="2.48369" stroke="white" stroke-width="1.14632"/>
<circle cx="128.389" cy="19.1052" r="2.48369" stroke="white" stroke-width="1.14632"/>
<path d="M23.2013 8.21131L23.6017 11.0664L16.4536 12.0688L16.8684 15.0267L23.2976 14.1251L23.6807 16.857L17.2515 17.7586L17.6691 20.7369L25.0432 19.7029L25.4407 22.5375L14.8623 24.0209L12.8489 9.66305L23.2013 8.21131Z" fill="white"/>
<path d="M33.5892 21.6331L32.3636 7.18666L35.5877 6.91313L36.5695 18.4868L42.7284 17.9643L42.9721 20.8371L33.5892 21.6331Z" fill="white"/>
<path d="M50.1208 5.9265L53.3536 5.79172L53.9576 20.2775L50.7247 20.4122L50.1208 5.9265Z" fill="white"/>
<path d="M72.0862 5.59468L75.3217 5.61996L75.2085 20.1178L71.9729 20.0926L65.1371 10.9541L65.0662 20.0386L61.8306 20.0133L61.9439 5.51544L64.972 5.5391L72.0132 14.9281L72.0862 5.59468Z" fill="white"/>
<path d="M94.8795 13.9441C94.9759 12.6479 94.6443 11.514 93.8846 10.5423C93.1248 9.57071 92.1383 9.03978 90.9248 8.94955C89.7251 8.86035 88.6777 9.24004 87.7826 10.0886C86.8876 10.9372 86.3919 12.0096 86.2955 13.3059C86.2001 14.5883 86.5323 15.7153 87.292 16.687C88.0528 17.6448 89.033 18.1683 90.2327 18.2575C91.4462 18.3478 92.4999 17.9755 93.3939 17.1407C94.289 16.2921 94.7842 15.2266 94.8795 13.9441ZM95.5805 19.3416C94.0132 20.6532 92.1609 21.2296 90.0235 21.0706C87.8861 20.9117 86.1394 20.0677 84.7833 18.5387C83.4282 16.9959 82.8296 15.1627 82.9875 13.0391C83.1454 10.9155 84.008 9.19788 85.5753 7.88624C87.1437 6.5608 88.9965 5.97754 91.1339 6.13647C93.2713 6.2954 95.0176 7.14626 96.3726 8.68907C97.7287 10.2181 98.3278 12.0444 98.1699 14.168C98.012 16.2916 97.1489 18.0161 95.5805 19.3416Z" fill="white"/>
<path d="M118.481 14.3887C118.161 16.6896 117.044 18.0491 115.129 18.4672L118.052 24.1084L114.108 23.5605L111.56 18.5368L109.341 18.2286L108.704 22.81L105.5 22.3648L107.494 8.00434L112.938 8.76056C115.171 9.07066 116.707 9.66799 117.548 10.5526C118.402 11.439 118.713 12.7177 118.481 14.3887ZM112.068 15.7804C113.164 15.9326 113.935 15.8583 114.382 15.5573C114.828 15.2564 115.105 14.7224 115.211 13.9555C115.32 13.1748 115.189 12.6121 114.818 12.2674C114.447 11.9227 113.748 11.679 112.72 11.5363L110.317 11.2024L109.726 15.4551L112.068 15.7804Z" fill="white"/>
</svg>
