<svg width="528" height="113" viewBox="0 0 528 113" fill="none" xmlns="http://www.w3.org/2000/svg">
<line x1="317" y1="68.5" x2="528" y2="68.5" stroke="#BDDADE"/>
<line y1="68.5" x2="211" y2="68.5" stroke="#BDDADE"/>
<circle cx="228.834" cy="39.7348" r="1.83282" stroke="#43A0BD" stroke-width="0.845917"/>
<circle cx="321.32" cy="39.7348" r="1.83282" stroke="#43A0BD" stroke-width="0.845917"/>
<path d="M243.732 31.9347L244.027 34.0417L238.752 34.7814L239.058 36.9641L243.803 36.2988L244.086 38.3147L239.341 38.9801L239.649 41.1779L245.091 40.4148L245.384 42.5066L237.578 43.6013L236.092 33.006L243.732 31.9347Z" fill="#43A0BD"/>
<path d="M251.384 41.8405L250.48 31.1799L252.859 30.978L253.584 39.5188L258.129 39.1332L258.308 41.2531L251.384 41.8405Z" fill="#43A0BD"/>
<path d="M263.572 30.2509L265.958 30.1514L266.404 40.8411L264.018 40.9405L263.572 30.2509Z" fill="#43A0BD"/>
<path d="M279.771 30.006L282.159 30.0246L282.075 40.7232L279.687 40.7046L274.643 33.9609L274.591 40.6648L272.203 40.6461L272.287 29.9475L274.521 29.965L279.717 36.8935L279.771 30.006Z" fill="#43A0BD"/>
<path d="M296.576 36.1669C296.647 35.2103 296.402 34.3736 295.842 33.6566C295.281 32.9395 294.553 32.5477 293.657 32.4812C292.772 32.4153 291.999 32.6955 291.339 33.3217C290.678 33.948 290.312 34.7393 290.241 35.6959C290.171 36.6422 290.416 37.4739 290.977 38.1909C291.538 38.8978 292.261 39.2841 293.147 39.3499C294.042 39.4165 294.82 39.1418 295.48 38.5258C296.14 37.8995 296.506 37.1132 296.576 36.1669ZM297.093 40.1499C295.937 41.1178 294.57 41.5431 292.992 41.4258C291.415 41.3086 290.126 40.6857 289.125 39.5574C288.125 38.4189 287.684 37.0661 287.8 35.499C287.917 33.9319 288.553 32.6644 289.71 31.6965C290.867 30.7184 292.235 30.288 293.812 30.4053C295.389 30.5225 296.678 31.1504 297.678 32.2889C298.678 33.4173 299.12 34.765 299.004 36.3321C298.887 37.8992 298.251 39.1718 297.093 40.1499Z" fill="#43A0BD"/>
<path d="M313.976 36.4932C313.74 38.1911 312.915 39.1944 311.502 39.5029L313.659 43.6658L310.749 43.2614L308.868 39.5542L307.231 39.3268L306.761 42.7076L304.396 42.3791L305.868 31.7819L309.886 32.3399C311.533 32.5688 312.667 33.0096 313.287 33.6623C313.918 34.3165 314.147 35.2601 313.976 36.4932ZM309.244 37.5202C310.052 37.6325 310.621 37.5776 310.951 37.3556C311.28 37.1335 311.485 36.7395 311.563 36.1735C311.643 35.5974 311.546 35.1822 311.273 34.9278C310.999 34.6734 310.483 34.4936 309.725 34.3883L307.951 34.1419L307.515 37.2801L309.244 37.5202Z" fill="#43A0BD"/>
<line x1="213.671" y1="44.7764" x2="218.776" y2="47.3292" stroke="#BDDADE" stroke-linecap="round"/>
<line x1="251.671" y1="16.2236" x2="253.224" y2="19.3292" stroke="#BDDADE" stroke-linecap="round"/>
<line x1="303.423" y1="16.0322" x2="300.677" y2="21.2258" stroke="#BDDADE" stroke-linecap="round"/>
<line x1="206.677" y1="40.7968" x2="210.517" y2="42.8644" stroke="#BDDADE" stroke-linecap="round"/>
<line x1="247.676" y1="8.20618" x2="249.727" y2="12.0551" stroke="#BDDADE" stroke-linecap="round"/>
<line x1="307.251" y1="8.67215" x2="305.277" y2="12.5611" stroke="#BDDADE" stroke-linecap="round"/>
<line x1="337.18" y1="47.6897" x2="331.69" y2="51.1559" stroke="#BDDADE" stroke-linecap="round"/>
<line x1="276.5" y1="0.5" x2="276.5" y2="15.5" stroke="#BDDADE" stroke-linecap="round"/>
<line x1="223.707" y1="21" x2="231" y2="28.2929" stroke="#BDDADE" stroke-linecap="round"/>
<line x1="332.879" y1="23.7071" x2="325.586" y2="31" stroke="#BDDADE" stroke-linecap="round"/>
<path d="M291.474 51.8519V62.094H265.832V72.7045H288.895V82.5045H265.832V93.1888H292.284V103.357H254.337V51.8519H291.474Z" fill="#43A0BD"/>
<path d="M291.474 51.8519H292.319C292.319 51.3853 291.94 51.0071 291.474 51.0071V51.8519ZM291.474 62.094V62.9389C291.94 62.9389 292.319 62.5606 292.319 62.094H291.474ZM265.832 62.094V61.2492C265.365 61.2492 264.987 61.6274 264.987 62.094H265.832ZM265.832 72.7045H264.987C264.987 73.1711 265.365 73.5494 265.832 73.5494V72.7045ZM288.895 72.7045H289.74C289.74 72.238 289.361 71.8597 288.895 71.8597V72.7045ZM288.895 82.5045V83.3494C289.361 83.3494 289.74 82.9711 289.74 82.5045H288.895ZM265.832 82.5045V81.6597C265.365 81.6597 264.987 82.038 264.987 82.5045H265.832ZM265.832 93.1888H264.987C264.987 93.6553 265.365 94.0336 265.832 94.0336V93.1888ZM292.284 93.1888H293.129C293.129 92.7222 292.751 92.3439 292.284 92.3439V93.1888ZM292.284 103.357V104.202C292.751 104.202 293.129 103.824 293.129 103.357H292.284ZM254.337 103.357H253.492C253.492 103.824 253.87 104.202 254.337 104.202V103.357ZM254.337 51.8519V51.0071C253.87 51.0071 253.492 51.3853 253.492 51.8519H254.337ZM290.629 51.8519V62.094H292.319V51.8519H290.629ZM291.474 61.2492H265.832V62.9389H291.474V61.2492ZM264.987 62.094V72.7045H266.676V62.094H264.987ZM265.832 73.5494H288.895V71.8597H265.832V73.5494ZM288.05 72.7045V82.5045H289.74V72.7045H288.05ZM288.895 81.6597H265.832V83.3494H288.895V81.6597ZM264.987 82.5045V93.1888H266.676V82.5045H264.987ZM265.832 94.0336H292.284V92.3439H265.832V94.0336ZM291.439 93.1888V103.357H293.129V93.1888H291.439ZM292.284 102.512H254.337V104.202H292.284V102.512ZM255.182 103.357V51.8519H253.492V103.357H255.182ZM254.337 52.6967H291.474V51.0071H254.337V52.6967Z" fill="#43A0BD"/>
<path d="M292.603 51.652L287.398 57.3058M287.398 57.3058L292.603 63.5879M287.398 57.3058H259.767M259.767 57.3058V77.8575M259.767 57.3058L253.654 51.652M259.829 98.7674H287.46M259.829 98.7674L259.767 77.8575M259.829 98.7674L253.654 104.421M287.46 98.7674L293.231 92.4853M287.46 98.7674L293.231 105.049M259.767 77.8575H283.53M283.53 77.8575L290.09 72.3827M283.53 77.8575L290.09 83.6904" stroke="white" stroke-width="0.733723"/>
</svg>
