<svg width="538" height="601" viewBox="0 0 538 601" fill="none" xmlns="http://www.w3.org/2000/svg">
<path d="M260.802 386.069C262.51 403.152 263.364 434.755 271.906 448.421C235.178 441.588 227.206 419.665 216.387 409.985V380.944L207.845 350.195C216.387 333.112 207.845 293.822 207.845 293.822C202.151 288.128 192.465 277.667 186.998 284.5C181.532 291.333 194.498 268.5 203.998 258C203.998 258 189.998 249 183.498 240.5C176.998 232 188.498 203.5 188.498 203.5L190.763 181.076L166.847 170.827C166.847 170.827 160.868 160.577 171.118 150.327C177.096 141.786 237.911 123.678 248.844 126.411C259.777 129.144 253.399 176.52 248.844 199.867L223.22 216.95C223.22 216.95 216.387 240.865 226.636 251.115C236.886 261.365 235.178 293.822 235.178 293.822L223.22 317.738C235.178 334.821 259.435 372.403 260.802 386.069Z" fill="#BDDADE"/>
<path d="M406.008 199.867L402.591 139.224C404.869 139.793 408.058 141.615 409.425 151.182C411.133 163.139 413.695 163.994 419.674 169.118C425.653 174.243 431.632 183.639 434.195 199.867C436.244 212.85 431.632 220.651 429.07 222.929C426.792 225.207 423.603 231.983 429.07 240.866C433.779 248.518 436.46 273.614 437.671 285.121C438.179 286.81 438.465 288.312 438.465 289.552C438.465 292.738 438.218 290.312 437.671 285.121C434.82 275.643 424.991 260.316 419.674 252.824L429.07 292.114C424.23 300.086 414.378 316.372 413.695 317.738C413.012 319.105 409.424 344.501 407.716 357.029C401.168 366.424 387.558 385.215 385.509 385.215C383.459 385.215 398.321 340.231 406.008 317.738C410.278 306.35 418.649 283.231 417.966 281.865C417.282 280.498 414.834 271.046 413.695 266.49V251.97V222.929L407.716 205.846L406.008 199.867Z" fill="#BDDADE"/>
<path d="M269.344 332.26C272.191 336.53 271.906 348.488 269.344 355.321" stroke="#359E98" stroke-width="2.50993" stroke-linecap="round" stroke-linejoin="round"/>
<path d="M269.344 332.26C272.191 336.53 271.906 348.488 269.344 355.321" stroke="#43A0BD" stroke-width="2.50993" stroke-linecap="round" stroke-linejoin="round"/>
<path d="M351.344 237.452C360.739 253.68 385.342 241.806 392.342 238.306M262.513 218.661L264.222 223.785H280.45M357.323 221.223C357.323 221.223 358.017 221.97 360.739 223.785C363.462 225.6 375.26 223.785 375.26 223.785C375.544 223.785 376.455 223.273 377.822 221.223M334.261 204.994C334.261 203.856 334.261 200.04 334.261 193.891M390.634 224.64C391.773 224.07 395.759 221.223 399.175 221.223M391.488 227.202C392.912 226.917 394.905 227.202 397.467 228.056M236.035 230.619C237.174 230.049 241.16 227.202 244.577 227.202M236.035 223.785C237.174 223.216 240.306 221.223 244.577 223.785" stroke="#359E98" stroke-width="2.50993" stroke-linecap="round" stroke-linejoin="round"/>
<path d="M351.344 237.452C360.739 253.68 385.342 241.806 392.342 238.306M262.513 218.661L264.222 223.785H280.45M357.323 221.223C357.323 221.223 358.017 221.97 360.739 223.785C363.462 225.6 375.26 223.785 375.26 223.785C375.544 223.785 376.455 223.273 377.822 221.223M334.261 204.994C334.261 203.856 334.261 200.04 334.261 193.891M390.634 224.64C391.773 224.07 395.759 221.223 399.175 221.223M391.488 227.202C392.912 226.917 394.905 227.202 397.467 228.056M236.035 230.619C237.174 230.049 241.16 227.202 244.577 227.202M236.035 223.785C237.174 223.216 240.306 221.223 244.577 223.785" stroke="#43A0BD" stroke-width="2.50993" stroke-linecap="round" stroke-linejoin="round"/>
<path d="M256.531 175.099C262.51 172.537 262.51 172.537 265.927 171.683" stroke="#359E98" stroke-width="2.50993" stroke-linecap="round" stroke-linejoin="round"/>
<path d="M256.531 175.099C262.51 172.537 262.51 172.537 265.927 171.683" stroke="#43A0BD" stroke-width="2.50993" stroke-linecap="round" stroke-linejoin="round"/>
<path d="M286.427 167.413C298.385 165.705 300.093 167.413 306.072 167.413M387.215 175.1C381.236 175.1 375.257 167.413 367.57 167.413M205.283 238.306C159.446 253.586 166.656 343.171 197.664 366.427M204.429 258.806C168.957 287.626 173.167 351.094 209.554 378.385M209.554 378.385C212.287 380.435 214.394 382.086 216.387 383.51M209.554 378.385C206.138 377.246 192.686 373.2 184.784 366.427C152.222 338.516 150.38 273.864 161.722 236.598" stroke="#359E98" stroke-width="2.50993" stroke-linecap="round" stroke-linejoin="round"/>
<path d="M286.427 167.413C298.385 165.705 300.093 167.413 306.072 167.413M387.215 175.1C381.236 175.1 375.257 167.413 367.57 167.413M205.283 238.306C159.446 253.586 166.656 343.171 197.664 366.427M204.429 258.806C168.957 287.626 173.167 351.094 209.554 378.385M209.554 378.385C212.287 380.435 214.394 382.086 216.387 383.51M209.554 378.385C206.138 377.246 192.686 373.2 184.784 366.427C152.222 338.516 150.38 273.864 161.722 236.598" stroke="#43A0BD" stroke-width="2.50993" stroke-linecap="round" stroke-linejoin="round"/>
<path d="M405.153 119.677C401.689 111.016 403 86.0004 376.967 82.0948C364.858 80.2781 357.177 58.7011 339.385 59.8872M406.861 316.128C422.697 316.128 425.972 289.115 417.111 280.255M388.07 387.022C408.57 362.252 415.607 347.688 408.57 316.019M424.798 240.964C444.443 265.734 442.735 285.379 440.173 303.316M403.445 160.675C419.673 167.508 434.877 184.591 437.611 211.924C440.657 242.384 460.672 278.546 435.116 319.545M417.111 252.068C418.182 253.406 421.181 259.44 424.611 267.937M387.216 393.855C441.321 375.82 442.902 313.244 424.611 267.937M424.611 267.937C440.239 307.585 432.007 336.571 411.986 369.939M407.716 126.51C442.215 126.51 461.526 193.987 453.839 225.59M255.679 101.74C247.992 90.636 233.186 82.0948 218.097 87.1244C207.847 90.5409 198.452 104.207 195.035 109.332" stroke="#359E98" stroke-width="2.50993" stroke-linecap="round" stroke-linejoin="round"/>
<path d="M405.153 119.677C401.689 111.016 403 86.0004 376.967 82.0948C364.858 80.2781 357.177 58.7011 339.385 59.8872M406.861 316.128C422.697 316.128 425.972 289.115 417.111 280.255M388.07 387.022C408.57 362.252 415.607 347.688 408.57 316.019M424.798 240.964C444.443 265.734 442.735 285.379 440.173 303.316M403.445 160.675C419.673 167.508 434.877 184.591 437.611 211.924C440.657 242.384 460.672 278.546 435.116 319.545M417.111 252.068C418.182 253.406 421.181 259.44 424.611 267.937M387.216 393.855C441.321 375.82 442.902 313.244 424.611 267.937M424.611 267.937C440.239 307.585 432.007 336.571 411.986 369.939M407.716 126.51C442.215 126.51 461.526 193.987 453.839 225.59M255.679 101.74C247.992 90.636 233.186 82.0948 218.097 87.1244C207.847 90.5409 198.452 104.207 195.035 109.332" stroke="#43A0BD" stroke-width="2.50993" stroke-linecap="round" stroke-linejoin="round"/>
<path d="M287.283 115.309C288.137 112.746 303.512 110.184 298.387 91.3931C293.262 72.602 275.642 57.1994 245.43 68.3313C236.156 71.7485 230.91 76.0192 220.66 73.4568M311.199 112.747C313.761 96.5181 325.719 73.4564 304.366 63.2068C283.012 52.9571 266.784 57.2278 261.659 58.0819C257.559 58.7652 245.145 61.7832 239.451 63.2068C242.014 63.7762 245.43 46.9785 298.387 46.9785C318.032 46.9785 325.75 58.6363 331.698 70.0402M328.282 112.747C333.904 99.093 339.022 84.082 331.698 70.0402M400.029 130.684C419.39 142.642 473.485 203.286 446.152 289.554M412.841 272.471C412.841 265.638 414.549 263.075 414.549 260.513C414.549 255.111 413.695 253.68 411.987 251.972M405.154 199.869C404.3 188.765 402.591 178.516 402.591 174.245C402.591 169.974 402.591 171.683 402.591 165.704C402.591 159.725 402.591 155.454 402.591 151.183C402.591 146.913 400.029 140.934 400.029 137.517M337.677 111.893C339.955 109.9 343.656 104.206 341.948 93.9561C340.172 83.299 333.901 72.603 331.698 70.0402" stroke="#359E98" stroke-width="2.50993" stroke-linecap="round" stroke-linejoin="round"/>
<path d="M287.283 115.309C288.137 112.746 303.512 110.184 298.387 91.3931C293.262 72.602 275.642 57.1994 245.43 68.3313C236.156 71.7485 230.91 76.0192 220.66 73.4568M311.199 112.747C313.761 96.5181 325.719 73.4564 304.366 63.2068C283.012 52.9571 266.784 57.2278 261.659 58.0819C257.559 58.7652 245.145 61.7832 239.451 63.2068C242.014 63.7762 245.43 46.9785 298.387 46.9785C318.032 46.9785 325.75 58.6363 331.698 70.0402M328.282 112.747C333.904 99.093 339.022 84.082 331.698 70.0402M400.029 130.684C419.39 142.642 473.485 203.286 446.152 289.554M412.841 272.471C412.841 265.638 414.549 263.075 414.549 260.513C414.549 255.111 413.695 253.68 411.987 251.972M405.154 199.869C404.3 188.765 402.591 178.516 402.591 174.245C402.591 169.974 402.591 171.683 402.591 165.704C402.591 159.725 402.591 155.454 402.591 151.183C402.591 146.913 400.029 140.934 400.029 137.517M337.677 111.893C339.955 109.9 343.656 104.206 341.948 93.9561C340.172 83.299 333.901 72.603 331.698 70.0402" stroke="#43A0BD" stroke-width="2.50993" stroke-linecap="round" stroke-linejoin="round"/>
<path d="M291.552 204.139C285.573 201.576 268.49 196.451 259.949 198.16C251.407 199.868 242.012 207.555 239.449 205.847M355.612 204.139C358.174 202.146 364.666 198.16 370.132 198.16C382.117 198.16 388.754 198.528 399.173 204.139M288.989 234.888C283.563 241.671 259.476 250.645 252.261 243.429" stroke="#359E98" stroke-width="2.50993" stroke-linecap="round" stroke-linejoin="round"/>
<path d="M291.552 204.139C285.573 201.576 268.49 196.451 259.949 198.16C251.407 199.868 242.012 207.555 239.449 205.847M355.612 204.139C358.174 202.146 364.666 198.16 370.132 198.16C382.117 198.16 388.754 198.528 399.173 204.139M288.989 234.888C283.563 241.671 259.476 250.645 252.261 243.429" stroke="#43A0BD" stroke-width="2.50993" stroke-linecap="round" stroke-linejoin="round"/>
<path d="M234.325 145.205C233.756 149.191 230.055 158.188 219.805 162.288C206.993 167.412 162.498 180 157.453 217.807M157.453 217.807C164.286 208.411 178.806 196.453 193.327 188.766C204.943 182.616 215.819 173.676 219.805 169.975M157.453 217.807C150.62 227.202 136.174 243 139.516 263.076C141.501 275 143.084 278.792 143.368 280.5M222.367 175.1C221.262 176.451 218.98 178.894 215.534 182.114M202.722 407.425C190.764 400.592 176.31 382.327 168.557 370.697C163.432 363.01 148.912 333.969 143.787 298.095C139.332 266.913 154.891 253.68 160.87 237.452C166.849 221.223 177.098 211.828 195.889 198.161C204.436 191.946 210.995 186.356 215.534 182.114M209.555 306.637C209.555 309.199 215.534 329.699 211.264 325.428C204.758 318.922 185.372 296.654 195.889 286.138C199.989 282.038 203.861 287.276 205.285 290.408C206.424 289.554 208.018 286.138 205.285 279.304C201.868 270.763 200.16 273.325 202.722 265.638C205.285 257.951 207.847 241.722 205.285 237.452C202.722 233.181 202.722 229.764 202.722 228.056C202.722 226.69 200.445 223.501 199.306 222.077C201.299 217.807 205.797 208.582 207.847 205.849C209.897 203.115 212.687 197.877 213.826 195.599L215.534 188.766V182.114" stroke="#359E98" stroke-width="2.50993" stroke-linecap="round" stroke-linejoin="round"/>
<path d="M234.325 145.205C233.756 149.191 230.055 158.188 219.805 162.288C206.993 167.412 162.498 180 157.453 217.807M157.453 217.807C164.286 208.411 178.806 196.453 193.327 188.766C204.943 182.616 215.819 173.676 219.805 169.975M157.453 217.807C150.62 227.202 136.174 243 139.516 263.076C141.501 275 143.084 278.792 143.368 280.5M222.367 175.1C221.262 176.451 218.98 178.894 215.534 182.114M202.722 407.425C190.764 400.592 176.31 382.327 168.557 370.697C163.432 363.01 148.912 333.969 143.787 298.095C139.332 266.913 154.891 253.68 160.87 237.452C166.849 221.223 177.098 211.828 195.889 198.161C204.436 191.946 210.995 186.356 215.534 182.114M209.555 306.637C209.555 309.199 215.534 329.699 211.264 325.428C204.758 318.922 185.372 296.654 195.889 286.138C199.989 282.038 203.861 287.276 205.285 290.408C206.424 289.554 208.018 286.138 205.285 279.304C201.868 270.763 200.16 273.325 202.722 265.638C205.285 257.951 207.847 241.722 205.285 237.452C202.722 233.181 202.722 229.764 202.722 228.056C202.722 226.69 200.445 223.501 199.306 222.077C201.299 217.807 205.797 208.582 207.847 205.849C209.897 203.115 212.687 197.877 213.826 195.599L215.534 188.766V182.114" stroke="#43A0BD" stroke-width="2.50993" stroke-linecap="round" stroke-linejoin="round"/>
<path d="M263.364 116.162C250.642 106.62 235.116 90.5611 214.679 98.2252C209.212 100.275 197.026 107.621 195.033 109.329M279.593 113.6C260.966 109.46 264.343 76.0001 245 76.0001C233.896 76.0001 220.821 83.5247 214 89.0001M254.823 122.141C247.136 121.287 241.157 130.682 231.761 122.141M231.761 122.141C222.366 113.6 223.22 105.058 214.679 107.621C207.846 109.671 191.617 119.579 189.055 123.849C195.033 119.579 208.7 116.162 215.533 116.162C224.074 116.162 224.928 117.87 231.761 122.141ZM350.487 109.329C362.37 97.4458 349.215 78.3715 337.674 72.6011M396.498 128.5C392.228 124.23 388.068 128.12 386.36 122.141C384.652 116.162 377.819 119.579 376.965 113.6C376.281 108.817 376.68 102.496 376.965 99.9334C376.395 101.357 374.231 104.887 370.132 107.621C365.007 111.037 360.736 112.746 361.59 107.621C362.444 102.496 365.007 94.8087 361.59 94.8087M240.303 129.828C234.324 129.828 209.554 122.995 200.158 126.412C192.642 129.145 187.916 136.661 186.492 140.078M240.303 134.099C214.02 137.603 166.5 129.5 165 170.738M200.158 161.431C187.339 168.316 163.357 184.503 154.154 201.576M148 231C144.771 219.042 148.84 211.435 154.154 201.576M229.199 140.078C213.239 146.849 155.503 167.145 152.327 186.201C150.96 194.401 152.976 199.868 154.154 201.576" stroke="#359E98" stroke-width="2.50993" stroke-linecap="round" stroke-linejoin="round"/>
<path d="M263.364 116.162C250.642 106.62 235.116 90.5611 214.679 98.2252C209.212 100.275 197.026 107.621 195.033 109.329M279.593 113.6C260.966 109.46 264.343 76.0001 245 76.0001C233.896 76.0001 220.821 83.5247 214 89.0001M254.823 122.141C247.136 121.287 241.157 130.682 231.761 122.141M231.761 122.141C222.366 113.6 223.22 105.058 214.679 107.621C207.846 109.671 191.617 119.579 189.055 123.849C195.033 119.579 208.7 116.162 215.533 116.162C224.074 116.162 224.928 117.87 231.761 122.141ZM350.487 109.329C362.37 97.4458 349.215 78.3715 337.674 72.6011M396.498 128.5C392.228 124.23 388.068 128.12 386.36 122.141C384.652 116.162 377.819 119.579 376.965 113.6C376.281 108.817 376.68 102.496 376.965 99.9334C376.395 101.357 374.231 104.887 370.132 107.621C365.007 111.037 360.736 112.746 361.59 107.621C362.444 102.496 365.007 94.8087 361.59 94.8087M240.303 129.828C234.324 129.828 209.554 122.995 200.158 126.412C192.642 129.145 187.916 136.661 186.492 140.078M240.303 134.099C214.02 137.603 166.5 129.5 165 170.738M200.158 161.431C187.339 168.316 163.357 184.503 154.154 201.576M148 231C144.771 219.042 148.84 211.435 154.154 201.576M229.199 140.078C213.239 146.849 155.503 167.145 152.327 186.201C150.96 194.401 152.976 199.868 154.154 201.576" stroke="#43A0BD" stroke-width="2.50993" stroke-linecap="round" stroke-linejoin="round"/>
<path d="M222.367 325.428C225.214 341.942 235.179 377.018 252.262 385.218M273.615 381.802C299.24 395.468 330.843 392.051 347.925 385.218" stroke="#359E98" stroke-width="2.50993" stroke-linecap="round" stroke-linejoin="round"/>
<path d="M222.367 325.428C225.214 341.942 235.179 377.018 252.262 385.218M273.615 381.802C299.24 395.468 330.843 392.051 347.925 385.218" stroke="#43A0BD" stroke-width="2.50993" stroke-linecap="round" stroke-linejoin="round"/>
<path d="M259.95 321.156C252.263 306.636 277.887 304.073 294.969 266.491C294.969 273.324 288.991 281.865 294.969 284.428C302.035 287.457 301.947 283.574 306.927 283.574C311.198 283.574 312.906 288.698 316.323 292.115C319.575 295.367 328.281 294.677 331.697 290.407" stroke="#359E98" stroke-width="2.50993" stroke-linecap="round" stroke-linejoin="round"/>
<path d="M259.95 321.156C252.263 306.636 277.887 304.073 294.969 266.491C294.969 273.324 288.991 281.865 294.969 284.428C302.035 287.457 301.947 283.574 306.927 283.574C311.198 283.574 312.906 288.698 316.323 292.115C319.575 295.367 328.281 294.677 331.697 290.407" stroke="#43A0BD" stroke-width="2.50993" stroke-linecap="round" stroke-linejoin="round"/>
<path d="M362.445 319.447C357.32 322.009 351.854 321.156 347.07 321.156C341.091 321.156 335.113 321.156 329.988 321.156C324.863 321.156 315.467 322.864 309.488 321.156C302.143 319.057 298.385 319.447 290.697 321.156C288.135 321.725 277.031 322.864 274.469 319.447M294.114 328.843C302.655 331.405 324.35 334.992 342.8 328.843M315.467 283.573C312.051 282.434 306.072 276.569 306.072 272.469C306.072 267.345 306.926 266.49 309.488 259.657C312.051 252.824 312.051 251.116 312.051 249.408M335.967 283.573C338.529 275.032 342.8 278.448 342.8 269.907C342.8 261.366 335.967 255.387 335.967 249.408M338.529 286.136C340.522 287.844 345.021 289.381 347.07 285.281C349.12 281.182 347.925 273.608 347.07 269.907C365.861 283.573 374.403 310.906 365.861 336.53C364.153 341.655 365.861 349.342 365.861 350.196M376.965 301.51C380.5 301.51 399.5 301.51 402 285.281" stroke="#359E98" stroke-width="2.50993" stroke-linecap="round" stroke-linejoin="round"/>
<path d="M362.445 319.447C357.32 322.009 351.854 321.156 347.07 321.156C341.091 321.156 335.113 321.156 329.988 321.156C324.863 321.156 315.467 322.864 309.488 321.156C302.143 319.057 298.385 319.447 290.697 321.156C288.135 321.725 277.031 322.864 274.469 319.447M294.114 328.843C302.655 331.405 324.35 334.992 342.8 328.843M315.467 283.573C312.051 282.434 306.072 276.569 306.072 272.469C306.072 267.345 306.926 266.49 309.488 259.657C312.051 252.824 312.051 251.116 312.051 249.408M335.967 283.573C338.529 275.032 342.8 278.448 342.8 269.907C342.8 261.366 335.967 255.387 335.967 249.408M338.529 286.136C340.522 287.844 345.021 289.381 347.07 285.281C349.12 281.182 347.925 273.608 347.07 269.907C365.861 283.573 374.403 310.906 365.861 336.53C364.153 341.655 365.861 349.342 365.861 350.196M376.965 301.51C380.5 301.51 399.5 301.51 402 285.281" stroke="#43A0BD" stroke-width="2.50993" stroke-linecap="round" stroke-linejoin="round"/>
<path d="M253.972 300.658C246 300.373 229.373 295.875 226.64 280.159M416.259 213.536C416.259 216.098 417.113 235.743 416.259 244.285C415.404 252.826 408.571 254.534 400.884 254.534C393.197 254.534 366.719 254.534 353.906 254.534C343.657 254.534 341.094 250.58 341.094 244.285C341.094 240.014 341.094 232.594 341.094 224.64M416.259 213.536C416.259 210.973 416.259 205.849 408.571 205.849H353.906C344.511 205.849 341.094 207.557 341.094 217.807C341.094 219.935 341.15 222.257 341.094 224.64M416.259 213.536L427.362 224.64M341.094 224.64C339.208 222.362 335.286 217.807 332.553 217.807C329.82 217.807 317.179 217.807 311.2 217.807C309.776 218.376 306.416 220.027 304.366 222.077M304.366 222.077C304.366 226.917 304.366 238.135 304.366 244.285C304.366 251.972 294.971 254.534 292.409 254.534C289.846 254.534 241.16 254.534 232.619 254.534C224.078 254.534 223.223 247.701 223.223 244.285C223.223 240.868 223.223 224.64 223.223 217.807C223.223 212.34 224.931 205.849 232.619 205.849C246.285 205.849 276.692 205.849 288.992 205.849C303.939 205.849 304.366 207.557 304.366 222.077ZM223.223 220.369C221.515 220.369 217.784 221.223 217.784 224.64M223.223 231.793C218.953 231.793 217.784 228.91 217.784 224.64M217.784 224.64H201.016M351.344 224.64C353.906 222.362 360.227 217.807 365.01 217.807C370.989 217.807 382.947 221.223 384.655 224.64C386.363 228.056 379.53 226.348 377.822 226.348M389.78 217.807C387.218 217.807 378.676 206.703 365.01 210.119C351.344 213.536 351.344 217.807 353.906 210.119M284.721 224.64C278.742 222.077 278.742 217.807 273.617 217.807C268.493 217.807 263.368 216.952 253.972 222.077C244.577 227.202 254.826 224.64 259.951 224.64M243.723 220.369C247.993 220.369 247.993 211.828 261.659 211.828" stroke="#359E98" stroke-width="2.50993" stroke-linecap="round" stroke-linejoin="round"/>
<path d="M253.972 300.658C246 300.373 229.373 295.875 226.64 280.159M416.259 213.536C416.259 216.098 417.113 235.743 416.259 244.285C415.404 252.826 408.571 254.534 400.884 254.534C393.197 254.534 366.719 254.534 353.906 254.534C343.657 254.534 341.094 250.58 341.094 244.285C341.094 240.014 341.094 232.594 341.094 224.64M416.259 213.536C416.259 210.973 416.259 205.849 408.571 205.849H353.906C344.511 205.849 341.094 207.557 341.094 217.807C341.094 219.935 341.15 222.257 341.094 224.64M416.259 213.536L427.362 224.64M341.094 224.64C339.208 222.362 335.286 217.807 332.553 217.807C329.82 217.807 317.179 217.807 311.2 217.807C309.776 218.376 306.416 220.027 304.366 222.077M304.366 222.077C304.366 226.917 304.366 238.135 304.366 244.285C304.366 251.972 294.971 254.534 292.409 254.534C289.846 254.534 241.16 254.534 232.619 254.534C224.078 254.534 223.223 247.701 223.223 244.285C223.223 240.868 223.223 224.64 223.223 217.807C223.223 212.34 224.931 205.849 232.619 205.849C246.285 205.849 276.692 205.849 288.992 205.849C303.939 205.849 304.366 207.557 304.366 222.077ZM223.223 220.369C221.515 220.369 217.784 221.223 217.784 224.64M223.223 231.793C218.953 231.793 217.784 228.91 217.784 224.64M217.784 224.64H201.016M351.344 224.64C353.906 222.362 360.227 217.807 365.01 217.807C370.989 217.807 382.947 221.223 384.655 224.64C386.363 228.056 379.53 226.348 377.822 226.348M389.78 217.807C387.218 217.807 378.676 206.703 365.01 210.119C351.344 213.536 351.344 217.807 353.906 210.119M284.721 224.64C278.742 222.077 278.742 217.807 273.617 217.807C268.493 217.807 263.368 216.952 253.972 222.077C244.577 227.202 254.826 224.64 259.951 224.64M243.723 220.369C247.993 220.369 247.993 211.828 261.659 211.828" stroke="#43A0BD" stroke-width="2.50993" stroke-linecap="round" stroke-linejoin="round"/>
<path d="M205.285 289.553C212.118 311.191 216.389 344.218 216.389 358.738C216.389 370.008 217.243 390.911 216.389 399.737C211.053 452.125 371.842 484.296 373.899 440.735C374.382 430.497 372.348 427.923 371.842 426.215M360.738 395.466C365.294 392.619 376.113 385.046 382.946 377.529C391.487 368.134 399.174 344.218 404.299 323.719C409.424 303.219 417.965 288.699 416.257 278.449M397.707 346.78C392.903 363.705 380.983 389.873 376.967 404.007C375.533 409.052 373.899 417.674 371.842 426.215M355.613 458.402C355.613 445.228 365.009 444.152 371.842 426.215M347.926 395.466C343.655 404.007 333.747 421.944 328.281 425.361M261.658 395.466C261.658 404.862 262.512 422.798 268.491 435.611" stroke="#359E98" stroke-width="2.50993" stroke-linecap="round" stroke-linejoin="round"/>
<path d="M205.285 289.553C212.118 311.191 216.389 344.218 216.389 358.738C216.389 370.008 217.243 390.911 216.389 399.737C211.053 452.125 371.842 484.296 373.899 440.735C374.382 430.497 372.348 427.923 371.842 426.215M360.738 395.466C365.294 392.619 376.113 385.046 382.946 377.529C391.487 368.134 399.174 344.218 404.299 323.719C409.424 303.219 417.965 288.699 416.257 278.449M397.707 346.78C392.903 363.705 380.983 389.873 376.967 404.007C375.533 409.052 373.899 417.674 371.842 426.215M355.613 458.402C355.613 445.228 365.009 444.152 371.842 426.215M347.926 395.466C343.655 404.007 333.747 421.944 328.281 425.361M261.658 395.466C261.658 404.862 262.512 422.798 268.491 435.611" stroke="#43A0BD" stroke-width="2.50993" stroke-linecap="round" stroke-linejoin="round"/>
<path d="M216.388 399.738C195.889 394.613 203.576 430.487 203.576 437.32C203.576 444.153 202.722 460.382 202.722 462.09C202.722 463.799 229.629 511.394 300.948 519.318C377.82 527.859 390.632 509.068 394.903 486.006C399.174 462.944 395.845 450.639 392.341 437.32C388.07 421.091 376.112 409.134 375.258 413.404" stroke="#359E98" stroke-width="2.50993" stroke-linecap="round" stroke-linejoin="round"/>
<path d="M216.388 399.738C195.889 394.613 203.576 430.487 203.576 437.32C203.576 444.153 202.722 460.382 202.722 462.09C202.722 463.799 229.629 511.394 300.948 519.318C377.82 527.859 390.632 509.068 394.903 486.006C399.174 462.944 395.845 450.639 392.341 437.32C388.07 421.091 376.112 409.134 375.258 413.404" stroke="#43A0BD" stroke-width="2.50993" stroke-linecap="round" stroke-linejoin="round"/>
<path d="M397.466 452.694C444.159 460.665 502.251 457.647 533 479M201.868 448.423C201.868 448.423 132.683 456.964 107.059 468.922C81.4349 480.88 40.4363 495.4 16.5204 550.065C5.30984 575.689 4.56241 579.96 2 592.772" stroke="#359E98" stroke-width="2.50993" stroke-linecap="round" stroke-linejoin="round"/>
<path d="M397.466 452.694C444.159 460.665 502.251 457.647 533 479M201.868 448.423C201.868 448.423 132.683 456.964 107.059 468.922C81.4349 480.88 40.4363 495.4 16.5204 550.065C5.30984 575.689 4.56241 579.96 2 592.772" stroke="#43A0BD" stroke-width="2.50993" stroke-linecap="round" stroke-linejoin="round"/>
<path d="M351.344 316.031C341.948 310.906 327.428 315.177 324.012 315.177C320.595 315.177 318.887 314.322 314.616 313.468C310.345 312.614 303.512 310.905 294.971 313.468C288.992 315.262 284.721 316.885 281.305 316.885" stroke="#359E98" stroke-width="2.50993" stroke-linecap="round" stroke-linejoin="round"/>
<path d="M351.344 316.031C341.948 310.906 327.428 315.177 324.012 315.177C320.595 315.177 318.887 314.322 314.616 313.468C310.345 312.614 303.512 310.905 294.971 313.468C288.992 315.262 284.721 316.885 281.305 316.885" stroke="#43A0BD" stroke-width="2.50993" stroke-linecap="round" stroke-linejoin="round"/>
<path d="M204.223 503.497L194.154 513.431M204.223 503.497C205.678 507.549 204.843 512.541 202.437 516.978M204.223 503.497C200.226 501.912 195.291 502.784 190.877 505.261M179.982 527.413L187.255 520.238M179.982 527.413C185.856 529.291 191.364 527.831 195.703 524.698M179.982 527.413C178.455 521.806 180.056 516.378 183.218 512.044M187.255 520.238L195.703 524.698M187.255 520.238L183.218 512.044M187.255 520.238L194.154 513.431M195.703 524.698C198.508 522.674 200.825 519.95 202.437 516.978M183.218 512.044C185.261 509.244 187.955 506.901 190.877 505.261M194.154 513.431L202.437 516.978M194.154 513.431L190.877 505.261" stroke="#BDDADE" stroke-width="2.50993" stroke-linecap="round" stroke-linejoin="round"/>
<path d="M448.509 532.536L438.439 542.47M448.509 532.536C449.964 536.588 449.128 541.58 446.722 546.017M448.509 532.536C444.512 530.951 439.577 531.823 435.162 534.3M424.267 556.452L431.54 549.277M424.267 556.452C430.141 558.33 435.649 556.87 439.988 553.737M424.267 556.452C422.74 550.845 424.341 545.417 427.503 541.083M431.54 549.277L439.988 553.737M431.54 549.277L427.503 541.083M431.54 549.277L438.439 542.47M439.988 553.737C442.793 551.713 445.11 548.989 446.722 546.017M427.503 541.083C429.546 538.283 432.24 535.94 435.162 534.3M438.439 542.47L446.722 546.017M438.439 542.47L435.162 534.3" stroke="#BDDADE" stroke-width="2.50993" stroke-linecap="round" stroke-linejoin="round"/>
<path d="M240.098 570.119L230.029 580.053M240.098 570.119C241.553 574.171 240.718 579.163 238.312 583.6M240.098 570.119C236.101 568.534 231.166 569.406 226.752 571.883M215.857 594.035L223.13 586.86M215.857 594.035C221.731 595.913 227.239 594.453 231.578 591.32M215.857 594.035C214.33 588.428 215.931 583 219.093 578.666M223.13 586.86L231.578 591.32M223.13 586.86L219.093 578.666M223.13 586.86L230.029 580.053M231.578 591.32C234.383 589.296 236.7 586.572 238.312 583.6M219.093 578.666C221.136 575.866 223.83 573.523 226.752 571.883M230.029 580.053L238.312 583.6M230.029 580.053L226.752 571.883" stroke="#BDDADE" stroke-width="2.50993" stroke-linecap="round" stroke-linejoin="round"/>
<path d="M158.189 498.491L166.477 509.954M158.189 498.491C162.415 497.669 167.222 499.254 171.242 502.306M158.189 498.491C156.015 502.201 156.126 507.211 157.904 511.951M178.143 526.086L172.156 517.808M178.143 526.086C180.892 520.566 180.286 514.9 177.849 510.135M178.143 526.086C172.369 526.744 167.247 524.336 163.444 520.552M172.156 517.808L177.849 510.135M172.156 517.808L163.444 520.552M172.156 517.808L166.477 509.954M177.849 510.135C176.274 507.055 173.935 504.351 171.242 502.306M163.444 520.552C160.987 518.107 159.081 515.088 157.904 511.951M166.477 509.954L171.242 502.306M166.477 509.954L157.904 511.951" stroke="#BDDADE" stroke-width="2.50993" stroke-linecap="round" stroke-linejoin="round"/>
<path d="M403.029 526.512L411.317 537.974M403.029 526.512C407.255 525.69 412.062 527.274 416.081 530.327M403.029 526.512C400.855 530.222 400.966 535.232 402.744 539.971M422.983 554.106L416.996 545.828M422.983 554.106C425.731 548.587 425.126 542.921 422.689 538.156M422.983 554.106C417.209 554.764 412.087 552.356 408.284 548.572M416.996 545.828L422.689 538.156M416.996 545.828L408.284 548.572M416.996 545.828L411.317 537.974M422.689 538.156C421.114 535.076 418.774 532.372 416.081 530.327M408.284 548.572C405.827 546.128 403.92 543.109 402.744 539.971M411.317 537.974L416.081 530.327M411.317 537.974L402.744 539.971" stroke="#BDDADE" stroke-width="2.50993" stroke-linecap="round" stroke-linejoin="round"/>
<path d="M194.618 564.093L202.907 575.555M194.618 564.093C198.845 563.271 203.652 564.856 207.671 567.908M194.618 564.093C192.444 567.803 192.556 572.813 194.334 577.552M214.572 591.687L208.586 583.409M214.572 591.687C217.321 586.168 216.716 580.502 214.279 575.737M214.572 591.687C208.799 592.345 203.677 589.937 199.874 586.153M208.586 583.409L214.279 575.737M208.586 583.409L199.874 586.153M208.586 583.409L202.907 575.555M214.279 575.737C212.704 572.657 210.364 569.953 207.671 567.908M199.874 586.153C197.417 583.709 195.51 580.69 194.334 577.552M202.907 575.555L207.671 567.908M202.907 575.555L194.334 577.552" stroke="#BDDADE" stroke-width="2.50993" stroke-linecap="round" stroke-linejoin="round"/>
<line x1="88.9641" y1="192.208" x2="137.32" y2="219.451" stroke="#BDDADE" stroke-width="1.25496" stroke-linecap="round"/>
<line x1="204.424" y1="61.8385" x2="216.643" y2="84.564" stroke="#BDDADE" stroke-width="1.25496" stroke-linecap="round"/>
<line x1="404.801" y1="59.9544" x2="393.02" y2="82.2375" stroke="#BDDADE" stroke-width="1.25496" stroke-linecap="round"/>
<line x1="62.014" y1="176.796" x2="79.0772" y2="185.984" stroke="#BDDADE" stroke-width="1.25496" stroke-linecap="round"/>
<line x1="189.029" y1="31.0517" x2="198.141" y2="48.1553" stroke="#BDDADE" stroke-width="1.25496" stroke-linecap="round"/>
<line x1="419.506" y1="31.6365" x2="410.735" y2="48.9177" stroke="#BDDADE" stroke-width="1.25496" stroke-linecap="round"/>
<line x1="0.627481" y1="-0.627481" x2="68.0319" y2="-0.627481" transform="matrix(-0.873709 0.486449 0.486449 0.873709 520.484 193.894)" stroke="#BDDADE" stroke-width="1.25496" stroke-linecap="round"/>
<line x1="536.594" y1="181.753" x2="523.889" y2="188.84" stroke="#BDDADE" stroke-width="1.25496" stroke-linecap="round"/>
<line x1="300.721" y1="0.627481" x2="300.721" y2="42.0794" stroke="#BDDADE" stroke-width="1.25496" stroke-linecap="round"/>
<line x1="96.6919" y1="80.8126" x2="144.321" y2="126.799" stroke="#BDDADE" stroke-width="1.25496" stroke-linecap="round"/>
<line x1="518.69" y1="89.4112" x2="466.188" y2="138.198" stroke="#BDDADE" stroke-width="1.25496" stroke-linecap="round"/>
<line x1="154.425" y1="138.507" x2="166.793" y2="149.444" stroke="#BDDADE" stroke-width="1.25496" stroke-linecap="round"/>
<line x1="457.175" y1="146.087" x2="446.18" y2="155.289" stroke="#BDDADE" stroke-width="1.25496" stroke-linecap="round"/>
</svg>
