<svg width="34" height="35" viewBox="0 0 34 35" fill="none" xmlns="http://www.w3.org/2000/svg">
<path d="M25.6563 24.2548H26.4213C26.4213 23.8323 26.0788 23.4898 25.6563 23.4898V24.2548ZM25.6563 28V28.765C26.0788 28.765 26.4213 28.4225 26.4213 28H25.6563ZM10.0416 28H9.27663C9.27663 28.4225 9.61911 28.765 10.0416 28.765V28ZM10.0416 7.83335V7.0684C9.61911 7.0684 9.27663 7.41088 9.27663 7.83335H10.0416ZM25.2818 7.83335H26.0468C26.0468 7.41088 25.7043 7.0684 25.2818 7.0684V7.83335ZM25.2818 11.5786V12.3435C25.7043 12.3435 26.0468 12.0011 26.0468 11.5786H25.2818ZM14.6799 11.5786V10.8136C14.2574 10.8136 13.915 11.1561 13.915 11.5786H14.6799ZM14.6799 15.9576H13.915C13.915 16.3801 14.2574 16.7226 14.6799 16.7226V15.9576ZM24.043 15.9576H24.808C24.808 15.5352 24.4655 15.1927 24.043 15.1927V15.9576ZM24.043 19.5876V20.3526C24.4655 20.3526 24.808 20.0101 24.808 19.5876H24.043ZM14.6799 19.5876V18.8227C14.2574 18.8227 13.915 19.1652 13.915 19.5876H14.6799ZM14.6799 24.2548H13.915C13.915 24.6772 14.2574 25.0197 14.6799 25.0197V24.2548ZM24.8914 24.2548V28H26.4213V24.2548H24.8914ZM25.6563 27.2351H10.0416V28.765H25.6563V27.2351ZM10.8065 28V7.83335H9.27663V28H10.8065ZM10.0416 8.5983H25.2818V7.0684H10.0416V8.5983ZM24.5169 7.83335V11.5786H26.0468V7.83335H24.5169ZM25.2818 10.8136H14.6799V12.3435H25.2818V10.8136ZM13.915 11.5786V15.9576H15.4449V11.5786H13.915ZM14.6799 16.7226H24.043V15.1927H14.6799V16.7226ZM23.2781 15.9576V19.5876H24.808V15.9576H23.2781ZM24.043 18.8227H14.6799V20.3526H24.043V18.8227ZM13.915 19.5876V24.2548H15.4449V19.5876H13.915ZM14.6799 25.0197H25.6563V23.4898H14.6799V25.0197Z" fill="white"/>
<path d="M1.68643 18.1567L4.84784 20.8154M1.68643 18.1567C2.8252 17.6239 4.29934 17.7316 5.65463 18.311M1.68643 18.1567C1.33391 19.3619 1.72112 20.7732 2.56103 21.9896M9.29723 24.5572L7.01399 22.637M9.29723 24.5572C9.68417 22.7985 9.11047 21.2366 8.08204 20.0597M9.29723 24.5572C7.70844 25.1533 6.08673 24.8346 4.74085 24.0327M7.01399 22.637L8.08204 20.0597M7.01399 22.637L4.74085 24.0327M7.01399 22.637L4.84784 20.8154M8.08204 20.0597C7.41733 19.299 6.56266 18.6991 5.65463 18.311M4.74085 24.0327C3.87137 23.5146 3.11701 22.7948 2.56103 21.9896M4.84784 20.8154L5.65463 18.311M4.84784 20.8154L2.56103 21.9896" stroke="white" stroke-width="1.07093" stroke-linecap="round" stroke-linejoin="round"/>
<path d="M29.3364 20.2252L27.5999 22.0179M29.3364 20.2252C29.6093 20.9341 29.4818 21.818 29.0752 22.6103M29.3364 20.2252C28.6249 19.9616 27.7579 20.1352 26.9892 20.5898M25.1561 24.541L26.4102 23.2462M25.1561 24.541C26.1996 24.8487 27.1654 24.5692 27.9183 23.9992M25.1561 24.541C24.8641 23.5581 25.1249 22.5942 25.6654 21.817M26.4102 23.2462L27.9183 23.9992M26.4102 23.2462L25.6654 21.817M26.4102 23.2462L27.5999 22.0179M27.9183 23.9992C28.405 23.6308 28.8027 23.1411 29.0752 22.6103M25.6654 21.817C26.0145 21.3149 26.4803 20.8908 26.9892 20.5898M27.5999 22.0179L29.0752 22.6103M27.5999 22.0179L26.9892 20.5898" stroke="white" stroke-width="0.764948" stroke-linecap="round" stroke-linejoin="round"/>
<path d="M31.7152 1.86524L28.7747 4.76632M31.7152 1.86524C32.1401 3.04854 31.896 4.50633 31.1934 5.80201M31.7152 1.86524C30.548 1.40242 29.1068 1.657 27.8177 2.38043M24.6362 8.84933L26.7599 6.7541M24.6362 8.84933C26.3514 9.39778 27.9598 8.97148 29.2271 8.05669M24.6362 8.84933C24.1901 7.21208 24.6578 5.62693 25.5812 4.36127M26.7599 6.7541L29.2271 8.05669M26.7599 6.7541L25.5812 4.36127M26.7599 6.7541L28.7747 4.76632M29.2271 8.05669C30.0461 7.46543 30.7227 6.6701 31.1934 5.80201M25.5812 4.36127C26.1777 3.54362 26.9644 2.8593 27.8177 2.38043M28.7747 4.76632L31.1934 5.80201M28.7747 4.76632L27.8177 2.38043" stroke="white" stroke-width="1.07093" stroke-linecap="round" stroke-linejoin="round"/>
</svg>
