<svg width="87" height="28" viewBox="0 0 87 28" fill="none" xmlns="http://www.w3.org/2000/svg">
<path d="M4.36622 13.14V9.576H11.5162V6.804H4.36622V3.46H12.4622V0.599998H0.824219V16H12.7482V13.14H4.36622Z" fill="white"/>
<path d="M15.584 16H26.87V13.096H19.148V0.599998H15.584V16Z" fill="white"/>
<path d="M28.8613 16H32.4253V0.599998H28.8613V16Z" fill="white"/>
<path d="M46.6841 0.599998V9.95L39.0281 0.599998H36.0801V16H39.6001V6.65L47.2781 16H50.2041V0.599998H46.6841Z" fill="white"/>
<path d="M61.3057 16.264C66.1457 16.264 69.7317 12.898 69.7317 8.3C69.7317 3.702 66.1457 0.335999 61.3057 0.335999C56.4437 0.335999 52.8797 3.724 52.8797 8.3C52.8797 12.876 56.4437 16.264 61.3057 16.264ZM61.3057 13.228C58.5557 13.228 56.4877 11.226 56.4877 8.3C56.4877 5.374 58.5557 3.372 61.3057 3.372C64.0557 3.372 66.1237 5.374 66.1237 8.3C66.1237 11.226 64.0557 13.228 61.3057 13.228Z" fill="white"/>
<path d="M86.0502 16L82.5962 11.05C84.5982 10.192 85.7642 8.498 85.7642 6.188C85.7642 2.734 83.1902 0.599998 79.0762 0.599998H72.4102V16H75.9742V11.71H79.2522L82.2222 16H86.0502ZM82.1562 6.188C82.1562 7.86 81.0562 8.872 78.8782 8.872H75.9742V3.504H78.8782C81.0562 3.504 82.1562 4.494 82.1562 6.188Z" fill="white"/>
<path d="M1.15625 28C3.83017 28 5.22406 27.0468 6.4537 26.2059C7.53752 25.4639 8.47347 24.824 10.4416 24.824C12.4106 24.824 13.3458 25.4639 14.43 26.2059C15.6592 27.0468 17.0519 28 19.727 28C22.4005 28 23.7944 27.0468 25.0237 26.2059C26.1075 25.4639 27.0442 24.824 29.0116 24.824C30.9814 24.824 31.9165 25.4639 32.9999 26.2059C34.2292 27.0468 35.6227 28 38.297 28C40.9713 28 42.3648 27.0468 43.594 26.2059C44.6778 25.4639 45.6142 24.824 47.582 24.824C49.5505 24.824 50.4873 25.4639 51.5703 26.2059C52.7995 27.0468 54.193 28 56.8673 28C59.5409 28 60.9347 27.0468 62.1648 26.2059C63.2486 25.4648 64.1846 24.824 66.1527 24.824C68.1217 24.824 69.0577 25.4639 70.1411 26.2059C71.3703 27.0468 72.7638 28 75.4381 28C78.1129 28 79.5068 27.0468 80.736 26.2059C81.8198 25.4648 82.7566 24.824 84.7247 24.824V22C82.0508 22 80.6565 22.9532 79.4273 23.7941C78.3435 24.5361 77.4067 25.176 75.4381 25.176C73.4696 25.176 72.534 24.5361 71.4502 23.7941C70.221 22.9532 68.8275 22 66.1527 22C63.4788 22 62.0849 22.9532 60.8557 23.7941C59.7715 24.5361 58.8351 25.176 56.8673 25.176C54.898 25.176 53.9624 24.5361 52.879 23.7941C51.6502 22.9532 50.2567 22 47.582 22C44.908 22 43.5146 22.9532 42.2853 23.7941C41.2015 24.5361 40.2651 25.176 38.297 25.176C36.3288 25.176 35.392 24.5361 34.3086 23.7941C33.0798 22.9532 31.6863 22 29.0116 22C26.3369 22 24.9442 22.9532 23.715 23.7941C22.6311 24.5361 21.6948 25.176 19.727 25.176C17.7593 25.176 16.8221 24.5361 15.7383 23.7941C14.5094 22.9532 13.1164 22 10.4416 22C7.7669 22 6.37424 22.9532 5.14542 23.7941C4.06118 24.5361 3.124 25.176 1.15625 25.176V28Z" fill="white"/>
</svg>
