<svg width="97" height="97" viewBox="0 0 97 97" fill="none" xmlns="http://www.w3.org/2000/svg">
<circle cx="48.5" cy="48.5" r="47.9268" fill="#EDF6F6" stroke="#43A0BD" stroke-width="1.14638"/>
<path d="M78.4196 67.5559V59.8998M78.4196 37.0659V59.8998M78.4196 59.8998C79.5302 60.9935 82.4398 63.181 85.1927 63.181M78.4196 55.5795C79.5302 56.6732 82.4398 58.8607 85.1927 58.8607M78.4196 51.3686C79.5302 52.4624 82.4398 54.6498 85.1927 54.6498M78.4196 47.0484C79.5302 48.1421 82.4398 50.3296 85.1927 50.3296M78.4196 42.7828C79.5302 43.8765 81.3473 46.064 84.1003 46.064M78.4196 38.5719C78.8565 39.775 80.2549 41.8531 83.0078 41.8531M78.3649 59.8998C77.2543 60.9935 74.3448 63.181 71.5918 63.181M78.3649 55.5795C77.2543 56.6732 74.3448 58.8607 71.5918 58.8607M78.3649 51.3686C77.2543 52.4624 74.3448 54.6498 71.5918 54.6498M78.3649 47.0484C77.2543 48.1421 74.3448 50.3296 71.5918 50.3296M78.3649 42.7828C77.2543 43.8765 75.4372 46.064 72.6842 46.064M78.3649 38.5719C77.7641 40.1578 76.5296 41.8531 73.7767 41.8531" stroke="#43A0BD" stroke-width="1.14638" stroke-linecap="round"/>
<path d="M21.027 66.9582V59.3021M21.027 36.4683V59.3021M21.027 59.3021C22.1376 60.3958 25.0472 62.5833 27.8001 62.5833M21.027 54.9818C22.1376 56.0756 25.0472 58.263 27.8001 58.263M21.027 50.771C22.1376 51.8647 25.0472 54.0522 27.8001 54.0522M21.027 46.4507C22.1376 47.5444 25.0472 49.7319 27.8001 49.7319M21.027 42.1851C22.1376 43.2789 23.9547 45.4663 26.7077 45.4663M21.027 37.9743C21.464 39.1774 22.8623 41.2555 25.6153 41.2555M20.9724 59.3021C19.8617 60.3958 16.9522 62.5833 14.1992 62.5833M20.9724 54.9818C19.8617 56.0756 16.9522 58.263 14.1992 58.263M20.9724 50.771C19.8617 51.8647 16.9522 54.0522 14.1992 54.0522M20.9724 46.4507C19.8617 47.5444 16.9522 49.7319 14.1992 49.7319M20.9724 42.1851C19.8617 43.2789 18.0446 45.4663 15.2917 45.4663M20.9724 37.9743C20.3715 39.5602 19.1371 41.2555 16.3841 41.2555" stroke="#43A0BD" stroke-width="1.14638" stroke-linecap="round"/>
<path d="M87.2851 70.3962C56.7759 61.4745 39.7209 60.9873 9.41602 70.3962" stroke="#43A0BD" stroke-width="0.859784"/>
<path d="M21.6633 26.0618C21.5316 26.1496 21.496 26.3275 21.5838 26.4592C21.6716 26.5909 21.8495 26.6265 21.9812 26.5387L21.6633 26.0618ZM23.3169 26.4497L23.1281 26.6654C23.2342 26.7583 23.3921 26.7602 23.5003 26.6699L23.3169 26.4497ZM24.6836 26.5777C24.7955 26.6896 24.9769 26.6896 25.0889 26.5777C25.2008 26.4657 25.2008 26.2843 25.0889 26.1724L24.6836 26.5777ZM21.9812 26.5387C22.3146 26.3165 22.4595 26.2817 22.5605 26.2949C22.6762 26.31 22.8192 26.3951 23.1281 26.6654L23.5056 26.2341C23.2167 25.9813 22.9487 25.7675 22.6347 25.7265C22.306 25.6836 22.0025 25.8357 21.6633 26.0618L21.9812 26.5387ZM23.5003 26.6699C23.8778 26.3554 24.1743 26.3585 24.364 26.4091C24.4667 26.4365 24.5503 26.4815 24.6081 26.5201C24.6367 26.5391 24.6581 26.556 24.6711 26.567C24.6777 26.5724 24.682 26.5764 24.6842 26.5783C24.6852 26.5793 24.6857 26.5798 24.6856 26.5797C24.6856 26.5797 24.6854 26.5795 24.685 26.5791C24.6849 26.579 24.6847 26.5788 24.6844 26.5785C24.6843 26.5784 24.6842 26.5783 24.684 26.5781C24.6839 26.5781 24.6838 26.5779 24.6838 26.5779C24.6837 26.5778 24.6836 26.5777 24.8862 26.375C25.0889 26.1724 25.0887 26.1722 25.0886 26.1721C25.0886 26.1721 25.0884 26.1719 25.0883 26.1718C25.0882 26.1717 25.088 26.1715 25.0878 26.1713C25.0874 26.1709 25.0869 26.1704 25.0864 26.1699C25.0854 26.1689 25.0842 26.1678 25.0829 26.1665C25.0802 26.1639 25.0768 26.1607 25.0727 26.1569C25.0645 26.1494 25.0536 26.1396 25.04 26.1282C25.0128 26.1053 24.9745 26.0754 24.9261 26.0431C24.8298 25.979 24.6892 25.9025 24.5117 25.8552C24.1409 25.7563 23.6527 25.7968 23.1334 26.2296L23.5003 26.6699Z" fill="#43A0BD"/>
<path d="M23.1555 27.7058C23.0238 27.7936 22.9882 27.9716 23.076 28.1033C23.1638 28.235 23.3417 28.2706 23.4734 28.1828L23.1555 27.7058ZM24.8091 28.0938L24.6203 28.3095C24.7264 28.4023 24.8842 28.4042 24.9925 28.314L24.8091 28.0938ZM26.1757 28.2217C26.2877 28.3336 26.4691 28.3336 26.5811 28.2217C26.693 28.1098 26.693 27.9283 26.5811 27.8164L26.1757 28.2217ZM23.4734 28.1828C23.8068 27.9605 23.9517 27.9257 24.0527 27.9389C24.1683 27.954 24.3114 28.0391 24.6203 28.3095L24.9978 27.8781C24.7089 27.6253 24.4409 27.4115 24.1269 27.3705C23.7982 27.3277 23.4947 27.4797 23.1555 27.7058L23.4734 28.1828ZM24.9925 28.314C25.37 27.9994 25.6665 28.0025 25.8562 28.0531C25.9589 28.0805 26.0425 28.1255 26.1003 28.1641C26.1289 28.1832 26.1502 28.2 26.1633 28.211C26.1699 28.2165 26.1742 28.2204 26.1764 28.2224C26.1774 28.2234 26.1779 28.2238 26.1778 28.2238C26.1778 28.2237 26.1776 28.2235 26.1772 28.2232C26.1771 28.223 26.1768 28.2228 26.1766 28.2226C26.1765 28.2224 26.1763 28.2223 26.1762 28.2222C26.1761 28.2221 26.176 28.222 26.176 28.2219C26.1759 28.2218 26.1757 28.2217 26.3784 28.0191C26.5811 27.8164 26.5809 27.8163 26.5808 27.8162C26.5808 27.8161 26.5806 27.816 26.5805 27.8159C26.5804 27.8157 26.5802 27.8155 26.58 27.8153C26.5795 27.8149 26.5791 27.8145 26.5786 27.814C26.5776 27.813 26.5764 27.8118 26.5751 27.8105C26.5724 27.808 26.569 27.8047 26.5649 27.801C26.5567 27.7935 26.5458 27.7837 26.5322 27.7722C26.505 27.7494 26.4667 27.7195 26.4183 27.6872C26.322 27.623 26.1813 27.5466 26.0039 27.4993C25.6331 27.4004 25.1449 27.4408 24.6256 27.8736L24.9925 28.314Z" fill="#43A0BD"/>
<circle cx="48.5756" cy="48.4252" r="44.4145" stroke="#43A0BD" stroke-width="1.14638"/>
<mask id="mask0" mask-type="alpha" maskUnits="userSpaceOnUse" x="3" y="3" width="91" height="91">
<circle cx="48.5756" cy="48.4252" r="44.9877" fill="#C4C4C4"/>
</mask>
<g mask="url(#mask0)">
<path d="M83.101 29.2942H69.2432C69.3229 28.9988 68.9587 28.1683 69.5299 27.0086C70.7246 24.5832 73.8306 24.7697 75.5509 27.0087C76.2047 27.8596 76.9526 27.615 77.319 27.4751C78.1313 27.0086 78.8003 26.8178 80.0905 27.0087C81.3807 27.1995 82.7984 28.4857 83.101 29.2942Z" stroke="#43A0BD" stroke-width="0.859784"/>
<path d="M31.239 64.8657C29.3957 66.734 26.2918 71.995 30.7159 74.8049C36.2459 78.3172 50.4447 78.7656 53.4339 86.3881C55.302 91.1516 53.135 93.4127 53.4339 93.4127L73.3869 90.274C73.3869 87.2101 71.145 76.8319 59.5618 74.8049C50.5942 73.2355 39.1841 72.6424 34.3029 71.6662C30.5664 70.9189 30.8653 68.5275 32.5841 64.8657" stroke="#43A0BD" stroke-width="0.859784"/>
<path d="M84.8207 22.1949L81.5939 23.4049C81.3647 23.4909 81.183 23.6705 81.0944 23.8987L79.9277 26.9029M13.1543 20.4761L15.3235 22.0352C15.468 22.1391 15.5768 22.2853 15.6347 22.4536L18.6426 31.1976C18.7171 31.4143 18.8751 31.5923 19.0815 31.692L31.8153 37.8467C32.0635 37.9667 32.3543 37.9603 32.5971 37.8296L42.4548 32.5216C42.728 32.3745 43.0592 32.386 43.3216 32.5516L53.8215 39.1832C54.0891 39.3522 54.4279 39.3605 54.7034 39.2049L66.4535 32.5696C66.7595 32.3968 67.1399 32.4276 67.4141 32.6475L74.3404 38.201C74.7937 38.5644 75.4694 38.383 75.6797 37.8414L78.941 29.4437" stroke="#43A0BD" stroke-width="0.859784"/>
<path d="M62.5135 26.6953V34.6626H42.5665V42.9165H60.5073V50.54H42.5665V58.8512H63.144V66.7612H33.6247V26.6953H62.5135Z" fill="white"/>
<path d="M62.5135 26.6953H63.0867C63.0867 26.3787 62.8301 26.1221 62.5135 26.1221V26.6953ZM62.5135 34.6626V35.2358C62.8301 35.2358 63.0867 34.9792 63.0867 34.6626H62.5135ZM42.5665 34.6626V34.0894C42.2499 34.0894 41.9933 34.3461 41.9933 34.6626H42.5665ZM42.5665 42.9165H41.9933C41.9933 43.2331 42.2499 43.4897 42.5665 43.4897V42.9165ZM60.5073 42.9165H61.0805C61.0805 42.6 60.8239 42.3434 60.5073 42.3434V42.9165ZM60.5073 50.54V51.1132C60.8239 51.1132 61.0805 50.8565 61.0805 50.54H60.5073ZM42.5665 50.54V49.9668C42.2499 49.9668 41.9933 50.2234 41.9933 50.54H42.5665ZM42.5665 58.8512H41.9933C41.9933 59.1678 42.2499 59.4244 42.5665 59.4244V58.8512ZM63.144 58.8512H63.7172C63.7172 58.5346 63.4606 58.278 63.144 58.278V58.8512ZM63.144 66.7612V67.3344C63.4606 67.3344 63.7172 67.0778 63.7172 66.7612H63.144ZM33.6247 66.7612H33.0516C33.0516 67.0778 33.3082 67.3344 33.6247 67.3344V66.7612ZM33.6247 26.6953V26.1221C33.3082 26.1221 33.0516 26.3787 33.0516 26.6953H33.6247ZM61.9403 26.6953V34.6626H63.0867V26.6953H61.9403ZM62.5135 34.0894H42.5665V35.2358H62.5135V34.0894ZM41.9933 34.6626V42.9165H43.1397V34.6626H41.9933ZM42.5665 43.4897H60.5073V42.3434H42.5665V43.4897ZM59.9341 42.9165V50.54H61.0805V42.9165H59.9341ZM60.5073 49.9668H42.5665V51.1132H60.5073V49.9668ZM41.9933 50.54V58.8512H43.1397V50.54H41.9933ZM42.5665 59.4244H63.144V58.278H42.5665V59.4244ZM62.5708 58.8512V66.7612H63.7172V58.8512H62.5708ZM63.144 66.188H33.6247V67.3344H63.144V66.188ZM34.1979 66.7612V26.6953H33.0516V66.7612H34.1979ZM33.6247 27.2685H62.5135V26.1221H33.6247V27.2685Z" fill="#43A0BD"/>
<circle cx="23.7621" cy="16.2914" r="0.98074" stroke="#43A0BD" stroke-width="0.429892"/>
<circle cx="72.7875" cy="16.2914" r="0.98074" stroke="#43A0BD" stroke-width="0.429892"/>
<path d="M31.3634 11.4743L31.5136 12.5451L28.8329 12.921L28.9885 14.0302L31.3995 13.6921L31.5432 14.7166L29.1321 15.0547L29.2888 16.1717L32.0542 15.7839L32.2032 16.8469L28.2361 17.4032L27.4811 12.0188L31.3634 11.4743Z" fill="#43A0BD"/>
<path d="M35.606 16.4623L35.1463 11.0446L36.3554 10.9421L36.7237 15.2824L39.0333 15.0865L39.1247 16.1638L35.606 16.4623Z" fill="#43A0BD"/>
<path d="M42.1163 10.5487L43.3287 10.4982L43.5552 15.9307L42.3428 15.9812L42.1163 10.5487Z" fill="#43A0BD"/>
<path d="M50.575 10.4146L51.7884 10.4237L51.7441 15.8607L50.5307 15.8516L47.9683 12.4254L47.9405 15.8322L46.7271 15.8231L46.7714 10.3862L47.9071 10.3947L50.5465 13.9148L50.575 10.4146Z" fill="#43A0BD"/>
<path d="M59.5232 13.5543C59.5593 13.0682 59.4349 12.6429 59.15 12.2785C58.8651 11.9142 58.4951 11.715 58.0401 11.6812C57.5901 11.6477 57.1974 11.7901 56.8617 12.1084C56.526 12.4266 56.3401 12.8288 56.304 13.3149C56.2682 13.7958 56.3928 14.2185 56.6777 14.5829C56.963 14.9421 57.3306 15.1384 57.7805 15.1719C58.2356 15.2057 58.6308 15.0661 58.966 14.753C59.3017 14.4348 59.4874 14.0352 59.5232 13.5543ZM59.7861 15.5784C59.1983 16.0703 58.5036 16.2865 57.7021 16.2269C56.9005 16.1673 56.2454 15.8507 55.7369 15.2773C55.2287 14.6988 55.0042 14.0113 55.0634 13.2149C55.1227 12.4185 55.4461 11.7743 56.0339 11.2824C56.6221 10.7854 57.3169 10.5666 58.1185 10.6262C58.9201 10.6858 59.5749 11.0049 60.0831 11.5835C60.5917 12.1569 60.8163 12.8418 60.7571 13.6382C60.6979 14.4346 60.3742 15.0813 59.7861 15.5784Z" fill="#43A0BD"/>
<path d="M68.7845 13.7559C68.6647 14.6188 68.2457 15.1287 67.5276 15.2855L68.6238 17.401L67.1445 17.1956L66.189 15.3116L65.3569 15.196L65.1182 16.9141L63.9163 16.7471L64.6644 11.3617L66.7061 11.6453C67.5433 11.7616 68.1195 11.9856 68.4347 12.3173C68.755 12.6498 68.8716 13.1293 68.7845 13.7559ZM66.3797 14.2779C66.7906 14.335 67.0798 14.3071 67.2473 14.1942C67.4148 14.0814 67.5185 13.8811 67.5585 13.5935C67.5991 13.3007 67.5499 13.0897 67.4108 12.9604C67.2717 12.8312 67.0095 12.7398 66.6243 12.6863L65.7229 12.561L65.5013 14.1559L66.3797 14.2779Z" fill="#43A0BD"/>
<path d="M63.5209 27.2017L60.6811 30.6393M60.6811 30.6393L63.5209 34.6747M60.6811 30.6393H38.262M38.262 30.6393V47.6778M38.262 30.6393L34.2266 27.2017M38.262 64.7163H60.6811M38.262 64.7163V47.6778M38.262 64.7163L34.2266 68.0044M60.6811 64.7163L63.5209 60.8303M60.6811 64.7163L64.2682 68.0044M38.262 47.6778H57.5424M57.5424 47.6778L61.5779 44.3896M57.5424 47.6778L61.5779 51.2648" stroke="#43A0BD" stroke-width="0.143297"/>
</g>
</svg>
