<svg width="28" height="45" viewBox="0 0 28 45" fill="none" xmlns="http://www.w3.org/2000/svg">
<path d="M24.3021 11.2082V16.9336H9.96796V22.865H22.8604V28.3432H9.96796V34.3158H24.7551V40H3.54233V11.2082H24.3021Z" fill="white"/>
<path d="M24.3021 11.2082H24.7743C24.7743 10.9474 24.5629 10.736 24.3021 10.736V11.2082ZM24.3021 16.9336V17.4059C24.5629 17.4059 24.7743 17.1945 24.7743 16.9336H24.3021ZM9.96796 16.9336V16.4614C9.70714 16.4614 9.4957 16.6728 9.4957 16.9336H9.96796ZM9.96796 22.865H9.4957C9.4957 23.1258 9.70714 23.3373 9.96796 23.3373V22.865ZM22.8604 22.865H23.3327C23.3327 22.6042 23.1212 22.3927 22.8604 22.3927V22.865ZM22.8604 28.3432V28.8155C23.1212 28.8155 23.3327 28.6041 23.3327 28.3432H22.8604ZM9.96796 28.3432V27.871C9.70714 27.871 9.4957 28.0824 9.4957 28.3432H9.96796ZM9.96796 34.3158H9.4957C9.4957 34.5766 9.70714 34.7881 9.96796 34.7881V34.3158ZM24.7551 34.3158H25.2274C25.2274 34.055 25.016 33.8435 24.7551 33.8435V34.3158ZM24.7551 40V40.4723C25.016 40.4723 25.2274 40.2608 25.2274 40H24.7551ZM3.54233 40H3.07007C3.07007 40.2608 3.28151 40.4723 3.54233 40.4723V40ZM3.54233 11.2082V10.736C3.28151 10.736 3.07007 10.9474 3.07007 11.2082H3.54233ZM23.8298 11.2082V16.9336H24.7743V11.2082H23.8298ZM24.3021 16.4614H9.96796V17.4059H24.3021V16.4614ZM9.4957 16.9336V22.865H10.4402V16.9336H9.4957ZM9.96796 23.3373H22.8604V22.3927H9.96796V23.3373ZM22.3881 22.865V28.3432H23.3327V22.865H22.3881ZM22.8604 27.871H9.96796V28.8155H22.8604V27.871ZM9.4957 28.3432V34.3158H10.4402V28.3432H9.4957ZM9.96796 34.7881H24.7551V33.8435H9.96796V34.7881ZM24.2829 34.3158V40H25.2274V34.3158H24.2829ZM24.7551 39.5277H3.54233V40.4723H24.7551V39.5277ZM4.0146 40V11.2082H3.07007V40H4.0146ZM3.54233 11.6805H24.3021V10.736H3.54233V11.6805Z" fill="white"/>
<path d="M24.9327 10.7861L22.0232 13.9467M22.0232 13.9467L24.9327 17.4584M22.0232 13.9467H6.57697M6.57697 13.9467V25.4352M6.57697 13.9467L3.16016 10.7861M6.61179 37.1239H22.058M6.61179 37.1239L6.57697 25.4352M6.61179 37.1239L3.16016 40.2845M22.058 37.1239L25.2839 33.6122M22.058 37.1239L25.2839 40.6356M6.57697 25.4352H19.8607M19.8607 25.4352L23.5281 22.3748M19.8607 25.4352L23.5281 28.6958" stroke="#43A0BD" stroke-width="0.5"/>
</svg>
