<svg width="260" height="77" viewBox="0 0 260 77" fill="none" xmlns="http://www.w3.org/2000/svg">
<rect width="260" height="74" fill="white"/>
<path d="M53.0727 52.2396V59.5327H22.6661V20.2622H52.3434V27.5553H31.6983V36.0826H49.9311V43.1513H31.6983V52.2396H53.0727ZM60.304 20.2622H69.3923V52.1274H89.0836V59.5327H60.304V20.2622ZM94.1616 20.2622H103.25V59.5327H94.1616V20.2622ZM148.586 20.2622V59.5327H141.125L121.546 35.6899V59.5327H112.57V20.2622H120.087L139.61 44.105V20.2622H148.586ZM176.896 60.2059C172.819 60.2059 169.135 59.327 165.844 57.5692C162.59 55.8114 160.028 53.399 158.158 50.3322C156.325 47.228 155.409 43.7497 155.409 39.8975C155.409 36.0452 156.325 32.5857 158.158 29.5188C160.028 26.4146 162.59 23.9836 165.844 22.2257C169.135 20.4679 172.819 19.589 176.896 19.589C180.972 19.589 184.638 20.4679 187.891 22.2257C191.145 23.9836 193.707 26.4146 195.577 29.5188C197.447 32.5857 198.382 36.0452 198.382 39.8975C198.382 43.7497 197.447 47.228 195.577 50.3322C193.707 53.399 191.145 55.8114 187.891 57.5692C184.638 59.327 180.972 60.2059 176.896 60.2059ZM176.896 52.464C179.215 52.464 181.309 51.9404 183.179 50.8932C185.049 49.8086 186.508 48.3126 187.555 46.4051C188.639 44.4977 189.182 42.3285 189.182 39.8975C189.182 37.4664 188.639 35.2972 187.555 33.3898C186.508 31.4824 185.049 30.005 183.179 28.9578C181.309 27.8732 179.215 27.3309 176.896 27.3309C174.577 27.3309 172.482 27.8732 170.612 28.9578C168.742 30.005 167.265 31.4824 166.18 33.3898C165.133 35.2972 164.61 37.4664 164.61 39.8975C164.61 42.3285 165.133 44.4977 166.18 46.4051C167.265 48.3126 168.742 49.8086 170.612 50.8932C172.482 51.9404 174.577 52.464 176.896 52.464ZM230.233 59.5327L222.66 48.5931H222.211H214.301V59.5327H205.213V20.2622H222.211C225.689 20.2622 228.7 20.8419 231.243 22.0013C233.824 23.1608 235.806 24.8064 237.19 26.9382C238.574 29.07 239.266 31.5946 239.266 34.5118C239.266 37.429 238.555 39.9536 237.134 42.0854C235.75 44.1798 233.768 45.788 231.187 46.9101L239.995 59.5327H230.233ZM230.065 34.5118C230.065 32.3052 229.355 30.6222 227.933 29.4627C226.512 28.2659 224.436 27.6675 221.706 27.6675H214.301V41.3561H221.706C224.436 41.3561 226.512 40.7577 227.933 39.5609C229.355 38.364 230.065 36.681 230.065 34.5118Z" fill="#359E98"/>
<path d="M53.0727 52.2396V59.5327H22.6661V20.2622H52.3434V27.5553H31.6983V36.0826H49.9311V43.1513H31.6983V52.2396H53.0727ZM60.304 20.2622H69.3923V52.1274H89.0836V59.5327H60.304V20.2622ZM94.1616 20.2622H103.25V59.5327H94.1616V20.2622ZM148.586 20.2622V59.5327H141.125L121.546 35.6899V59.5327H112.57V20.2622H120.087L139.61 44.105V20.2622H148.586ZM176.896 60.2059C172.819 60.2059 169.135 59.327 165.844 57.5692C162.59 55.8114 160.028 53.399 158.158 50.3322C156.325 47.228 155.409 43.7497 155.409 39.8975C155.409 36.0452 156.325 32.5857 158.158 29.5188C160.028 26.4146 162.59 23.9836 165.844 22.2257C169.135 20.4679 172.819 19.589 176.896 19.589C180.972 19.589 184.638 20.4679 187.891 22.2257C191.145 23.9836 193.707 26.4146 195.577 29.5188C197.447 32.5857 198.382 36.0452 198.382 39.8975C198.382 43.7497 197.447 47.228 195.577 50.3322C193.707 53.399 191.145 55.8114 187.891 57.5692C184.638 59.327 180.972 60.2059 176.896 60.2059ZM176.896 52.464C179.215 52.464 181.309 51.9404 183.179 50.8932C185.049 49.8086 186.508 48.3126 187.555 46.4051C188.639 44.4977 189.182 42.3285 189.182 39.8975C189.182 37.4664 188.639 35.2972 187.555 33.3898C186.508 31.4824 185.049 30.005 183.179 28.9578C181.309 27.8732 179.215 27.3309 176.896 27.3309C174.577 27.3309 172.482 27.8732 170.612 28.9578C168.742 30.005 167.265 31.4824 166.18 33.3898C165.133 35.2972 164.61 37.4664 164.61 39.8975C164.61 42.3285 165.133 44.4977 166.18 46.4051C167.265 48.3126 168.742 49.8086 170.612 50.8932C172.482 51.9404 174.577 52.464 176.896 52.464ZM230.233 59.5327L222.66 48.5931H222.211H214.301V59.5327H205.213V20.2622H222.211C225.689 20.2622 228.7 20.8419 231.243 22.0013C233.824 23.1608 235.806 24.8064 237.19 26.9382C238.574 29.07 239.266 31.5946 239.266 34.5118C239.266 37.429 238.555 39.9536 237.134 42.0854C235.75 44.1798 233.768 45.788 231.187 46.9101L239.995 59.5327H230.233ZM230.065 34.5118C230.065 32.3052 229.355 30.6222 227.933 29.4627C226.512 28.2659 224.436 27.6675 221.706 27.6675H214.301V41.3561H221.706C224.436 41.3561 226.512 40.7577 227.933 39.5609C229.355 38.364 230.065 36.681 230.065 34.5118Z" fill="#43A0BD"/>
<path d="M5.07629 30.6747L13.079 38.3573M5.07629 30.6747C8.31045 29.536 12.309 30.1521 15.8719 31.9771M5.07629 30.6747C3.82985 33.753 4.55401 37.539 6.55989 40.9167M24.3422 49.17L18.5624 43.6214M24.3422 49.17C25.8131 44.649 24.6154 40.426 22.0856 37.1091M24.3422 49.17C19.8647 50.3724 15.5131 49.1703 12.0284 46.7641M18.5624 43.6214L22.0856 37.1091M18.5624 43.6214L12.0284 46.7641M18.5624 43.6214L13.079 38.3573M22.0856 37.1091C20.4505 34.9652 18.259 33.1998 15.8719 31.9771M12.0284 46.7641C9.77712 45.2096 7.88769 43.1526 6.55989 40.9167M13.079 38.3573L15.8719 31.9771M13.079 38.3573L6.55989 40.9167" stroke="#359E98" stroke-width="3.47732" stroke-linecap="round" stroke-linejoin="round"/>
<path d="M5.07629 30.6747L13.079 38.3573M5.07629 30.6747C8.31045 29.536 12.309 30.1521 15.8719 31.9771M5.07629 30.6747C3.82985 33.753 4.55401 37.539 6.55989 40.9167M24.3422 49.17L18.5624 43.6214M24.3422 49.17C25.8131 44.649 24.6154 40.426 22.0856 37.1091M24.3422 49.17C19.8647 50.3724 15.5131 49.1703 12.0284 46.7641M18.5624 43.6214L22.0856 37.1091M18.5624 43.6214L12.0284 46.7641M18.5624 43.6214L13.079 38.3573M22.0856 37.1091C20.4505 34.9652 18.259 33.1998 15.8719 31.9771M12.0284 46.7641C9.77712 45.2096 7.88769 43.1526 6.55989 40.9167M13.079 38.3573L15.8719 31.9771M13.079 38.3573L6.55989 40.9167" stroke="#43A0BD" stroke-width="3.47732" stroke-linecap="round" stroke-linejoin="round"/>
<path d="M57.9148 3.49744L52.1714 11.3495M57.9148 3.49744C59.4387 6.02491 59.4889 9.45774 58.3775 12.7108M57.9148 3.49744C54.9358 2.92504 51.6155 4.10594 48.8602 6.29503M44.0882 22.4006L48.2361 16.7296M44.0882 22.4006C48.4085 22.9409 52.0526 21.298 54.6731 18.6807M44.0882 22.4006C42.3172 18.8446 42.7442 15.0277 44.3941 11.7515M48.2361 16.7296L54.6731 18.6807M48.2361 16.7296L44.3941 11.7515M48.2361 16.7296L52.1714 11.3495M54.6731 18.6807C56.3668 16.989 57.6329 14.8902 58.3775 12.7108M44.3941 11.7515C45.46 9.63498 47.0364 7.74411 48.8602 6.29503M52.1714 11.3495L58.3775 12.7108M52.1714 11.3495L48.8602 6.29503" stroke="#359E98" stroke-width="3.47732" stroke-linecap="round" stroke-linejoin="round"/>
<path d="M57.9148 3.49744L52.1714 11.3495M57.9148 3.49744C59.4387 6.02491 59.4889 9.45774 58.3775 12.7108M57.9148 3.49744C54.9358 2.92504 51.6155 4.10594 48.8602 6.29503M44.0882 22.4006L48.2361 16.7296M44.0882 22.4006C48.4085 22.9409 52.0526 21.298 54.6731 18.6807M44.0882 22.4006C42.3172 18.8446 42.7442 15.0277 44.3941 11.7515M48.2361 16.7296L54.6731 18.6807M48.2361 16.7296L44.3941 11.7515M48.2361 16.7296L52.1714 11.3495M54.6731 18.6807C56.3668 16.989 57.6329 14.8902 58.3775 12.7108M44.3941 11.7515C45.46 9.63498 47.0364 7.74411 48.8602 6.29503M52.1714 11.3495L58.3775 12.7108M52.1714 11.3495L48.8602 6.29503" stroke="#43A0BD" stroke-width="3.47732" stroke-linecap="round" stroke-linejoin="round"/>
<path d="M254.585 15.946L248.841 23.7981M254.585 15.946C256.109 18.4735 256.159 21.9063 255.047 25.1594M254.585 15.946C251.606 15.3736 248.285 16.5545 245.53 18.7436M240.758 34.8492L244.906 29.1782M240.758 34.8492C245.078 35.3895 248.723 33.7466 251.343 31.1293M240.758 34.8492C238.987 31.2932 239.414 27.4763 241.064 24.2001M244.906 29.1782L251.343 31.1293M244.906 29.1782L241.064 24.2001M244.906 29.1782L248.841 23.7981M251.343 31.1293C253.037 29.4376 254.303 27.3388 255.047 25.1594M241.064 24.2001C242.13 22.0836 243.706 20.1927 245.53 18.7436M248.841 23.7981L255.047 25.1594M248.841 23.7981L245.53 18.7436" stroke="#359E98" stroke-width="3.47732" stroke-linecap="round" stroke-linejoin="round"/>
<path d="M254.585 15.946L248.841 23.7981M254.585 15.946C256.109 18.4735 256.159 21.9063 255.047 25.1594M254.585 15.946C251.606 15.3736 248.285 16.5545 245.53 18.7436M240.758 34.8492L244.906 29.1782M240.758 34.8492C245.078 35.3895 248.723 33.7466 251.343 31.1293M240.758 34.8492C238.987 31.2932 239.414 27.4763 241.064 24.2001M244.906 29.1782L251.343 31.1293M244.906 29.1782L241.064 24.2001M244.906 29.1782L248.841 23.7981M251.343 31.1293C253.037 29.4376 254.303 27.3388 255.047 25.1594M241.064 24.2001C242.13 22.0836 243.706 20.1927 245.53 18.7436M248.841 23.7981L255.047 25.1594M248.841 23.7981L245.53 18.7436" stroke="#43A0BD" stroke-width="3.47732" stroke-linecap="round" stroke-linejoin="round"/>
<path d="M28.2556 69.5162L26.3296 73.409H25.3819L23.4661 69.5162V74H21.8764V66.8769H24.0266L25.8609 70.79L27.7053 66.8769H29.8453V74H28.2556V69.5162ZM36.674 74L36.0116 72.4612H33.0258L32.3634 74H30.6718L33.7493 66.8769H35.2881L38.3656 74H36.674ZM34.5238 68.9965L33.627 71.0651H35.4104L34.5238 68.9965ZM44.1754 66.8769H45.7651V74H44.1754L40.7819 69.5366V74H39.1922V66.8769H40.68L44.1754 71.4626V66.8769ZM52.5966 74L51.9342 72.4612H48.9484L48.286 74H46.5944L49.6719 66.8769H51.2107L54.2882 74H52.5966ZM50.4464 68.9965L49.5497 71.0651H51.333L50.4464 68.9965ZM59.7413 70.3722H61.3412V72.8994C60.6347 73.6875 59.6564 74.0815 58.4064 74.0815C57.3601 74.0815 56.4804 73.735 55.767 73.0421C55.0605 72.3491 54.7072 71.4762 54.7072 70.4231C54.7072 69.3633 55.0673 68.4802 55.7874 67.7736C56.5143 67.0671 57.3873 66.7138 58.4064 66.7138C59.4322 66.7138 60.3222 67.0501 61.0763 67.7227L60.2508 68.915C59.9315 68.6364 59.636 68.4462 59.3643 68.3443C59.0993 68.2356 58.8106 68.1812 58.4981 68.1812C57.8934 68.1812 57.3839 68.3884 56.9695 68.8029C56.5551 69.2105 56.3479 69.7506 56.3479 70.4231C56.3479 71.0957 56.5449 71.6358 56.9389 72.0434C57.3398 72.4443 57.8153 72.6447 58.3656 72.6447C58.9159 72.6447 59.3745 72.5394 59.7413 72.3288V70.3722ZM67.8937 66.8769V68.2933H64.3474V69.7608H67.537V71.1161H64.3474V72.5937H68.0058V74H62.7577V66.8769H67.8937ZM75.8045 69.5162L73.8785 73.409H72.9308L71.015 69.5162V74H69.4253V66.8769H71.5755L73.4098 70.79L75.2543 66.8769H77.3943V74H75.8045V69.5162ZM84.284 66.8769V68.2933H80.7378V69.7608H83.9274V71.1161H80.7378V72.5937H84.3961V74H79.148V66.8769H84.284ZM90.7988 66.8769H92.3885V74H90.7988L87.4054 69.5366V74H85.8156V66.8769H87.3035L90.7988 71.4626V66.8769ZM97.1615 68.2526V74H95.5718V68.2526H93.5541V66.8769H99.1793V68.2526H97.1615ZM100.396 73.8777C100.158 73.7079 100.039 73.4871 100.039 73.2153C100.039 72.9436 100.131 72.7228 100.314 72.553C100.498 72.3763 100.719 72.288 100.977 72.288C101.235 72.288 101.456 72.3729 101.639 72.5428C101.829 72.7126 101.925 72.913 101.925 73.144C101.925 73.3682 101.826 73.6399 101.629 73.9592L101.018 75.0089H100.009L100.396 73.8777ZM110.684 70.3722H112.284V72.8994C111.577 73.6875 110.599 74.0815 109.349 74.0815C108.303 74.0815 107.423 73.735 106.709 73.0421C106.003 72.3491 105.65 71.4762 105.65 70.4231C105.65 69.3633 106.01 68.4802 106.73 67.7736C107.457 67.0671 108.33 66.7138 109.349 66.7138C110.375 66.7138 111.265 67.0501 112.019 67.7227L111.193 68.915C110.874 68.6364 110.578 68.4462 110.307 68.3443C110.042 68.2356 109.753 68.1812 109.441 68.1812C108.836 68.1812 108.326 68.3884 107.912 68.8029C107.498 69.2105 107.29 69.7506 107.29 70.4231C107.29 71.0957 107.487 71.6358 107.881 72.0434C108.282 72.4443 108.758 72.6447 109.308 72.6447C109.858 72.6447 110.317 72.5394 110.684 72.3288V70.3722ZM119.152 70.4028C119.152 69.7642 118.948 69.2207 118.541 68.7723C118.133 68.3239 117.63 68.0997 117.032 68.0997C116.441 68.0997 115.942 68.3239 115.534 68.7723C115.127 69.2207 114.923 69.7642 114.923 70.4028C114.923 71.0346 115.127 71.5747 115.534 72.023C115.942 72.4646 116.441 72.6854 117.032 72.6854C117.63 72.6854 118.133 72.4646 118.541 72.023C118.948 71.5747 119.152 71.0346 119.152 70.4028ZM119.692 73.0217C118.972 73.7215 118.085 74.0713 117.032 74.0713C115.979 74.0713 115.093 73.7215 114.373 73.0217C113.653 72.3152 113.293 71.4388 113.293 70.3926C113.293 69.3463 113.653 68.4734 114.373 67.7736C115.093 67.0671 115.979 66.7138 117.032 66.7138C118.085 66.7138 118.972 67.0671 119.692 67.7736C120.412 68.4734 120.772 69.3463 120.772 70.3926C120.772 71.4388 120.412 72.3152 119.692 73.0217ZM124.589 71.4116L126.403 66.8769H128.125L125.262 74H123.917L121.053 66.8769H122.775L124.589 71.4116ZM134.112 66.8769V68.2933H130.566V69.7608H133.755V71.1161H130.566V72.5937H134.224V74H128.976V66.8769H134.112ZM141.421 69.241C141.421 70.3824 140.97 71.1195 140.066 71.4524L141.87 74H139.913L138.334 71.7275H137.233V74H135.643V66.8769H138.344C139.451 66.8769 140.239 67.0637 140.708 67.4373C141.184 67.811 141.421 68.4122 141.421 69.241ZM138.395 70.3518C138.938 70.3518 139.309 70.2635 139.506 70.0869C139.703 69.9102 139.801 69.6317 139.801 69.2512C139.801 68.864 139.699 68.599 139.495 68.4564C139.292 68.3137 138.935 68.2424 138.425 68.2424H137.233V70.3518H138.395ZM148.031 66.8769H149.62V74H148.031L144.637 69.5366V74H143.048V66.8769H144.535L148.031 71.4626V66.8769ZM156.452 74L155.789 72.4612H152.804L152.141 74H150.45L153.527 66.8769H155.066L158.143 74H156.452ZM154.302 68.9965L153.405 71.0651H155.188L154.302 68.9965ZM163.953 66.8769H165.543V74H163.953L160.56 69.5366V74H158.97V66.8769H160.458L163.953 71.4626V66.8769ZM170.571 72.5937C171.352 72.5937 171.991 72.2846 172.487 71.6664L173.506 72.716C172.697 73.6263 171.743 74.0815 170.642 74.0815C169.548 74.0815 168.645 73.735 167.931 73.0421C167.225 72.3491 166.872 71.4762 166.872 70.4231C166.872 69.3633 167.232 68.4802 167.952 67.7736C168.679 67.0671 169.565 66.7138 170.612 66.7138C171.78 66.7138 172.758 67.1588 173.546 68.0488L172.558 69.1697C172.055 68.5447 171.43 68.2322 170.683 68.2322C170.085 68.2322 169.572 68.4292 169.144 68.8232C168.723 69.2105 168.512 69.737 168.512 70.4028C168.512 71.0617 168.713 71.5917 169.114 71.9925C169.514 72.3933 170 72.5937 170.571 72.5937ZM179.899 66.8769V68.2933H176.353V69.7608H179.543V71.1161H176.353V72.5937H180.011V74H174.763V66.8769H179.899ZM181.482 73.8777C181.244 73.7079 181.125 73.4871 181.125 73.2153C181.125 72.9436 181.217 72.7228 181.4 72.553C181.584 72.3763 181.805 72.288 182.063 72.288C182.321 72.288 182.542 72.3729 182.725 72.5428C182.915 72.7126 183.01 72.913 183.01 73.144C183.01 73.3682 182.912 73.6399 182.715 73.9592L182.104 75.0089H181.095L181.482 73.8777ZM191.301 73.3886C190.73 73.8505 190.068 74.0815 189.314 74.0815C188.566 74.0815 187.952 73.8913 187.469 73.5109C186.987 73.1236 186.746 72.5971 186.746 71.9313C186.746 71.184 187.245 70.5217 188.244 69.9442C188.02 69.6724 187.857 69.4347 187.755 69.2309C187.653 69.0203 187.602 68.7757 187.602 68.4971C187.602 67.9197 187.809 67.4781 188.223 67.1724C188.645 66.8667 189.141 66.7138 189.711 66.7138C190.282 66.7138 190.768 66.8633 191.168 67.1622C191.576 67.4543 191.78 67.8653 191.78 68.3952C191.78 69.061 191.294 69.6792 190.323 70.2499C190.703 70.7255 190.988 71.0685 191.179 71.2791C191.348 70.9666 191.478 70.6371 191.566 70.2907L192.758 71.1467C192.602 71.5747 192.412 71.9721 192.187 72.339L193.196 73.3376L192.187 74.2955L191.301 73.3886ZM188.264 71.9823C188.264 72.2201 188.363 72.4171 188.56 72.5733C188.757 72.7296 189.011 72.8077 189.324 72.8077C189.636 72.8077 189.973 72.6583 190.333 72.3593C189.837 71.8362 189.409 71.3607 189.049 70.9327C188.526 71.2588 188.264 71.6086 188.264 71.9823ZM189.711 67.9163C189.562 67.9163 189.426 67.9706 189.304 68.0793C189.188 68.1812 189.13 68.3239 189.13 68.5073C189.13 68.684 189.266 68.9421 189.538 69.2818C190.047 69.0101 190.302 68.7553 190.302 68.5175C190.302 68.3205 190.241 68.171 190.119 68.0691C189.997 67.9672 189.861 67.9163 189.711 67.9163ZM202.101 66.8769V68.2933H198.555V69.7608H201.745V71.1161H198.555V72.5937H202.214V74H196.965V66.8769H202.101ZM210.705 70.3926C210.705 71.1331 210.515 71.7989 210.135 72.3899C209.761 72.981 209.255 73.4225 208.616 73.7147C208.677 73.8166 208.772 73.9049 208.902 73.9796C209.037 74.0476 209.177 74.0815 209.319 74.0815C209.462 74.0815 209.601 74.0577 209.737 74.0102C209.873 73.9694 209.982 73.9185 210.063 73.8573C210.24 73.7147 210.366 73.5754 210.44 73.4395L211.266 74.428C210.681 75.0462 209.951 75.3553 209.075 75.3553C208.667 75.3553 208.266 75.2432 207.872 75.019C207.478 74.7949 207.176 74.479 206.965 74.0713C205.912 74.0713 205.026 73.7215 204.306 73.0217C203.586 72.3152 203.225 71.4388 203.225 70.3926C203.225 69.3463 203.586 68.4734 204.306 67.7736C205.026 67.0671 205.912 66.7138 206.965 66.7138C208.018 66.7138 208.905 67.0671 209.625 67.7736C210.345 68.4734 210.705 69.3463 210.705 70.3926ZM209.085 70.4028C209.085 69.7642 208.881 69.2207 208.474 68.7723C208.066 68.3239 207.563 68.0997 206.965 68.0997C206.374 68.0997 205.875 68.3239 205.467 68.7723C205.06 69.2207 204.856 69.7642 204.856 70.4028C204.856 71.0346 205.06 71.5747 205.467 72.023C205.875 72.4646 206.374 72.6854 206.965 72.6854C207.563 72.6854 208.066 72.4646 208.474 72.023C208.881 71.5747 209.085 71.0346 209.085 70.4028ZM213.947 72.1657C214.212 72.4918 214.569 72.6549 215.017 72.6549C215.466 72.6549 215.819 72.4918 216.077 72.1657C216.342 71.8328 216.475 71.381 216.475 70.8104V66.8769H218.064V70.8613C218.064 71.894 217.779 72.6888 217.208 73.2459C216.638 73.7962 215.907 74.0713 215.017 74.0713C214.127 74.0713 213.394 73.7928 212.816 73.2357C212.246 72.6786 211.96 71.8872 211.96 70.8613V66.8769H213.55V70.8104C213.55 71.381 213.682 71.8328 213.947 72.1657ZM219.715 66.8769H221.305V74H219.715V66.8769ZM226.075 68.2526V74H224.485V68.2526H222.468V66.8769H228.093V68.2526H226.075ZM232.326 74H230.736V71.1874L228.27 66.8769H229.992L231.531 69.5264L233.07 66.8769H234.792L232.326 71.1874V74Z" fill="#359E98"/>
<path d="M28.2556 69.5162L26.3296 73.409H25.3819L23.4661 69.5162V74H21.8764V66.8769H24.0266L25.8609 70.79L27.7053 66.8769H29.8453V74H28.2556V69.5162ZM36.674 74L36.0116 72.4612H33.0258L32.3634 74H30.6718L33.7493 66.8769H35.2881L38.3656 74H36.674ZM34.5238 68.9965L33.627 71.0651H35.4104L34.5238 68.9965ZM44.1754 66.8769H45.7651V74H44.1754L40.7819 69.5366V74H39.1922V66.8769H40.68L44.1754 71.4626V66.8769ZM52.5966 74L51.9342 72.4612H48.9484L48.286 74H46.5944L49.6719 66.8769H51.2107L54.2882 74H52.5966ZM50.4464 68.9965L49.5497 71.0651H51.333L50.4464 68.9965ZM59.7413 70.3722H61.3412V72.8994C60.6347 73.6875 59.6564 74.0815 58.4064 74.0815C57.3601 74.0815 56.4804 73.735 55.767 73.0421C55.0605 72.3491 54.7072 71.4762 54.7072 70.4231C54.7072 69.3633 55.0673 68.4802 55.7874 67.7736C56.5143 67.0671 57.3873 66.7138 58.4064 66.7138C59.4322 66.7138 60.3222 67.0501 61.0763 67.7227L60.2508 68.915C59.9315 68.6364 59.636 68.4462 59.3643 68.3443C59.0993 68.2356 58.8106 68.1812 58.4981 68.1812C57.8934 68.1812 57.3839 68.3884 56.9695 68.8029C56.5551 69.2105 56.3479 69.7506 56.3479 70.4231C56.3479 71.0957 56.5449 71.6358 56.9389 72.0434C57.3398 72.4443 57.8153 72.6447 58.3656 72.6447C58.9159 72.6447 59.3745 72.5394 59.7413 72.3288V70.3722ZM67.8937 66.8769V68.2933H64.3474V69.7608H67.537V71.1161H64.3474V72.5937H68.0058V74H62.7577V66.8769H67.8937ZM75.8045 69.5162L73.8785 73.409H72.9308L71.015 69.5162V74H69.4253V66.8769H71.5755L73.4098 70.79L75.2543 66.8769H77.3943V74H75.8045V69.5162ZM84.284 66.8769V68.2933H80.7378V69.7608H83.9274V71.1161H80.7378V72.5937H84.3961V74H79.148V66.8769H84.284ZM90.7988 66.8769H92.3885V74H90.7988L87.4054 69.5366V74H85.8156V66.8769H87.3035L90.7988 71.4626V66.8769ZM97.1615 68.2526V74H95.5718V68.2526H93.5541V66.8769H99.1793V68.2526H97.1615ZM100.396 73.8777C100.158 73.7079 100.039 73.4871 100.039 73.2153C100.039 72.9436 100.131 72.7228 100.314 72.553C100.498 72.3763 100.719 72.288 100.977 72.288C101.235 72.288 101.456 72.3729 101.639 72.5428C101.829 72.7126 101.925 72.913 101.925 73.144C101.925 73.3682 101.826 73.6399 101.629 73.9592L101.018 75.0089H100.009L100.396 73.8777ZM110.684 70.3722H112.284V72.8994C111.577 73.6875 110.599 74.0815 109.349 74.0815C108.303 74.0815 107.423 73.735 106.709 73.0421C106.003 72.3491 105.65 71.4762 105.65 70.4231C105.65 69.3633 106.01 68.4802 106.73 67.7736C107.457 67.0671 108.33 66.7138 109.349 66.7138C110.375 66.7138 111.265 67.0501 112.019 67.7227L111.193 68.915C110.874 68.6364 110.578 68.4462 110.307 68.3443C110.042 68.2356 109.753 68.1812 109.441 68.1812C108.836 68.1812 108.326 68.3884 107.912 68.8029C107.498 69.2105 107.29 69.7506 107.29 70.4231C107.29 71.0957 107.487 71.6358 107.881 72.0434C108.282 72.4443 108.758 72.6447 109.308 72.6447C109.858 72.6447 110.317 72.5394 110.684 72.3288V70.3722ZM119.152 70.4028C119.152 69.7642 118.948 69.2207 118.541 68.7723C118.133 68.3239 117.63 68.0997 117.032 68.0997C116.441 68.0997 115.942 68.3239 115.534 68.7723C115.127 69.2207 114.923 69.7642 114.923 70.4028C114.923 71.0346 115.127 71.5747 115.534 72.023C115.942 72.4646 116.441 72.6854 117.032 72.6854C117.63 72.6854 118.133 72.4646 118.541 72.023C118.948 71.5747 119.152 71.0346 119.152 70.4028ZM119.692 73.0217C118.972 73.7215 118.085 74.0713 117.032 74.0713C115.979 74.0713 115.093 73.7215 114.373 73.0217C113.653 72.3152 113.293 71.4388 113.293 70.3926C113.293 69.3463 113.653 68.4734 114.373 67.7736C115.093 67.0671 115.979 66.7138 117.032 66.7138C118.085 66.7138 118.972 67.0671 119.692 67.7736C120.412 68.4734 120.772 69.3463 120.772 70.3926C120.772 71.4388 120.412 72.3152 119.692 73.0217ZM124.589 71.4116L126.403 66.8769H128.125L125.262 74H123.917L121.053 66.8769H122.775L124.589 71.4116ZM134.112 66.8769V68.2933H130.566V69.7608H133.755V71.1161H130.566V72.5937H134.224V74H128.976V66.8769H134.112ZM141.421 69.241C141.421 70.3824 140.97 71.1195 140.066 71.4524L141.87 74H139.913L138.334 71.7275H137.233V74H135.643V66.8769H138.344C139.451 66.8769 140.239 67.0637 140.708 67.4373C141.184 67.811 141.421 68.4122 141.421 69.241ZM138.395 70.3518C138.938 70.3518 139.309 70.2635 139.506 70.0869C139.703 69.9102 139.801 69.6317 139.801 69.2512C139.801 68.864 139.699 68.599 139.495 68.4564C139.292 68.3137 138.935 68.2424 138.425 68.2424H137.233V70.3518H138.395ZM148.031 66.8769H149.62V74H148.031L144.637 69.5366V74H143.048V66.8769H144.535L148.031 71.4626V66.8769ZM156.452 74L155.789 72.4612H152.804L152.141 74H150.45L153.527 66.8769H155.066L158.143 74H156.452ZM154.302 68.9965L153.405 71.0651H155.188L154.302 68.9965ZM163.953 66.8769H165.543V74H163.953L160.56 69.5366V74H158.97V66.8769H160.458L163.953 71.4626V66.8769ZM170.571 72.5937C171.352 72.5937 171.991 72.2846 172.487 71.6664L173.506 72.716C172.697 73.6263 171.743 74.0815 170.642 74.0815C169.548 74.0815 168.645 73.735 167.931 73.0421C167.225 72.3491 166.872 71.4762 166.872 70.4231C166.872 69.3633 167.232 68.4802 167.952 67.7736C168.679 67.0671 169.565 66.7138 170.612 66.7138C171.78 66.7138 172.758 67.1588 173.546 68.0488L172.558 69.1697C172.055 68.5447 171.43 68.2322 170.683 68.2322C170.085 68.2322 169.572 68.4292 169.144 68.8232C168.723 69.2105 168.512 69.737 168.512 70.4028C168.512 71.0617 168.713 71.5917 169.114 71.9925C169.514 72.3933 170 72.5937 170.571 72.5937ZM179.899 66.8769V68.2933H176.353V69.7608H179.543V71.1161H176.353V72.5937H180.011V74H174.763V66.8769H179.899ZM181.482 73.8777C181.244 73.7079 181.125 73.4871 181.125 73.2153C181.125 72.9436 181.217 72.7228 181.4 72.553C181.584 72.3763 181.805 72.288 182.063 72.288C182.321 72.288 182.542 72.3729 182.725 72.5428C182.915 72.7126 183.01 72.913 183.01 73.144C183.01 73.3682 182.912 73.6399 182.715 73.9592L182.104 75.0089H181.095L181.482 73.8777ZM191.301 73.3886C190.73 73.8505 190.068 74.0815 189.314 74.0815C188.566 74.0815 187.952 73.8913 187.469 73.5109C186.987 73.1236 186.746 72.5971 186.746 71.9313C186.746 71.184 187.245 70.5217 188.244 69.9442C188.02 69.6724 187.857 69.4347 187.755 69.2309C187.653 69.0203 187.602 68.7757 187.602 68.4971C187.602 67.9197 187.809 67.4781 188.223 67.1724C188.645 66.8667 189.141 66.7138 189.711 66.7138C190.282 66.7138 190.768 66.8633 191.168 67.1622C191.576 67.4543 191.78 67.8653 191.78 68.3952C191.78 69.061 191.294 69.6792 190.323 70.2499C190.703 70.7255 190.988 71.0685 191.179 71.2791C191.348 70.9666 191.478 70.6371 191.566 70.2907L192.758 71.1467C192.602 71.5747 192.412 71.9721 192.187 72.339L193.196 73.3376L192.187 74.2955L191.301 73.3886ZM188.264 71.9823C188.264 72.2201 188.363 72.4171 188.56 72.5733C188.757 72.7296 189.011 72.8077 189.324 72.8077C189.636 72.8077 189.973 72.6583 190.333 72.3593C189.837 71.8362 189.409 71.3607 189.049 70.9327C188.526 71.2588 188.264 71.6086 188.264 71.9823ZM189.711 67.9163C189.562 67.9163 189.426 67.9706 189.304 68.0793C189.188 68.1812 189.13 68.3239 189.13 68.5073C189.13 68.684 189.266 68.9421 189.538 69.2818C190.047 69.0101 190.302 68.7553 190.302 68.5175C190.302 68.3205 190.241 68.171 190.119 68.0691C189.997 67.9672 189.861 67.9163 189.711 67.9163ZM202.101 66.8769V68.2933H198.555V69.7608H201.745V71.1161H198.555V72.5937H202.214V74H196.965V66.8769H202.101ZM210.705 70.3926C210.705 71.1331 210.515 71.7989 210.135 72.3899C209.761 72.981 209.255 73.4225 208.616 73.7147C208.677 73.8166 208.772 73.9049 208.902 73.9796C209.037 74.0476 209.177 74.0815 209.319 74.0815C209.462 74.0815 209.601 74.0577 209.737 74.0102C209.873 73.9694 209.982 73.9185 210.063 73.8573C210.24 73.7147 210.366 73.5754 210.44 73.4395L211.266 74.428C210.681 75.0462 209.951 75.3553 209.075 75.3553C208.667 75.3553 208.266 75.2432 207.872 75.019C207.478 74.7949 207.176 74.479 206.965 74.0713C205.912 74.0713 205.026 73.7215 204.306 73.0217C203.586 72.3152 203.225 71.4388 203.225 70.3926C203.225 69.3463 203.586 68.4734 204.306 67.7736C205.026 67.0671 205.912 66.7138 206.965 66.7138C208.018 66.7138 208.905 67.0671 209.625 67.7736C210.345 68.4734 210.705 69.3463 210.705 70.3926ZM209.085 70.4028C209.085 69.7642 208.881 69.2207 208.474 68.7723C208.066 68.3239 207.563 68.0997 206.965 68.0997C206.374 68.0997 205.875 68.3239 205.467 68.7723C205.06 69.2207 204.856 69.7642 204.856 70.4028C204.856 71.0346 205.06 71.5747 205.467 72.023C205.875 72.4646 206.374 72.6854 206.965 72.6854C207.563 72.6854 208.066 72.4646 208.474 72.023C208.881 71.5747 209.085 71.0346 209.085 70.4028ZM213.947 72.1657C214.212 72.4918 214.569 72.6549 215.017 72.6549C215.466 72.6549 215.819 72.4918 216.077 72.1657C216.342 71.8328 216.475 71.381 216.475 70.8104V66.8769H218.064V70.8613C218.064 71.894 217.779 72.6888 217.208 73.2459C216.638 73.7962 215.907 74.0713 215.017 74.0713C214.127 74.0713 213.394 73.7928 212.816 73.2357C212.246 72.6786 211.96 71.8872 211.96 70.8613V66.8769H213.55V70.8104C213.55 71.381 213.682 71.8328 213.947 72.1657ZM219.715 66.8769H221.305V74H219.715V66.8769ZM226.075 68.2526V74H224.485V68.2526H222.468V66.8769H228.093V68.2526H226.075ZM232.326 74H230.736V71.1874L228.27 66.8769H229.992L231.531 69.5264L233.07 66.8769H234.792L232.326 71.1874V74Z" fill="#43A0BD"/>
</svg>
