<svg width="183" height="183" viewBox="0 0 183 183" fill="none" xmlns="http://www.w3.org/2000/svg">
<circle cx="91.5" cy="91.5" r="90.3721" fill="#EDF6F6" stroke="#43A0BD" stroke-width="2.25578"/>
<path d="M147.946 127.452V113.007M147.946 69.9292V113.007M147.946 113.007C150.041 115.071 155.53 119.198 160.724 119.198M147.946 104.857C150.041 106.92 155.53 111.047 160.724 111.047M147.946 96.9126C150.041 98.9761 155.53 103.103 160.724 103.103M147.946 88.7621C150.041 90.8255 155.53 94.9524 160.724 94.9524M147.946 80.7146C150.041 82.7781 153.469 86.905 158.663 86.905M147.946 72.7704C148.77 75.0402 151.408 78.9607 156.602 78.9607M147.843 113.007C145.747 115.071 140.258 119.198 135.064 119.198M147.843 104.857C145.747 106.92 140.258 111.047 135.064 111.047M147.843 96.9126C145.747 98.9761 140.258 103.103 135.064 103.103M147.843 88.7621C145.747 90.8255 140.258 94.9524 135.064 94.9524M147.843 80.7146C145.747 82.7781 142.319 86.905 137.125 86.905M147.843 72.7704C146.709 75.7624 144.38 78.9607 139.186 78.9607" stroke="#43A0BD" stroke-width="2.25578" stroke-linecap="round"/>
<path d="M39.6684 126.324V111.879M39.6684 68.8012V111.879M39.6684 111.879C41.7637 113.943 47.2529 118.07 52.4466 118.07M39.6684 103.729C41.7637 105.792 47.2529 109.919 52.4466 109.919M39.6684 95.7847C41.7637 97.8481 47.2529 101.975 52.4466 101.975M39.6684 87.6341C41.7637 89.6975 47.2529 93.8244 52.4466 93.8244M39.6684 79.5867C41.7637 81.6501 45.1919 85.777 50.3856 85.777M39.6684 71.6424C40.4928 73.9122 43.1309 77.8327 48.3246 77.8327M39.5653 111.879C37.47 113.943 31.9808 118.07 26.7871 118.07M39.5653 103.729C37.47 105.792 31.9808 109.919 26.7871 109.919M39.5653 95.7847C37.47 97.8481 31.9808 101.975 26.7871 101.975M39.5653 87.6341C37.47 89.6975 31.9808 93.8244 26.7871 93.8244M39.5653 79.5867C37.47 81.6501 34.0418 85.777 28.8481 85.777M39.5653 71.6424C38.4318 74.6344 36.1028 77.8327 30.9091 77.8327" stroke="#43A0BD" stroke-width="2.25578" stroke-linecap="round"/>
<path d="M164.671 132.809C107.113 115.977 74.9368 115.058 17.7637 132.809" stroke="#43A0BD" stroke-width="1.69183"/>
<path d="M40.8551 49.1493C40.596 49.322 40.526 49.6722 40.6987 49.9313C40.8715 50.1905 41.2216 50.2605 41.4808 50.0877L40.8551 49.1493ZM43.9877 49.9005L43.6163 50.3249C43.8251 50.5076 44.1356 50.5113 44.3487 50.3338L43.9877 49.9005ZM46.5496 50.1583C46.7699 50.3785 47.1269 50.3785 47.3472 50.1583C47.5674 49.9381 47.5674 49.581 47.3472 49.3608L46.5496 50.1583ZM41.4808 50.0877C42.1095 49.6686 42.3764 49.6078 42.5577 49.6314C42.7679 49.6588 43.0326 49.8142 43.6163 50.3249L44.3591 49.4761C43.8149 49 43.3042 48.5914 42.7037 48.513C42.0743 48.4309 41.4953 48.7225 40.8551 49.1493L41.4808 50.0877ZM44.3487 50.3338C45.055 49.7452 45.6067 49.7528 45.9572 49.8462C46.148 49.8971 46.3033 49.9808 46.4109 50.0525C46.4641 50.088 46.5036 50.1192 46.5277 50.1395C46.5397 50.1496 46.5477 50.1568 46.5515 50.1602C46.5533 50.162 46.5542 50.1628 46.5539 50.1625C46.5537 50.1623 46.5533 50.1619 46.5526 50.1612C46.5522 50.1609 46.5518 50.1605 46.5513 50.16C46.5511 50.1597 46.5508 50.1595 46.5505 50.1592C46.5504 50.1591 46.5502 50.1588 46.5501 50.1588C46.5499 50.1585 46.5496 50.1583 46.9484 49.7595C47.3472 49.3608 47.3469 49.3605 47.3467 49.3603C47.3466 49.3602 47.3463 49.3599 47.3462 49.3598C47.3458 49.3594 47.3454 49.359 47.345 49.3586C47.3442 49.3578 47.3433 49.357 47.3424 49.356C47.3404 49.3541 47.3382 49.3519 47.3356 49.3494C47.3304 49.3444 47.3238 49.3382 47.316 49.331C47.3004 49.3166 47.2794 49.2979 47.2534 49.2761C47.2016 49.2325 47.1287 49.1756 47.0365 49.1141C46.8533 48.992 46.5856 48.8465 46.2478 48.7564C45.5409 48.5679 44.6122 48.646 43.6267 49.4673L44.3487 50.3338Z" fill="#43A0BD"/>
<path d="M43.6755 52.2511C43.4163 52.4238 43.3463 52.774 43.5191 53.0331C43.6918 53.2923 44.042 53.3623 44.3011 53.1895L43.6755 52.2511ZM46.808 53.0023L46.4366 53.4268C46.6454 53.6094 46.956 53.6131 47.169 53.4356L46.808 53.0023ZM49.3699 53.2601C49.5902 53.4804 49.9472 53.4804 50.1675 53.2601C50.3877 53.0399 50.3877 52.6828 50.1675 52.4626L49.3699 53.2601ZM44.3011 53.1895C44.9298 52.7704 45.1967 52.7096 45.3781 52.7332C45.5882 52.7606 45.8529 52.916 46.4366 53.4268L47.1794 52.5779C46.6352 52.1018 46.1245 51.6932 45.524 51.6148C44.8946 51.5327 44.3156 51.8243 43.6755 52.2511L44.3011 53.1895ZM47.169 53.4356C47.8753 52.847 48.427 52.8546 48.7775 52.948C48.9683 52.9989 49.1236 53.0826 49.2312 53.1543C49.2844 53.1898 49.3239 53.221 49.348 53.2413C49.36 53.2514 49.368 53.2586 49.3718 53.2621C49.3737 53.2638 49.3745 53.2646 49.3742 53.2643C49.374 53.2641 49.3736 53.2637 49.3729 53.263C49.3725 53.2627 49.3721 53.2623 49.3716 53.2618C49.3714 53.2616 49.3711 53.2613 49.3708 53.261C49.3707 53.2609 49.3705 53.2606 49.3704 53.2606C49.3702 53.2604 49.3699 53.2601 49.7687 52.8613C50.1675 52.4626 50.1672 52.4623 50.167 52.4621C50.1669 52.462 50.1666 52.4617 50.1665 52.4616C50.1661 52.4612 50.1657 52.4608 50.1653 52.4604C50.1645 52.4596 50.1636 52.4588 50.1627 52.4578C50.1607 52.4559 50.1585 52.4537 50.1559 52.4512C50.1507 52.4462 50.1441 52.44 50.1363 52.4328C50.1207 52.4184 50.0998 52.3997 50.0738 52.3779C50.0219 52.3343 49.949 52.2774 49.8568 52.2159C49.6737 52.0938 49.406 51.9483 49.0681 51.8582C48.3612 51.6697 47.4325 51.7478 46.447 52.5691L47.169 53.4356Z" fill="#43A0BD"/>
<circle cx="91.6412" cy="91.359" r="83.7458" stroke="#43A0BD" stroke-width="2.25578"/>
<mask id="mask0" mask-type="alpha" maskUnits="userSpaceOnUse" x="6" y="6" width="171" height="171">
<circle cx="91.6412" cy="91.359" r="84.8736" fill="#C4C4C4"/>
</mask>
<g mask="url(#mask0)">
<path d="M156.776 55.2666H130.632C130.782 54.7093 130.095 53.1424 131.173 50.9546C133.427 46.3787 139.287 46.7306 142.532 50.9546C143.766 52.56 145.177 52.0986 145.868 51.8346C147.4 50.9546 148.662 50.5946 151.097 50.9546C153.531 51.3147 156.205 53.7413 156.776 55.2666Z" stroke="#43A0BD" stroke-width="1.69183"/>
<path d="M58.9333 122.376C55.4557 125.901 49.6001 135.826 57.9464 141.127C68.3794 147.754 95.1668 148.599 100.806 162.98C104.33 171.967 100.242 176.233 100.806 176.233L138.45 170.311C138.45 164.531 134.22 144.951 112.367 141.127C95.4488 138.166 73.9226 137.048 64.7138 135.206C57.6645 133.796 58.2284 129.284 61.4711 122.376" stroke="#43A0BD" stroke-width="1.69183"/>
<path d="M160.02 41.8729L153.962 44.1448C153.511 44.3139 153.153 44.6674 152.979 45.1164L150.789 50.755M24.8145 38.6302L28.8888 41.5586C29.1732 41.7631 29.3872 42.0508 29.5012 42.3821L35.1592 58.8299C35.3059 59.2563 35.6168 59.6065 36.0228 59.8028L59.9882 71.386C60.4767 71.6222 61.0488 71.6096 61.5265 71.3524L80.0569 61.3745C80.5944 61.0851 81.2462 61.1077 81.7624 61.4337L101.502 73.9008C102.028 74.2333 102.695 74.2497 103.237 73.9435L125.327 61.469C125.93 61.129 126.678 61.1896 127.218 61.6223L140.174 72.0104C141.066 72.7256 142.395 72.3686 142.809 71.303L148.927 55.5486" stroke="#43A0BD" stroke-width="1.69183"/>
<path d="M120.684 50.4626V66.1402H81.4336V82.3818H116.737V97.3828H81.4336V113.737H121.925V129.302H63.8385V50.4626H120.684Z" fill="white"/>
<path d="M120.684 50.4626H121.812C121.812 49.8397 121.307 49.3347 120.684 49.3347V50.4626ZM120.684 66.1402V67.2681C121.307 67.2681 121.812 66.7632 121.812 66.1402H120.684ZM81.4336 66.1402V65.0124C80.8107 65.0124 80.3057 65.5173 80.3057 66.1402H81.4336ZM81.4336 82.3818H80.3057C80.3057 83.0048 80.8107 83.5097 81.4336 83.5097V82.3818ZM116.737 82.3818H117.864C117.864 81.7589 117.359 81.254 116.737 81.254V82.3818ZM116.737 97.3828V98.5107C117.359 98.5107 117.864 98.0057 117.864 97.3828H116.737ZM81.4336 97.3828V96.2549C80.8107 96.2549 80.3057 96.7598 80.3057 97.3828H81.4336ZM81.4336 113.737H80.3057C80.3057 114.36 80.8107 114.865 81.4336 114.865V113.737ZM121.925 113.737H123.053C123.053 113.114 122.548 112.609 121.925 112.609V113.737ZM121.925 129.302V130.43C122.548 130.43 123.053 129.925 123.053 129.302H121.925ZM63.8385 129.302H62.7106C62.7106 129.925 63.2156 130.43 63.8385 130.43V129.302ZM63.8385 50.4626V49.3347C63.2156 49.3347 62.7106 49.8397 62.7106 50.4626H63.8385ZM119.556 50.4626V66.1402H121.812V50.4626H119.556ZM120.684 65.0124H81.4336V67.2681H120.684V65.0124ZM80.3057 66.1402V82.3818H82.5615V66.1402H80.3057ZM81.4336 83.5097H116.737V81.254H81.4336V83.5097ZM115.609 82.3818V97.3828H117.864V82.3818H115.609ZM116.737 96.2549H81.4336V98.5107H116.737V96.2549ZM80.3057 97.3828V113.737H82.5615V97.3828H80.3057ZM81.4336 114.865H121.925V112.609H81.4336V114.865ZM120.797 113.737V129.302H123.053V113.737H120.797ZM121.925 128.174H63.8385V130.43H121.925V128.174ZM64.9664 129.302V50.4626H62.7106V129.302H64.9664ZM63.8385 51.5905H120.684V49.3347H63.8385V51.5905Z" fill="#43A0BD"/>
<circle cx="44.8339" cy="30.7349" r="1.83282" stroke="#43A0BD" stroke-width="0.845917"/>
<circle cx="137.32" cy="30.7349" r="1.83282" stroke="#43A0BD" stroke-width="0.845917"/>
<path d="M59.7318 22.9348L60.0272 25.0418L54.7523 25.7815L55.0584 27.9642L59.8028 27.2989L60.0855 29.3149L55.3411 29.9802L55.6493 32.178L61.091 31.415L61.3843 33.5067L53.5781 34.6014L52.0923 24.0061L59.7318 22.9348Z" fill="#43A0BD"/>
<path d="M67.3843 32.8406L66.4799 22.18L68.8591 21.9781L69.5837 30.5188L74.1285 30.1332L74.3084 32.2532L67.3843 32.8406Z" fill="#43A0BD"/>
<path d="M79.5725 21.2509L81.9581 21.1514L82.4038 31.8411L80.0181 31.9406L79.5725 21.2509Z" fill="#43A0BD"/>
<path d="M95.771 21.0061L98.1587 21.0247L98.0751 31.7234L95.6874 31.7047L90.6431 24.961L90.5907 31.6649L88.203 31.6462L88.2866 20.9476L90.5212 20.9651L95.7172 27.8936L95.771 21.0061Z" fill="#43A0BD"/>
<path d="M112.576 27.167C112.647 26.2105 112.402 25.3737 111.842 24.6567C111.281 23.9397 110.553 23.5479 109.657 23.4813C108.772 23.4154 107.999 23.6956 107.339 24.3219C106.678 24.9481 106.312 25.7394 106.241 26.696C106.171 27.6424 106.416 28.474 106.977 29.1911C107.538 29.8979 108.261 30.2842 109.147 30.35C110.042 30.4166 110.82 30.1419 111.48 29.5259C112.14 28.8996 112.506 28.1134 112.576 27.167ZM113.093 31.15C111.937 32.1179 110.57 32.5432 108.992 32.4259C107.415 32.3087 106.126 31.6859 105.125 30.5575C104.125 29.419 103.684 28.0662 103.8 26.4991C103.917 24.932 104.553 23.6645 105.71 22.6966C106.867 21.7185 108.235 21.2881 109.812 21.4054C111.389 21.5227 112.678 22.1506 113.678 23.2891C114.678 24.4174 115.12 25.7651 115.004 27.3322C114.887 28.8993 114.251 30.1719 113.093 31.15Z" fill="#43A0BD"/>
<path d="M129.976 27.4933C129.74 29.1912 128.915 30.1945 127.502 30.503L129.659 34.6659L126.749 34.2616L124.868 30.5543L123.231 30.3269L122.761 33.7077L120.396 33.3792L121.868 22.782L125.886 23.3401C127.533 23.5689 128.667 24.0097 129.287 24.6624C129.918 25.3166 130.147 26.2602 129.976 27.4933ZM125.244 28.5203C126.052 28.6326 126.621 28.5777 126.951 28.3557C127.28 28.1336 127.485 27.7396 127.563 27.1736C127.643 26.5975 127.546 26.1823 127.273 25.9279C126.999 25.6735 126.483 25.4937 125.725 25.3884L123.951 25.142L123.515 28.2802L125.244 28.5203Z" fill="#43A0BD"/>
<path d="M119.839 51.3189L114.481 57.8042M114.481 57.8042L119.839 65.4175M114.481 57.8042H72.1855M72.1855 57.8042V89.9491M72.1855 57.8042L64.5723 51.3189M72.1855 122.094H114.481M72.1855 122.094V89.9491M72.1855 122.094L64.5723 128.297M114.481 122.094L119.839 114.763M114.481 122.094L121.249 128.297M72.1855 89.9491H108.56M108.56 89.9491L116.173 83.7457M108.56 89.9491L116.173 96.7164" stroke="#43A0BD" stroke-width="0.281972"/>
</g>
</svg>
