<svg width="528" height="99" viewBox="0 0 528 99" fill="none" xmlns="http://www.w3.org/2000/svg">
<line x1="317" y1="68.5" x2="528" y2="68.5" stroke="#BDDADE"/>
<line y1="68.5" x2="211" y2="68.5" stroke="#BDDADE"/>
<path d="M285.044 76.4025V84H253.368V43.0905H284.284V50.688H262.777V59.5712H281.771V66.9349H262.777V76.4025H285.044Z" fill="#359E98"/>
<path d="M285.044 76.4025V84H253.368V43.0905H284.284V50.688H262.777V59.5712H281.771V66.9349H262.777V76.4025H285.044Z" fill="#43A0BD"/>
<path d="M237.353 64.8322L243.766 70.2255M237.353 64.8322C239.663 63.7513 242.653 63.9699 245.402 65.1451M237.353 64.8322C236.638 67.277 237.423 70.1399 239.127 72.6074M252.792 77.8159L248.16 73.9208M252.792 77.8159C253.577 74.2484 252.413 71.0799 250.327 68.6925M252.792 77.8159C249.569 79.0252 246.279 78.3788 243.549 76.752M248.16 73.9208L250.327 68.6925M248.16 73.9208L243.549 76.752M248.16 73.9208L243.766 70.2255M250.327 68.6925C248.978 67.1493 247.244 65.9325 245.402 65.1451M243.549 76.752C241.785 75.701 240.255 74.2408 239.127 72.6074M243.766 70.2255L245.402 65.1451M243.766 70.2255L239.127 72.6074" stroke="#359E98" stroke-width="2.17245" stroke-linecap="round" stroke-linejoin="round"/>
<path d="M237.353 64.8322L243.766 70.2255M237.353 64.8322C239.663 63.7513 242.653 63.9699 245.402 65.1451M237.353 64.8322C236.638 67.277 237.423 70.1399 239.127 72.6074M252.792 77.8159L248.16 73.9208M252.792 77.8159C253.577 74.2484 252.413 71.0799 250.327 68.6925M252.792 77.8159C249.569 79.0252 246.279 78.3788 243.549 76.752M248.16 73.9208L250.327 68.6925M248.16 73.9208L243.549 76.752M248.16 73.9208L243.766 70.2255M250.327 68.6925C248.978 67.1493 247.244 65.9325 245.402 65.1451M243.549 76.752C241.785 75.701 240.255 74.2408 239.127 72.6074M243.766 70.2255L245.402 65.1451M243.766 70.2255L239.127 72.6074" stroke="#43A0BD" stroke-width="2.17245" stroke-linecap="round" stroke-linejoin="round"/>
<path d="M291.891 70.2696L288.368 73.9062M291.891 70.2696C292.444 71.7077 292.186 73.5008 291.361 75.108M291.891 70.2696C290.448 69.7349 288.689 70.087 287.129 71.0093M283.411 79.0245L285.955 76.398M283.411 79.0245C285.528 79.6488 287.487 79.0817 289.014 77.9255M283.411 79.0245C282.819 77.0307 283.348 75.0753 284.444 73.4987M285.955 76.398L289.014 77.9255M285.955 76.398L284.444 73.4987M285.955 76.398L288.368 73.9062M289.014 77.9255C290.001 77.1782 290.808 76.1849 291.361 75.108M284.444 73.4987C285.152 72.4802 286.097 71.6198 287.129 71.0093M288.368 73.9062L291.361 75.108M288.368 73.9062L287.129 71.0093" stroke="#359E98" stroke-width="1.55175" stroke-linecap="round" stroke-linejoin="round"/>
<path d="M291.891 70.2696L288.368 73.9062M291.891 70.2696C292.444 71.7077 292.186 73.5008 291.361 75.108M291.891 70.2696C290.448 69.7349 288.689 70.087 287.129 71.0093M283.411 79.0245L285.955 76.398M283.411 79.0245C285.528 79.6488 287.487 79.0817 289.014 77.9255M283.411 79.0245C282.819 77.0307 283.348 75.0753 284.444 73.4987M285.955 76.398L289.014 77.9255M285.955 76.398L284.444 73.4987M285.955 76.398L288.368 73.9062M289.014 77.9255C290.001 77.1782 290.808 76.1849 291.361 75.108M284.444 73.4987C285.152 72.4802 286.097 71.6198 287.129 71.0093M288.368 73.9062L291.361 75.108M288.368 73.9062L287.129 71.0093" stroke="#43A0BD" stroke-width="1.55175" stroke-linecap="round" stroke-linejoin="round"/>
<path d="M296.715 32.7148L290.75 38.5998M296.715 32.7148C297.577 35.1152 297.082 38.0724 295.657 40.7008M296.715 32.7148C294.348 31.7759 291.424 32.2923 288.809 33.7599M282.355 46.8825L286.663 42.6322M282.355 46.8825C285.834 47.9951 289.097 47.1303 291.668 45.2746M282.355 46.8825C281.45 43.5612 282.399 40.3456 284.272 37.7782M286.663 42.6322L291.668 45.2746M286.663 42.6322L284.272 37.7782M286.663 42.6322L290.75 38.5998M291.668 45.2746C293.33 44.0752 294.702 42.4618 295.657 40.7008M284.272 37.7782C285.482 36.1195 287.078 34.7313 288.809 33.7599M290.75 38.5998L295.657 40.7008M290.75 38.5998L288.809 33.7599" stroke="#359E98" stroke-width="2.17245" stroke-linecap="round" stroke-linejoin="round"/>
<path d="M296.715 32.7148L290.75 38.5998M296.715 32.7148C297.577 35.1152 297.082 38.0724 295.657 40.7008M296.715 32.7148C294.348 31.7759 291.424 32.2923 288.809 33.7599M282.355 46.8825L286.663 42.6322M282.355 46.8825C285.834 47.9951 289.097 47.1303 291.668 45.2746M282.355 46.8825C281.45 43.5612 282.399 40.3456 284.272 37.7782M286.663 42.6322L291.668 45.2746M286.663 42.6322L284.272 37.7782M286.663 42.6322L290.75 38.5998M291.668 45.2746C293.33 44.0752 294.702 42.4618 295.657 40.7008M284.272 37.7782C285.482 36.1195 287.078 34.7313 288.809 33.7599M290.75 38.5998L295.657 40.7008M290.75 38.5998L288.809 33.7599" stroke="#43A0BD" stroke-width="2.17245" stroke-linecap="round" stroke-linejoin="round"/>
<line x1="221.681" y1="49.8098" x2="233.658" y2="56.5571" stroke="#BDDADE" stroke-linecap="round"/>
<line x1="251.669" y1="16.2301" x2="257.359" y2="27.8917" stroke="#BDDADE" stroke-linecap="round"/>
<line x1="303.423" y1="16.0322" x2="300.677" y2="21.2258" stroke="#BDDADE" stroke-linecap="round"/>
<line x1="214.677" y1="45.7968" x2="218.517" y2="47.8644" stroke="#BDDADE" stroke-linecap="round"/>
<line x1="247.676" y1="8.20618" x2="249.727" y2="12.0551" stroke="#BDDADE" stroke-linecap="round"/>
<line x1="307.251" y1="8.67215" x2="305.277" y2="12.5611" stroke="#BDDADE" stroke-linecap="round"/>
<line x1="0.5" y1="-0.5" x2="17.3386" y2="-0.5" transform="matrix(-0.873709 0.486449 0.486449 0.873709 333.336 50.376)" stroke="#BDDADE" stroke-linecap="round"/>
<line x1="337.393" y1="47.6802" x2="334.68" y2="49.1931" stroke="#BDDADE" stroke-linecap="round"/>
<line x1="276.5" y1="0.5" x2="276.5" y2="22.5" stroke="#BDDADE" stroke-linecap="round"/>
<line x1="223.707" y1="20.9876" x2="235.597" y2="32.4674" stroke="#BDDADE" stroke-linecap="round"/>
<line x1="332.853" y1="23.7066" x2="319.706" y2="35.9232" stroke="#BDDADE" stroke-linecap="round"/>
<line x1="238.707" y1="35.9786" x2="244.151" y2="41.1028" stroke="#BDDADE" stroke-linecap="round"/>
<line x1="0.5" y1="-0.5" x2="7.97668" y2="-0.5" transform="matrix(-0.7282 0.685365 0.685365 0.7282 317.027 39.1201)" stroke="#BDDADE" stroke-linecap="round"/>
</svg>
