<svg width="342" height="288" viewBox="0 0 342 288" fill="none" xmlns="http://www.w3.org/2000/svg">
<path d="M65.0671 234.173L33.4492 188.81C37.5733 186.746 45.1341 188.81 49.2582 192.933L76.752 221.112C91.4154 224.778 98.704 226.893 110.801 229.093C125.923 231.842 125.644 223.215 117.39 219.088C109.687 215.237 110.835 216.609 99.1497 211.112C88.9019 206.29 87.4648 203.55 87.4648 198.051C105.336 201.259 123.472 204.281 134.736 209.209C156.731 218.832 170.231 296.032 165.42 283.661C156.677 261.182 98.5179 242.421 65.0671 234.173Z" stroke="#359E98" stroke-width="5.12163" stroke-linecap="round" stroke-linejoin="round"/>
<path d="M65.0671 234.173L33.4492 188.81C37.5733 186.746 45.1341 188.81 49.2582 192.933L76.752 221.112C91.4154 224.778 98.704 226.893 110.801 229.093C125.923 231.842 125.644 223.215 117.39 219.088C109.687 215.237 110.835 216.609 99.1497 211.112C88.9019 206.29 87.4648 203.55 87.4648 198.051C105.336 201.259 123.472 204.281 134.736 209.209C156.731 218.832 170.231 296.032 165.42 283.661C156.677 261.182 98.5179 242.421 65.0671 234.173Z" stroke="#43A0BD" stroke-width="5.12163" stroke-linecap="round" stroke-linejoin="round"/>
<path d="M280.671 234.173L312.289 188.81C308.165 186.746 300.604 188.81 296.48 192.933L268.986 221.112C254.323 224.778 247.034 226.893 234.937 229.093C219.815 231.842 220.094 223.215 228.348 219.088C236.051 215.237 234.904 216.609 246.589 211.112C256.836 206.29 258.273 203.55 258.273 198.051C240.402 201.259 222.267 204.281 211.002 209.209C189.007 218.832 175.507 296.032 180.319 283.661C189.061 261.182 247.22 242.421 280.671 234.173Z" stroke="#359E98" stroke-width="5.12163" stroke-linecap="round" stroke-linejoin="round"/>
<path d="M280.671 234.173L312.289 188.81C308.165 186.746 300.604 188.81 296.48 192.933L268.986 221.112C254.323 224.778 247.034 226.893 234.937 229.093C219.815 231.842 220.094 223.215 228.348 219.088C236.051 215.237 234.904 216.609 246.589 211.112C256.836 206.29 258.273 203.55 258.273 198.051C240.402 201.259 222.267 204.281 211.002 209.209C189.007 218.832 175.507 296.032 180.319 283.661C189.061 261.182 247.22 242.421 280.671 234.173Z" stroke="#43A0BD" stroke-width="5.12163" stroke-linecap="round" stroke-linejoin="round"/>
<path d="M206.752 78.8075V95.9474H163.841V113.704H202.436V130.104H163.841V147.983H208.108V165H144.605V78.8075H206.752Z" fill="#43A0BD"/>
<path d="M206.752 78.8075H208.166C208.166 78.0267 207.533 77.3937 206.752 77.3937V78.8075ZM206.752 95.9474V97.3612C207.533 97.3612 208.166 96.7282 208.166 95.9474H206.752ZM163.841 95.9474V94.5336C163.06 94.5336 162.427 95.1666 162.427 95.9474H163.841ZM163.841 113.704H162.427C162.427 114.485 163.06 115.118 163.841 115.118V113.704ZM202.436 113.704H203.85C203.85 112.923 203.217 112.29 202.436 112.29V113.704ZM202.436 130.104V131.518C203.217 131.518 203.85 130.885 203.85 130.104H202.436ZM163.841 130.104V128.69C163.06 128.69 162.427 129.323 162.427 130.104H163.841ZM163.841 147.983H162.427C162.427 148.764 163.06 149.397 163.841 149.397V147.983ZM208.108 147.983H209.522C209.522 147.203 208.889 146.57 208.108 146.57V147.983ZM208.108 165V166.414C208.889 166.414 209.522 165.781 209.522 165H208.108ZM144.605 165H143.191C143.191 165.781 143.824 166.414 144.605 166.414V165ZM144.605 78.8075V77.3937C143.824 77.3937 143.191 78.0267 143.191 78.8075H144.605ZM205.338 78.8075V95.9474H208.166V78.8075H205.338ZM206.752 94.5336H163.841V97.3612H206.752V94.5336ZM162.427 95.9474V113.704H165.254V95.9474H162.427ZM163.841 115.118H202.436V112.29H163.841V115.118ZM201.022 113.704V130.104H203.85V113.704H201.022ZM202.436 128.69H163.841V131.518H202.436V128.69ZM162.427 130.104V147.983H165.254V130.104H162.427ZM163.841 149.397H208.108V146.57H163.841V149.397ZM206.694 147.983V165H209.522V147.983H206.694ZM208.108 163.586H144.605V166.414H208.108V163.586ZM146.018 165V78.8075H143.191V165H146.018ZM144.605 80.2213H206.752V77.3937H144.605V80.2213Z" fill="#43A0BD"/>
<path d="M208.644 78.2892L199.934 87.7507M199.934 87.7507L208.644 98.2635M199.934 87.7507H153.694M153.694 87.7507V122.143M153.694 87.7507L143.465 78.2892M153.798 157.135H200.038M153.798 157.135L153.694 122.143M153.798 157.135L143.465 166.597M200.038 157.135L209.696 146.623M200.038 157.135L209.696 167.648M153.694 122.143H193.461M193.461 122.143L204.439 112.981M193.461 122.143L204.439 131.905" stroke="white" stroke-width="1.22786"/>
<path d="M100.554 168V152.934M100.554 108V152.934M100.554 152.934C102.759 155.086 108.535 159.391 114 159.391M100.554 144.432C102.759 146.584 108.535 150.889 114 150.889M100.554 136.146C102.759 138.298 108.535 142.603 114 142.603M100.554 127.644C102.759 129.796 108.535 134.101 114 134.101M100.554 119.25C102.759 121.402 106.366 125.707 111.831 125.707M100.554 110.964C101.422 113.331 104.198 117.421 109.663 117.421M100.446 152.934C98.241 155.086 92.4651 159.391 87 159.391M100.446 144.432C98.241 146.584 92.4651 150.889 87 150.889M100.446 136.146C98.241 138.298 92.4651 142.603 87 142.603M100.446 127.644C98.241 129.796 92.4651 134.101 87 134.101M100.446 119.25C98.241 121.402 94.6337 125.707 89.1687 125.707M100.446 110.964C99.253 114.084 96.8024 117.421 91.3373 117.421" stroke="#43A0BD" stroke-width="3" stroke-linecap="round"/>
<path d="M246.554 168V152.934M246.554 108V152.934M246.554 152.934C248.759 155.086 254.535 159.391 260 159.391M246.554 144.432C248.759 146.584 254.535 150.889 260 150.889M246.554 136.146C248.759 138.298 254.535 142.603 260 142.603M246.554 127.644C248.759 129.796 254.535 134.101 260 134.101M246.554 119.25C248.759 121.402 252.366 125.707 257.831 125.707M246.554 110.964C247.422 113.331 250.198 117.421 255.663 117.421M246.446 152.934C244.241 155.086 238.465 159.391 233 159.391M246.446 144.432C244.241 146.584 238.465 150.889 233 150.889M246.446 136.146C244.241 138.298 238.465 142.603 233 142.603M246.446 127.644C244.241 129.796 238.465 134.101 233 134.101M246.446 119.25C244.241 121.402 240.634 125.707 235.169 125.707M246.446 110.964C245.253 114.084 242.802 117.421 237.337 117.421" stroke="#43A0BD" stroke-width="3" stroke-linecap="round"/>
<path d="M2 148H56" stroke="#359E98" stroke-width="4" stroke-linecap="round"/>
<path d="M2 148H56" stroke="#43A0BD" stroke-width="4" stroke-linecap="round"/>
<line x1="2" y1="-2" x2="40.3713" y2="-2" transform="matrix(0.913168 0.407583 -0.57043 0.821346 25.168 102.614)" stroke="#359E98" stroke-width="4" stroke-linecap="round"/>
<line x1="2" y1="-2" x2="40.3713" y2="-2" transform="matrix(0.913168 0.407583 -0.57043 0.821346 25.168 102.614)" stroke="#43A0BD" stroke-width="4" stroke-linecap="round"/>
<line x1="2" y1="-2" x2="35.5127" y2="-2" transform="matrix(0.540365 0.84143 -0.924366 0.381506 101.387 31.2467)" stroke="#359E98" stroke-width="4" stroke-linecap="round"/>
<line x1="2" y1="-2" x2="35.5127" y2="-2" transform="matrix(0.540365 0.84143 -0.924366 0.381506 101.387 31.2467)" stroke="#43A0BD" stroke-width="4" stroke-linecap="round"/>
<line x1="2" y1="-2" x2="12.489" y2="-2" transform="matrix(-0.550534 0.834813 -0.920721 -0.390222 241.371 27.6492)" stroke="#359E98" stroke-width="4" stroke-linecap="round"/>
<line x1="2" y1="-2" x2="12.489" y2="-2" transform="matrix(-0.550534 0.834813 -0.920721 -0.390222 241.371 27.6492)" stroke="#43A0BD" stroke-width="4" stroke-linecap="round"/>
<line x1="2" y1="-2" x2="10.7635" y2="-2" transform="matrix(0.918113 0.396319 -0.557576 0.830126 7.14062 94.6646)" stroke="#359E98" stroke-width="4" stroke-linecap="round"/>
<line x1="2" y1="-2" x2="10.7635" y2="-2" transform="matrix(0.918113 0.396319 -0.557576 0.830126 7.14062 94.6646)" stroke="#43A0BD" stroke-width="4" stroke-linecap="round"/>
<line x1="2" y1="-2" x2="9.3063" y2="-2" transform="matrix(0.553497 0.832851 -0.919632 0.392781 91.873 16.6205)" stroke="#359E98" stroke-width="4" stroke-linecap="round"/>
<line x1="2" y1="-2" x2="9.3063" y2="-2" transform="matrix(0.553497 0.832851 -0.919632 0.392781 91.873 16.6205)" stroke="#43A0BD" stroke-width="4" stroke-linecap="round"/>
<line x1="2" y1="-2" x2="9.26068" y2="-2" transform="matrix(-0.534908 0.84491 -0.926266 -0.376871 250.848 13.0073)" stroke="#359E98" stroke-width="4" stroke-linecap="round"/>
<line x1="2" y1="-2" x2="9.26068" y2="-2" transform="matrix(-0.534908 0.84491 -0.926266 -0.376871 250.848 13.0073)" stroke="#43A0BD" stroke-width="4" stroke-linecap="round"/>
<line x1="308.194" y1="105.711" x2="287.711" y2="116.806" stroke="#359E98" stroke-width="4" stroke-linecap="round"/>
<line x1="308.194" y1="105.711" x2="287.711" y2="116.806" stroke="#43A0BD" stroke-width="4" stroke-linecap="round"/>
<line x1="2" y1="-2" x2="10.5674" y2="-2" transform="matrix(-0.883979 0.467526 0.635443 0.772148 327.387 97.6108)" stroke="#359E98" stroke-width="4" stroke-linecap="round"/>
<line x1="2" y1="-2" x2="10.5674" y2="-2" transform="matrix(-0.883979 0.467526 0.635443 0.772148 327.387 97.6108)" stroke="#43A0BD" stroke-width="4" stroke-linecap="round"/>
<line x1="174" y1="2" x2="174" y2="49" stroke="#359E98" stroke-width="4" stroke-linecap="round"/>
<line x1="174" y1="2" x2="174" y2="49" stroke="#43A0BD" stroke-width="4" stroke-linecap="round"/>
<line x1="2" y1="-2" x2="56.0017" y2="-2" transform="matrix(0.780234 0.625488 -0.780234 0.625488 22.4648 36.1316)" stroke="#359E98" stroke-width="4" stroke-linecap="round"/>
<line x1="2" y1="-2" x2="56.0017" y2="-2" transform="matrix(0.780234 0.625488 -0.780234 0.625488 22.4648 36.1316)" stroke="#43A0BD" stroke-width="4" stroke-linecap="round"/>
<line x1="2" y1="-2" x2="56.0017" y2="-2" transform="matrix(-0.780234 0.625488 0.780234 0.625488 325.34 40.4673)" stroke="#359E98" stroke-width="4" stroke-linecap="round"/>
<line x1="2" y1="-2" x2="56.0017" y2="-2" transform="matrix(-0.780234 0.625488 0.780234 0.625488 325.34 40.4673)" stroke="#43A0BD" stroke-width="4" stroke-linecap="round"/>
<line x1="2" y1="-2" x2="17.1965" y2="-2" transform="matrix(0.798268 0.602302 -0.761273 0.648431 73.8438 78.7667)" stroke="#359E98" stroke-width="4" stroke-linecap="round"/>
<line x1="2" y1="-2" x2="17.1965" y2="-2" transform="matrix(0.798268 0.602302 -0.761273 0.648431 73.8438 78.7667)" stroke="#43A0BD" stroke-width="4" stroke-linecap="round"/>
<line x1="270.865" y1="82.8252" x2="262.825" y2="90.1345" stroke="#359E98" stroke-width="4" stroke-linecap="round"/>
<line x1="270.865" y1="82.8252" x2="262.825" y2="90.1345" stroke="#43A0BD" stroke-width="4" stroke-linecap="round"/>
<path d="M291 148L340 148" stroke="#359E98" stroke-width="4" stroke-linecap="round"/>
<path d="M291 148L340 148" stroke="#43A0BD" stroke-width="4" stroke-linecap="round"/>
</svg>
