<svg width="555" height="623" viewBox="0 0 555 623" fill="none" xmlns="http://www.w3.org/2000/svg">
<path d="M257.965 414.044C259.797 432.364 260.713 466.257 269.873 480.914C230.484 473.586 221.934 450.074 210.331 439.692V408.547L201.171 375.57C210.331 357.25 201.171 315.112 201.171 315.112C195.064 309.006 184.676 297.787 178.813 305.115C172.95 312.443 186.857 287.956 197.045 276.695C197.045 276.695 182.031 267.043 175.06 257.927C168.089 248.811 180.422 218.246 180.422 218.246L182.85 194.197L157.201 183.205C157.201 183.205 150.789 172.212 161.782 161.22C168.194 152.06 233.415 132.639 245.14 135.571C256.865 138.502 250.026 189.311 245.14 214.349L217.659 232.67C217.659 232.67 210.331 258.319 221.323 269.311C232.316 280.303 230.484 315.112 230.484 315.112L217.659 340.761C230.484 359.082 256.499 399.387 257.965 414.044Z" fill="#BDDADE"/>
<path d="M413.692 214.349L410.028 149.311C412.471 149.921 415.891 151.876 417.356 162.135C419.189 174.96 421.936 175.876 428.349 181.372C434.761 186.868 441.173 196.944 443.921 214.349C446.12 228.272 441.173 236.639 438.425 239.082C435.982 241.524 432.563 248.792 438.425 258.318C443.475 266.525 446.35 293.439 447.65 305.78C448.194 307.591 448.501 309.202 448.501 310.532C448.501 313.949 448.236 311.347 447.65 305.78C444.593 295.616 434.051 279.177 428.349 271.143L438.425 313.28C433.234 321.83 422.669 339.295 421.936 340.761C421.203 342.226 417.356 369.463 415.524 382.898C408.501 392.974 393.906 413.127 391.707 413.127C389.509 413.127 405.448 364.883 413.692 340.761C418.272 328.547 427.249 303.753 426.517 302.288C425.784 300.822 423.158 290.685 421.936 285.799V270.227V239.082L415.524 220.761L413.692 214.349Z" fill="#BDDADE"/>
<path d="M261.377 333.62C264.139 337.763 263.863 349.365 261.377 355.994" stroke="#359E98" stroke-width="2.50993" stroke-linecap="round" stroke-linejoin="round"/>
<path d="M261.377 333.62C264.139 337.763 263.863 349.365 261.377 355.994" stroke="#43A0BD" stroke-width="2.50993" stroke-linecap="round" stroke-linejoin="round"/>
<path d="M340.933 241.637C350.048 257.382 373.918 245.862 380.71 242.466M254.75 223.406L256.407 228.378H272.152M346.734 225.892C346.734 225.892 347.407 226.617 350.048 228.378C352.69 230.139 364.136 228.378 364.136 228.378C364.412 228.378 365.296 227.881 366.622 225.892M324.359 210.147C324.359 209.042 324.359 205.341 324.359 199.374M379.052 229.207C380.157 228.654 384.024 225.892 387.339 225.892M379.881 231.693C381.262 231.417 383.196 231.693 385.682 232.522M229.061 235.008C230.166 234.455 234.033 231.693 237.348 231.693M229.061 228.378C230.166 227.826 233.204 225.892 237.348 228.378" stroke="#359E98" stroke-width="2.50993" stroke-linecap="round" stroke-linejoin="round"/>
<path d="M340.933 241.637C350.048 257.382 373.918 245.862 380.71 242.466M254.75 223.406L256.407 228.378H272.152M346.734 225.892C346.734 225.892 347.407 226.617 350.048 228.378C352.69 230.139 364.136 228.378 364.136 228.378C364.412 228.378 365.296 227.881 366.622 225.892M324.359 210.147C324.359 209.042 324.359 205.341 324.359 199.374M379.052 229.207C380.157 228.654 384.024 225.892 387.339 225.892M379.881 231.693C381.262 231.417 383.196 231.693 385.682 232.522M229.061 235.008C230.166 234.455 234.033 231.693 237.348 231.693M229.061 228.378C230.166 227.826 233.204 225.892 237.348 228.378" stroke="#43A0BD" stroke-width="2.50993" stroke-linecap="round" stroke-linejoin="round"/>
<path d="M248.946 181.144C254.747 178.658 254.747 178.658 258.062 177.829" stroke="#359E98" stroke-width="2.50993" stroke-linecap="round" stroke-linejoin="round"/>
<path d="M248.946 181.144C254.747 178.658 254.747 178.658 258.062 177.829" stroke="#43A0BD" stroke-width="2.50993" stroke-linecap="round" stroke-linejoin="round"/>
<path d="M277.95 173.686C289.552 172.029 291.209 173.686 297.01 173.686M375.735 181.144C369.934 181.144 364.133 173.686 356.675 173.686M199.225 242.467C154.754 257.291 161.749 344.206 191.833 366.769M198.397 262.355C163.982 290.317 168.066 351.894 203.369 378.371M203.369 378.371C206.021 380.36 208.065 381.962 209.998 383.343M203.369 378.371C200.054 377.266 187.004 373.341 179.337 366.769C147.745 339.69 145.959 276.965 156.963 240.809" stroke="#359E98" stroke-width="2.50993" stroke-linecap="round" stroke-linejoin="round"/>
<path d="M277.95 173.686C289.552 172.029 291.209 173.686 297.01 173.686M375.735 181.144C369.934 181.144 364.133 173.686 356.675 173.686M199.225 242.467C154.754 257.291 161.749 344.206 191.833 366.769M198.397 262.355C163.982 290.317 168.066 351.894 203.369 378.371M203.369 378.371C206.021 380.36 208.065 381.962 209.998 383.343M203.369 378.371C200.054 377.266 187.004 373.341 179.337 366.769C147.745 339.69 145.959 276.965 156.963 240.809" stroke="#43A0BD" stroke-width="2.50993" stroke-linecap="round" stroke-linejoin="round"/>
<path d="M393.139 127.372C389.778 118.97 391.05 94.6993 365.792 90.9101C354.044 89.1476 346.593 68.2135 329.33 69.3643M394.796 317.969C410.16 317.969 413.337 291.761 404.741 283.164M376.565 386.75C396.454 362.718 403.281 348.588 396.454 317.863M412.199 245.045C431.258 269.077 429.601 288.136 427.115 305.539M391.481 167.149C407.226 173.778 421.977 190.352 424.629 216.87C427.584 246.422 447.003 281.507 422.209 321.284M404.741 255.818C405.779 257.116 408.689 262.97 412.017 271.214M375.737 393.379C428.229 375.882 429.763 315.171 412.017 271.214M412.017 271.214C427.179 309.68 419.192 337.803 399.768 370.176M395.625 134.001C429.097 134.001 447.832 199.467 440.374 230.129M248.119 109.97C240.661 99.1968 226.296 90.9101 211.657 95.7898C201.713 99.1045 192.598 112.363 189.283 117.336" stroke="#359E98" stroke-width="2.50993" stroke-linecap="round" stroke-linejoin="round"/>
<path d="M393.139 127.372C389.778 118.97 391.05 94.6993 365.792 90.9101C354.044 89.1476 346.593 68.2135 329.33 69.3643M394.796 317.969C410.16 317.969 413.337 291.761 404.741 283.164M376.565 386.75C396.454 362.718 403.281 348.588 396.454 317.863M412.199 245.045C431.258 269.077 429.601 288.136 427.115 305.539M391.481 167.149C407.226 173.778 421.977 190.352 424.629 216.87C427.584 246.422 447.003 281.507 422.209 321.284M404.741 255.818C405.779 257.116 408.689 262.97 412.017 271.214M375.737 393.379C428.229 375.882 429.763 315.171 412.017 271.214M412.017 271.214C427.179 309.68 419.192 337.803 399.768 370.176M395.625 134.001C429.097 134.001 447.832 199.467 440.374 230.129M248.119 109.97C240.661 99.1968 226.296 90.9101 211.657 95.7898C201.713 99.1045 192.598 112.363 189.283 117.336" stroke="#43A0BD" stroke-width="2.50993" stroke-linecap="round" stroke-linejoin="round"/>
<path d="M278.781 123.134C279.61 120.648 294.526 118.162 289.554 99.9312C284.582 81.7002 267.487 66.7566 238.176 77.5568C229.178 80.8721 224.088 85.0155 214.144 82.5295M301.984 120.649C304.47 104.904 316.072 82.5291 295.355 72.5849C274.638 62.6407 258.893 66.7842 253.921 67.6128C249.943 68.2758 237.9 71.2038 232.375 72.5849C234.861 73.1374 238.176 56.8403 289.554 56.8403C308.614 56.8403 316.102 68.1507 321.873 79.2148M318.558 120.649C324.013 107.402 328.978 92.8381 321.873 79.2148M388.167 138.051C406.951 149.653 459.434 208.489 432.916 292.186M400.598 275.613C400.598 268.983 402.255 266.497 402.255 264.011C402.255 258.77 401.426 257.382 399.769 255.724M393.139 205.175C392.311 194.402 390.653 184.457 390.653 180.314C390.653 176.171 390.653 177.828 390.653 172.027C390.653 166.226 390.653 162.083 390.653 157.94C390.653 153.796 388.167 147.995 388.167 144.681M327.673 119.82C329.883 117.887 333.474 112.362 331.817 102.418C330.094 92.0784 324.01 81.7012 321.873 79.2148" stroke="#359E98" stroke-width="2.50993" stroke-linecap="round" stroke-linejoin="round"/>
<path d="M278.781 123.134C279.61 120.648 294.526 118.162 289.554 99.9312C284.582 81.7002 267.487 66.7566 238.176 77.5568C229.178 80.8721 224.088 85.0155 214.144 82.5295M301.984 120.649C304.47 104.904 316.072 82.5291 295.355 72.5849C274.638 62.6407 258.893 66.7842 253.921 67.6128C249.943 68.2758 237.9 71.2038 232.375 72.5849C234.861 73.1374 238.176 56.8403 289.554 56.8403C308.614 56.8403 316.102 68.1507 321.873 79.2148M318.558 120.649C324.013 107.402 328.978 92.8381 321.873 79.2148M388.167 138.051C406.951 149.653 459.434 208.489 432.916 292.186M400.598 275.613C400.598 268.983 402.255 266.497 402.255 264.011C402.255 258.77 401.426 257.382 399.769 255.724M393.139 205.175C392.311 194.402 390.653 184.457 390.653 180.314C390.653 176.171 390.653 177.828 390.653 172.027C390.653 166.226 390.653 162.083 390.653 157.94C390.653 153.796 388.167 147.995 388.167 144.681M327.673 119.82C329.883 117.887 333.474 112.362 331.817 102.418C330.094 92.0784 324.01 81.7012 321.873 79.2148" stroke="#43A0BD" stroke-width="2.50993" stroke-linecap="round" stroke-linejoin="round"/>
<path d="M282.923 209.317C277.122 206.831 260.548 201.859 252.261 203.516C243.974 205.174 234.859 212.631 232.373 210.974M345.074 209.317C347.56 207.383 353.858 203.516 359.161 203.516C370.789 203.516 377.228 203.874 387.337 209.317M280.436 239.15C275.172 245.731 251.803 254.437 244.803 247.437" stroke="#359E98" stroke-width="2.50993" stroke-linecap="round" stroke-linejoin="round"/>
<path d="M282.923 209.317C277.122 206.831 260.548 201.859 252.261 203.516C243.974 205.174 234.859 212.631 232.373 210.974M345.074 209.317C347.56 207.383 353.858 203.516 359.161 203.516C370.789 203.516 377.228 203.874 387.337 209.317M280.436 239.15C275.172 245.731 251.803 254.437 244.803 247.437" stroke="#43A0BD" stroke-width="2.50993" stroke-linecap="round" stroke-linejoin="round"/>
<path d="M227.402 152.14C226.849 156.007 223.258 164.736 213.314 168.713C200.884 173.685 157.715 185.898 152.82 222.578M152.82 222.578C159.45 213.462 173.537 201.861 187.625 194.402C198.895 188.436 209.447 179.762 213.314 176.171M152.82 222.578C146.191 231.693 132.175 247.02 135.418 266.498C137.344 278.066 138.879 281.745 139.156 283.403M215.8 181.144C214.728 182.455 212.513 184.825 209.171 187.948M196.741 406.545C185.139 399.916 171.116 382.195 163.593 370.912C158.621 363.454 144.534 335.279 139.562 300.474C135.24 270.221 150.334 257.382 156.135 241.637C161.936 225.892 171.88 216.777 190.111 203.518C198.403 197.487 204.766 192.064 209.171 187.948M203.37 308.761C203.37 311.247 209.171 331.135 205.027 326.992C198.716 320.68 179.908 299.076 190.111 288.872C194.089 284.895 197.846 289.977 199.227 293.016C200.332 292.187 201.878 288.872 199.227 282.243C195.912 273.956 194.255 276.442 196.741 268.984C199.227 261.526 201.713 245.781 199.227 241.637C196.741 237.494 196.741 234.179 196.741 232.522C196.741 231.196 194.531 228.102 193.426 226.721C195.359 222.578 199.724 213.628 201.713 210.976C203.702 208.324 206.409 203.242 207.513 201.032L209.171 194.402V187.948" stroke="#359E98" stroke-width="2.50993" stroke-linecap="round" stroke-linejoin="round"/>
<path d="M227.402 152.14C226.849 156.007 223.258 164.736 213.314 168.713C200.884 173.685 157.715 185.898 152.82 222.578M152.82 222.578C159.45 213.462 173.537 201.861 187.625 194.402C198.895 188.436 209.447 179.762 213.314 176.171M152.82 222.578C146.191 231.693 132.175 247.02 135.418 266.498C137.344 278.066 138.879 281.745 139.156 283.403M215.8 181.144C214.728 182.455 212.513 184.825 209.171 187.948M196.741 406.545C185.139 399.916 171.116 382.195 163.593 370.912C158.621 363.454 144.534 335.279 139.562 300.474C135.24 270.221 150.334 257.382 156.135 241.637C161.936 225.892 171.88 216.777 190.111 203.518C198.403 197.487 204.766 192.064 209.171 187.948M203.37 308.761C203.37 311.247 209.171 331.135 205.027 326.992C198.716 320.68 179.908 299.076 190.111 288.872C194.089 284.895 197.846 289.977 199.227 293.016C200.332 292.187 201.878 288.872 199.227 282.243C195.912 273.956 194.255 276.442 196.741 268.984C199.227 261.526 201.713 245.781 199.227 241.637C196.741 237.494 196.741 234.179 196.741 232.522C196.741 231.196 194.531 228.102 193.426 226.721C195.359 222.578 199.724 213.628 201.713 210.976C203.702 208.324 206.409 203.242 207.513 201.032L209.171 194.402V187.948" stroke="#43A0BD" stroke-width="2.50993" stroke-linecap="round" stroke-linejoin="round"/>
<path d="M255.575 123.963C243.232 114.705 228.169 99.1247 208.341 106.56C203.037 108.549 191.214 115.676 189.281 117.333M271.32 121.477C253.248 117.461 256.525 84.9977 237.758 84.9977C226.985 84.9977 214.3 92.298 207.682 97.6103M247.289 129.764C239.831 128.935 234.03 138.05 224.914 129.764M224.914 129.764C215.799 121.477 216.628 113.19 208.341 115.676C201.711 117.665 185.967 127.278 183.48 131.421C189.281 127.277 202.54 123.963 209.169 123.963C217.456 123.963 218.285 125.62 224.914 129.764ZM340.101 117.333C351.63 105.804 338.868 87.2984 327.671 81.7M384.742 135.933C380.598 131.79 376.563 135.564 374.906 129.764C373.248 123.963 366.619 127.277 365.79 121.477C365.127 116.836 365.514 110.704 365.79 108.218C365.238 109.599 363.138 113.024 359.161 115.676C354.189 118.991 350.045 120.648 350.874 115.676C351.703 110.704 354.189 103.246 350.874 103.246M233.201 137.222C227.4 137.222 203.368 130.592 194.253 133.907C186.961 136.559 182.375 143.851 180.994 147.166M233.201 141.365C207.701 144.765 161.598 136.903 160.143 176.912M194.253 167.883C181.816 174.562 158.548 190.267 149.62 206.831M143.649 235.378C140.516 223.777 144.464 216.396 149.62 206.831M222.428 147.166C206.944 153.735 150.929 173.426 147.847 191.915C146.521 199.87 148.477 205.174 149.62 206.831" stroke="#359E98" stroke-width="2.50993" stroke-linecap="round" stroke-linejoin="round"/>
<path d="M255.575 123.963C243.232 114.705 228.169 99.1247 208.341 106.56C203.037 108.549 191.214 115.676 189.281 117.333M271.32 121.477C253.248 117.461 256.525 84.9977 237.758 84.9977C226.985 84.9977 214.3 92.298 207.682 97.6103M247.289 129.764C239.831 128.935 234.03 138.05 224.914 129.764M224.914 129.764C215.799 121.477 216.628 113.19 208.341 115.676C201.711 117.665 185.967 127.278 183.48 131.421C189.281 127.277 202.54 123.963 209.169 123.963C217.456 123.963 218.285 125.62 224.914 129.764ZM340.101 117.333C351.63 105.804 338.868 87.2984 327.671 81.7M384.742 135.933C380.598 131.79 376.563 135.564 374.906 129.764C373.248 123.963 366.619 127.277 365.79 121.477C365.127 116.836 365.514 110.704 365.79 108.218C365.238 109.599 363.138 113.024 359.161 115.676C354.189 118.991 350.045 120.648 350.874 115.676C351.703 110.704 354.189 103.246 350.874 103.246M233.201 137.222C227.4 137.222 203.368 130.592 194.253 133.907C186.961 136.559 182.375 143.851 180.994 147.166M233.201 141.365C207.701 144.765 161.598 136.903 160.143 176.912M194.253 167.883C181.816 174.562 158.548 190.267 149.62 206.831M143.649 235.378C140.516 223.777 144.464 216.396 149.62 206.831M222.428 147.166C206.944 153.735 150.929 173.426 147.847 191.915C146.521 199.87 148.477 205.174 149.62 206.831" stroke="#43A0BD" stroke-width="2.50993" stroke-linecap="round" stroke-linejoin="round"/>
<path d="M215.8 326.991C218.562 343.012 228.23 377.044 244.804 384.999M265.521 381.684C290.381 394.943 321.043 391.628 337.616 384.999" stroke="#359E98" stroke-width="2.50993" stroke-linecap="round" stroke-linejoin="round"/>
<path d="M215.8 326.991C218.562 343.012 228.23 377.044 244.804 384.999M265.521 381.684C290.381 394.943 321.043 391.628 337.616 384.999" stroke="#43A0BD" stroke-width="2.50993" stroke-linecap="round" stroke-linejoin="round"/>
<path d="M252.263 322.848C244.805 308.76 269.665 306.274 286.239 269.812C286.239 276.441 280.438 284.728 286.239 287.214C293.094 290.153 293.009 286.386 297.84 286.386C301.984 286.386 303.641 291.357 306.956 294.672C310.111 297.828 318.557 297.158 321.872 293.015" stroke="#359E98" stroke-width="2.50993" stroke-linecap="round" stroke-linejoin="round"/>
<path d="M252.263 322.848C244.805 308.76 269.665 306.274 286.239 269.812C286.239 276.441 280.438 284.728 286.239 287.214C293.094 290.153 293.009 286.386 297.84 286.386C301.984 286.386 303.641 291.357 306.956 294.672C310.111 297.828 318.557 297.158 321.872 293.015" stroke="#43A0BD" stroke-width="2.50993" stroke-linecap="round" stroke-linejoin="round"/>
<path d="M351.703 321.189C346.731 323.675 341.428 322.847 336.787 322.847C330.986 322.847 325.185 322.847 320.213 322.847C315.241 322.847 306.126 324.504 300.325 322.847C293.198 320.811 289.552 321.189 282.094 322.847C279.608 323.4 268.835 324.504 266.349 321.189M285.409 330.305C293.695 332.791 314.744 336.271 332.644 330.305M306.126 286.385C302.811 285.28 297.01 279.589 297.01 275.612C297.01 270.64 297.839 269.811 300.325 263.181C302.811 256.552 302.811 254.895 302.811 253.237M326.014 286.385C328.5 278.098 332.644 281.413 332.644 273.126C332.644 264.839 326.014 259.038 326.014 253.237M328.5 288.871C330.434 290.528 334.798 292.02 336.787 288.042C338.776 284.064 337.616 276.717 336.787 273.126C355.018 286.385 363.305 312.902 355.018 337.763C353.361 342.735 355.018 350.193 355.018 351.022M365.791 303.787C369.22 303.787 387.654 303.787 390.079 288.042" stroke="#359E98" stroke-width="2.50993" stroke-linecap="round" stroke-linejoin="round"/>
<path d="M351.703 321.189C346.731 323.675 341.428 322.847 336.787 322.847C330.986 322.847 325.185 322.847 320.213 322.847C315.241 322.847 306.126 324.504 300.325 322.847C293.198 320.811 289.552 321.189 282.094 322.847C279.608 323.4 268.835 324.504 266.349 321.189M285.409 330.305C293.695 332.791 314.744 336.271 332.644 330.305M306.126 286.385C302.811 285.28 297.01 279.589 297.01 275.612C297.01 270.64 297.839 269.811 300.325 263.181C302.811 256.552 302.811 254.895 302.811 253.237M326.014 286.385C328.5 278.098 332.644 281.413 332.644 273.126C332.644 264.839 326.014 259.038 326.014 253.237M328.5 288.871C330.434 290.528 334.798 292.02 336.787 288.042C338.776 284.064 337.616 276.717 336.787 273.126C355.018 286.385 363.305 312.902 355.018 337.763C353.361 342.735 355.018 350.193 355.018 351.022M365.791 303.787C369.22 303.787 387.654 303.787 390.079 288.042" stroke="#43A0BD" stroke-width="2.50993" stroke-linecap="round" stroke-linejoin="round"/>
<path d="M246.463 302.959C238.729 302.682 222.597 298.318 219.945 283.07M403.913 218.433C403.913 220.919 404.742 239.979 403.913 248.266C403.084 256.552 396.455 258.21 388.997 258.21C381.539 258.21 355.849 258.21 343.419 258.21C333.475 258.21 330.989 254.373 330.989 248.266C330.989 244.122 330.989 236.923 330.989 229.206M403.913 218.433C403.913 215.947 403.913 210.975 396.455 210.975H343.419C334.303 210.975 330.989 212.632 330.989 222.576C330.989 224.642 331.043 226.894 330.989 229.206M403.913 218.433L414.686 229.206M330.989 229.206C329.159 226.996 325.354 222.576 322.702 222.576C320.05 222.576 307.786 222.576 301.985 222.576C300.604 223.129 297.344 224.731 295.356 226.72M295.356 226.72C295.356 231.416 295.356 242.299 295.356 248.266C295.356 255.724 286.24 258.21 283.754 258.21C281.268 258.21 234.033 258.21 225.746 258.21C217.459 258.21 216.631 251.58 216.631 248.266C216.631 244.951 216.631 229.206 216.631 222.576C216.631 217.273 218.288 210.975 225.746 210.975C239.005 210.975 268.506 210.975 280.439 210.975C294.941 210.975 295.356 212.632 295.356 226.72ZM216.631 225.062C214.973 225.062 211.354 225.891 211.354 229.206M216.631 236.146C212.487 236.146 211.354 233.349 211.354 229.206M211.354 229.206H195.085M340.933 229.206C343.419 226.996 349.551 222.576 354.192 222.576C359.993 222.576 371.594 225.891 373.252 229.206C374.909 232.521 368.279 230.863 366.622 230.863M378.224 222.576C375.738 222.576 367.451 211.804 354.192 215.118C340.933 218.433 340.933 222.576 343.419 215.118M276.296 229.206C270.495 226.72 270.495 222.576 265.523 222.576C260.551 222.576 255.579 221.748 246.463 226.72C237.348 231.692 247.292 229.206 252.264 229.206M236.519 225.062C240.662 225.062 240.662 216.776 253.921 216.776" stroke="#359E98" stroke-width="2.50993" stroke-linecap="round" stroke-linejoin="round"/>
<path d="M246.463 302.959C238.729 302.682 222.597 298.318 219.945 283.07M403.913 218.433C403.913 220.919 404.742 239.979 403.913 248.266C403.084 256.552 396.455 258.21 388.997 258.21C381.539 258.21 355.849 258.21 343.419 258.21C333.475 258.21 330.989 254.373 330.989 248.266C330.989 244.122 330.989 236.923 330.989 229.206M403.913 218.433C403.913 215.947 403.913 210.975 396.455 210.975H343.419C334.303 210.975 330.989 212.632 330.989 222.576C330.989 224.642 331.043 226.894 330.989 229.206M403.913 218.433L414.686 229.206M330.989 229.206C329.159 226.996 325.354 222.576 322.702 222.576C320.05 222.576 307.786 222.576 301.985 222.576C300.604 223.129 297.344 224.731 295.356 226.72M295.356 226.72C295.356 231.416 295.356 242.299 295.356 248.266C295.356 255.724 286.24 258.21 283.754 258.21C281.268 258.21 234.033 258.21 225.746 258.21C217.459 258.21 216.631 251.58 216.631 248.266C216.631 244.951 216.631 229.206 216.631 222.576C216.631 217.273 218.288 210.975 225.746 210.975C239.005 210.975 268.506 210.975 280.439 210.975C294.941 210.975 295.356 212.632 295.356 226.72ZM216.631 225.062C214.973 225.062 211.354 225.891 211.354 229.206M216.631 236.146C212.487 236.146 211.354 233.349 211.354 229.206M211.354 229.206H195.085M340.933 229.206C343.419 226.996 349.551 222.576 354.192 222.576C359.993 222.576 371.594 225.891 373.252 229.206C374.909 232.521 368.279 230.863 366.622 230.863M378.224 222.576C375.738 222.576 367.451 211.804 354.192 215.118C340.933 218.433 340.933 222.576 343.419 215.118M276.296 229.206C270.495 226.72 270.495 222.576 265.523 222.576C260.551 222.576 255.579 221.748 246.463 226.72C237.348 231.692 247.292 229.206 252.264 229.206M236.519 225.062C240.662 225.062 240.662 216.776 253.921 216.776" stroke="#43A0BD" stroke-width="2.50993" stroke-linecap="round" stroke-linejoin="round"/>
<path d="M199.227 292.185C205.857 313.179 210 345.221 210 359.309C210 370.242 210.829 390.522 210 399.086C204.823 449.913 360.82 481.125 362.816 438.862C363.285 428.929 361.311 426.432 360.82 424.775M350.047 394.942C354.467 392.18 364.964 384.832 371.593 377.54C379.88 368.424 387.338 345.221 392.31 325.333C397.282 305.444 405.569 291.357 403.912 281.413M385.914 347.707C381.254 364.128 369.689 389.516 365.792 403.229C364.402 408.123 362.816 416.488 360.82 424.775M345.075 456.002C345.075 443.221 354.191 442.177 360.82 424.775M337.617 394.942C333.474 403.229 323.861 420.631 318.558 423.946M253.92 394.942C253.92 404.058 254.749 421.46 260.55 433.89" stroke="#359E98" stroke-width="2.50993" stroke-linecap="round" stroke-linejoin="round"/>
<path d="M199.227 292.185C205.857 313.179 210 345.221 210 359.309C210 370.242 210.829 390.522 210 399.086C204.823 449.913 360.82 481.125 362.816 438.862C363.285 428.929 361.311 426.432 360.82 424.775M350.047 394.942C354.467 392.18 364.964 384.832 371.593 377.54C379.88 368.424 387.338 345.221 392.31 325.333C397.282 305.444 405.569 291.357 403.912 281.413M385.914 347.707C381.254 364.128 369.689 389.516 365.792 403.229C364.402 408.123 362.816 416.488 360.82 424.775M345.075 456.002C345.075 443.221 354.191 442.177 360.82 424.775M337.617 394.942C333.474 403.229 323.861 420.631 318.558 423.946M253.92 394.942C253.92 404.058 254.749 421.46 260.55 433.89" stroke="#43A0BD" stroke-width="2.50993" stroke-linecap="round" stroke-linejoin="round"/>
<path d="M209.999 399.088C190.111 394.116 197.569 428.921 197.569 435.55C197.569 442.179 196.74 457.925 196.74 459.582C196.74 461.239 222.845 507.416 292.039 515.104C366.62 523.39 379.051 505.159 383.194 482.785C387.338 460.41 384.108 448.472 380.708 435.55C376.565 419.805 364.963 408.203 364.134 412.347" stroke="#359E98" stroke-width="2.50993" stroke-linecap="round" stroke-linejoin="round"/>
<path d="M209.999 399.088C190.111 394.116 197.569 428.921 197.569 435.55C197.569 442.179 196.74 457.925 196.74 459.582C196.74 461.239 222.845 507.416 292.039 515.104C366.62 523.39 379.051 505.159 383.194 482.785C387.338 460.41 384.108 448.472 380.708 435.55C376.565 419.805 364.963 408.203 364.134 412.347" stroke="#43A0BD" stroke-width="2.50993" stroke-linecap="round" stroke-linejoin="round"/>
<path d="M385.68 450.463C430.982 458.198 487.343 455.269 517.175 475.986M195.912 446.32C195.912 446.32 128.789 454.607 103.928 466.208C79.0678 477.81 39.291 491.897 16.0879 544.933C5.21145 569.794 4.48629 573.937 2.00024 586.367" stroke="#359E98" stroke-width="2.50993" stroke-linecap="round" stroke-linejoin="round"/>
<path d="M385.68 450.463C430.982 458.198 487.343 455.269 517.175 475.986M195.912 446.32C195.912 446.32 128.789 454.607 103.928 466.208C79.0678 477.81 39.291 491.897 16.0879 544.933C5.21145 569.794 4.48629 573.937 2.00024 586.367" stroke="#43A0BD" stroke-width="2.50993" stroke-linecap="round" stroke-linejoin="round"/>
<path d="M340.933 317.873C331.818 312.901 317.73 317.045 314.415 317.045C311.1 317.045 309.443 316.215 305.3 315.387C301.156 314.558 294.527 312.9 286.24 315.387C280.439 317.127 276.296 318.702 272.981 318.702" stroke="#359E98" stroke-width="2.50993" stroke-linecap="round" stroke-linejoin="round"/>
<path d="M340.933 317.873C331.818 312.901 317.73 317.045 314.415 317.045C311.1 317.045 309.443 316.215 305.3 315.387C301.156 314.558 294.527 312.9 286.24 315.387C280.439 317.127 276.296 318.702 272.981 318.702" stroke="#43A0BD" stroke-width="2.50993" stroke-linecap="round" stroke-linejoin="round"/>
<path d="M197.286 518.531L186.487 529.185M197.286 518.531C198.847 522.877 197.951 528.23 195.37 532.989M197.286 518.531C193 516.831 187.707 517.766 182.973 520.423M171.289 544.18L179.088 536.485M171.289 544.18C177.588 546.194 183.495 544.629 188.149 541.269M171.289 544.18C169.65 538.167 171.368 532.346 174.759 527.698M179.088 536.485L188.149 541.269M179.088 536.485L174.759 527.698M179.088 536.485L186.487 529.185M188.149 541.269C191.157 539.098 193.641 536.177 195.37 532.989M174.759 527.698C176.95 524.695 179.839 522.182 182.973 520.423M186.487 529.185L195.37 532.989M186.487 529.185L182.973 520.423" stroke="#BDDADE" stroke-width="2.50993" stroke-linecap="round" stroke-linejoin="round"/>
<path d="M459.273 549.674L448.474 560.328M459.273 549.674C460.833 554.02 459.937 559.374 457.356 564.132M459.273 549.674C454.986 547.975 449.693 548.91 444.959 551.566M433.275 575.323L441.074 567.629M433.275 575.323C439.574 577.338 445.481 575.772 450.135 572.412M433.275 575.323C431.637 569.311 433.354 563.489 436.745 558.841M441.074 567.629L450.135 572.412M441.074 567.629L436.745 558.841M441.074 567.629L448.474 560.328M450.135 572.412C453.143 570.241 455.628 567.32 457.356 564.132M436.745 558.841C438.936 555.838 441.825 553.325 444.959 551.566M448.474 560.328L457.356 564.132M448.474 560.328L444.959 551.566" stroke="#BDDADE" stroke-width="2.50993" stroke-linecap="round" stroke-linejoin="round"/>
<path d="M235.761 589.979L224.962 600.634M235.761 589.979C237.321 594.325 236.425 599.679 233.845 604.437M235.761 589.979C231.474 588.28 226.182 589.215 221.447 591.871M209.763 615.628L217.563 607.934M209.763 615.628C216.062 617.643 221.969 616.077 226.623 612.718M209.763 615.628C208.125 609.616 209.843 603.794 213.234 599.146M217.563 607.934L226.623 612.718M217.563 607.934L213.234 599.146M217.563 607.934L224.962 600.634M226.623 612.718C229.631 610.546 232.116 607.625 233.845 604.437M213.234 599.146C215.425 596.143 218.314 593.63 221.447 591.871M224.962 600.634L233.845 604.437M224.962 600.634L221.447 591.871" stroke="#BDDADE" stroke-width="2.50993" stroke-linecap="round" stroke-linejoin="round"/>
<path d="M147.916 513.164L156.805 525.457M147.916 513.164C152.448 512.282 157.604 513.982 161.915 517.255M147.916 513.164C145.585 517.143 145.704 522.516 147.611 527.599M169.316 542.758L162.896 533.88M169.316 542.758C172.264 536.838 171.614 530.762 169.001 525.652M169.316 542.758C163.124 543.464 157.631 540.881 153.552 536.823M162.896 533.88L169.001 525.652M162.896 533.88L153.552 536.823M162.896 533.88L156.805 525.457M169.001 525.652C167.312 522.348 164.803 519.449 161.915 517.255M153.552 536.823C150.917 534.201 148.873 530.964 147.611 527.599M156.805 525.457L161.915 517.255M156.805 525.457L147.611 527.599" stroke="#BDDADE" stroke-width="2.50993" stroke-linecap="round" stroke-linejoin="round"/>
<path d="M410.497 543.214L419.386 555.507M410.497 543.214C415.029 542.332 420.185 544.032 424.496 547.305M410.497 543.214C408.166 547.193 408.285 552.566 410.192 557.649M431.897 572.808L425.477 563.93M431.897 572.808C434.845 566.888 434.195 560.812 431.582 555.701M431.897 572.808C425.705 573.513 420.212 570.931 416.133 566.873M425.477 563.93L431.582 555.701M425.477 563.93L416.133 566.873M425.477 563.93L419.386 555.507M431.582 555.701C429.893 552.398 427.384 549.499 424.496 547.305M416.133 566.873C413.498 564.251 411.454 561.013 410.192 557.649M419.386 555.507L424.496 547.305M419.386 555.507L410.192 557.649" stroke="#BDDADE" stroke-width="2.50993" stroke-linecap="round" stroke-linejoin="round"/>
<path d="M186.985 583.519L195.875 595.812M186.985 583.519C191.518 582.637 196.673 584.337 200.984 587.61M186.985 583.519C184.654 587.498 184.774 592.871 186.68 597.954M208.385 613.113L201.965 604.235M208.385 613.113C211.333 607.193 210.684 601.117 208.071 596.007M208.385 613.113C202.193 613.819 196.701 611.236 192.622 607.178M201.965 604.235L208.071 596.007M201.965 604.235L192.622 607.178M201.965 604.235L195.875 595.812M208.071 596.007C206.382 592.703 203.872 589.804 200.984 587.61M192.622 607.178C189.987 604.556 187.942 601.319 186.68 597.954M195.875 595.812L200.984 587.61M195.875 595.812L186.68 597.954" stroke="#BDDADE" stroke-width="2.50993" stroke-linecap="round" stroke-linejoin="round"/>
<line x1="73.6134" y1="206.151" x2="125.553" y2="235.413" stroke="#BDDADE" stroke-width="1.25496" stroke-linecap="round"/>
<line x1="197.44" y1="66.2997" x2="210.587" y2="90.7519" stroke="#BDDADE" stroke-width="1.25496" stroke-linecap="round"/>
<line x1="412.378" y1="64.2362" x2="399.702" y2="88.2143" stroke="#BDDADE" stroke-width="1.25496" stroke-linecap="round"/>
<line x1="44.7109" y1="189.625" x2="63.0905" y2="199.522" stroke="#BDDADE" stroke-width="1.25496" stroke-linecap="round"/>
<line x1="180.929" y1="33.2829" x2="190.744" y2="51.7061" stroke="#BDDADE" stroke-width="1.25496" stroke-linecap="round"/>
<line x1="428.148" y1="33.8677" x2="418.701" y2="52.4822" stroke="#BDDADE" stroke-width="1.25496" stroke-linecap="round"/>
<line x1="0.627481" y1="-0.627481" x2="73.007" y2="-0.627481" transform="matrix(-0.873709 0.486449 0.486449 0.873709 536.464 207.944)" stroke="#BDDADE" stroke-width="1.25496" stroke-linecap="round"/>
<line x1="553.758" y1="194.86" x2="540.052" y2="202.504" stroke="#BDDADE" stroke-width="1.25496" stroke-linecap="round"/>
<line x1="300.731" y1="0.627481" x2="300.731" y2="45.174" stroke="#BDDADE" stroke-width="1.25496" stroke-linecap="round"/>
<line x1="81.8989" y1="86.6695" x2="133.044" y2="136.051" stroke="#BDDADE" stroke-width="1.25496" stroke-linecap="round"/>
<line x1="534.542" y1="95.8248" x2="478.169" y2="148.208" stroke="#BDDADE" stroke-width="1.25496" stroke-linecap="round"/>
<line x1="143.815" y1="148.548" x2="157.148" y2="160.338" stroke="#BDDADE" stroke-width="1.25496" stroke-linecap="round"/>
<line x1="468.573" y1="156.609" x2="456.711" y2="166.536" stroke="#BDDADE" stroke-width="1.25496" stroke-linecap="round"/>
</svg>
