<svg width="87" height="17" viewBox="0 0 87 17" fill="none" xmlns="http://www.w3.org/2000/svg">
<path d="M12.75 13.14V16H0.826V0.600014H12.464V3.46001H4.368V6.80401H11.518V9.57601H4.368V13.14H12.75ZM15.5858 0.600014H19.1498V13.096H26.8718V16H15.5858V0.600014ZM28.8631 0.600014H32.4271V16H28.8631V0.600014ZM50.2059 0.600014V16H47.2799L39.6019 6.65001V16H36.0819V0.600014H39.0299L46.6859 9.95002V0.600014H50.2059ZM61.3074 16.264C59.7088 16.264 58.2641 15.9193 56.9734 15.23C55.6974 14.5407 54.6928 13.5947 53.9594 12.392C53.2408 11.1747 52.8814 9.81068 52.8814 8.30001C52.8814 6.78935 53.2408 5.43268 53.9594 4.23001C54.6928 3.01268 55.6974 2.05935 56.9734 1.37001C58.2641 0.680682 59.7088 0.336015 61.3074 0.336015C62.9061 0.336015 64.3434 0.680682 65.6194 1.37001C66.8954 2.05935 67.9001 3.01268 68.6334 4.23001C69.3668 5.43268 69.7334 6.78935 69.7334 8.30001C69.7334 9.81068 69.3668 11.1747 68.6334 12.392C67.9001 13.5947 66.8954 14.5407 65.6194 15.23C64.3434 15.9193 62.9061 16.264 61.3074 16.264ZM61.3074 13.228C62.2168 13.228 63.0381 13.0227 63.7714 12.612C64.5048 12.1867 65.0768 11.6 65.4874 10.852C65.9128 10.104 66.1254 9.25335 66.1254 8.30001C66.1254 7.34668 65.9128 6.49601 65.4874 5.74801C65.0768 5.00001 64.5048 4.42068 63.7714 4.01001C63.0381 3.58468 62.2168 3.37202 61.3074 3.37202C60.3981 3.37202 59.5768 3.58468 58.8434 4.01001C58.1101 4.42068 57.5308 5.00001 57.1054 5.74801C56.6948 6.49601 56.4894 7.34668 56.4894 8.30001C56.4894 9.25335 56.6948 10.104 57.1054 10.852C57.5308 11.6 58.1101 12.1867 58.8434 12.612C59.5768 13.0227 60.3981 13.228 61.3074 13.228ZM82.2239 16L79.2539 11.71H79.0779H75.9759V16H72.4119V0.600014H79.0779C80.4419 0.600014 81.6226 0.827348 82.6199 1.28201C83.6319 1.73668 84.4093 2.38201 84.9519 3.21801C85.4946 4.05401 85.7659 5.04401 85.7659 6.18802C85.7659 7.33201 85.4873 8.32201 84.9299 9.15801C84.3873 9.97935 83.6099 10.61 82.5979 11.05L86.0519 16H82.2239ZM82.1579 6.18802C82.1579 5.32268 81.8793 4.66268 81.3219 4.20801C80.7646 3.73868 79.9506 3.50401 78.8799 3.50401H75.9759V8.87202H78.8799C79.9506 8.87202 80.7646 8.63735 81.3219 8.16802C81.8793 7.69868 82.1579 7.03868 82.1579 6.18802Z" fill="white"/>
</svg>
