<svg width="24" height="24" viewBox="0 0 24 24" fill="none" xmlns="http://www.w3.org/2000/svg">
<mask id="mask0_9538_4435" style="mask-type:alpha" maskUnits="userSpaceOnUse" x="0" y="0" width="24" height="24">
<rect width="24" height="24" fill="#D9D9D9"/>
</mask>
<g mask="url(#mask0_9538_4435)">
<path d="M11.9994 19.4959L16.0571 15.4574C16.2058 15.3087 16.3798 15.2327 16.5791 15.2294C16.7785 15.2262 16.9557 15.3022 17.1109 15.4574C17.2661 15.6125 17.3436 15.7907 17.3436 15.9919C17.3436 16.1932 17.2661 16.3715 17.1109 16.5266L13.0781 20.5746C12.7846 20.8681 12.4251 21.0149 11.9994 21.0149C11.5737 21.0149 11.2141 20.8681 10.9206 20.5746L6.87238 16.5266C6.72372 16.3778 6.65038 16.2011 6.65238 15.9966C6.65422 15.7923 6.73272 15.6125 6.88788 15.4574C7.04305 15.3022 7.22122 15.2262 7.42238 15.2294C7.62372 15.2327 7.80197 15.3087 7.95713 15.4574L11.9994 19.4959ZM11.9994 4.50338L7.95713 8.52663C7.8083 8.67529 7.63422 8.74863 7.43488 8.74663C7.23555 8.74479 7.0583 8.67146 6.90313 8.52663C6.74813 8.37146 6.66805 8.19321 6.66288 7.99188C6.65772 7.79071 6.73272 7.61254 6.88788 7.45738L10.9206 3.42462C11.2141 3.13112 11.5737 2.98438 11.9994 2.98438C12.4251 2.98438 12.7846 3.13112 13.0781 3.42462L17.1109 7.45738C17.2596 7.60604 17.333 7.78262 17.3311 7.98712C17.3291 8.19163 17.2506 8.37146 17.0956 8.52663C16.9405 8.67146 16.7648 8.74479 16.5686 8.74663C16.3725 8.74863 16.1968 8.67529 16.0416 8.52663L11.9994 4.50338Z" fill="#43A0BD"/>
</g>
</svg>
