<svg width="19" height="19" viewBox="0 0 19 19" fill="none" xmlns="http://www.w3.org/2000/svg">
<path fill-rule="evenodd" clip-rule="evenodd" d="M9.49984 18.2083C4.69036 18.2083 0.791504 14.3095 0.791504 9.5C0.791504 4.69053 4.69036 0.791672 9.49984 0.791672C14.3093 0.791672 18.2082 4.69053 18.2082 9.5C18.2082 14.3095 14.3093 18.2083 9.49984 18.2083ZM15.3579 13.5569C16.1567 12.4056 16.6248 11.0075 16.6248 9.5C16.6248 5.56498 13.4349 2.37501 9.49984 2.37501C5.56481 2.37501 2.37484 5.56498 2.37484 9.5C2.37484 11.0076 2.84305 12.4058 3.642 13.5572C4.53292 12.3802 6.62665 11.875 9.50004 11.875C12.3732 11.875 14.4668 12.3801 15.3579 13.5569ZM14.222 14.8355C13.9902 14.0024 12.3256 13.4583 9.50004 13.4583C6.67412 13.4583 5.00952 14.0026 4.77796 14.8358C6.03509 15.9491 7.68853 16.625 9.49984 16.625C11.3113 16.625 12.9649 15.949 14.222 14.8355ZM9.49984 4.75001C7.58329 4.75001 6.33317 6.13998 6.33317 7.91667C6.33317 10.63 7.72719 11.875 9.49984 11.875C11.2558 11.875 12.6665 10.6714 12.6665 8.07501C12.6665 6.27125 11.4111 4.75001 9.49984 4.75001ZM7.9165 7.91667C7.9165 9.71317 8.56425 10.2917 9.49984 10.2917C10.4322 10.2917 11.0832 9.73623 11.0832 8.07501C11.0832 7.08575 10.4622 6.33334 9.49984 6.33334C8.49738 6.33334 7.9165 6.9792 7.9165 7.91667Z" fill="#585858"/>
</svg>
