<svg width="21" height="21" viewBox="0 0 21 21" fill="none" xmlns="http://www.w3.org/2000/svg">
<path d="M14.4375 10.5H18.375C18.549 10.5 18.716 10.5691 18.839 10.6922C18.9621 10.8153 19.0312 10.9822 19.0312 11.1562V16.4062C19.0312 16.5803 18.9621 16.7472 18.839 16.8703C18.716 16.9934 18.549 17.0625 18.375 17.0625H2.625C2.45095 17.0625 2.28403 16.9934 2.16096 16.8703C2.03789 16.7472 1.96875 16.5803 1.96875 16.4062V11.1562C1.96875 10.9822 2.03789 10.8153 2.16096 10.6922C2.28403 10.5691 2.45095 10.5 2.625 10.5H6.5625" stroke="#43A0BD" stroke-width="2" stroke-linecap="round" stroke-linejoin="round"/>
<path d="M10.5 1.96875V10.5" stroke="#43A0BD" stroke-width="2" stroke-linecap="round" stroke-linejoin="round"/>
<path d="M6.5625 6.5625L10.5 10.5L14.4375 6.5625" stroke="#43A0BD" stroke-width="2" stroke-linecap="round" stroke-linejoin="round"/>
<path d="M15.4219 14.7656C15.9655 14.7656 16.4062 14.3249 16.4062 13.7812C16.4062 13.2376 15.9655 12.7969 15.4219 12.7969C14.8782 12.7969 14.4375 13.2376 14.4375 13.7812C14.4375 14.3249 14.8782 14.7656 15.4219 14.7656Z" fill="#43A0BD"/>
</svg>
