<svg width="18" height="16" viewBox="0 0 18 16" fill="none" xmlns="http://www.w3.org/2000/svg">
<path fill-rule="evenodd" clip-rule="evenodd" d="M3.48203 15.6746C1.30662 14.0402 0 11.4821 0 8.70833C0 3.89885 3.89885 0 8.70833 0C13.5178 0 17.4167 3.89885 17.4167 8.70833C17.4167 11.4821 16.1101 14.0402 13.9346 15.6746L13.7234 15.8333H3.6933L3.48203 15.6746ZM13.1872 14.25C14.8461 12.9081 15.8333 10.891 15.8333 8.70833C15.8333 4.7733 12.6434 1.58333 8.70833 1.58333C4.7733 1.58333 1.58333 4.7733 1.58333 8.70833C1.58333 10.891 2.57053 12.9081 4.2295 14.25H13.1872ZM12.9194 4.41233L11.6223 3.50434L9.53778 6.48219C9.27957 6.38594 9.00009 6.33333 8.70833 6.33333C7.39666 6.33333 6.33333 7.39666 6.33333 8.70833C6.33333 10.02 7.39666 11.0833 8.70833 11.0833C10.02 11.0833 11.0833 10.02 11.0833 8.70833C11.0833 8.2686 10.9638 7.85678 10.7555 7.50357L12.9194 4.41233ZM9.5 8.70833C9.5 9.14556 9.14556 9.5 8.70833 9.5C8.27111 9.5 7.91667 9.14556 7.91667 8.70833C7.91667 8.2711 8.27111 7.91666 8.70833 7.91666C9.14556 7.91666 9.5 8.2711 9.5 8.70833Z" fill="#359E98"/>
<path fill-rule="evenodd" clip-rule="evenodd" d="M3.48203 15.6746C1.30662 14.0402 0 11.4821 0 8.70833C0 3.89885 3.89885 0 8.70833 0C13.5178 0 17.4167 3.89885 17.4167 8.70833C17.4167 11.4821 16.1101 14.0402 13.9346 15.6746L13.7234 15.8333H3.6933L3.48203 15.6746ZM13.1872 14.25C14.8461 12.9081 15.8333 10.891 15.8333 8.70833C15.8333 4.7733 12.6434 1.58333 8.70833 1.58333C4.7733 1.58333 1.58333 4.7733 1.58333 8.70833C1.58333 10.891 2.57053 12.9081 4.2295 14.25H13.1872ZM12.9194 4.41233L11.6223 3.50434L9.53778 6.48219C9.27957 6.38594 9.00009 6.33333 8.70833 6.33333C7.39666 6.33333 6.33333 7.39666 6.33333 8.70833C6.33333 10.02 7.39666 11.0833 8.70833 11.0833C10.02 11.0833 11.0833 10.02 11.0833 8.70833C11.0833 8.2686 10.9638 7.85678 10.7555 7.50357L12.9194 4.41233ZM9.5 8.70833C9.5 9.14556 9.14556 9.5 8.70833 9.5C8.27111 9.5 7.91667 9.14556 7.91667 8.70833C7.91667 8.2711 8.27111 7.91666 8.70833 7.91666C9.14556 7.91666 9.5 8.2711 9.5 8.70833Z" fill="#43A0BD"/>
</svg>
