<svg width="18" height="18" viewBox="0 0 18 18" fill="none" xmlns="http://www.w3.org/2000/svg">
<path d="M10.6667 3.16667H9.00008V4.83333H10.6667V3.16667Z" fill="white"/>
<path fill-rule="evenodd" clip-rule="evenodd" d="M2.33341 0.666666H14.3519L17.3334 3.73064V15.6667C17.3334 16.5871 16.5872 17.3333 15.6667 17.3333H2.33341C1.41294 17.3333 0.666748 16.5871 0.666748 15.6667V2.33333C0.666748 1.41286 1.41294 0.666666 2.33341 0.666666ZM13.1667 2.33333V7.33333H4.83341V2.33333H2.33341V15.6667H4.00008V9H14.0001V15.6667H15.6667V4.40771L13.6482 2.33333H13.1667ZM6.50008 5.66667V2.33333H11.5001V5.66667H6.50008ZM5.66675 10.6667V15.6667H12.3334V10.6667H5.66675Z" fill="white"/>
</svg>
