<svg width="21" height="21" viewBox="0 0 21 21" fill="none" xmlns="http://www.w3.org/2000/svg">
<path d="M11.0162 11.375L9.00375 13.3788C8.92174 13.4601 8.85664 13.5569 8.81222 13.6635C8.7678 13.7701 8.74493 13.8845 8.74493 14C8.74493 14.1155 8.7678 14.2299 8.81222 14.3365C8.85664 14.4431 8.92174 14.5399 9.00375 14.6213C9.08509 14.7033 9.18187 14.7684 9.28849 14.8128C9.39512 14.8572 9.50949 14.8801 9.625 14.8801C9.74051 14.8801 9.85488 14.8572 9.9615 14.8128C10.0681 14.7684 10.1649 14.7033 10.2462 14.6213L13.7462 11.1213C13.8259 11.038 13.8884 10.9399 13.93 10.8325C14.0175 10.6195 14.0175 10.3805 13.93 10.1675C13.8884 10.0601 13.8259 9.96197 13.7462 9.87875L10.2462 6.37875C10.1647 6.29717 10.0678 6.23245 9.96122 6.1883C9.85462 6.14415 9.74038 6.12142 9.625 6.12142C9.50962 6.12142 9.39538 6.14415 9.28878 6.1883C9.18219 6.23245 9.08533 6.29717 9.00375 6.37875C8.92217 6.46034 8.85745 6.55719 8.8133 6.66378C8.76914 6.77038 8.74642 6.88463 8.74642 7C8.74642 7.11538 8.76914 7.22963 8.8133 7.33622C8.85745 7.44282 8.92217 7.53967 9.00375 7.62125L11.0162 9.625H2.625C2.39294 9.625 2.17038 9.71719 2.00628 9.88128C1.84219 10.0454 1.75 10.2679 1.75 10.5C1.75 10.7321 1.84219 10.9546 2.00628 11.1187C2.17038 11.2828 2.39294 11.375 2.625 11.375H11.0162ZM10.5 1.75C8.8647 1.7427 7.26009 2.19381 5.86816 3.05217C4.47623 3.91053 3.3527 5.14177 2.625 6.60625C2.52057 6.81511 2.50339 7.0569 2.57723 7.27843C2.65107 7.49995 2.80989 7.68307 3.01875 7.7875C3.22761 7.89193 3.4694 7.90912 3.69092 7.83527C3.91245 7.76143 4.09557 7.60261 4.2 7.39375C4.75317 6.27666 5.5946 5.32754 6.63736 4.64449C7.68011 3.96144 8.88634 3.56923 10.1314 3.5084C11.3765 3.44756 12.6152 3.72031 13.7196 4.29845C14.824 4.87659 15.7539 5.73915 16.4133 6.797C17.0728 7.85484 17.4378 9.06959 17.4706 10.3157C17.5034 11.5618 17.2029 12.7941 16.6001 13.8852C15.9973 14.9763 15.114 15.8866 14.0416 16.5221C12.9692 17.1576 11.7465 17.4952 10.5 17.5C9.19527 17.5057 7.91538 17.1433 6.80723 16.4546C5.69908 15.7659 4.80756 14.7787 4.235 13.6063C4.13057 13.3974 3.94745 13.2386 3.72592 13.1647C3.5044 13.0909 3.26261 13.1081 3.05375 13.2125C2.84489 13.3169 2.68607 13.5001 2.61223 13.7216C2.53839 13.9431 2.55557 14.1849 2.66 14.3938C3.35372 15.7898 4.40783 16.9752 5.71329 17.8273C7.01874 18.6794 8.52814 19.1672 10.0854 19.2404C11.6426 19.3135 13.191 18.9693 14.5706 18.2433C15.9502 17.5174 17.1108 16.436 17.9323 15.1111C18.7538 13.7862 19.2065 12.2659 19.2434 10.7074C19.2804 9.14889 18.9003 7.60882 18.1425 6.24648C17.3846 4.88414 16.2766 3.749 14.933 2.95847C13.5894 2.16794 12.0589 1.75074 10.5 1.75Z" fill="#EDF4F6"/>
</svg>
