<svg width="18" height="16" viewBox="0 0 18 16" fill="none" xmlns="http://www.w3.org/2000/svg">
<path fill-rule="evenodd" clip-rule="evenodd" d="M3.48203 15.6746C1.30662 14.0402 0 11.4821 0 8.70831C0 3.89886 3.89885 0 8.70833 0C13.5178 0 17.4167 3.89886 17.4167 8.70831C17.4167 11.4821 16.1101 14.0402 13.9346 15.6746L13.7234 15.8333H3.6933L3.48203 15.6746ZM13.1872 14.25C14.8461 12.9081 15.8333 10.8909 15.8333 8.70831C15.8333 4.77332 12.6434 1.58331 8.70833 1.58331C4.7733 1.58331 1.58333 4.77332 1.58333 8.70831C1.58333 10.8909 2.57053 12.9081 4.2295 14.25H13.1872ZM12.9194 4.41235L11.6223 3.50433L9.53778 6.48218C9.27957 6.38593 9.00009 6.33331 8.70833 6.33331C7.39666 6.33331 6.33333 7.39667 6.33333 8.70831C6.33333 10.02 7.39666 11.0833 8.70833 11.0833C10.02 11.0833 11.0833 10.02 11.0833 8.70831C11.0833 8.26862 10.9638 7.85675 10.7555 7.5036L12.9194 4.41235ZM9.5 8.70837C9.5 9.14557 9.14556 9.5 8.70833 9.5C8.27111 9.5 7.91667 9.14557 7.91667 8.70837C7.91667 8.27112 8.27111 7.91669 8.70833 7.91669C9.14556 7.91669 9.5 8.27112 9.5 8.70837Z" fill="#585858"/>
</svg>
