<svg width="17" height="21" viewBox="0 0 17 21" fill="none" xmlns="http://www.w3.org/2000/svg">
<path fill-rule="evenodd" clip-rule="evenodd" d="M8.25 20.4669L8.85292 19.9405C13.923 15.5134 16.5 11.6479 16.5 8.25C16.5 3.43811 12.7444 0 8.25 0C3.75563 0 0 3.43811 0 8.25C0 11.6479 2.57703 15.5134 7.64708 19.9405L8.25 20.4669ZM8.25 18.0248C3.94773 14.1474 1.83333 10.8618 1.83333 8.25C1.83333 4.48855 4.73377 1.83333 8.25 1.83333C11.7662 1.83333 14.6667 4.48855 14.6667 8.25C14.6667 10.8618 12.5523 14.1474 8.25 18.0248ZM8.25 3.66667C10.7813 3.66667 12.8333 5.71869 12.8333 8.25C12.8333 10.7813 10.7813 12.8333 8.25 12.8333C5.71869 12.8333 3.66667 10.7813 3.66667 8.25C3.66667 5.71869 5.71869 3.66667 8.25 3.66667ZM5.5 8.25C5.5 6.73122 6.73122 5.5 8.25 5.5C9.76878 5.5 11 6.73122 11 8.25C11 9.76878 9.76878 11 8.25 11C6.73122 11 5.5 9.76878 5.5 8.25Z" fill="#585858"/>
</svg>
