<svg width="19" height="19" viewBox="0 0 19 19" fill="none" xmlns="http://www.w3.org/2000/svg">
<path d="M7.125 8.3125H13.0625" stroke="#43A0BD" stroke-width="1.5" stroke-linecap="round" stroke-linejoin="round"/>
<path d="M7.125 10.6875H13.0625" stroke="#43A0BD" stroke-width="1.5" stroke-linecap="round" stroke-linejoin="round"/>
<path d="M2 14.6875C2.31494 14.6875 2.61699 14.5624 2.83969 14.3397C3.06239 14.117 3.1875 13.8149 3.1875 13.5V4.59375C3.1875 4.43628 3.25006 4.28526 3.36141 4.17391C3.47276 4.06256 3.62378 4 3.78125 4H15.6562C15.8137 4 15.9647 4.06256 16.0761 4.17391C16.1874 4.28526 16.25 4.43628 16.25 4.59375V13.5C16.25 13.8149 16.1249 14.117 15.9022 14.3397C15.6795 14.5624 15.3774 14.6875 15.0625 14.6875H2Z" stroke="#43A0BD" stroke-width="1.5" stroke-linecap="round" stroke-linejoin="round"/>
<path d="M2.375 14.7124C2.06006 14.7124 1.75801 14.5873 1.53531 14.3646C1.31261 14.1419 1.1875 13.8398 1.1875 13.5249V6.3999" stroke="#43A0BD" stroke-width="1.5" stroke-linecap="round" stroke-linejoin="round"/>
</svg>
