<svg width="19" height="19" viewBox="0 0 19 19" fill="none" xmlns="http://www.w3.org/2000/svg">
<path fill-rule="evenodd" clip-rule="evenodd" d="M3.95833 0.791504H12.2029L16.625 5.21358V16.6248C16.625 17.4993 15.9161 18.2082 15.0417 18.2082H3.95833C3.08388 18.2082 2.375 17.4993 2.375 16.6248V2.37484C2.375 1.50039 3.08388 0.791504 3.95833 0.791504ZM10.2918 2.37482H3.95819V16.6248H15.0415V7.12485H11.8751C11.0007 7.12485 10.2918 6.41597 10.2918 5.54152V2.37482ZM11.8751 2.70302V5.54152H14.7136L11.8751 2.70302ZM6.33319 13.4582V11.8748H11.0832V13.4582H6.33319ZM6.33319 8.70819V10.2915H12.6665V8.70819H6.33319Z" fill="#EDF4F6"/>
</svg>
