<svg width="19" height="19" viewBox="0 0 19 19" fill="none" xmlns="http://www.w3.org/2000/svg">
<path fill-rule="evenodd" clip-rule="evenodd" d="M9.49935 18.2082C4.68987 18.2082 0.791016 14.3093 0.791016 9.49984C0.791016 4.69036 4.68987 0.791504 9.49935 0.791504C14.3088 0.791504 18.2077 4.69036 18.2077 9.49984C18.2077 14.3093 14.3088 18.2082 9.49935 18.2082ZM15.3574 13.5567C16.1562 12.4054 16.6243 11.0073 16.6243 9.49984C16.6243 5.56481 13.4344 2.37484 9.49935 2.37484C5.56432 2.37484 2.37435 5.56481 2.37435 9.49984C2.37435 11.0074 2.84256 12.4056 3.64151 13.557C4.53243 12.38 6.62617 11.8748 9.49955 11.8748C12.3727 11.8748 14.4663 12.3799 15.3574 13.5567ZM14.2215 14.8353C13.9897 14.0023 12.3251 13.4582 9.49955 13.4582C6.67363 13.4582 5.00903 14.0024 4.77747 14.8356C6.0346 15.949 7.68805 16.6248 9.49935 16.6248C11.3108 16.6248 12.9644 15.9488 14.2215 14.8353ZM9.49935 4.74984C7.5828 4.74984 6.33268 6.13981 6.33268 7.9165C6.33268 10.6298 7.7267 11.8748 9.49935 11.8748C11.2553 11.8748 12.666 10.6712 12.666 8.07484C12.666 6.27109 11.4106 4.74984 9.49935 4.74984ZM7.91602 7.9165C7.91602 9.713 8.56377 10.2915 9.49935 10.2915C10.4317 10.2915 11.0827 9.73606 11.0827 8.07484C11.0827 7.08558 10.4617 6.33317 9.49935 6.33317C8.49689 6.33317 7.91602 6.97903 7.91602 7.9165Z" fill="#43A0BD"/>
</svg>
