<svg width="15" height="19" viewBox="0 0 15 19" fill="none" xmlns="http://www.w3.org/2000/svg">
<path fill-rule="evenodd" clip-rule="evenodd" d="M1.95833 0.791682H10.2029L14.625 5.21376V16.625C14.625 17.4995 13.9161 18.2083 13.0417 18.2083H1.95833C1.08388 18.2083 0.375 17.4995 0.375 16.625V2.37502C0.375 1.50056 1.08388 0.791682 1.95833 0.791682ZM8.29181 2.375H1.95819V16.625H13.0415V7.12503H9.87514C9.00069 7.12503 8.29181 6.41615 8.29181 5.5417V2.375ZM9.87514 2.7032V5.5417H12.7136L9.87514 2.7032ZM4.33319 13.4583V11.875H9.08319V13.4583H4.33319ZM4.33319 8.70837V10.2917H10.6665V8.70837H4.33319Z" fill="#585858"/>
</svg>
