<svg width="20" height="20" viewBox="0 0 20 20" fill="none" xmlns="http://www.w3.org/2000/svg">
<path fill-rule="evenodd" clip-rule="evenodd" d="M9.99831 3.33334C12.2713 3.33334 14.4447 4.52553 16.4702 6.4843C17.1612 7.15255 17.7864 7.86597 18.3367 8.5797C18.6688 9.01038 18.9046 9.34917 19.0337 9.55101L19.3208 10L19.0337 10.449C18.9046 10.6508 18.6688 10.9896 18.3367 11.4203C17.7864 12.134 17.1612 12.8475 16.4702 13.5157C14.4447 15.4745 12.2713 16.6667 9.99831 16.6667C7.72535 16.6667 5.55191 15.4745 3.5264 13.5157C2.83539 12.8475 2.21023 12.134 1.6599 11.4203C1.32782 10.9896 1.09204 10.6508 0.962948 10.449L0.675781 10L0.962948 9.55101C1.09204 9.34917 1.32782 9.01038 1.6599 8.5797C2.21023 7.86597 2.83539 7.15255 3.5264 6.4843C5.55191 4.52553 7.72535 3.33334 9.99831 3.33334ZM17.0168 9.59741C16.513 8.94394 15.9401 8.29018 15.3116 7.68238C13.567 5.99532 11.7525 5.00001 9.99829 5.00001C8.24406 5.00001 6.42953 5.99532 4.68499 7.68238C4.05649 8.29018 3.48361 8.94394 2.97975 9.59741C2.87092 9.73854 2.77036 9.8732 2.67843 10C2.77036 10.1268 2.87092 10.2615 2.97975 10.4026C3.48361 11.0561 4.05649 11.7098 4.68499 12.3176C6.42953 14.0047 8.24406 15 9.99829 15C11.7525 15 13.567 14.0047 15.3116 12.3176C15.9401 11.7098 16.513 11.0561 17.0168 10.4026C17.1257 10.2615 17.2262 10.1268 17.3182 10C17.2262 9.8732 17.1257 9.73854 17.0168 9.59741ZM6.66498 10C6.66498 11.841 8.15736 13.3333 9.99831 13.3333C11.8393 13.3333 13.3316 11.841 13.3316 10C13.3316 8.15906 11.8393 6.66668 9.99831 6.66668C8.15736 6.66668 6.66498 8.15906 6.66498 10ZM11.665 10C11.665 10.9205 10.9188 11.6667 9.99831 11.6667C9.07784 11.6667 8.33165 10.9205 8.33165 10C8.33165 9.07954 9.07784 8.33334 9.99831 8.33334C10.9188 8.33334 11.665 9.07954 11.665 10Z" fill="#359E98"/>
</svg>
