<svg width="21" height="21" viewBox="0 0 21 21" fill="none" xmlns="http://www.w3.org/2000/svg">
<path fill-rule="evenodd" clip-rule="evenodd" d="M20.125 10.5C20.125 5.18426 15.8157 0.875 10.5 0.875C5.18426 0.875 0.875 5.18426 0.875 10.5C0.875 15.8157 5.18426 20.125 10.5 20.125C15.8157 20.125 20.125 15.8157 20.125 10.5ZM3.18703 7.5727C3.98623 5.57795 5.57795 3.98623 7.5727 3.18703C7.10469 4.09051 6.73755 5.21696 6.4901 6.4901C5.21696 6.73755 4.09051 7.10469 3.18703 7.5727ZM13.4273 3.18703C13.8953 4.09051 14.2625 5.21696 14.5099 6.4901C15.783 6.73755 16.9095 7.10469 17.813 7.5727C17.0138 5.57795 15.4221 3.98623 13.4273 3.18703ZM2.625 10.5C2.625 9.71316 4.0501 8.85937 6.22517 8.34592C6.15917 9.03946 6.125 9.76063 6.125 10.5C6.125 11.2394 6.15917 11.9605 6.22517 12.6541C4.0501 12.1406 2.625 11.2868 2.625 10.5ZM14.875 10.5C14.875 11.2394 14.8408 11.9605 14.7748 12.6541C16.9499 12.1406 18.375 11.2868 18.375 10.5C18.375 9.71316 16.9499 8.85937 14.7748 8.34592C14.8408 9.03946 14.875 9.76063 14.875 10.5ZM3.18703 13.4273C4.09051 13.8953 5.21696 14.2624 6.4901 14.5099C6.73755 15.783 7.10469 16.9095 7.5727 17.813C5.57795 17.0138 3.98623 15.4221 3.18703 13.4273ZM14.5099 14.5099C14.2625 15.783 13.8953 16.9095 13.4273 17.813C15.4221 17.0138 17.0138 15.4221 17.813 13.4273C16.9095 13.8953 15.783 14.2624 14.5099 14.5099ZM7.875 10.5C7.875 9.63353 7.92934 8.80225 8.02604 8.02604C8.80225 7.92934 9.63352 7.875 10.5 7.875C11.3665 7.875 12.1978 7.92935 12.974 8.02604C13.0707 8.80225 13.125 9.63353 13.125 10.5C13.125 11.3665 13.0707 12.1977 12.974 12.974C12.1978 13.0706 11.3665 13.125 10.5 13.125C9.63352 13.125 8.80225 13.0706 8.02604 12.974C7.92934 12.1977 7.875 11.3665 7.875 10.5ZM8.34592 14.7748C8.85937 16.9499 9.71316 18.375 10.5 18.375C11.2868 18.375 12.1406 16.9499 12.6541 14.7748C11.9605 14.8408 11.2394 14.875 10.5 14.875C9.76063 14.875 9.03946 14.8408 8.34592 14.7748ZM10.5 2.625C9.71316 2.625 8.85937 4.0501 8.34592 6.22517C9.03946 6.15917 9.76063 6.125 10.5 6.125C11.2394 6.125 11.9605 6.15917 12.6541 6.22517C12.1406 4.0501 11.2868 2.625 10.5 2.625Z" fill="#359E98"/>
</svg>
