<svg width="31" height="28" viewBox="0 0 31 28" fill="none" xmlns="http://www.w3.org/2000/svg">
<g filter="url(#filter0_dd)">
<circle cx="9" cy="5" r="5" fill="#EABA5C"/>
<g clip-path="url(#clip0)">
<path fill-rule="evenodd" clip-rule="evenodd" d="M14.9867 15.0027C14.6131 14.8526 14.0278 14.4427 13.1695 14.0306C12.6834 13.7977 11.6107 13.4502 11.2033 13.1943C10.8464 12.9664 10.7803 12.8099 10.6647 12.517C10.4588 11.996 10.7311 11.3406 11.2808 11.0904C11.6957 10.9008 12.1804 10.9703 12.6234 11.0446C12.8906 11.0891 13.2806 11.25 13.5091 11.3361C13.7191 11.4146 13.7852 11.4589 14.0194 11.5601C14.3291 11.694 14.4507 11.7787 14.2349 11.5589C13.9623 11.211 13.5006 10.6145 13.0429 10.1157C12.6953 9.73771 12.6325 9.68326 12.3477 9.40349C12.0452 9.10539 11.8518 8.88593 11.543 8.56293C11.3258 8.33377 10.8977 7.85656 10.6901 7.56885C10.4056 7.17582 9.9893 6.50736 10.0744 6.04049C10.1411 5.67489 10.5765 5.32468 10.9601 5.30489C11.4623 5.27877 12.0111 5.71995 12.2429 5.88869C12.6597 6.19216 13.044 6.59886 13.4992 7.16134C14.0783 7.87739 14.9386 8.83869 15.079 9.06432C14.9343 8.77186 14.5218 8.2184 14.4141 7.9199C14.3164 7.64924 14.3564 7.24609 14.568 7.02102C14.7472 6.83093 14.9874 6.66067 15.2378 6.5782C15.5032 6.49015 15.8521 6.51692 16.0384 6.62433C16.588 6.94275 17.1559 7.91393 17.1373 7.8554C17.0365 7.53047 16.6488 6.88524 16.6536 6.52079C16.6564 6.28073 16.8338 5.9633 16.9628 5.85418C17.1626 5.68581 17.4291 5.51563 17.6897 5.42627C17.9 5.35477 18.286 5.43349 18.4176 5.50218C18.7346 5.66965 19.2578 6.35887 19.4363 6.60325C19.5099 6.70442 19.3194 6.27134 19.3336 5.91266C19.3593 5.24675 20.3935 4.52324 21.0538 5.57046C21.3613 6.05925 21.3442 6.03852 21.5384 6.37473C21.7665 6.76977 21.8946 7.01266 22.0384 7.31069C22.1914 7.6299 22.5251 8.35829 22.6236 8.74766C22.6913 9.01529 22.774 9.6573 22.7403 10.0905C22.7403 10.0905 22.478 11.5155 22.6377 11.9969C22.7963 12.478 22.8276 12.464 22.9862 12.7789C23.1444 13.0931 23.4847 13.4305 23.4847 13.4305C23.4847 13.4305 22.9229 13.8609 22.5651 13.9972C22.241 14.1201 21.531 13.7374 21.3313 13.6102C21.0562 13.4349 20.8059 13.6436 20.8043 13.8911C20.8028 14.2822 20.7392 15.0189 20.499 15.2014C20.0299 15.5579 18.9563 16.1238 18.1293 16.5901C18.1293 16.5901 17.8234 15.7367 17.3581 15.6518C17.0127 15.5873 16.3832 15.4159 16.0235 15.3424L14.9867 15.0027Z" fill="white"/>
<path fill-rule="evenodd" clip-rule="evenodd" d="M14.9867 15.0027C14.6131 14.8526 14.0278 14.4427 13.1695 14.0306C12.6834 13.7977 11.6107 13.4502 11.2033 13.1943C10.8464 12.9664 10.7803 12.8099 10.6647 12.517C10.4588 11.996 10.7311 11.3406 11.2808 11.0904C11.6957 10.9008 12.1804 10.9703 12.6234 11.0446C12.8906 11.0891 13.2806 11.25 13.5091 11.3361C13.7191 11.4146 13.7852 11.4589 14.0194 11.5601C14.3291 11.694 14.4507 11.7787 14.2349 11.5589C13.9623 11.211 13.5006 10.6145 13.0429 10.1157C12.6953 9.73771 12.6325 9.68326 12.3477 9.40349C12.0452 9.10539 11.8518 8.88593 11.543 8.56293C11.3258 8.33377 10.8977 7.85656 10.6901 7.56885C10.4056 7.17582 9.9893 6.50736 10.0744 6.04049C10.1411 5.67489 10.5765 5.32468 10.9601 5.30489C11.4623 5.27877 12.0111 5.71995 12.2429 5.88869C12.6597 6.19216 13.044 6.59886 13.4992 7.16134C14.0783 7.87739 14.9386 8.83869 15.079 9.06432C14.9343 8.77186 14.5218 8.2184 14.4141 7.9199C14.3164 7.64924 14.3564 7.24609 14.568 7.02102C14.7472 6.83093 14.9874 6.66067 15.2378 6.5782C15.5032 6.49015 15.8521 6.51692 16.0384 6.62433C16.588 6.94275 17.1559 7.91393 17.1373 7.8554C17.0365 7.53047 16.6488 6.88524 16.6536 6.52079C16.6564 6.28073 16.8338 5.9633 16.9628 5.85418C17.1626 5.68581 17.4291 5.51563 17.6897 5.42627C17.9 5.35477 18.286 5.43349 18.4176 5.50218C18.7346 5.66965 19.2578 6.35887 19.4363 6.60325C19.5099 6.70442 19.3194 6.27134 19.3336 5.91266C19.3593 5.24675 20.3935 4.52324 21.0538 5.57046C21.3613 6.05925 21.3442 6.03852 21.5384 6.37473C21.7665 6.76977 21.8946 7.01266 22.0384 7.31069C22.1914 7.6299 22.5251 8.35829 22.6236 8.74766C22.6913 9.01529 22.774 9.6573 22.7403 10.0905C22.7403 10.0905 22.478 11.5155 22.6377 11.9969C22.7963 12.478 22.8276 12.464 22.9862 12.7789C23.1444 13.0931 23.4847 13.4305 23.4847 13.4305C23.4847 13.4305 22.9229 13.8609 22.5651 13.9972C22.241 14.1201 21.531 13.7374 21.3313 13.6102C21.0562 13.4349 20.8059 13.6436 20.8043 13.8911C20.8028 14.2822 20.7392 15.0189 20.499 15.2014C20.0299 15.5579 18.9563 16.1238 18.1293 16.5901C18.1293 16.5901 17.8234 15.7367 17.3581 15.6518C17.0127 15.5873 16.3832 15.4159 16.0235 15.3424L14.9867 15.0027Z" stroke="black" stroke-width="0.75" stroke-linecap="round" stroke-linejoin="round"/>
<path d="M21.3831 11.6704L19.8569 9.02734" stroke="black" stroke-width="0.75" stroke-linecap="round"/>
<path d="M19.8609 12.5613L18.3164 9.91455" stroke="black" stroke-width="0.75" stroke-linecap="round"/>
<path d="M16.8301 10.8049L18.3576 13.4136" stroke="black" stroke-width="0.75" stroke-linecap="round"/>
</g>
</g>
<defs>
<filter id="filter0_dd" x="0" y="0" width="30.6247" height="27.9907" filterUnits="userSpaceOnUse" color-interpolation-filters="sRGB">
<feFlood flood-opacity="0" result="BackgroundImageFix"/>
<feColorMatrix in="SourceAlpha" type="matrix" values="0 0 0 0 0 0 0 0 0 0 0 0 0 0 0 0 0 0 127 0"/>
<feOffset dy="4"/>
<feGaussianBlur stdDeviation="2"/>
<feColorMatrix type="matrix" values="0 0 0 0 0 0 0 0 0 0 0 0 0 0 0 0 0 0 0.25 0"/>
<feBlend mode="normal" in2="BackgroundImageFix" result="effect1_dropShadow"/>
<feColorMatrix in="SourceAlpha" type="matrix" values="0 0 0 0 0 0 0 0 0 0 0 0 0 0 0 0 0 0 127 0"/>
<feOffset dy="4"/>
<feGaussianBlur stdDeviation="2"/>
<feColorMatrix type="matrix" values="0 0 0 0 0 0 0 0 0 0 0 0 0 0 0 0 0 0 0.25 0"/>
<feBlend mode="normal" in2="effect1_dropShadow" result="effect2_dropShadow"/>
<feBlend mode="normal" in="SourceGraphic" in2="effect2_dropShadow" result="shape"/>
</filter>
<clipPath id="clip0">
<rect width="14" height="15" fill="white" transform="translate(7 7.00073) rotate(-30.0036)"/>
</clipPath>
</defs>
</svg>
