<svg width="28" height="28" viewBox="0 0 28 28" fill="none" xmlns="http://www.w3.org/2000/svg">
<path d="M16.625 8.75V22.2817C16.625 22.4258 16.6606 22.5676 16.7285 22.6946C16.7965 22.8216 16.8948 22.9299 17.0146 23.0098L18.2169 23.8113C18.3336 23.889 18.4672 23.9376 18.6066 23.953C18.746 23.9683 18.887 23.9499 19.0178 23.8994C19.1486 23.8488 19.2653 23.7675 19.3581 23.6624C19.4509 23.5573 19.5171 23.4315 19.5511 23.2954L21 17.5" stroke="#43A0BD" stroke-width="1.75" stroke-linecap="round" stroke-linejoin="round"/>
<path d="M21 17.4998C22.1603 17.4998 23.2731 17.0389 24.0936 16.2184C24.9141 15.398 25.375 14.2852 25.375 13.1248C25.375 11.9645 24.9141 10.8517 24.0936 10.0312C23.2731 9.21077 22.1603 8.74984 21 8.74984H16.625C16.625 8.74984 10.6693 8.74984 4.93817 3.94307C4.8107 3.83579 4.65526 3.76713 4.49011 3.74518C4.32496 3.72322 4.15698 3.74888 4.00591 3.81914C3.85485 3.8894 3.72699 4.00133 3.63737 4.14177C3.54774 4.28221 3.50009 4.44532 3.5 4.61192V21.6378C3.50009 21.8044 3.54774 21.9675 3.63737 22.1079C3.72699 22.2484 3.85485 22.3603 4.00591 22.4305C4.15698 22.5008 4.32496 22.5265 4.49011 22.5045C4.65526 22.4825 4.8107 22.4139 4.93817 22.3066C10.6693 17.4998 16.625 17.4998 16.625 17.4998H21Z" stroke="#43A0BD" stroke-width="1.75" stroke-linecap="round" stroke-linejoin="round"/>
</svg>
