<svg width="12" height="14" viewBox="0 0 12 14" fill="none" xmlns="http://www.w3.org/2000/svg">
<path fill-rule="evenodd" clip-rule="evenodd" d="M4.24984 0.583374H7.74984C8.39417 0.583374 8.9165 1.10571 8.9165 1.75004V2.33337H10.6665C11.3108 2.33337 11.8332 2.85571 11.8332 3.50004V4.66671C11.8332 5.31104 11.3108 5.83337 10.6665 5.83337H10.6198L10.0832 12.25C10.0832 12.8944 9.56084 13.4167 8.9165 13.4167H3.08317C2.43884 13.4167 1.9165 12.8944 1.91852 12.2985L1.37976 5.83337H1.33317C0.688838 5.83337 0.166504 5.31104 0.166504 4.66671V3.50004C0.166504 2.85571 0.688838 2.33337 1.33317 2.33337H3.08317V1.75004C3.08317 1.10571 3.60551 0.583374 4.24984 0.583374ZM1.33317 3.50004L3.08317 3.50004H8.9165L10.6665 3.50004V4.66671H1.33317V3.50004ZM2.55029 5.83337H9.4492L8.91852 12.2016L8.9165 12.25H3.08317L2.55029 5.83337ZM7.74984 1.75004V2.33337H4.24984V1.75004H7.74984Z" fill="#359E98"/>
<path fill-rule="evenodd" clip-rule="evenodd" d="M4.24984 0.583374H7.74984C8.39417 0.583374 8.9165 1.10571 8.9165 1.75004V2.33337H10.6665C11.3108 2.33337 11.8332 2.85571 11.8332 3.50004V4.66671C11.8332 5.31104 11.3108 5.83337 10.6665 5.83337H10.6198L10.0832 12.25C10.0832 12.8944 9.56084 13.4167 8.9165 13.4167H3.08317C2.43884 13.4167 1.9165 12.8944 1.91852 12.2985L1.37976 5.83337H1.33317C0.688838 5.83337 0.166504 5.31104 0.166504 4.66671V3.50004C0.166504 2.85571 0.688838 2.33337 1.33317 2.33337H3.08317V1.75004C3.08317 1.10571 3.60551 0.583374 4.24984 0.583374ZM1.33317 3.50004L3.08317 3.50004H8.9165L10.6665 3.50004V4.66671H1.33317V3.50004ZM2.55029 5.83337H9.4492L8.91852 12.2016L8.9165 12.25H3.08317L2.55029 5.83337ZM7.74984 1.75004V2.33337H4.24984V1.75004H7.74984Z" fill="#43A0BD"/>
</svg>
