<svg width="37" height="31" viewBox="0 0 37 31" fill="none" xmlns="http://www.w3.org/2000/svg">
<path fill-rule="evenodd" clip-rule="evenodd" d="M33.125 4.125C34.9199 4.125 36.375 5.58007 36.375 7.375V26.875C36.375 28.6699 34.9199 30.125 33.125 30.125H3.875C2.08007 30.125 0.625 28.6699 0.625 26.875V4.125C0.625 2.33007 2.08007 0.875 3.875 0.875H13.625C15.445 0.875 16.6035 1.64761 17.7671 3.11564C17.7993 3.15627 17.8778 3.25743 17.9647 3.36944C18.0873 3.52746 18.2267 3.70708 18.2765 3.76883C18.3269 3.83129 18.3694 3.88294 18.4045 3.92563C18.5474 4.09946 18.5681 4.12465 18.5029 4.125H33.125ZM33.125 26.875V7.375L18.4913 7.37498C17.3243 7.36873 16.5641 6.82235 15.747 5.80938C15.673 5.71763 15.4932 5.48585 15.3626 5.31749L15.3624 5.31732C15.2941 5.22922 15.2392 5.15852 15.2201 5.13438C14.6114 4.36642 14.2494 4.125 13.625 4.125H3.875V26.875H33.125ZM13.625 18.75H24.3269L20.601 22.476L22.899 24.7741L30.5481 17.125L22.899 9.476L20.601 11.7741L24.3269 15.5H13.625V18.75Z" fill="#EA5C65"/>
</svg>
