<svg width="19" height="19" viewBox="0 0 19 19" fill="none" xmlns="http://www.w3.org/2000/svg">
<path fill-rule="evenodd" clip-rule="evenodd" d="M3.95833 0.791664H12.2029L16.625 5.21374V16.625C16.625 17.4994 15.9161 18.2083 15.0417 18.2083H3.95833C3.08388 18.2083 2.375 17.4994 2.375 16.625V2.375C2.375 1.50055 3.08388 0.791664 3.95833 0.791664ZM10.2918 2.37501H3.95819V16.625H15.0415V7.12498H11.8751C11.0007 7.12498 10.2918 6.4161 10.2918 5.54165V2.37501ZM11.8751 2.70321V5.54165H14.7136L11.8751 2.70321ZM6.33319 13.4583V11.875H11.0832V13.4583H6.33319ZM6.33319 8.70831V10.2916H12.6665V8.70831H6.33319Z" fill="#EDF4F6"/>
</svg>
