<svg width="19" height="17" viewBox="0 0 19 17" fill="none" xmlns="http://www.w3.org/2000/svg">
<path fill-rule="evenodd" clip-rule="evenodd" d="M4.27304 16.258C2.09763 14.6236 0.791016 12.0654 0.791016 9.2917C0.791016 4.48225 4.68987 0.583389 9.49935 0.583389C14.3088 0.583389 18.2077 4.48225 18.2077 9.2917C18.2077 12.0654 16.9011 14.6236 14.7257 16.258L14.5144 16.4167H4.48432L4.27304 16.258ZM13.9782 14.8334C15.6372 13.4915 16.6243 11.4743 16.6243 9.2917C16.6243 5.3567 13.4344 2.1667 9.49935 2.1667C5.56432 2.1667 2.37435 5.3567 2.37435 9.2917C2.37435 11.4743 3.36154 13.4915 5.02052 14.8334H13.9782ZM13.7104 4.99574L12.4133 4.08772L10.3288 7.06557C10.0706 6.96931 9.79111 6.9167 9.49935 6.9167C8.18767 6.9167 7.12435 7.98006 7.12435 9.2917C7.12435 10.6034 8.18767 11.6667 9.49935 11.6667C10.811 11.6667 11.8743 10.6034 11.8743 9.2917C11.8743 8.85201 11.7548 8.44014 11.5465 8.08699L13.7104 4.99574ZM10.291 9.29176C10.291 9.72896 9.93657 10.0834 9.49935 10.0834C9.06212 10.0834 8.70768 9.72896 8.70768 9.29176C8.70768 8.85451 9.06212 8.50008 9.49935 8.50008C9.93657 8.50008 10.291 8.85451 10.291 9.29176Z" fill="#EDF4F6"/>
</svg>
