<svg width="18" height="22" viewBox="0 0 18 22" fill="none" xmlns="http://www.w3.org/2000/svg">
<path d="M5.33328 15.5833V13.75H10.8333V15.5833H5.33328Z" fill="#359E98"/>
<path d="M5.33328 10.0833V11.9166H12.6666V10.0833H5.33328Z" fill="#359E98"/>
<path fill-rule="evenodd" clip-rule="evenodd" d="M2.58333 0.916656H12.1297L17.25 6.03696V19.25C17.25 20.2625 16.4292 21.0833 15.4167 21.0833H2.58333C1.57081 21.0833 0.75 20.2625 0.75 19.25V2.74999C0.75 1.73747 1.57081 0.916656 2.58333 0.916656ZM9.91672 2.75H2.58328V19.25H15.4166V8.24998H11.7501C10.7375 8.24998 9.91672 7.42917 9.91672 6.41665V2.75ZM11.7501 3.12979V6.41665H15.0369L11.7501 3.12979Z" fill="#359E98"/>
</svg>
