<svg width="106" height="86" viewBox="0 0 106 86" fill="none" xmlns="http://www.w3.org/2000/svg">
<path d="M38.75 52.5004H70.0325L59.1412 63.3916L65.8588 70.1092L88.2175 47.7504L65.8588 25.3916L59.1412 32.1092L70.0325 43.0004H38.75V52.5004Z" fill="#EDF6F6"/>
<path fill-rule="evenodd" clip-rule="evenodd" d="M95.75 9.75012C100.997 9.75012 105.25 14.0034 105.25 19.2501V76.2501C105.25 81.4968 100.997 85.7501 95.75 85.7501H10.25C5.00329 85.7501 0.75 81.4968 0.75 76.2501V9.75012C0.75 4.50342 5.00329 0.250122 10.25 0.250122H38.75C44.07 0.250122 47.4565 2.50852 50.8576 6.79967C50.9518 6.91845 51.1812 7.21413 51.4353 7.54155C51.7936 8.00327 52.2013 8.52861 52.3468 8.70901C52.494 8.89148 52.6181 9.04241 52.7206 9.16716C53.1384 9.67525 53.1991 9.74909 53.0085 9.75012H95.75ZM95.75 76.2501V19.2501L52.9746 19.2501C49.5633 19.2318 47.3413 17.6347 44.9527 14.6737C44.7365 14.4057 44.2114 13.7288 43.8297 13.2368L43.8287 13.2355L43.8276 13.2341C43.6283 12.9772 43.4684 12.7711 43.4126 12.7006C41.6334 10.4558 40.5752 9.75012 38.75 9.75012H10.25V76.2501H95.75Z" fill="#EDF6F6"/>
</svg>
