<svg width="22" height="23" viewBox="0 0 22 23" fill="none" xmlns="http://www.w3.org/2000/svg">
<path fill-rule="evenodd" clip-rule="evenodd" d="M11.25 22.467L11.8529 21.9405C16.923 17.5134 19.5 13.6479 19.5 10.25C19.5 5.43812 15.7444 2.00002 11.25 2.00002C6.75563 2.00002 3 5.43812 3 10.25C3 13.6479 5.57703 17.5134 10.6471 21.9405L11.25 22.467ZM11.25 20.0248C6.94773 16.1474 4.83333 12.8618 4.83333 10.25C4.83333 6.48857 7.73377 3.83335 11.25 3.83335C14.7662 3.83335 17.6667 6.48857 17.6667 10.25C17.6667 12.8618 15.5523 16.1474 11.25 20.0248ZM11.25 5.66668C13.7813 5.66668 15.8333 7.71871 15.8333 10.25C15.8333 12.7813 13.7813 14.8333 11.25 14.8333C8.71869 14.8333 6.66667 12.7813 6.66667 10.25C6.66667 7.71871 8.71869 5.66668 11.25 5.66668ZM8.5 10.25C8.5 8.73123 9.73122 7.50002 11.25 7.50002C12.7688 7.50002 14 8.73123 14 10.25C14 11.7688 12.7688 13 11.25 13C9.73122 13 8.5 11.7688 8.5 10.25Z" fill="#EDF4F6"/>
</svg>
