<svg width="24" height="24" viewBox="0 0 24 24" fill="none" xmlns="http://www.w3.org/2000/svg">
<mask id="mask0_7699_9937" style="mask-type:alpha" maskUnits="userSpaceOnUse" x="0" y="0" width="24" height="24">
<rect width="24" height="24" fill="#D9D9D9"/>
</mask>
<g mask="url(#mask0_7699_9937)">
<path d="M12 19C11.7796 19 11.5949 18.9255 11.4458 18.7764C11.2968 18.6273 11.2222 18.4426 11.2222 18.2222V12.7778H5.77778C5.55741 12.7778 5.37269 12.7032 5.22361 12.5542C5.07454 12.4051 5 12.2204 5 12C5 11.7796 5.07454 11.5949 5.22361 11.4458C5.37269 11.2968 5.55741 11.2222 5.77778 11.2222H11.2222V5.77778C11.2222 5.55741 11.2968 5.37269 11.4458 5.22361C11.5949 5.07454 11.7796 5 12 5C12.2204 5 12.4051 5.07454 12.5542 5.22361C12.7032 5.37269 12.7778 5.55741 12.7778 5.77778V11.2222H18.2222C18.4426 11.2222 18.6273 11.2968 18.7764 11.4458C18.9255 11.5949 19 11.7796 19 12C19 12.2204 18.9255 12.4051 18.7764 12.5542C18.6273 12.7032 18.4426 12.7778 18.2222 12.7778H12.7778V18.2222C12.7778 18.4426 12.7032 18.6273 12.5542 18.7764C12.4051 18.9255 12.2204 19 12 19Z" fill="#9C9C9C"/>
</g>
</svg>
