<svg width="24" height="24" viewBox="0 0 24 24" fill="none" xmlns="http://www.w3.org/2000/svg">
<mask id="mask0_9552_942" style="mask-type:alpha" maskUnits="userSpaceOnUse" x="0" y="0" width="24" height="24">
<rect width="24" height="24" fill="#D9D9D9"/>
</mask>
<g mask="url(#mask0_9552_942)">
<path d="M13.2925 12L9.04647 7.75372C8.9528 7.66022 8.9028 7.54547 8.89647 7.40947C8.88997 7.27364 8.93997 7.15256 9.04647 7.04622C9.1528 6.93972 9.27072 6.88647 9.40022 6.88647C9.52972 6.88647 9.64764 6.93972 9.75397 7.04622L14.1425 11.4345C14.2296 11.5218 14.2909 11.611 14.3262 11.702C14.3614 11.793 14.379 11.8923 14.379 12C14.379 12.1076 14.3614 12.207 14.3262 12.298C14.2909 12.389 14.2296 12.4781 14.1425 12.5655L9.75397 16.9537C9.66047 17.0474 9.54572 17.0974 9.40972 17.1037C9.27389 17.1102 9.1528 17.0602 9.04647 16.9537C8.93997 16.8474 8.88672 16.7295 8.88672 16.6C8.88672 16.4705 8.93997 16.3526 9.04647 16.2462L13.2925 12Z" fill="#43A0BD"/>
</g>
</svg>
