<svg width="385" height="153" viewBox="0 0 385 153" fill="none" xmlns="http://www.w3.org/2000/svg">
<path d="M133.168 31.7216C132.479 32.1812 132.292 33.1125 132.752 33.8018C133.211 34.4911 134.143 34.6773 134.832 34.2178L133.168 31.7216ZM144 33.9699L143.012 35.0988C143.567 35.5846 144.394 35.5946 144.96 35.1223L144 33.9699ZM153.439 34.5306C154.025 35.1164 154.975 35.1164 155.561 34.5306C156.146 33.9448 156.146 32.995 155.561 32.4092L153.439 34.5306ZM134.832 34.2178C137.067 32.728 138.152 32.4099 138.993 32.5197C139.912 32.6395 140.96 33.3028 143.012 35.0988L144.988 32.8411C143.04 31.1371 141.338 29.8002 139.382 29.5449C137.348 29.2796 135.433 30.2115 133.168 31.7216L134.832 34.2178ZM144.96 35.1223C147.589 32.9317 149.713 32.9207 151.114 33.2943C151.855 33.4921 152.456 33.8162 152.871 34.093C153.077 34.2303 153.232 34.3523 153.33 34.4345C153.379 34.4755 153.413 34.5062 153.431 34.5234C153.441 34.532 153.446 34.5371 153.447 34.5385C153.448 34.5391 153.448 34.5389 153.446 34.5376C153.446 34.5369 153.445 34.536 153.444 34.5348C153.443 34.5343 153.442 34.5336 153.442 34.5329C153.441 34.5325 153.441 34.532 153.441 34.5318C153.44 34.5312 153.439 34.5306 154.5 33.4699C155.561 32.4092 155.56 32.4086 155.559 32.4079C155.559 32.4077 155.558 32.407 155.558 32.4065C155.557 32.4055 155.556 32.4045 155.555 32.4033C155.552 32.4011 155.55 32.3986 155.547 32.3958C155.541 32.3902 155.534 32.3835 155.526 32.3758C155.51 32.3604 155.49 32.341 155.465 32.3178C155.415 32.2715 155.346 32.2104 155.26 32.1381C155.088 31.9938 154.845 31.8033 154.535 31.5968C153.919 31.1861 153.02 30.6977 151.886 30.3956C149.537 29.7692 146.411 30.0082 143.04 32.8176L144.96 35.1223Z" fill="#43A0BD"/>
<path d="M113.168 17.7216C112.479 18.1812 112.292 19.1125 112.752 19.8018C113.211 20.4911 114.143 20.6773 114.832 20.2178L113.168 17.7216ZM124 19.9699L123.012 21.0988C123.567 21.5846 124.394 21.5946 124.96 21.1223L124 19.9699ZM133.439 20.5306C134.025 21.1164 134.975 21.1164 135.561 20.5306C136.146 19.9448 136.146 18.995 135.561 18.4092L133.439 20.5306ZM114.832 20.2178C117.067 18.728 118.152 18.4099 118.993 18.5197C119.912 18.6395 120.96 19.3028 123.012 21.0988L124.988 18.8411C123.04 17.1371 121.338 15.8002 119.382 15.5449C117.348 15.2796 115.433 16.2115 113.168 17.7216L114.832 20.2178ZM124.96 21.1223C127.589 18.9317 129.713 18.9207 131.114 19.2943C131.855 19.4921 132.456 19.8162 132.871 20.093C133.077 20.2303 133.232 20.3523 133.33 20.4345C133.379 20.4755 133.413 20.5062 133.431 20.5234C133.441 20.532 133.446 20.5371 133.447 20.5385C133.448 20.5391 133.448 20.5389 133.446 20.5376C133.446 20.5369 133.445 20.536 133.444 20.5348C133.443 20.5343 133.442 20.5336 133.442 20.5329C133.441 20.5325 133.441 20.532 133.441 20.5318C133.44 20.5312 133.439 20.5306 134.5 19.4699C135.561 18.4092 135.56 18.4086 135.559 18.4079C135.559 18.4077 135.558 18.407 135.558 18.4065C135.557 18.4055 135.556 18.4045 135.555 18.4033C135.552 18.4011 135.55 18.3986 135.547 18.3958C135.541 18.3902 135.534 18.3835 135.526 18.3758C135.51 18.3604 135.49 18.341 135.465 18.3178C135.415 18.2715 135.346 18.2104 135.26 18.1381C135.088 17.9938 134.845 17.8033 134.535 17.5968C133.919 17.1861 133.02 16.6977 131.886 16.3956C129.537 15.7692 126.411 16.0082 123.04 18.8176L124.96 21.1223Z" fill="#43A0BD"/>
<path d="M89.9238 93.6122V66.7135M89.9238 56.5869V66.7135M89.9238 66.7135L95.9365 61.6502" stroke="#43A0BD" stroke-width="2"/>
<circle cx="90.557" cy="58.1693" r="13.557" stroke="#43A0BD" stroke-width="2"/>
<path d="M252.924 131V104.101M252.924 93.9746V104.101M252.924 104.101L258.936 99.0379" stroke="#43A0BD" stroke-width="2"/>
<circle cx="253.557" cy="95.557" r="13.557" stroke="#43A0BD" stroke-width="2"/>
<path d="M360.924 105V78.1012M360.924 67.9746V78.1012M360.924 78.1012L366.936 73.0379" stroke="#43A0BD" stroke-width="2"/>
<circle cx="361.557" cy="69.557" r="13.557" stroke="#43A0BD" stroke-width="2"/>
<path d="M188.391 148.087V122.217M188.391 112.478V122.217M188.391 122.217L194.173 117.348" stroke="#43A0BD" stroke-width="2"/>
<circle cx="189" cy="114" r="13" stroke="#43A0BD" stroke-width="2"/>
<path d="M13 73.612C39.3124 56.9192 60.5017 48.542 83 46.8659M98 46.71C110.828 47.3546 124.474 49.9109 140 54.112C182.5 65.612 186.5 83.112 235.5 83.112C239.806 83.112 243.796 83.0333 247.5 82.888M384 60.4999C375.934 58.8416 376.492 57.8432 367.959 57.4997M355.5 56.9997C332.337 57.6496 310.445 63.5101 293.5 73.612C287.436 76.6439 277.925 80.5375 258 82.2447" stroke="#43A0BD" stroke-width="2" stroke-linecap="round" stroke-linejoin="round"/>
<path d="M262 22H189.221C189.639 20.4627 187.727 16.1406 190.727 10.106C197.001 -2.51582 213.313 -1.54514 222.348 10.1061C225.782 14.5344 229.709 13.2616 231.634 12.5334C235.9 10.106 239.413 9.11303 246.189 10.1061C252.965 11.0992 260.411 17.7926 262 22Z" stroke="#43A0BD" stroke-width="2"/>
<path d="M35.383 123.04L36.264 126.624M35.383 123.04C36.4856 123.255 37.4928 124.11 38.1657 125.242M35.383 123.04C34.4937 123.724 34.0296 124.947 33.9949 126.267M37.5039 131.669L36.8676 129.08M37.5039 131.669C38.7097 130.604 39.1185 129.174 38.9963 127.783M37.5039 131.669C36.0431 131.262 35.0406 130.178 34.4917 128.89M36.8676 129.08L38.9963 127.783M36.8676 129.08L34.4917 128.89M36.8676 129.08L36.264 126.624M38.9963 127.783C38.9174 126.884 38.6165 126 38.1657 125.242M34.4917 128.89C34.1372 128.058 33.972 127.141 33.9949 126.267M36.264 126.624L38.1657 125.242M36.264 126.624L33.9949 126.267" stroke="#43A0BD" stroke-width="0.956941" stroke-linecap="round" stroke-linejoin="round"/>
<path d="M46.4485 130.948L42.7781 131.338M46.4485 130.948C46.0865 132.011 45.1041 132.894 43.8916 133.408M46.4485 130.948C45.8905 129.974 44.7416 129.35 43.4379 129.137M37.6123 131.886L40.2631 131.605M37.6123 131.886C38.5055 133.225 39.8669 133.822 41.2619 133.889M37.6123 131.886C38.2123 130.494 39.4218 129.646 40.7719 129.276M40.2631 131.605L41.2619 133.889M40.2631 131.605L40.7719 129.276M40.2631 131.605L42.7781 131.338M41.2619 133.889C42.1635 133.932 43.0792 133.753 43.8916 133.408M40.7719 129.276C41.6441 129.037 42.575 128.997 43.4379 129.137M42.7781 131.338L43.8916 133.408M42.7781 131.338L43.4379 129.137" stroke="#43A0BD" stroke-width="0.956941" stroke-linecap="round" stroke-linejoin="round"/>
<path d="M54.2916 123.976L50.6051 123.792M54.2916 123.976C53.7691 124.97 52.6618 125.69 51.3842 126.01M54.2916 123.976C53.8913 122.927 52.8531 122.132 51.5981 121.72M45.4168 123.533L48.0792 123.666M45.4168 123.533C46.0917 124.994 47.3439 125.795 48.7118 126.077M45.4168 123.533C46.2253 122.25 47.5516 121.601 48.9428 121.444M48.0792 123.666L48.7118 126.077M48.0792 123.666L48.9428 121.444M48.0792 123.666L50.6051 123.792M48.7118 126.077C49.5959 126.259 50.5283 126.224 51.3842 126.01M48.9428 121.444C49.8415 121.343 50.7673 121.448 51.5981 121.72M50.6051 123.792L51.3842 126.01M50.6051 123.792L51.5981 121.72" stroke="#43A0BD" stroke-width="0.956941" stroke-linecap="round" stroke-linejoin="round"/>
<path d="M60.1686 117.693L56.4821 117.509M60.1686 117.693C59.6461 118.688 58.5387 119.408 57.2612 119.728M60.1686 117.693C59.7682 116.645 58.7301 115.85 57.4751 115.438M51.2937 117.251L53.9562 117.383M51.2937 117.251C51.9686 118.711 53.2209 119.513 54.5887 119.795M51.2937 117.251C52.1023 115.968 53.4286 115.318 54.8197 115.162M53.9562 117.383L54.5887 119.795M53.9562 117.383L54.8197 115.162M53.9562 117.383L56.4821 117.509M54.5887 119.795C55.4728 119.977 56.4052 119.942 57.2612 119.728M54.8197 115.162C55.7185 115.061 56.6443 115.165 57.4751 115.438M56.4821 117.509L57.2612 119.728M56.4821 117.509L57.4751 115.438" stroke="#43A0BD" stroke-width="0.956941" stroke-linecap="round" stroke-linejoin="round"/>
<path d="M67.9685 112.247L64.3368 111.587M67.9685 112.247C67.3217 113.165 66.1306 113.736 64.8223 113.888M67.9685 112.247C67.7072 111.155 66.7807 110.233 65.5895 109.662M59.2255 110.659L61.8484 111.136M59.2255 110.659C59.7058 112.195 60.8438 113.152 62.1637 113.608M59.2255 110.659C60.1933 109.492 61.5925 109.02 62.9922 109.044M61.8484 111.136L62.1637 113.608M61.8484 111.136L62.9922 109.044M61.8484 111.136L64.3368 111.587M62.1637 113.608C63.0168 113.904 63.9458 113.99 64.8223 113.888M62.9922 109.044C63.8965 109.06 64.801 109.284 65.5895 109.662M64.3368 111.587L64.8223 113.888M64.3368 111.587L65.5895 109.662" stroke="#43A0BD" stroke-width="0.956941" stroke-linecap="round" stroke-linejoin="round"/>
<path d="M42.6447 113.915L43.5257 117.499M42.6447 113.915C43.7474 114.13 44.7545 114.985 45.4274 116.117M42.6447 113.915C41.7554 114.599 41.2913 115.822 41.2566 117.142M44.7656 122.544L44.1293 119.955M44.7656 122.544C45.9714 121.479 46.3802 120.049 46.258 118.658M44.7656 122.544C43.3049 122.137 42.3023 121.053 41.7535 119.765M44.1293 119.955L46.258 118.658M44.1293 119.955L41.7535 119.765M44.1293 119.955L43.5257 117.499M46.258 118.658C46.1791 117.759 45.8783 116.875 45.4274 116.117M41.7535 119.765C41.3989 118.933 41.2337 118.016 41.2566 117.142M43.5257 117.499L45.4274 116.117M43.5257 117.499L41.2566 117.142" stroke="#43A0BD" stroke-width="0.956941" stroke-linecap="round" stroke-linejoin="round"/>
<path d="M50.1921 107.644L50.507 111.321M50.1921 107.644C51.2481 108.027 52.1107 109.027 52.6 110.25M50.1921 107.644C49.2075 108.182 48.5596 109.317 48.3208 110.616M50.9502 116.497L50.7228 113.841M50.9502 116.497C52.3066 115.631 52.932 114.282 53.0269 112.889M50.9502 116.497C49.5702 115.869 48.7478 114.642 48.4051 113.285M50.7228 113.841L53.0269 112.889M50.7228 113.841L48.4051 113.285M50.7228 113.841L50.507 111.321M53.0269 112.889C53.0882 111.988 52.9279 111.069 52.6 110.25M48.4051 113.285C48.1838 112.408 48.1626 111.476 48.3208 110.616M50.507 111.321L52.6 110.25M50.507 111.321L48.3208 110.616" stroke="#43A0BD" stroke-width="0.956941" stroke-linecap="round" stroke-linejoin="round"/>
<path d="M59.0278 101.509L58.9194 105.199M59.0278 101.509C60.0328 102.011 60.7752 103.104 61.1213 104.374M59.0278 101.509C57.988 101.931 57.2143 102.985 56.8282 104.248M58.7668 110.391L58.8451 107.727M58.7668 110.391C60.2134 109.686 60.9892 108.418 61.243 107.045M58.7668 110.391C57.4678 109.609 56.7913 108.296 56.6064 106.909M58.8451 107.727L61.243 107.045M58.8451 107.727L56.6064 106.909M58.8451 107.727L58.9194 105.199M61.243 107.045C61.4071 106.157 61.3531 105.226 61.1213 104.374M56.6064 106.909C56.4869 106.012 56.5726 105.084 56.8282 104.248M58.9194 105.199L61.1213 104.374M58.9194 105.199L56.8282 104.248" stroke="#43A0BD" stroke-width="0.956941" stroke-linecap="round" stroke-linejoin="round"/>
<path d="M71.0508 97.3934L69.3748 100.682M71.0508 97.3934C71.7446 98.2771 71.9483 99.582 71.7176 100.879M71.0508 97.3934C69.9306 97.3298 68.7803 97.9517 67.8911 98.9284M67.0159 105.31L68.2264 102.935M67.0159 105.31C68.6248 105.292 69.8686 104.477 70.6855 103.345M67.0159 105.31C66.1763 104.048 66.1263 102.572 66.5526 101.238M68.2264 102.935L70.6855 103.345M68.2264 102.935L66.5526 101.238M68.2264 102.935L69.3748 100.682M70.6855 103.345C71.2134 102.612 71.5631 101.747 71.7176 100.879M66.5526 101.238C66.8281 100.377 67.3024 99.5749 67.8911 98.9284M69.3748 100.682L71.7176 100.879M69.3748 100.682L67.8911 98.9284" stroke="#43A0BD" stroke-width="0.956941" stroke-linecap="round" stroke-linejoin="round"/>
<path d="M78.1187 104.91L74.4323 105.097M78.1187 104.91C77.6986 105.952 76.6691 106.779 75.4301 107.226M78.1187 104.91C77.6152 103.907 76.5025 103.22 75.2124 102.936M69.2442 105.36L71.9065 105.225M69.2442 105.36C70.0623 106.745 71.3887 107.417 72.7779 107.561M69.2442 105.36C69.92 104.003 71.1744 103.223 72.5428 102.928M71.9065 105.225L72.7779 107.561M71.9065 105.225L72.5428 102.928M71.9065 105.225L74.4323 105.097M72.7779 107.561C73.6758 107.653 74.6 107.525 75.4301 107.226M72.5428 102.928C73.4269 102.737 74.3585 102.748 75.2124 102.936M74.4323 105.097L75.4301 107.226M74.4323 105.097L75.2124 102.936" stroke="#43A0BD" stroke-width="0.956941" stroke-linecap="round" stroke-linejoin="round"/>
<path d="M28.9983 147.019C33.4174 136.509 48.4257 113.077 73.1062 103.436" stroke="#43A0BD" stroke-linecap="round" stroke-linejoin="round"/>
<path d="M18.8004 124.422L21.738 126.657M18.8004 124.422C19.7934 123.897 21.1138 123.929 22.3487 124.386M18.8004 124.422C18.5384 125.513 18.9456 126.756 19.7483 127.805M25.8725 129.802L23.7508 128.188M25.8725 129.802C26.141 128.216 25.5608 126.847 24.5915 125.841M25.8725 129.802C24.4805 130.403 23.0193 130.19 21.783 129.533M23.7508 128.188L24.5915 125.841M23.7508 128.188L21.783 129.533M23.7508 128.188L21.738 126.657M24.5915 125.841C23.965 125.191 23.176 124.693 22.3487 124.386M21.783 129.533C20.9844 129.109 20.2797 128.499 19.7483 127.805M21.738 126.657L22.3487 124.386M21.738 126.657L19.7483 127.805" stroke="#43A0BD" stroke-width="0.956941" stroke-linecap="round" stroke-linejoin="round"/>
<path d="M32.3761 123.621L29.7658 126.231M32.3761 123.621C32.7628 124.676 32.5533 125.98 31.9332 127.142M32.3761 123.621C31.3303 123.214 30.0441 123.45 28.8966 124.105M26.0921 129.904L27.9773 128.019M26.0921 129.904C27.6279 130.384 29.0626 129.993 30.1895 129.168M26.0921 129.904C25.6838 128.443 26.0923 127.024 26.9099 125.888M27.9773 128.019L30.1895 129.168M27.9773 128.019L26.9099 125.888M27.9773 128.019L29.7658 126.231M30.1895 129.168C30.9179 128.635 31.5177 127.92 31.9332 127.142M26.9099 125.888C27.438 125.154 28.1369 124.537 28.8966 124.105M29.7658 126.231L31.9332 127.142M29.7658 126.231L28.8966 124.105" stroke="#43A0BD" stroke-width="0.956941" stroke-linecap="round" stroke-linejoin="round"/>
<path d="M34.0974 113.269L31.1142 115.442M34.0974 113.269C34.316 114.371 33.9069 115.627 33.1142 116.678M34.0974 113.269C33.1274 112.705 31.8201 112.739 30.5851 113.207M26.9156 118.501L29.0701 116.932M26.9156 118.501C28.3584 119.213 29.8363 119.05 31.0775 118.41M26.9156 118.501C26.7385 116.995 27.3621 115.657 28.346 114.661M29.0701 116.932L31.0775 118.41M29.0701 116.932L28.346 114.661M29.0701 116.932L31.1142 115.442M31.0775 118.41C31.8797 117.996 32.583 117.383 33.1142 116.678M28.346 114.661C28.9816 114.017 29.7675 113.517 30.5851 113.207M31.1142 115.442L33.1142 116.678M31.1142 115.442L30.5851 113.207" stroke="#43A0BD" stroke-width="0.956941" stroke-linecap="round" stroke-linejoin="round"/>
<path d="M34.7205 104.689L31.7372 106.863M34.7205 104.689C34.939 105.791 34.5299 107.047 33.7372 108.099M34.7205 104.689C33.7504 104.125 32.4432 104.159 31.2081 104.627M27.5386 109.922L29.6932 108.352M27.5386 109.922C28.9815 110.634 30.4593 110.47 31.7005 109.83M27.5386 109.922C27.3616 108.416 27.9852 107.077 28.969 106.081M29.6932 108.352L31.7005 109.83M29.6932 108.352L28.969 106.081M29.6932 108.352L31.7372 106.863M31.7005 109.83C32.5027 109.416 33.2061 108.803 33.7372 108.099M28.969 106.081C29.6046 105.438 30.3905 104.937 31.2081 104.627M31.7372 106.863L33.7372 108.099M31.7372 106.863L31.2081 104.627" stroke="#43A0BD" stroke-width="0.956941" stroke-linecap="round" stroke-linejoin="round"/>
<path d="M37.3664 95.5508L34.127 97.32M37.3664 95.5508C37.4405 96.6718 36.8724 97.8641 35.9502 98.8045M37.3664 95.5508C36.4774 94.8662 35.1768 94.7306 33.8915 95.0351M29.5678 99.81L31.9074 98.5323M29.5678 99.81C30.9064 100.703 32.393 100.732 33.7066 100.258M29.5678 99.81C29.5871 98.2939 30.3787 97.0471 31.4831 96.1869M31.9074 98.5323L33.7066 100.258M31.9074 98.5323L31.4831 96.1869M31.9074 98.5323L34.127 97.32M33.7066 100.258C34.5556 99.9514 35.3324 99.4345 35.9502 98.8045M31.4831 96.1869C32.1966 95.6311 33.0407 95.2367 33.8915 95.0351M34.127 97.32L35.9502 98.8045M34.127 97.32L33.8915 95.0351" stroke="#43A0BD" stroke-width="0.956941" stroke-linecap="round" stroke-linejoin="round"/>
<path d="M18.7164 112.76L21.654 114.995M18.7164 112.76C19.7094 112.235 21.0298 112.267 22.2647 112.725M18.7164 112.76C18.4544 113.851 18.8616 115.094 19.6643 116.143M25.7885 118.14L23.6669 116.526M25.7885 118.14C26.057 116.554 25.4768 115.185 24.5075 114.18M25.7885 118.14C24.3966 118.742 22.9353 118.528 21.6991 117.871M23.6669 116.526L24.5075 114.18M23.6669 116.526L21.6991 117.871M23.6669 116.526L21.654 114.995M24.5075 114.18C23.8811 113.53 23.0921 113.032 22.2647 112.725M21.6991 117.871C20.9004 117.447 20.1957 116.837 19.6643 116.143M21.654 114.995L22.2647 112.725M21.654 114.995L19.6643 116.143" stroke="#43A0BD" stroke-width="0.956941" stroke-linecap="round" stroke-linejoin="round"/>
<path d="M20.6442 103.14L23.2001 105.803M20.6442 103.14C21.7067 102.775 23.0062 103.011 24.1552 103.655M20.6442 103.14C20.2164 104.178 20.4261 105.468 21.0566 106.629M26.7973 109.551L24.9514 107.628M26.7973 109.551C27.3084 108.025 26.9473 106.583 26.1456 105.44M26.7973 109.551C25.329 109.93 23.9184 109.492 22.7989 108.652M24.9514 107.628L26.1456 105.44M24.9514 107.628L22.7989 108.652M24.9514 107.628L23.2001 105.803M26.1456 105.44C25.6274 104.701 24.9251 104.086 24.1552 103.655M22.7989 108.652C22.0757 108.109 21.474 107.397 21.0566 106.629M23.2001 105.803L24.1552 103.655M23.2001 105.803L21.0566 106.629" stroke="#43A0BD" stroke-width="0.956941" stroke-linecap="round" stroke-linejoin="round"/>
<path d="M23.6626 92.8163L25.8966 95.7545M23.6626 92.8163C24.7599 92.5753 26.0238 92.9586 27.0915 93.7297M23.6626 92.8163C23.1187 93.7977 23.1792 95.104 23.6726 96.3292M29.0408 99.8897L27.4274 97.7677M29.0408 99.8897C29.7234 98.4326 29.5298 96.9584 28.8643 95.7306M29.0408 99.8897C27.5388 100.097 26.1877 99.5014 25.1718 98.5381M27.4274 97.7677L28.8643 95.7306M27.4274 97.7677L25.1718 98.5381M27.4274 97.7677L25.8966 95.7545M28.8643 95.7306C28.4342 94.937 27.8069 94.2463 27.0915 93.7297M25.1718 98.5381C24.5156 97.9158 23.9993 97.1403 23.6726 96.3292M25.8966 95.7545L27.0915 93.7297M25.8966 95.7545L23.6726 96.3292" stroke="#43A0BD" stroke-width="0.956941" stroke-linecap="round" stroke-linejoin="round"/>
<path d="M30.4295 82.0593L31.1921 85.6707M30.4295 82.0593C31.5244 82.3108 32.5029 83.1979 33.1382 84.3516M30.4295 82.0593C29.5181 82.7138 29.0141 83.9204 28.936 85.239M32.2654 90.7535L31.7146 88.1452M32.2654 90.7535C33.5056 89.7283 33.9613 88.313 33.8849 86.9185M32.2654 90.7535C30.8189 90.2988 29.8525 89.1821 29.3463 87.8769M31.7146 88.1452L33.8849 86.9185M31.7146 88.1452L29.3463 87.8769M31.7146 88.1452L31.1921 85.6707M33.8849 86.9185C33.8355 86.0172 33.5639 85.1245 33.1382 84.3516M29.3463 87.8769C29.0193 87.0337 28.8843 86.1118 28.936 85.239M31.1921 85.6707L33.1382 84.3516M31.1921 85.6707L28.936 85.239" stroke="#43A0BD" stroke-width="0.956941" stroke-linecap="round" stroke-linejoin="round"/>
<path d="M40.6515 83.4648L37.9014 85.9267M40.6515 83.4648C40.9795 84.5393 40.6985 85.8298 40.0153 86.9558M40.6515 83.4648C39.6297 83.0011 38.3325 83.166 37.1506 83.7558M34.0309 89.3916L36.0171 87.6135M34.0309 89.3916C35.538 89.9554 36.992 89.6445 38.1627 88.883M34.0309 89.3916C33.7037 87.911 34.1898 86.5165 35.0687 85.4269M36.0171 87.6135L38.1627 88.883M36.0171 87.6135L35.0687 85.4269M36.0171 87.6135L37.9014 85.9267M38.1627 88.883C38.9193 88.3907 39.5576 87.7102 40.0153 86.9558M35.0687 85.4269C35.6365 84.7229 36.3683 84.1462 37.1506 83.7558M37.9014 85.9267L40.0153 86.9558M37.9014 85.9267L37.1506 83.7558" stroke="#43A0BD" stroke-width="0.956941" stroke-linecap="round" stroke-linejoin="round"/>
<path d="M28.9008 147.088C25.7339 136.135 22.6852 108.477 35.8261 85.4683" stroke="#43A0BD" stroke-linecap="round" stroke-linejoin="round"/>
</svg>
