<svg width="33" height="32" viewBox="0 0 33 32" fill="none" xmlns="http://www.w3.org/2000/svg">
<mask id="mask0_7699_7922" style="mask-type:alpha" maskUnits="userSpaceOnUse" x="0" y="0" width="33" height="32">
<rect x="0.5" width="32" height="32" fill="#D9D9D9"/>
</mask>
<g mask="url(#mask0_7699_7922)">
<path d="M14.6993 21.0003L21.1993 16.8337C21.5105 16.6337 21.666 16.3559 21.666 16.0003C21.666 15.6448 21.5105 15.367 21.1993 15.167L14.6993 11.0003C14.366 10.7781 14.0271 10.7614 13.6827 10.9503C13.3382 11.1392 13.166 11.4337 13.166 11.8337V20.167C13.166 20.567 13.3382 20.8614 13.6827 21.0503C14.0271 21.2392 14.366 21.2225 14.6993 21.0003ZM16.4993 29.3337C14.6549 29.3337 12.9216 28.9837 11.2993 28.2837C9.67713 27.5837 8.26602 26.6337 7.06602 25.4337C5.86602 24.2337 4.91602 22.8225 4.21602 21.2003C3.51602 19.5781 3.16602 17.8448 3.16602 16.0003C3.16602 14.1559 3.51602 12.4225 4.21602 10.8003C4.91602 9.1781 5.86602 7.76699 7.06602 6.56699C8.26602 5.36699 9.67713 4.41699 11.2993 3.71699C12.9216 3.01699 14.6549 2.66699 16.4993 2.66699C18.3438 2.66699 20.0771 3.01699 21.6993 3.71699C23.3216 4.41699 24.7327 5.36699 25.9327 6.56699C27.1327 7.76699 28.0827 9.1781 28.7827 10.8003C29.4827 12.4225 29.8327 14.1559 29.8327 16.0003C29.8327 17.8448 29.4827 19.5781 28.7827 21.2003C28.0827 22.8225 27.1327 24.2337 25.9327 25.4337C24.7327 26.6337 23.3216 27.5837 21.6993 28.2837C20.0771 28.9837 18.3438 29.3337 16.4993 29.3337Z" fill="white"/>
</g>
</svg>
