<svg width="128" height="73" viewBox="0 0 128 73" fill="none" xmlns="http://www.w3.org/2000/svg">
<path d="M19.8 16.6087H29.7C30.5752 16.6087 31.4146 16.2587 32.0335 15.6358C32.6523 15.0128 33 14.1679 33 13.2869C33 12.406 32.6523 11.5611 32.0335 10.9381C31.4146 10.3152 30.5752 9.9652 29.7 9.9652H19.8C18.9248 9.9652 18.0854 10.3152 17.4665 10.9381C16.8477 11.5611 16.5 12.406 16.5 13.2869C16.5 14.1679 16.8477 15.0128 17.4665 15.6358C18.0854 16.2587 18.9248 16.6087 19.8 16.6087ZM46.2 16.6087C46.8527 16.6087 47.4907 16.4139 48.0334 16.0489C48.5761 15.6839 48.999 15.1651 49.2488 14.5581C49.4986 13.9511 49.5639 13.2832 49.4366 12.6389C49.3093 11.9945 48.995 11.4027 48.5335 10.9381C48.0719 10.4736 47.4839 10.1572 46.8438 10.029C46.2037 9.90086 45.5401 9.96664 44.9371 10.2181C44.3341 10.4695 43.8188 10.8952 43.4562 11.4415C43.0935 11.9877 42.9 12.63 42.9 13.2869C42.9 14.1679 43.2477 15.0128 43.8665 15.6358C44.4854 16.2587 45.3248 16.6087 46.2 16.6087ZM46.2 29.8956C45.5473 29.8956 44.9093 30.0904 44.3666 30.4554C43.8239 30.8204 43.401 31.3392 43.1512 31.9462C42.9014 32.5531 42.8361 33.221 42.9634 33.8654C43.0907 34.5097 43.405 35.1016 43.8665 35.5662C44.3281 36.0307 44.9161 36.3471 45.5562 36.4752C46.1963 36.6034 46.8599 36.5376 47.4629 36.2862C48.0658 36.0348 48.5812 35.609 48.9439 35.0628C49.3065 34.5165 49.5 33.8743 49.5 33.2173C49.5 32.3364 49.1523 31.4915 48.5335 30.8685C47.9146 30.2456 47.0752 29.8956 46.2 29.8956ZM62.7 59.7912H42.306C41.8132 58.3981 41.0187 57.1328 39.9798 56.0871C38.941 55.0415 37.684 54.2416 36.3 53.7456V46.5043H49.5C52.1256 46.5043 54.6437 45.4544 56.5004 43.5855C58.357 41.7167 59.4 39.182 59.4 36.5391V29.8956C59.3854 27.4373 58.4687 25.0712 56.826 23.2521C58.4687 21.433 59.3854 19.0669 59.4 16.6087V9.9652C59.4 7.32227 58.357 4.78758 56.5004 2.91874C54.6437 1.0499 52.1256 0 49.5 0H16.5C13.8744 0 11.3563 1.0499 9.49964 2.91874C7.64303 4.78758 6.6 7.32227 6.6 9.9652V16.6087C6.61455 19.0669 7.5313 21.433 9.174 23.2521C7.5313 25.0712 6.61455 27.4373 6.6 29.8956V36.5391C6.6 39.182 7.64303 41.7167 9.49964 43.5855C11.3563 45.4544 13.8744 46.5043 16.5 46.5043H29.7V53.7456C28.316 54.2416 27.059 55.0415 26.0202 56.0871C24.9813 57.1328 24.1868 58.3981 23.694 59.7912H3.3C2.42479 59.7912 1.58542 60.1412 0.966547 60.7641C0.347677 61.3871 0 62.232 0 63.1129C0 63.9939 0.347677 64.8388 0.966547 65.4618C1.58542 66.0847 2.42479 66.4347 3.3 66.4347H23.694C24.3877 68.3585 25.653 70.0206 27.3179 71.1952C28.9829 72.3699 30.9668 73 33 73C35.0332 73 37.0171 72.3699 38.6821 71.1952C40.347 70.0206 41.6123 68.3585 42.306 66.4347H62.7C63.5752 66.4347 64.4146 66.0847 65.0335 65.4618C65.6523 64.8388 66 63.9939 66 63.1129C66 62.232 65.6523 61.3871 65.0335 60.7641C64.4146 60.1412 63.5752 59.7912 62.7 59.7912ZM13.2 9.9652C13.2 9.08422 13.5477 8.23933 14.1665 7.61638C14.7854 6.99343 15.6248 6.64347 16.5 6.64347H49.5C50.3752 6.64347 51.2146 6.99343 51.8335 7.61638C52.4523 8.23933 52.8 9.08422 52.8 9.9652V16.6087C52.8 17.4896 52.4523 18.3345 51.8335 18.9575C51.2146 19.5804 50.3752 19.9304 49.5 19.9304H16.5C15.6248 19.9304 14.7854 19.5804 14.1665 18.9575C13.5477 18.3345 13.2 17.4896 13.2 16.6087V9.9652ZM16.5 39.8608C15.6248 39.8608 14.7854 39.5108 14.1665 38.8879C13.5477 38.2649 13.2 37.42 13.2 36.5391V29.8956C13.2 29.0146 13.5477 28.1697 14.1665 27.5468C14.7854 26.9238 15.6248 26.5739 16.5 26.5739H49.5C50.3752 26.5739 51.2146 26.9238 51.8335 27.5468C52.4523 28.1697 52.8 29.0146 52.8 29.8956V36.5391C52.8 37.42 52.4523 38.2649 51.8335 38.8879C51.2146 39.5108 50.3752 39.8608 49.5 39.8608H16.5ZM33 66.4347C32.3473 66.4347 31.7093 66.2399 31.1666 65.8749C30.6239 65.5099 30.201 64.9911 29.9512 64.3841C29.7014 63.7771 29.6361 63.1092 29.7634 62.4649C29.8907 61.8205 30.205 61.2287 30.6665 60.7641C31.1281 60.2996 31.7161 59.9832 32.3562 59.855C32.9963 59.7269 33.6599 59.7926 34.2629 60.0441C34.8659 60.2955 35.3812 60.7212 35.7439 61.2675C36.1065 61.8137 36.3 62.456 36.3 63.1129C36.3 63.9939 35.9523 64.8388 35.3335 65.4618C34.7146 66.0847 33.8752 66.4347 33 66.4347ZM29.7 29.8956H19.8C18.9248 29.8956 18.0854 30.2456 17.4665 30.8685C16.8477 31.4915 16.5 32.3364 16.5 33.2173C16.5 34.0983 16.8477 34.9432 17.4665 35.5662C18.0854 36.1891 18.9248 36.5391 19.8 36.5391H29.7C30.5752 36.5391 31.4146 36.1891 32.0335 35.5662C32.6523 34.9432 33 34.0983 33 33.2173C33 32.3364 32.6523 31.4915 32.0335 30.8685C31.4146 30.2456 30.5752 29.8956 29.7 29.8956Z" fill="#359E98"/>
<path d="M19.8 16.6087H29.7C30.5752 16.6087 31.4146 16.2587 32.0335 15.6358C32.6523 15.0128 33 14.1679 33 13.2869C33 12.406 32.6523 11.5611 32.0335 10.9381C31.4146 10.3152 30.5752 9.9652 29.7 9.9652H19.8C18.9248 9.9652 18.0854 10.3152 17.4665 10.9381C16.8477 11.5611 16.5 12.406 16.5 13.2869C16.5 14.1679 16.8477 15.0128 17.4665 15.6358C18.0854 16.2587 18.9248 16.6087 19.8 16.6087ZM46.2 16.6087C46.8527 16.6087 47.4907 16.4139 48.0334 16.0489C48.5761 15.6839 48.999 15.1651 49.2488 14.5581C49.4986 13.9511 49.5639 13.2832 49.4366 12.6389C49.3093 11.9945 48.995 11.4027 48.5335 10.9381C48.0719 10.4736 47.4839 10.1572 46.8438 10.029C46.2037 9.90086 45.5401 9.96664 44.9371 10.2181C44.3341 10.4695 43.8188 10.8952 43.4562 11.4415C43.0935 11.9877 42.9 12.63 42.9 13.2869C42.9 14.1679 43.2477 15.0128 43.8665 15.6358C44.4854 16.2587 45.3248 16.6087 46.2 16.6087ZM46.2 29.8956C45.5473 29.8956 44.9093 30.0904 44.3666 30.4554C43.8239 30.8204 43.401 31.3392 43.1512 31.9462C42.9014 32.5531 42.8361 33.221 42.9634 33.8654C43.0907 34.5097 43.405 35.1016 43.8665 35.5662C44.3281 36.0307 44.9161 36.3471 45.5562 36.4752C46.1963 36.6034 46.8599 36.5376 47.4629 36.2862C48.0658 36.0348 48.5812 35.609 48.9439 35.0628C49.3065 34.5165 49.5 33.8743 49.5 33.2173C49.5 32.3364 49.1523 31.4915 48.5335 30.8685C47.9146 30.2456 47.0752 29.8956 46.2 29.8956ZM62.7 59.7912H42.306C41.8132 58.3981 41.0187 57.1328 39.9798 56.0871C38.941 55.0415 37.684 54.2416 36.3 53.7456V46.5043H49.5C52.1256 46.5043 54.6437 45.4544 56.5004 43.5855C58.357 41.7167 59.4 39.182 59.4 36.5391V29.8956C59.3854 27.4373 58.4687 25.0712 56.826 23.2521C58.4687 21.433 59.3854 19.0669 59.4 16.6087V9.9652C59.4 7.32227 58.357 4.78758 56.5004 2.91874C54.6437 1.0499 52.1256 0 49.5 0H16.5C13.8744 0 11.3563 1.0499 9.49964 2.91874C7.64303 4.78758 6.6 7.32227 6.6 9.9652V16.6087C6.61455 19.0669 7.5313 21.433 9.174 23.2521C7.5313 25.0712 6.61455 27.4373 6.6 29.8956V36.5391C6.6 39.182 7.64303 41.7167 9.49964 43.5855C11.3563 45.4544 13.8744 46.5043 16.5 46.5043H29.7V53.7456C28.316 54.2416 27.059 55.0415 26.0202 56.0871C24.9813 57.1328 24.1868 58.3981 23.694 59.7912H3.3C2.42479 59.7912 1.58542 60.1412 0.966547 60.7641C0.347677 61.3871 0 62.232 0 63.1129C0 63.9939 0.347677 64.8388 0.966547 65.4618C1.58542 66.0847 2.42479 66.4347 3.3 66.4347H23.694C24.3877 68.3585 25.653 70.0206 27.3179 71.1952C28.9829 72.3699 30.9668 73 33 73C35.0332 73 37.0171 72.3699 38.6821 71.1952C40.347 70.0206 41.6123 68.3585 42.306 66.4347H62.7C63.5752 66.4347 64.4146 66.0847 65.0335 65.4618C65.6523 64.8388 66 63.9939 66 63.1129C66 62.232 65.6523 61.3871 65.0335 60.7641C64.4146 60.1412 63.5752 59.7912 62.7 59.7912ZM13.2 9.9652C13.2 9.08422 13.5477 8.23933 14.1665 7.61638C14.7854 6.99343 15.6248 6.64347 16.5 6.64347H49.5C50.3752 6.64347 51.2146 6.99343 51.8335 7.61638C52.4523 8.23933 52.8 9.08422 52.8 9.9652V16.6087C52.8 17.4896 52.4523 18.3345 51.8335 18.9575C51.2146 19.5804 50.3752 19.9304 49.5 19.9304H16.5C15.6248 19.9304 14.7854 19.5804 14.1665 18.9575C13.5477 18.3345 13.2 17.4896 13.2 16.6087V9.9652ZM16.5 39.8608C15.6248 39.8608 14.7854 39.5108 14.1665 38.8879C13.5477 38.2649 13.2 37.42 13.2 36.5391V29.8956C13.2 29.0146 13.5477 28.1697 14.1665 27.5468C14.7854 26.9238 15.6248 26.5739 16.5 26.5739H49.5C50.3752 26.5739 51.2146 26.9238 51.8335 27.5468C52.4523 28.1697 52.8 29.0146 52.8 29.8956V36.5391C52.8 37.42 52.4523 38.2649 51.8335 38.8879C51.2146 39.5108 50.3752 39.8608 49.5 39.8608H16.5ZM33 66.4347C32.3473 66.4347 31.7093 66.2399 31.1666 65.8749C30.6239 65.5099 30.201 64.9911 29.9512 64.3841C29.7014 63.7771 29.6361 63.1092 29.7634 62.4649C29.8907 61.8205 30.205 61.2287 30.6665 60.7641C31.1281 60.2996 31.7161 59.9832 32.3562 59.855C32.9963 59.7269 33.6599 59.7926 34.2629 60.0441C34.8659 60.2955 35.3812 60.7212 35.7439 61.2675C36.1065 61.8137 36.3 62.456 36.3 63.1129C36.3 63.9939 35.9523 64.8388 35.3335 65.4618C34.7146 66.0847 33.8752 66.4347 33 66.4347ZM29.7 29.8956H19.8C18.9248 29.8956 18.0854 30.2456 17.4665 30.8685C16.8477 31.4915 16.5 32.3364 16.5 33.2173C16.5 34.0983 16.8477 34.9432 17.4665 35.5662C18.0854 36.1891 18.9248 36.5391 19.8 36.5391H29.7C30.5752 36.5391 31.4146 36.1891 32.0335 35.5662C32.6523 34.9432 33 34.0983 33 33.2173C33 32.3364 32.6523 31.4915 32.0335 30.8685C31.4146 30.2456 30.5752 29.8956 29.7 29.8956Z" fill="#43A0BD"/>
<path d="M81.8 16.6087H91.7C92.5752 16.6087 93.4146 16.2587 94.0335 15.6358C94.6523 15.0128 95 14.1679 95 13.2869C95 12.406 94.6523 11.5611 94.0335 10.9381C93.4146 10.3152 92.5752 9.9652 91.7 9.9652H81.8C80.9248 9.9652 80.0854 10.3152 79.4665 10.9381C78.8477 11.5611 78.5 12.406 78.5 13.2869C78.5 14.1679 78.8477 15.0128 79.4665 15.6358C80.0854 16.2587 80.9248 16.6087 81.8 16.6087ZM108.2 16.6087C108.853 16.6087 109.491 16.4139 110.033 16.0489C110.576 15.6839 110.999 15.1651 111.249 14.5581C111.499 13.9511 111.564 13.2832 111.437 12.6389C111.309 11.9945 110.995 11.4027 110.533 10.9381C110.072 10.4736 109.484 10.1572 108.844 10.029C108.204 9.90086 107.54 9.96664 106.937 10.2181C106.334 10.4695 105.819 10.8952 105.456 11.4415C105.094 11.9877 104.9 12.63 104.9 13.2869C104.9 14.1679 105.248 15.0128 105.867 15.6358C106.485 16.2587 107.325 16.6087 108.2 16.6087ZM108.2 29.8956C107.547 29.8956 106.909 30.0904 106.367 30.4554C105.824 30.8204 105.401 31.3392 105.151 31.9462C104.901 32.5531 104.836 33.221 104.963 33.8654C105.091 34.5097 105.405 35.1016 105.867 35.5662C106.328 36.0307 106.916 36.3471 107.556 36.4752C108.196 36.6034 108.86 36.5376 109.463 36.2862C110.066 36.0348 110.581 35.609 110.944 35.0628C111.306 34.5165 111.5 33.8743 111.5 33.2173C111.5 32.3364 111.152 31.4915 110.533 30.8685C109.915 30.2456 109.075 29.8956 108.2 29.8956ZM124.7 59.7912H104.306C103.813 58.3981 103.019 57.1328 101.98 56.0871C100.941 55.0415 99.684 54.2416 98.3 53.7456V46.5043H111.5C114.126 46.5043 116.644 45.4544 118.5 43.5855C120.357 41.7167 121.4 39.182 121.4 36.5391V29.8956C121.385 27.4373 120.469 25.0712 118.826 23.2521C120.469 21.433 121.385 19.0669 121.4 16.6087V9.9652C121.4 7.32227 120.357 4.78758 118.5 2.91874C116.644 1.0499 114.126 0 111.5 0H78.5C75.8744 0 73.3563 1.0499 71.4996 2.91874C69.643 4.78758 68.6 7.32227 68.6 9.9652V16.6087C68.6146 19.0669 69.5313 21.433 71.174 23.2521C69.5313 25.0712 68.6146 27.4373 68.6 29.8956V36.5391C68.6 39.182 69.643 41.7167 71.4996 43.5855C73.3563 45.4544 75.8744 46.5043 78.5 46.5043H91.7V53.7456C90.316 54.2416 89.059 55.0415 88.0202 56.0871C86.9813 57.1328 86.1868 58.3981 85.694 59.7912H65.3C64.4248 59.7912 63.5854 60.1412 62.9665 60.7641C62.3477 61.3871 62 62.232 62 63.1129C62 63.9939 62.3477 64.8388 62.9665 65.4618C63.5854 66.0847 64.4248 66.4347 65.3 66.4347H85.694C86.3877 68.3585 87.653 70.0206 89.3179 71.1952C90.9829 72.3699 92.9668 73 95 73C97.0332 73 99.0171 72.3699 100.682 71.1952C102.347 70.0206 103.612 68.3585 104.306 66.4347H124.7C125.575 66.4347 126.415 66.0847 127.033 65.4618C127.652 64.8388 128 63.9939 128 63.1129C128 62.232 127.652 61.3871 127.033 60.7641C126.415 60.1412 125.575 59.7912 124.7 59.7912ZM75.2 9.9652C75.2 9.08422 75.5477 8.23933 76.1665 7.61638C76.7854 6.99343 77.6248 6.64347 78.5 6.64347H111.5C112.375 6.64347 113.215 6.99343 113.833 7.61638C114.452 8.23933 114.8 9.08422 114.8 9.9652V16.6087C114.8 17.4896 114.452 18.3345 113.833 18.9575C113.215 19.5804 112.375 19.9304 111.5 19.9304H78.5C77.6248 19.9304 76.7854 19.5804 76.1665 18.9575C75.5477 18.3345 75.2 17.4896 75.2 16.6087V9.9652ZM78.5 39.8608C77.6248 39.8608 76.7854 39.5108 76.1665 38.8879C75.5477 38.2649 75.2 37.42 75.2 36.5391V29.8956C75.2 29.0146 75.5477 28.1697 76.1665 27.5468C76.7854 26.9238 77.6248 26.5739 78.5 26.5739H111.5C112.375 26.5739 113.215 26.9238 113.833 27.5468C114.452 28.1697 114.8 29.0146 114.8 29.8956V36.5391C114.8 37.42 114.452 38.2649 113.833 38.8879C113.215 39.5108 112.375 39.8608 111.5 39.8608H78.5ZM95 66.4347C94.3473 66.4347 93.7093 66.2399 93.1666 65.8749C92.6239 65.5099 92.201 64.9911 91.9512 64.3841C91.7014 63.7771 91.6361 63.1092 91.7634 62.4649C91.8907 61.8205 92.205 61.2287 92.6665 60.7641C93.1281 60.2996 93.7161 59.9832 94.3562 59.855C94.9963 59.7269 95.6599 59.7926 96.2629 60.0441C96.8659 60.2955 97.3812 60.7212 97.7439 61.2675C98.1065 61.8137 98.3 62.456 98.3 63.1129C98.3 63.9939 97.9523 64.8388 97.3335 65.4618C96.7146 66.0847 95.8752 66.4347 95 66.4347ZM91.7 29.8956H81.8C80.9248 29.8956 80.0854 30.2456 79.4665 30.8685C78.8477 31.4915 78.5 32.3364 78.5 33.2173C78.5 34.0983 78.8477 34.9432 79.4665 35.5662C80.0854 36.1891 80.9248 36.5391 81.8 36.5391H91.7C92.5752 36.5391 93.4146 36.1891 94.0335 35.5662C94.6523 34.9432 95 34.0983 95 33.2173C95 32.3364 94.6523 31.4915 94.0335 30.8685C93.4146 30.2456 92.5752 29.8956 91.7 29.8956Z" fill="#359E98"/>
<path d="M81.8 16.6087H91.7C92.5752 16.6087 93.4146 16.2587 94.0335 15.6358C94.6523 15.0128 95 14.1679 95 13.2869C95 12.406 94.6523 11.5611 94.0335 10.9381C93.4146 10.3152 92.5752 9.9652 91.7 9.9652H81.8C80.9248 9.9652 80.0854 10.3152 79.4665 10.9381C78.8477 11.5611 78.5 12.406 78.5 13.2869C78.5 14.1679 78.8477 15.0128 79.4665 15.6358C80.0854 16.2587 80.9248 16.6087 81.8 16.6087ZM108.2 16.6087C108.853 16.6087 109.491 16.4139 110.033 16.0489C110.576 15.6839 110.999 15.1651 111.249 14.5581C111.499 13.9511 111.564 13.2832 111.437 12.6389C111.309 11.9945 110.995 11.4027 110.533 10.9381C110.072 10.4736 109.484 10.1572 108.844 10.029C108.204 9.90086 107.54 9.96664 106.937 10.2181C106.334 10.4695 105.819 10.8952 105.456 11.4415C105.094 11.9877 104.9 12.63 104.9 13.2869C104.9 14.1679 105.248 15.0128 105.867 15.6358C106.485 16.2587 107.325 16.6087 108.2 16.6087ZM108.2 29.8956C107.547 29.8956 106.909 30.0904 106.367 30.4554C105.824 30.8204 105.401 31.3392 105.151 31.9462C104.901 32.5531 104.836 33.221 104.963 33.8654C105.091 34.5097 105.405 35.1016 105.867 35.5662C106.328 36.0307 106.916 36.3471 107.556 36.4752C108.196 36.6034 108.86 36.5376 109.463 36.2862C110.066 36.0348 110.581 35.609 110.944 35.0628C111.306 34.5165 111.5 33.8743 111.5 33.2173C111.5 32.3364 111.152 31.4915 110.533 30.8685C109.915 30.2456 109.075 29.8956 108.2 29.8956ZM124.7 59.7912H104.306C103.813 58.3981 103.019 57.1328 101.98 56.0871C100.941 55.0415 99.684 54.2416 98.3 53.7456V46.5043H111.5C114.126 46.5043 116.644 45.4544 118.5 43.5855C120.357 41.7167 121.4 39.182 121.4 36.5391V29.8956C121.385 27.4373 120.469 25.0712 118.826 23.2521C120.469 21.433 121.385 19.0669 121.4 16.6087V9.9652C121.4 7.32227 120.357 4.78758 118.5 2.91874C116.644 1.0499 114.126 0 111.5 0H78.5C75.8744 0 73.3563 1.0499 71.4996 2.91874C69.643 4.78758 68.6 7.32227 68.6 9.9652V16.6087C68.6146 19.0669 69.5313 21.433 71.174 23.2521C69.5313 25.0712 68.6146 27.4373 68.6 29.8956V36.5391C68.6 39.182 69.643 41.7167 71.4996 43.5855C73.3563 45.4544 75.8744 46.5043 78.5 46.5043H91.7V53.7456C90.316 54.2416 89.059 55.0415 88.0202 56.0871C86.9813 57.1328 86.1868 58.3981 85.694 59.7912H65.3C64.4248 59.7912 63.5854 60.1412 62.9665 60.7641C62.3477 61.3871 62 62.232 62 63.1129C62 63.9939 62.3477 64.8388 62.9665 65.4618C63.5854 66.0847 64.4248 66.4347 65.3 66.4347H85.694C86.3877 68.3585 87.653 70.0206 89.3179 71.1952C90.9829 72.3699 92.9668 73 95 73C97.0332 73 99.0171 72.3699 100.682 71.1952C102.347 70.0206 103.612 68.3585 104.306 66.4347H124.7C125.575 66.4347 126.415 66.0847 127.033 65.4618C127.652 64.8388 128 63.9939 128 63.1129C128 62.232 127.652 61.3871 127.033 60.7641C126.415 60.1412 125.575 59.7912 124.7 59.7912ZM75.2 9.9652C75.2 9.08422 75.5477 8.23933 76.1665 7.61638C76.7854 6.99343 77.6248 6.64347 78.5 6.64347H111.5C112.375 6.64347 113.215 6.99343 113.833 7.61638C114.452 8.23933 114.8 9.08422 114.8 9.9652V16.6087C114.8 17.4896 114.452 18.3345 113.833 18.9575C113.215 19.5804 112.375 19.9304 111.5 19.9304H78.5C77.6248 19.9304 76.7854 19.5804 76.1665 18.9575C75.5477 18.3345 75.2 17.4896 75.2 16.6087V9.9652ZM78.5 39.8608C77.6248 39.8608 76.7854 39.5108 76.1665 38.8879C75.5477 38.2649 75.2 37.42 75.2 36.5391V29.8956C75.2 29.0146 75.5477 28.1697 76.1665 27.5468C76.7854 26.9238 77.6248 26.5739 78.5 26.5739H111.5C112.375 26.5739 113.215 26.9238 113.833 27.5468C114.452 28.1697 114.8 29.0146 114.8 29.8956V36.5391C114.8 37.42 114.452 38.2649 113.833 38.8879C113.215 39.5108 112.375 39.8608 111.5 39.8608H78.5ZM95 66.4347C94.3473 66.4347 93.7093 66.2399 93.1666 65.8749C92.6239 65.5099 92.201 64.9911 91.9512 64.3841C91.7014 63.7771 91.6361 63.1092 91.7634 62.4649C91.8907 61.8205 92.205 61.2287 92.6665 60.7641C93.1281 60.2996 93.7161 59.9832 94.3562 59.855C94.9963 59.7269 95.6599 59.7926 96.2629 60.0441C96.8659 60.2955 97.3812 60.7212 97.7439 61.2675C98.1065 61.8137 98.3 62.456 98.3 63.1129C98.3 63.9939 97.9523 64.8388 97.3335 65.4618C96.7146 66.0847 95.8752 66.4347 95 66.4347ZM91.7 29.8956H81.8C80.9248 29.8956 80.0854 30.2456 79.4665 30.8685C78.8477 31.4915 78.5 32.3364 78.5 33.2173C78.5 34.0983 78.8477 34.9432 79.4665 35.5662C80.0854 36.1891 80.9248 36.5391 81.8 36.5391H91.7C92.5752 36.5391 93.4146 36.1891 94.0335 35.5662C94.6523 34.9432 95 34.0983 95 33.2173C95 32.3364 94.6523 31.4915 94.0335 30.8685C93.4146 30.2456 92.5752 29.8956 91.7 29.8956Z" fill="#43A0BD"/>
</svg>
