<svg width="20" height="20" viewBox="0 0 20 20" fill="none" xmlns="http://www.w3.org/2000/svg">
<mask id="mask0_7699_9400" style="mask-type:alpha" maskUnits="userSpaceOnUse" x="0" y="0" width="20" height="20">
<rect width="20" height="20" fill="#D9D9D9"/>
</mask>
<g mask="url(#mask0_7699_9400)">
<path d="M10 18.2255C8.89333 18.2255 7.85333 18.0155 6.88 17.5955C5.90667 17.1755 5.06 16.6055 4.34 15.8855C3.62 15.1655 3.05 14.3188 2.63 13.3455C2.21 12.3721 2 11.3321 2 10.2255C2 9.1188 2.21 8.0788 2.63 7.10546C3.05 6.13213 3.62 5.28546 4.34 4.56546C5.06 3.84546 5.90667 3.27546 6.88 2.85546C7.85333 2.43546 8.89333 2.22546 10 2.22546C11.1067 2.22546 12.1467 2.43546 13.12 2.85546C14.0933 3.27546 14.94 3.84546 15.66 4.56546C16.38 5.28546 16.95 6.13213 17.37 7.10546C17.79 8.0788 18 9.1188 18 10.2255C18 11.3321 17.79 12.3721 17.37 13.3455C16.95 14.3188 16.38 15.1655 15.66 15.8855C14.94 16.6055 14.0933 17.1755 13.12 17.5955C12.1467 18.0155 11.1067 18.2255 10 18.2255ZM10 16.6255C11.7867 16.6255 13.3 16.0055 14.54 14.7655C15.78 13.5255 16.4 12.0121 16.4 10.2255C16.4 8.4388 15.78 6.92546 14.54 5.68546C13.3 4.44546 11.7867 3.82546 10 3.82546C8.21333 3.82546 6.7 4.44546 5.46 5.68546C4.22 6.92546 3.6 8.4388 3.6 10.2255C3.6 12.0121 4.22 13.5255 5.46 14.7655C6.7 16.0055 8.21333 16.6255 10 16.6255Z" fill="#43A0BD"/>
</g>
</svg>
