<svg width="24" height="23" viewBox="0 0 24 23" fill="none" xmlns="http://www.w3.org/2000/svg">
<path d="M3.22445 22.5623C2.44565 22.5623 1.78646 22.2926 1.24688 21.753C0.707292 21.2134 0.4375 20.5542 0.4375 19.7754V16.7514C0.4375 16.4233 0.548243 16.1486 0.769729 15.9274C0.990958 15.7059 1.26563 15.5952 1.59375 15.5952C1.92187 15.5952 2.19654 15.7059 2.41777 15.9274C2.63926 16.1486 2.75 16.4233 2.75 16.7514V19.7754C2.75 19.8941 2.79946 20.0028 2.89839 20.1015C2.99705 20.2004 3.10574 20.2498 3.22445 20.2498H20.7756C20.8943 20.2498 21.0029 20.2004 21.1016 20.1015C21.2005 20.0028 21.25 19.8941 21.25 19.7754V16.7514C21.25 16.4233 21.3607 16.1486 21.5822 15.9274C21.8035 15.7059 22.0781 15.5952 22.4062 15.5952C22.7344 15.5952 23.009 15.7059 23.2303 15.9274C23.4518 16.1486 23.5625 16.4233 23.5625 16.7514V19.7754C23.5625 20.5542 23.2927 21.2134 22.7531 21.753C22.2135 22.2926 21.5543 22.5623 20.7756 22.5623H3.22445ZM10.8438 3.89045L7.87912 6.85508C7.64967 7.08427 7.37744 7.19745 7.06243 7.19463C6.74716 7.19155 6.46991 7.0704 6.2307 6.83118C6.00741 6.59222 5.89179 6.32153 5.88382 6.01911C5.87586 5.71668 5.99148 5.44586 6.2307 5.20665L11.0245 0.412835C11.1689 0.268432 11.3212 0.166683 11.4812 0.107586C11.6413 0.0482317 11.8142 0.0185547 12 0.0185547C12.1858 0.0185547 12.3587 0.0482317 12.5188 0.107586C12.6788 0.166683 12.8311 0.268432 12.9755 0.412835L17.7693 5.20665C17.9985 5.43584 18.1117 5.70422 18.1089 6.01178C18.1058 6.31909 17.9926 6.59222 17.7693 6.83118C17.5301 7.0704 17.2554 7.19399 16.9453 7.20195C16.6349 7.20992 16.3601 7.09429 16.1209 6.85508L13.1562 3.89045V15.6842C13.1562 16.0123 13.0455 16.287 12.824 16.5082C12.6028 16.7297 12.3281 16.8405 12 16.8405C11.6719 16.8405 11.3972 16.7297 11.176 16.5082C10.9545 16.287 10.8438 16.0123 10.8438 15.6842V3.89045Z" fill="#DADADA"/>
</svg>
