<svg width="24" height="25" viewBox="0 0 24 25" fill="none" xmlns="http://www.w3.org/2000/svg">
<mask id="mask0_9538_200" style="mask-type:alpha" maskUnits="userSpaceOnUse" x="0" y="0" width="24" height="25">
<rect y="0.5" width="24" height="24" fill="#D9D9D9"/>
</mask>
<g mask="url(#mask0_9538_200)">
<path d="M16.1 13.8L14.65 12.35C14.8 11.5667 14.575 10.8333 13.975 10.15C13.375 9.46665 12.6 9.19999 11.65 9.34999L10.2 7.89999C10.4833 7.76665 10.7708 7.66665 11.0625 7.59999C11.3542 7.53332 11.6667 7.49999 12 7.49999C13.25 7.49999 14.3125 7.93749 15.1875 8.81249C16.0625 9.68749 16.5 10.75 16.5 12C16.5 12.3333 16.4667 12.6458 16.4 12.9375C16.3333 13.2292 16.2333 13.5167 16.1 13.8ZM19.3 16.95L17.85 15.55C18.4833 15.0667 19.0458 14.5375 19.5375 13.9625C20.0292 13.3875 20.45 12.7333 20.8 12C19.9667 10.3167 18.7708 8.97916 17.2125 7.98749C15.6542 6.99582 13.9167 6.49999 12 6.49999C11.5167 6.49999 11.0417 6.53332 10.575 6.59999C10.1083 6.66665 9.65 6.76665 9.2 6.89999L7.65 5.34999C8.33333 5.06665 9.03333 4.85415 9.75 4.71249C10.4667 4.57082 11.2167 4.49999 12 4.49999C14.5167 4.49999 16.7583 5.19582 18.725 6.58749C20.6917 7.97916 22.1167 9.78332 23 12C22.6167 12.9833 22.1125 13.8958 21.4875 14.7375C20.8625 15.5792 20.1333 16.3167 19.3 16.95ZM19.8 23.1L15.6 18.95C15.0167 19.1333 14.4292 19.2708 13.8375 19.3625C13.2458 19.4542 12.6333 19.5 12 19.5C9.48333 19.5 7.24167 18.8042 5.275 17.4125C3.30833 16.0208 1.88333 14.2167 1 12C1.35 11.1167 1.79167 10.2958 2.325 9.53749C2.85833 8.77915 3.46667 8.09999 4.15 7.49999L1.4 4.69999L2.8 3.29999L21.2 21.7L19.8 23.1ZM5.55 8.89999C5.06667 9.33332 4.625 9.80832 4.225 10.325C3.825 10.8417 3.48333 11.4 3.2 12C4.03333 13.6833 5.22917 15.0208 6.7875 16.0125C8.34583 17.0042 10.0833 17.5 12 17.5C12.3333 17.5 12.6583 17.4792 12.975 17.4375C13.2917 17.3958 13.6167 17.35 13.95 17.3L13.05 16.35C12.8667 16.4 12.6917 16.4375 12.525 16.4625C12.3583 16.4875 12.1833 16.5 12 16.5C10.75 16.5 9.6875 16.0625 8.8125 15.1875C7.9375 14.3125 7.5 13.25 7.5 12C7.5 11.8167 7.5125 11.6417 7.5375 11.475C7.5625 11.3083 7.6 11.1333 7.65 10.95L5.55 8.89999Z" fill="#9C9C9C"/>
</g>
</svg>
