<svg width="20" height="20" viewBox="0 0 20 20" fill="none" xmlns="http://www.w3.org/2000/svg">
<mask id="mask0_7699_12996" style="mask-type:alpha" maskUnits="userSpaceOnUse" x="0" y="0" width="20" height="20">
<rect width="20" height="20" fill="#D9D9D9"/>
</mask>
<g mask="url(#mask0_7699_12996)">
<path d="M10.0013 14.1666C10.2374 14.1666 10.4353 14.0868 10.5951 13.927C10.7548 13.7673 10.8346 13.5694 10.8346 13.3333C10.8346 13.0972 10.7548 12.8993 10.5951 12.7395C10.4353 12.5798 10.2374 12.5 10.0013 12.5C9.76519 12.5 9.56727 12.5798 9.40755 12.7395C9.24783 12.8993 9.16797 13.0972 9.16797 13.3333C9.16797 13.5694 9.24783 13.7673 9.40755 13.927C9.56727 14.0868 9.76519 14.1666 10.0013 14.1666ZM10.0013 10.8333C10.2374 10.8333 10.4353 10.7534 10.5951 10.5937C10.7548 10.434 10.8346 10.2361 10.8346 9.99996V6.66663C10.8346 6.43051 10.7548 6.2326 10.5951 6.07288C10.4353 5.91315 10.2374 5.83329 10.0013 5.83329C9.76519 5.83329 9.56727 5.91315 9.40755 6.07288C9.24783 6.2326 9.16797 6.43051 9.16797 6.66663V9.99996C9.16797 10.2361 9.24783 10.434 9.40755 10.5937C9.56727 10.7534 9.76519 10.8333 10.0013 10.8333ZM10.0013 18.3333C8.84852 18.3333 7.76519 18.1145 6.7513 17.677C5.73741 17.2395 4.85547 16.6458 4.10547 15.8958C3.35547 15.1458 2.76172 14.2638 2.32422 13.25C1.88672 12.2361 1.66797 11.1527 1.66797 9.99996C1.66797 8.84718 1.88672 7.76385 2.32422 6.74996C2.76172 5.73607 3.35547 4.85413 4.10547 4.10413C4.85547 3.35413 5.73741 2.76038 6.7513 2.32288C7.76519 1.88538 8.84852 1.66663 10.0013 1.66663C11.1541 1.66663 12.2374 1.88538 13.2513 2.32288C14.2652 2.76038 15.1471 3.35413 15.8971 4.10413C16.6471 4.85413 17.2409 5.73607 17.6784 6.74996C18.1159 7.76385 18.3346 8.84718 18.3346 9.99996C18.3346 11.1527 18.1159 12.2361 17.6784 13.25C17.2409 14.2638 16.6471 15.1458 15.8971 15.8958C15.1471 16.6458 14.2652 17.2395 13.2513 17.677C12.2374 18.1145 11.1541 18.3333 10.0013 18.3333Z" fill="#43A0BD"/>
</g>
</svg>
