<svg width="16" height="18" viewBox="0 0 16 18" fill="none" xmlns="http://www.w3.org/2000/svg">
<path fill-rule="evenodd" clip-rule="evenodd" d="M5.75 0.75H10.25C11.0784 0.75 11.75 1.42157 11.75 2.25V3H14C14.8284 3 15.5 3.67157 15.5 4.5V6C15.5 6.82843 14.8284 7.5 14 7.5H13.9399L13.25 15.75C13.25 16.5784 12.5785 17.25 11.75 17.25H4.25003C3.4216 17.25 2.75003 16.5784 2.75262 15.8123L2.05993 7.5H2C1.17157 7.5 0.5 6.82843 0.5 6V4.5C0.5 3.67157 1.17157 3 2 3H4.25V2.25C4.25 1.42157 4.92157 0.75 5.75 0.75ZM2 4.5H14V6H2V4.5ZM3.56488 7.5H12.4349L11.7526 15.6877L11.75 15.75H4.25002L3.56488 7.5ZM10.25 2.25V3H5.75V2.25H10.25Z" fill="#359E98"/>
</svg>
