<svg width="27" height="26" viewBox="0 0 27 26" fill="none" xmlns="http://www.w3.org/2000/svg">
<path d="M24.07 6.52H25.07V5.52V4.694V3.694H24.07H22.466V2.132V1.132H21.466H20.584H19.584V2.132V2.96589C17.6938 1.72307 15.4313 1 13 1C6.37258 1 1 6.37258 1 13C1 19.6274 6.37258 25 13 25C19.6274 25 25 19.6274 25 13C25 10.6131 24.3031 8.38899 23.1017 6.52H24.07ZM9.27116 15.2806C8.8594 15.3523 8.46707 15.4386 8.09606 15.5407C7.24963 15.7735 6.47388 16.0993 5.82818 16.5493C5.298 15.4803 5 14.2758 5 13C5 8.58172 8.58172 5 13 5C14.4489 5 15.8078 5.38518 16.98 6.05873V6.52H17.6924C18.427 7.05284 19.0674 7.70753 19.584 8.45438V9.068H19.9686C20.6252 10.2292 21 11.5708 21 13C21 14.2758 20.702 15.4803 20.1718 16.5492C19.5261 16.0993 18.7504 15.7735 17.9039 15.5407C17.5417 15.441 17.1591 15.3563 16.7579 15.2857C17.5709 14.2777 18 12.8906 18 11.2C18 8.45747 16.0507 6 13 6C9.99766 6 8 8.23309 8 11C8 12.7819 8.43521 14.2346 9.27116 15.2806ZM13 19C14.7344 19 16.0445 19.1685 16.923 19.4328C17.1496 19.501 17.3294 19.5696 17.4719 19.6345C16.1952 20.497 14.6572 21 13 21C11.3428 21 9.80478 20.497 8.52812 19.6345C8.67062 19.5696 8.85044 19.501 9.077 19.4328C9.95549 19.1685 11.2656 19 13 19ZM13 13C12.6321 13 12.4694 12.9 12.3548 12.7482C12.195 12.5367 12 12.0476 12 11C12 10.6143 12.1164 10.3826 12.2426 10.2525C12.3643 10.1272 12.5879 10 13 10C13.3291 10 13.5535 10.1205 13.7066 10.2936C13.8696 10.4781 14 10.7812 14 11.2C14 12.1476 13.8094 12.5778 13.6631 12.7594C13.5526 12.8964 13.3813 13 13 13Z" fill="#359E98" stroke="white" stroke-width="2"/>
</svg>
