<svg width="17" height="21" viewBox="0 0 17 21" fill="none" xmlns="http://www.w3.org/2000/svg">
<path d="M0.6 8.80645C0.6 10.0457 1.0784 11.3949 1.84983 12.753C2.61769 14.1048 3.64981 15.42 4.69552 16.5793C5.73944 17.7365 6.78532 18.7257 7.57109 19.4261C7.96357 19.7759 8.29012 20.0527 8.51775 20.2415C8.51779 20.2415 8.51783 20.2415 8.51787 20.2416C8.74359 20.0708 9.0634 19.8223 9.44633 19.5064C10.2293 18.8605 11.2716 17.937 12.3119 16.8252C14.4223 14.5697 16.4 11.6698 16.4 8.80645C16.4 4.25395 12.8432 0.6 8.5 0.6C4.1568 0.6 0.6 4.25395 0.6 8.80645Z" fill="#F5C243" stroke="#FFF7E4" stroke-width="1.2"/>
</svg>
